<?xml version="1.0" encoding="utf-8"?>
<!-- Generator: Adobe Illustrator 17.0.0, SVG Export Plug-In . SVG Version: 6.00 Build 0)  -->
<!DOCTYPE svg PUBLIC "-//W3C//DTD SVG 1.1//EN" "http://www.w3.org/Graphics/SVG/1.1/DTD/svg11.dtd">
<svg version="1.1" id="圖層_1" xmlns="http://www.w3.org/2000/svg" xmlns:xlink="http://www.w3.org/1999/xlink" x="0px" y="0px"
	 width="74.222px" height="74.649px" viewBox="0 0 74.222 74.649" enable-background="new 0 0 74.222 74.649" xml:space="preserve">
<g id="XMLID_67_">
	<path id="XMLID_1322_" fill="#A52937" d="M15.319,11.42c0-0.708,0-1.373,0-2.037c0-0.179-0.004-0.358,0.001-0.536
		c0.019-0.725,0.418-1.129,1.14-1.133c1.228-0.007,2.456-0.002,3.684-0.002c0.128,0,0.257,0,0.385,0
		c0.037-0.56,0.026-1.089,0.112-1.601c0.403-2.397,2.389-4.2,4.851-4.616c0.456-0.077,0.924-0.104,1.387-0.105
		c2.861-0.009,5.723-0.051,8.583,0.009c2.549,0.053,4.504,1.164,5.618,3.543c0.335,0.715,0.42,1.484,0.429,2.264
		c0.008,0.71-0.104,0.612,0.632,0.616c1.097,0.005,2.194,0,3.29,0.002c0.974,0.002,1.324,0.359,1.327,1.345
		c0.002,0.739,0.003,1.478,0.005,2.217c0,0.023,0.009,0.046,0.027,0.13c0.124,0,0.26,0,0.397,0c3.076,0,6.152-0.017,9.227,0.008
		c1.363,0.011,2.532,0.515,3.399,1.611c0.538,0.68,0.791,1.464,0.796,2.322c0.01,1.586,0.004,3.171,0.004,4.757
		c0,0.469-0.172,0.852-0.618,1.038c-0.407,0.17-0.819,0.142-1.179-0.15c-0.305-0.248-0.377-0.589-0.376-0.961
		c0.003-1.478-0.035-2.958,0.012-4.435c0.04-1.247-0.945-1.984-1.899-1.993c-3.219-0.03-6.438-0.012-9.656-0.011
		c-0.033,0-0.066,0.017-0.14,0.038c0,0.122,0,0.25,0,0.377c0,0.882,0.008,1.765-0.003,2.647c-0.01,0.781-0.402,1.177-1.166,1.177
		c-9.74,0.002-19.48,0.002-29.22,0c-0.758,0-1.142-0.385-1.148-1.145c-0.008-1.012-0.002-2.023-0.002-3.075
		c-0.15-0.009-0.275-0.022-0.4-0.022c-3.028-0.001-6.056,0.001-9.084-0.003c-0.52-0.001-0.992,0.139-1.404,0.448
		c-0.451,0.338-0.704,0.78-0.702,1.372c0.01,2.706,0.004,5.412,0.004,8.119c0,15.188,0,30.377,0,45.565
		c0,1.234,0.791,2.034,2.025,2.034c16.917,0.001,33.834,0.001,50.751,0c1.279,0,2.033-0.765,2.033-2.047
		c0-2.432,0.001-4.864,0-7.296c0-0.488,0.185-0.874,0.65-1.05c0.441-0.167,0.896-0.121,1.215,0.252
		c0.164,0.192,0.293,0.484,0.295,0.731c0.02,2.551,0.045,5.103-0.003,7.653c-0.036,1.896-1.597,3.523-3.493,3.758
		c-0.33,0.041-0.664,0.063-0.997,0.063c-16.857,0.003-33.715,0.003-50.572,0.002c-1.93,0-3.605-1.319-3.993-3.156
		c-0.068-0.324-0.088-0.663-0.088-0.995C1.455,51.291,1.468,33.433,1.442,15.574c-0.004-2.388,1.979-4.125,4.087-4.142
		c3.099-0.025,6.199-0.009,9.299-0.011C14.97,11.42,15.112,11.42,15.319,11.42z M44.557,10.023c-9.078,0-18.117,0-27.155,0
		c0,1.957,0,3.884,0,5.834c9.057,0,18.096,0,27.155,0C44.557,13.905,44.557,11.969,44.557,10.023z M22.756,7.69
		c5.534,0,11.045,0,16.636,0c-0.059-0.532-0.056-1.05-0.183-1.535c-0.386-1.483-1.913-2.578-3.64-2.591
		c-3.015-0.022-6.031-0.03-9.046,0.001C24.133,3.589,22.611,5.272,22.756,7.69z"/>
	<path id="XMLID_1319_" fill="#A52937" d="M38.895,44.617c0.013-0.063,0.035-0.205,0.069-0.342c0.28-1.132,0.556-2.265,0.851-3.394
		c0.062-0.239,0.018-0.391-0.162-0.56c-0.851-0.801-1.686-1.617-2.53-2.426c-0.683-0.654-0.691-1.174-0.022-1.863
		c0.963-0.992,1.922-1.989,2.892-2.974c0.17-0.173,0.211-0.324,0.157-0.565c-0.307-1.371-0.594-2.745-0.881-4.12
		c-0.156-0.747,0.223-1.323,0.964-1.482c1.036-0.221,2.071-0.447,3.111-0.653c0.268-0.053,0.394-0.161,0.455-0.44
		c0.218-0.988,0.469-1.968,0.709-2.951c0.216-0.886,0.79-1.233,1.678-1.012c1.132,0.281,2.266,0.556,3.394,0.854
		c0.252,0.067,0.412,0.032,0.592-0.16c0.808-0.86,1.633-1.704,2.45-2.556c0.592-0.617,1.188-0.629,1.791-0.027
		c0.971,0.968,1.943,1.934,2.907,2.909c0.164,0.166,0.303,0.238,0.556,0.18c1.382-0.313,2.769-0.599,4.155-0.895
		c0.866-0.185,1.295,0.087,1.477,0.943c0.22,1.036,0.443,2.072,0.649,3.111c0.043,0.219,0.132,0.318,0.354,0.366
		c1.093,0.24,2.181,0.499,3.271,0.752c0.701,0.162,1.062,0.709,0.895,1.413c-0.283,1.193-0.581,2.382-0.89,3.568
		c-0.056,0.216-0.02,0.346,0.139,0.497c0.865,0.82,1.721,1.65,2.577,2.48c0.649,0.629,0.661,1.167,0.034,1.82
		c-0.958,0.998-1.915,1.996-2.889,2.977c-0.203,0.204-0.246,0.388-0.186,0.657c0.298,1.336,0.58,2.676,0.867,4.014
		c0.165,0.773-0.2,1.352-0.96,1.515c-1.036,0.222-2.071,0.448-3.111,0.653c-0.271,0.053-0.395,0.167-0.456,0.441
		c-0.225,1.011-0.477,2.015-0.719,3.022c-0.19,0.789-0.795,1.157-1.584,0.962c-1.167-0.29-2.335-0.574-3.497-0.88
		c-0.24-0.063-0.39-0.027-0.561,0.155c-0.816,0.869-1.645,1.726-2.474,2.583c-0.6,0.621-1.141,0.63-1.76,0.032
		c-1.02-0.986-2.04-1.972-3.054-2.964c-0.149-0.146-0.278-0.202-0.5-0.152c-1.406,0.315-2.816,0.606-4.224,0.91
		c-0.809,0.175-1.258-0.107-1.429-0.916c-0.22-1.036-0.441-2.072-0.654-3.11c-0.045-0.217-0.122-0.34-0.37-0.395
		c-1.068-0.24-2.13-0.509-3.193-0.77C39.199,45.682,38.891,45.287,38.895,44.617z M66.198,29.199
		c-0.996-0.241-1.939-0.486-2.891-0.692c-0.63-0.137-0.959-0.507-1.08-1.124c-0.191-0.979-0.404-1.953-0.612-2.947
		c-0.12,0.012-0.214,0.012-0.305,0.031c-1.141,0.242-2.283,0.48-3.421,0.733c-0.586,0.13-1.07,0.001-1.491-0.443
		c-0.541-0.571-1.109-1.115-1.663-1.674c-0.359-0.362-0.714-0.727-1.095-1.116c-0.115,0.127-0.191,0.217-0.273,0.302
		c-0.715,0.751-1.433,1.499-2.146,2.252c-0.379,0.4-0.815,0.529-1.359,0.381c-0.918-0.25-1.846-0.466-2.77-0.696
		c-0.179-0.045-0.358-0.088-0.556-0.136c-0.245,1.019-0.485,1.988-0.709,2.961c-0.127,0.554-0.485,0.859-1.012,0.984
		c-0.463,0.11-0.932,0.195-1.397,0.294c-0.554,0.117-1.107,0.237-1.67,0.357c0.024,0.142,0.036,0.236,0.056,0.328
		c0.252,1.175,0.509,2.349,0.757,3.525c0.101,0.476-0.018,0.892-0.368,1.241c-0.785,0.782-1.564,1.571-2.353,2.349
		c-0.168,0.166-0.37,0.299-0.569,0.457c0.89,0.859,1.689,1.644,2.505,2.41c0.45,0.422,0.644,0.88,0.447,1.501
		c-0.18,0.566-0.298,1.152-0.441,1.729c-0.124,0.502-0.245,1.005-0.372,1.522c1.015,0.248,1.983,0.491,2.955,0.719
		c0.551,0.129,0.861,0.476,0.983,1.01c0.077,0.336,0.143,0.675,0.214,1.013c0.143,0.684,0.287,1.368,0.433,2.069
		c1.272-0.276,2.505-0.538,3.734-0.814c0.555-0.124,1.021-0.033,1.431,0.397c0.657,0.69,1.347,1.349,2.015,2.03
		c0.256,0.261,0.489,0.544,0.745,0.83c0.796-0.831,1.55-1.563,2.236-2.354c0.53-0.611,1.097-0.772,1.869-0.539
		c0.988,0.298,2.002,0.512,3.027,0.767c0.041-0.148,0.078-0.271,0.109-0.395c0.209-0.855,0.428-1.708,0.62-2.567
		c0.129-0.575,0.494-0.874,1.042-0.988c0.827-0.172,1.656-0.336,2.484-0.506c0.181-0.037,0.36-0.085,0.558-0.133
		c-0.274-1.272-0.536-2.505-0.807-3.735c-0.123-0.558,0-1.027,0.418-1.431c0.616-0.597,1.212-1.216,1.824-1.817
		c0.322-0.316,0.66-0.615,1.012-0.942c-0.844-0.808-1.609-1.574-2.412-2.299c-0.539-0.487-0.703-1.009-0.492-1.72
		C65.711,31.311,65.931,30.275,66.198,29.199z"/>
	<path id="XMLID_1318_" fill="#A52937" d="M12.033,23.857c0,0.169,0,0.297,0,0.424c0,4.815,0.004,9.631-0.008,14.446
		c-0.001,0.345,0.093,0.436,0.437,0.435c4.744-0.011,9.488-0.008,14.232-0.008c0.128,0,0.256,0,0.419,0c0-0.171,0-0.299,0-0.427
		c0-1.454-0.006-2.908,0.003-4.363c0.005-0.797,0.646-1.281,1.399-1.073c0.418,0.116,0.673,0.393,0.74,0.824
		c0.026,0.164,0.031,0.332,0.031,0.499c0.002,1.788,0.003,3.576,0.001,5.364c-0.001,1.004-0.348,1.345-1.36,1.345
		c-5.602,0-11.204,0-16.807,0c-0.694,0-1.099-0.266-1.22-0.806c-0.031-0.138-0.03-0.284-0.03-0.426
		c-0.001-5.733-0.002-11.467-0.001-17.2c0-0.819,0.383-1.216,1.197-1.217c5.674-0.004,11.347-0.003,17.021,0
		c0.61,0,1.025,0.303,1.155,0.817c0.129,0.506-0.054,1.014-0.504,1.218c-0.238,0.108-0.528,0.14-0.795,0.141
		c-5.137,0.008-10.275,0.006-15.412,0.006C12.381,23.857,12.229,23.857,12.033,23.857z"/>
	<path id="XMLID_1317_" fill="#A52937" d="M40.212,62.607c-0.6,0.549-1.152,1.053-1.702,1.56c-0.737,0.678-1.472,1.359-2.208,2.037
		c-0.441,0.406-1.003,0.493-1.434,0.223c-0.406-0.254-0.583-0.853-0.396-1.408c0.857-2.536,1.721-5.071,2.582-7.606
		c0.957-2.817,1.912-5.634,2.87-8.451c0.246-0.723,0.772-1.057,1.404-0.896c0.659,0.168,0.942,0.729,0.7,1.422
		c-0.471,1.348-0.951,2.693-1.428,4.039c-0.914,2.58-1.829,5.159-2.742,7.739c-0.038,0.109-0.066,0.221-0.048,0.368
		c0.456-0.411,0.912-0.822,1.367-1.234c0.265-0.24,0.523-0.489,0.795-0.72c0.387-0.33,0.835-0.474,1.327-0.296
		c0.458,0.166,0.611,0.569,0.685,1.012c0.164,0.986,0.328,1.971,0.511,3.065c0.089-0.214,0.143-0.33,0.187-0.45
		c1.223-3.392,2.445-6.784,3.667-10.176c0.024-0.067,0.048-0.135,0.074-0.201c0.239-0.606,0.819-0.916,1.363-0.729
		c0.614,0.211,0.923,0.831,0.7,1.47c-0.67,1.921-1.354,3.838-2.032,5.756c-1.058,2.996-2.117,5.992-3.173,8.988
		c-0.197,0.558-0.587,0.84-1.153,0.815c-0.46-0.021-0.821-0.365-0.931-0.935c-0.198-1.029-0.377-2.061-0.564-3.092
		C40.496,64.161,40.359,63.414,40.212,62.607z"/>
	<path id="XMLID_1316_" fill="#A52937" d="M65.231,63.348c0.1-0.968,0.216-1.935,0.292-2.905c0.039-0.498,0.262-0.817,0.709-1.017
		c0.43-0.192,0.798-0.062,1.129,0.202c0.634,0.505,1.252,1.029,1.877,1.545c0.154,0.127,0.308,0.253,0.541,0.444
		c-0.075-0.202-0.111-0.31-0.154-0.416c-1.595-3.925-3.19-7.849-4.785-11.774c-0.192-0.471-0.027-0.955,0.418-1.239
		c0.495-0.316,1.007-0.279,1.357,0.122c0.122,0.14,0.215,0.315,0.286,0.489c2.164,5.286,4.323,10.575,6.482,15.863
		c0.208,0.51,0.137,0.92-0.198,1.209c-0.41,0.355-0.891,0.343-1.393-0.064c-1.167-0.946-2.325-1.901-3.488-2.852
		c-0.211-0.172-0.423-0.343-0.689-0.56c-0.081,0.635-0.157,1.216-0.227,1.798c-0.144,1.182-0.281,2.366-0.429,3.548
		c-0.08,0.644-0.469,1.033-1.078,1.104c-0.469,0.054-0.927-0.255-1.146-0.797c-1.966-4.853-3.931-9.707-5.893-14.561
		c-0.272-0.674-0.037-1.31,0.564-1.556c0.591-0.243,1.191,0.054,1.472,0.753c1.287,3.202,2.568,6.407,3.851,9.61
		c0.141,0.352,0.284,0.704,0.426,1.056C65.18,63.35,65.205,63.349,65.231,63.348z"/>
	<path id="XMLID_1315_" fill="#A52937" d="M19.634,54.771c3.802,0,7.605-0.001,11.407,0.001c0.712,0,1.093,0.307,1.181,0.929
		c0.095,0.67-0.346,1.198-1.024,1.226c-0.131,0.005-0.262,0.003-0.393,0.003c-7.45,0-14.9,0-22.349,0c-0.072,0-0.143,0-0.215,0
		c-0.771-0.006-1.225-0.415-1.214-1.091c0.01-0.671,0.448-1.066,1.2-1.067c1.967-0.003,3.933-0.001,5.9-0.001
		C15.962,54.771,17.798,54.771,19.634,54.771z"/>
	<path id="XMLID_1314_" fill="#A52937" d="M19.634,64.574c-3.791,0-7.583,0.001-11.374-0.001c-0.853,0-1.376-0.615-1.189-1.383
		c0.106-0.435,0.43-0.723,0.876-0.767c0.154-0.015,0.309-0.018,0.464-0.018c7.487-0.001,14.975-0.002,22.462,0.003
		c0.247,0,0.509,0.009,0.737,0.09c0.436,0.155,0.672,0.618,0.619,1.1c-0.057,0.516-0.378,0.878-0.865,0.956
		c-0.152,0.024-0.309,0.019-0.464,0.019C27.145,64.574,23.389,64.574,19.634,64.574z"/>
	<path id="XMLID_1313_" fill="#A52937" d="M19.528,49.276c-3.813,0-7.625,0.002-11.438-0.002c-0.772-0.001-1.204-0.444-1.158-1.167
		c0.032-0.517,0.444-0.939,0.963-0.982c0.142-0.012,0.286-0.009,0.429-0.009c7.47,0,14.941-0.001,22.411,0.002
		c0.225,0,0.46-0.007,0.673,0.051c0.508,0.138,0.778,0.631,0.703,1.213c-0.064,0.496-0.455,0.873-0.966,0.884
		c-0.786,0.017-1.573,0.009-2.359,0.009C25.7,49.276,22.614,49.276,19.528,49.276z"/>
	<path id="XMLID_1312_" fill="#A52937" d="M19.252,33.682c2.155-1.57,4.273-3.111,6.39-4.654c0.895-0.652,1.789-1.306,2.684-1.958
		c0.096-0.07,0.193-0.142,0.297-0.197c0.518-0.272,1.159-0.143,1.442,0.286c0.323,0.49,0.213,1.172-0.276,1.533
		c-1.177,0.872-2.363,1.732-3.545,2.596c-2.125,1.553-4.247,3.109-6.378,4.653c-0.207,0.15-0.456,0.264-0.703,0.33
		c-0.486,0.13-0.879-0.066-1.101-0.501c-0.952-1.865-1.903-3.73-2.853-5.596c-0.305-0.599-0.127-1.113,0.487-1.422
		c0.558-0.281,1.085-0.111,1.371,0.468c0.659,1.333,1.306,2.672,1.959,4.008C19.093,33.366,19.162,33.503,19.252,33.682z"/>
	<path id="XMLID_1304_" fill="#A52937" d="M43.82,36.554c-0.039-5.103,4.234-9.77,9.843-9.851c5.352-0.077,9.88,4.304,10.001,9.769
		c0.117,5.289-4.185,10.014-9.829,10.081C48.439,46.618,43.789,42.212,43.82,36.554z M46.107,36.736
		c0.045,4.255,3.572,7.758,7.861,7.638c4.521-0.126,7.835-3.73,7.616-8.193c-0.206-4.18-3.821-7.494-8.157-7.296
		C49.356,29.07,45.94,32.714,46.107,36.736z"/>
	<path id="XMLID_1300_" fill="#A52937" d="M52.334,38.486c1.27-1.349,2.51-2.667,3.75-3.985c0.433-0.46,0.861-0.923,1.3-1.378
		c0.473-0.491,1.114-0.538,1.558-0.126c0.477,0.444,0.491,1.063,0.011,1.579c-1.962,2.111-3.927,4.22-5.898,6.323
		c-0.595,0.635-1.272,0.572-1.8-0.157c-0.977-1.35-1.948-2.705-2.917-4.061c-0.363-0.508-0.253-1.253,0.224-1.601
		c0.448-0.327,1.145-0.192,1.521,0.317c0.692,0.939,1.372,1.888,2.057,2.832C52.194,38.305,52.253,38.379,52.334,38.486z"/>
</g>
</svg>
