<?xml version="1.0" encoding="utf-8"?>
<!-- Generator: Adobe Illustrator 17.0.0, SVG Export Plug-In . SVG Version: 6.00 Build 0)  -->
<!DOCTYPE svg PUBLIC "-//W3C//DTD SVG 1.1//EN" "http://www.w3.org/Graphics/SVG/1.1/DTD/svg11.dtd">
<svg version="1.1" id="圖層_1" xmlns="http://www.w3.org/2000/svg" xmlns:xlink="http://www.w3.org/1999/xlink" x="0px" y="0px"
	 width="74.222px" height="74.649px" viewBox="0 0 74.222 74.649" enable-background="new 0 0 74.222 74.649" xml:space="preserve">
<g id="XMLID_65_">
	<path id="XMLID_16839_" fill="#A52937" d="M37.87,60.895c-10.519,0.029-19.092-8.514-19.094-19.078
		c-0.002-10.285,8.425-19.007,19.076-18.992c10.47,0.014,18.997,8.505,18.992,19.07C56.84,52.398,48.248,60.964,37.87,60.895z
		 M40.615,40.776c-0.143-2.432-0.284-4.823-0.425-7.214c-1.652,0-3.219,0-4.8,0c-0.251,2.408-0.425,4.795-0.423,7.214
		C36.836,40.776,38.669,40.776,40.615,40.776z M33.237,33.554c-0.023-0.003-0.067-0.015-0.111-0.015
		c-1.413-0.001-2.825,0.004-4.238-0.007c-0.212-0.002-0.269,0.103-0.328,0.267c-0.589,1.615-0.939,3.284-1.125,4.989
		c-0.071,0.657-0.107,1.317-0.159,1.98c1.897,0,3.737,0,5.532,0C32.952,38.354,33.093,35.972,33.237,33.554z M46.868,33.563
		c-1.567,0-3.09,0-4.582,0c0.138,2.416,0.275,4.808,0.412,7.205c1.836,0,3.678,0,5.527,0C48.12,38.278,47.654,35.889,46.868,33.563z
		 M42.71,42.929c-0.144,2.287-0.285,4.537-0.428,6.802c1.592,0,3.184,0,4.797,0c0.663-2.216,1.049-4.475,1.148-6.802
		C46.363,42.929,44.531,42.929,42.71,42.929z M33.24,49.747c-0.145-2.305-0.288-4.557-0.429-6.805c-1.824,0-3.666,0-5.534,0
		c0.053,0.637,0.093,1.244,0.157,1.848c0.169,1.591,0.49,3.149,1.01,4.666c0.074,0.217,0.167,0.3,0.408,0.297
		c1.218-0.014,2.435-0.007,3.653-0.007C32.755,49.747,33.005,49.747,33.24,49.747z M34.942,42.934
		c0.136,2.283,0.271,4.541,0.405,6.794c1.65,0,3.207,0,4.787,0c0.235-2.27,0.436-4.525,0.405-6.794
		C38.66,42.934,36.828,42.934,34.942,42.934z M50.222,40.764c1.499,0,2.958,0,4.429,0c-0.016-0.182-0.031-0.33-0.041-0.478
		c-0.161-2.34-0.838-4.518-2.04-6.534c-0.094-0.158-0.19-0.226-0.377-0.219c-0.436,0.015-0.872,0.005-1.308,0.005
		c-0.627,0-1.254,0-1.928,0C49.748,35.915,50.107,38.321,50.222,40.764z M26.456,33.537c-1.095,0-2.139,0.008-3.182-0.006
		c-0.228-0.003-0.344,0.071-0.451,0.268c-0.746,1.38-1.316,2.828-1.653,4.358c-0.188,0.855-0.298,1.727-0.448,2.616
		c1.536,0,2.988,0,4.47,0C25.294,38.306,25.677,35.905,26.456,33.537z M26.455,49.747c-0.772-2.238-1.039-4.51-1.161-6.814
		c-1.484,0-2.937,0-4.456,0c0.085,0.718,0.146,1.412,0.253,2.099c0.247,1.579,0.77,3.067,1.534,4.469
		c0.059,0.108,0.211,0.233,0.321,0.234C24.094,49.753,25.242,49.747,26.455,49.747z M49.285,49.713
		c0.055,0.014,0.088,0.03,0.12,0.03c1.091,0.002,2.182,0.01,3.273-0.007c0.105-0.002,0.25-0.138,0.303-0.247
		c0.698-1.416,1.23-2.892,1.518-4.446c0.128-0.691,0.193-1.395,0.288-2.106c-1.537,0-2.989,0-4.46,0
		C50.213,45.245,49.837,47.491,49.285,49.713z M35.632,51.973c0,0.096-0.007,0.154,0.001,0.209c0.24,1.764,0.542,3.515,1.178,5.186
		c0.174,0.456,0.429,0.884,0.664,1.314c0.123,0.225,0.294,0.253,0.441,0.012c0.173-0.283,0.39-0.555,0.49-0.863
		c0.386-1.186,0.76-2.377,1.084-3.581c0.198-0.737,0.298-1.5,0.446-2.278C38.478,51.973,37.07,51.973,35.632,51.973z M33.408,51.861
		c-1.321,0-2.691,0-4.12,0c1.239,2.726,2.87,5.03,5.555,6.351C34.368,56.111,33.892,54.005,33.408,51.861z M40.542,58.225
		c2.715-1.353,4.356-3.648,5.587-6.367c-1.448,0-2.821,0-4.187,0c-0.188,1.08-0.337,2.148-0.568,3.198
		C41.141,56.114,40.827,57.154,40.542,58.225z M37.796,24.912c-0.057,0.009-0.115,0.018-0.172,0.028
		c-1.236,1.974-1.549,4.226-1.935,6.486c1.394,0,2.732,0,4.115,0c-0.059-0.351-0.108-0.676-0.17-0.998
		c-0.294-1.519-0.606-3.036-1.234-4.461C38.239,25.598,38,25.263,37.796,24.912z M34.913,25.556
		c-2.641,1.264-4.224,3.451-5.523,5.967c1.409,0,2.755,0,4.082,0c0.201-1.014,0.366-2.011,0.602-2.99
		C34.313,27.548,34.621,26.581,34.913,25.556z M40.504,25.497c0.761,1.919,1.093,3.927,1.413,5.919c1.348,0,2.649,0,3.993,0
		C44.675,28.884,43.129,26.703,40.504,25.497z M30.007,56.907c-1.161-1.507-2.092-3.135-2.848-4.868
		c-0.043-0.097-0.219-0.191-0.335-0.193c-0.815-0.017-1.631-0.01-2.447-0.008c-0.095,0-0.191,0.015-0.341,0.028
		C25.647,54.062,27.594,55.759,30.007,56.907z M51.488,51.862c-0.183-0.011-0.283-0.023-0.383-0.023
		c-0.781-0.001-1.563,0.009-2.344-0.007c-0.248-0.005-0.363,0.077-0.449,0.309c-0.476,1.288-1.123,2.488-1.923,3.603
		c-0.278,0.388-0.581,0.758-0.873,1.137C47.931,55.75,49.822,54.005,51.488,51.862z M30.022,26.752
		c-2.203,1.193-4.091,2.688-5.683,4.69c0.972,0,1.853,0.007,2.733-0.011c0.081-0.002,0.18-0.149,0.235-0.249
		c0.392-0.713,0.745-1.45,1.17-2.143C28.948,28.273,29.482,27.545,30.022,26.752z M45.514,26.758
		c0.532,0.753,1.074,1.438,1.522,2.179c0.455,0.752,0.813,1.564,1.231,2.339c0.048,0.089,0.213,0.16,0.325,0.162
		c0.769,0.014,1.538,0.008,2.306,0.006c0.07,0,0.139-0.025,0.249-0.047C49.582,29.447,47.708,27.95,45.514,26.758z"/>
	<path id="XMLID_16835_" fill="#A52937" d="M57.691,14.563c-3.689-2.615-3.739-7.318-1.01-10.025
		c2.573-2.553,6.776-2.609,9.351,0.209c2.365,2.589,2.635,6.944-1.221,9.729c0.365,0.034,0.686,0.05,1.002,0.096
		c3.53,0.515,6.187,3.423,6.362,7.003c0.058,1.192,0.045,2.389,0.039,3.583c-0.004,0.747-0.395,1.124-1.139,1.125
		c-6.607,0.004-13.214,0.004-19.82,0c-0.673,0-1.107-0.349-1.113-0.964c-0.013-1.423-0.076-2.856,0.058-4.269
		c0.299-3.141,2.859-5.792,5.985-6.323C56.669,14.644,57.164,14.619,57.691,14.563z M70.167,24.075
		c-0.054-1.107,0.013-2.202-0.184-3.248c-0.478-2.546-2.614-4.219-5.247-4.238c-1.527-0.011-3.055-0.009-4.582,0
		c-1.09,0.006-2.19-0.05-3.268,0.07c-2.054,0.229-3.482,1.378-4.292,3.271c-0.564,1.316-0.334,2.712-0.344,4.081
		c0,0.017,0.026,0.035,0.049,0.065C58.212,24.075,64.135,24.075,70.167,24.075z M56.86,9.132c0.006,2.447,1.981,4.42,4.423,4.418
		c2.411-0.002,4.42-2.004,4.417-4.4c-0.004-2.409-2.012-4.434-4.395-4.432C58.793,4.72,56.854,6.646,56.86,9.132z"/>
	<path id="XMLID_16831_" fill="#A52937" d="M17.482,60.354c0.419,0.046,0.814,0.076,1.206,0.134c3.017,0.446,5.574,2.94,6.038,5.956
		c0.134,0.868,0.113,1.761,0.141,2.644c0.02,0.631,0.015,1.264-0.001,1.895c-0.016,0.647-0.389,1.016-1.031,1.051
		c-0.115,0.006-0.23,0.005-0.345,0.005c-6.445,0-12.89,0-19.335,0c-0.149,0-0.299-0.001-0.448-0.013
		C3.196,71.982,2.873,71.67,2.8,71.156c-0.006-0.045-0.017-0.091-0.016-0.137c0.008-1.332-0.064-2.67,0.041-3.994
		c0.257-3.247,2.813-5.977,6.019-6.519c0.492-0.083,0.995-0.108,1.545-0.166c-1.966-1.417-3.026-3.281-2.972-5.693
		c0.039-1.723,0.737-3.186,1.957-4.385c2.555-2.511,6.564-2.475,9.126,0.01C20.825,52.529,21.644,57.433,17.482,60.354z
		 M22.747,69.937c0-0.914,0.042-1.799-0.008-2.678c-0.139-2.46-2.398-4.705-4.857-4.754c-2.686-0.053-5.375-0.042-8.062,0.002
		c-1.974,0.032-3.888,1.485-4.594,3.325c-0.508,1.326-0.308,2.696-0.333,4.054c0,0.016,0.029,0.033,0.046,0.052
		C10.862,69.937,16.787,69.937,22.747,69.937z M13.928,59.433c2.425-0.004,4.423-1.997,4.417-4.404
		c-0.006-2.44-2.003-4.452-4.419-4.451c-2.468,0.001-4.429,1.962-4.421,4.42C9.513,57.453,11.492,59.438,13.928,59.433z"/>
	<path id="XMLID_16827_" fill="#A52937" d="M57.726,60.358c-3.77-2.564-3.665-7.339-1.2-9.902c2.539-2.64,6.517-2.782,9.214-0.268
		c0.974,0.907,1.601,2.03,1.885,3.337c0.286,1.317,0.192,2.601-0.342,3.845c-0.524,1.222-1.37,2.181-2.424,2.921
		c0.759,0.158,1.535,0.231,2.247,0.483c2.775,0.982,4.51,2.945,4.966,5.85c0.226,1.438,0.125,2.932,0.129,4.4
		c0.002,0.643-0.388,0.977-1.027,1.01c-0.115,0.006-0.23,0.004-0.345,0.004c-6.446,0-12.891,0-19.337,0
		c-0.138,0-0.276,0-0.413-0.011c-0.528-0.041-0.928-0.358-0.93-0.881c-0.006-1.617-0.181-3.244,0.115-4.848
		c0.59-3.194,3.452-5.694,6.688-5.887C57.201,60.397,57.448,60.378,57.726,60.358z M70.15,69.93
		c-0.036-1.011-0.007-2.001-0.117-2.976c-0.268-2.376-2.455-4.4-4.84-4.446c-2.64-0.05-5.283-0.063-7.923,0.001
		c-2.01,0.049-3.484,1.082-4.461,2.826c-0.812,1.449-0.531,3.031-0.579,4.595C58.2,69.93,64.133,69.93,70.15,69.93z M61.252,59.432
		c2.314,0.062,4.382-1.925,4.444-4.27c0.065-2.462-1.886-4.516-4.352-4.583c-2.418-0.066-4.417,1.802-4.48,4.186
		C56.796,57.358,58.681,59.363,61.252,59.432z"/>
	<path id="XMLID_1487_" fill="#A52937" d="M17.454,14.502c1.682,0.013,3.15,0.487,4.43,1.464c1.963,1.497,2.936,3.509,2.984,5.969
		c0.02,1.022,0.007,2.045,0.002,3.067c-0.004,0.789-0.377,1.167-1.159,1.167c-6.594,0.002-13.188,0.002-19.781,0
		c-0.81,0-1.154-0.346-1.151-1.158c0.005-1.263-0.053-2.532,0.046-3.788c0.252-3.211,2.815-5.95,6.005-6.496
		c0.494-0.085,0.998-0.109,1.542-0.166c-1.955-1.412-3.013-3.277-2.957-5.688c0.04-1.71,0.734-3.167,1.939-4.359
		c2.539-2.51,6.572-2.469,9.113-0.058C20.758,6.629,21.691,11.519,17.454,14.502z M4.87,24.159c5.992,0,11.927,0,17.884,0
		c0-0.846,0.024-1.671-0.005-2.494c-0.089-2.563-2.34-4.87-4.908-4.93c-2.641-0.062-5.286-0.056-7.927,0.001
		c-2.206,0.048-4.107,1.549-4.792,3.637C4.717,21.607,4.942,22.876,4.87,24.159z M18.345,9.167c0.01-2.413-1.976-4.432-4.375-4.448
		c-2.412-0.016-4.453,1.975-4.465,4.356c-0.012,2.465,1.966,4.472,4.41,4.476C16.34,13.554,18.335,11.58,18.345,9.167z"/>
	<path id="XMLID_1486_" fill="#A52937" d="M65.171,39.328c-0.158,0-0.282,0-0.405,0c-1.309,0-2.619,0.005-3.928-0.004
		c-0.504-0.003-0.892-0.31-0.992-0.747c-0.123-0.538,0.066-1.031,0.518-1.226c0.202-0.087,0.445-0.107,0.67-0.109
		c1.229-0.01,2.458-0.005,3.687-0.005c0.135,0,0.271,0,0.45,0c0-0.174,0-0.308,0-0.443c0-2.182-0.001-4.365,0.001-6.547
		c0-0.172,0.005-0.346,0.034-0.514c0.081-0.476,0.469-0.79,0.974-0.805c0.519-0.015,0.916,0.257,1.034,0.729
		c0.041,0.165,0.057,0.34,0.057,0.511c0.003,5.422,0.003,10.843,0.002,16.265c0,0.85-0.432,1.261-1.229,1.182
		c-0.429-0.043-0.748-0.321-0.829-0.748c-0.034-0.179-0.042-0.365-0.042-0.548c-0.003-2.182-0.002-4.365-0.002-6.547
		C65.171,39.636,65.171,39.501,65.171,39.328z"/>
	<path id="XMLID_1485_" fill="#A52937" d="M10.341,37.237c0.167,0,0.301,0,0.435,0c1.275,0,2.55-0.005,3.825,0.004
		c0.621,0.004,0.995,0.304,1.093,0.834c0.128,0.693-0.328,1.245-1.057,1.25c-1.286,0.009-2.573,0.003-3.859,0.003
		c-0.126,0-0.252,0-0.437,0c0,0.149,0,0.28,0,0.412c0,2.194,0,4.387,0,6.581c0,0.149,0.005,0.3-0.012,0.447
		c-0.064,0.541-0.476,0.869-1.063,0.857c-0.567-0.012-0.949-0.349-0.998-0.887c-0.012-0.137-0.009-0.275-0.009-0.413
		c0-5.364-0.001-10.727,0.001-16.091c0-0.194-0.007-0.395,0.038-0.582c0.112-0.467,0.558-0.755,1.076-0.723
		c0.493,0.03,0.897,0.418,0.955,0.927c0.016,0.136,0.011,0.275,0.011,0.413c0.001,2.171,0,4.342,0,6.512
		C10.341,36.916,10.341,37.052,10.341,37.237z"/>
</g>
</svg>
