<?xml version="1.0" encoding="utf-8"?>
<!-- Generator: Adobe Illustrator 17.0.0, SVG Export Plug-In . SVG Version: 6.00 Build 0)  -->
<!DOCTYPE svg PUBLIC "-//W3C//DTD SVG 1.1//EN" "http://www.w3.org/Graphics/SVG/1.1/DTD/svg11.dtd">
<svg version="1.1" id="圖層_1" xmlns="http://www.w3.org/2000/svg" xmlns:xlink="http://www.w3.org/1999/xlink" x="0px" y="0px"
	 width="18px" height="18px" viewBox="0 0 18 18" enable-background="new 0 0 18 18" xml:space="preserve">
<g id="XMLID_775_">
	<path id="XMLID_779_" fill="#FFFFFF" d="M2.245,7.508c-0.013-3.135,2.026-5.845,4.97-6.626c3.851-1.021,7.504,1.334,8.362,4.983
		c0.343,1.458,0.18,2.871-0.406,4.25c-0.916,2.153-2.312,3.96-3.968,5.581c-0.484,0.474-0.996,0.918-1.506,1.365
		c-0.437,0.382-0.919,0.394-1.365,0.028c-1.824-1.499-3.422-3.201-4.641-5.236C3.126,10.91,2.663,9.918,2.407,8.84
		C2.296,8.373,2.243,7.898,2.245,7.508z M14.876,7.496c-0.014-0.756-0.091-1.376-0.311-1.964c-0.867-2.315-2.522-3.659-4.98-3.982
		c-1.012-0.133-2,0.019-2.921,0.451C4.647,2.946,3.459,4.52,3.181,6.748C3.083,7.53,3.152,8.301,3.385,9.052
		c0.347,1.117,0.905,2.132,1.56,3.094c1.092,1.602,2.435,2.973,3.914,4.218c0.103,0.087,0.179,0.09,0.279-0.002
		c0.407-0.372,0.828-0.728,1.227-1.108c1.707-1.625,3.148-3.442,4.047-5.648C14.707,8.886,14.855,8.14,14.876,7.496z"/>
	<path id="XMLID_776_" fill="#FFFFFF" d="M5.5,7.436C5.475,5.633,6.994,3.975,8.973,3.955c1.919-0.02,3.502,1.543,3.526,3.503
		c0.022,1.887-1.556,3.476-3.471,3.5C7.102,10.983,5.481,9.389,5.5,7.436z M8.973,4.837c-1.515,0.029-2.59,1.259-2.596,2.56
		C6.37,8.996,7.639,10.09,9.019,10.079c1.452-0.011,2.616-1.194,2.599-2.637C11.601,5.914,10.371,4.828,8.973,4.837z"/>
</g>
</svg>
