<?xml version="1.0" encoding="utf-8"?>
<!-- Generator: Adobe Illustrator 17.0.0, SVG Export Plug-In . SVG Version: 6.00 Build 0)  -->
<!DOCTYPE svg PUBLIC "-//W3C//DTD SVG 1.1//EN" "http://www.w3.org/Graphics/SVG/1.1/DTD/svg11.dtd">
<svg version="1.1" id="圖層_1" xmlns="http://www.w3.org/2000/svg" xmlns:xlink="http://www.w3.org/1999/xlink" x="0px" y="0px"
	 width="18px" height="18px" viewBox="0 0 18 18" enable-background="new 0 0 18 18" xml:space="preserve">
<path id="XMLID_617_" fill="#FFFFFF" d="M9.2,14.435c-2.109,0-4.218-0.008-6.327,0.004c-0.752,0.004-1.376-0.537-1.511-1.223
	c-0.023-0.117-0.033-0.239-0.033-0.358C1.327,10.28,1.327,7.701,1.328,5.123c0-0.669,0.358-1.217,0.959-1.456
	c0.143-0.057,0.303-0.07,0.455-0.1c0.041-0.008,0.084-0.003,0.126-0.003c4.221,0,8.442,0.002,12.663-0.003
	c0.676-0.001,1.219,0.409,1.438,0.97c0.074,0.19,0.11,0.386,0.11,0.59c0,2.581,0.001,5.163-0.001,7.744
	c-0.001,0.728-0.431,1.318-1.107,1.516c-0.144,0.042-0.302,0.052-0.454,0.052C13.413,14.436,11.307,14.435,9.2,14.435z M2.535,4.36
	C2.532,4.371,2.53,4.382,2.528,4.392C2.542,4.403,2.557,4.413,2.57,4.425c1.803,1.666,3.606,3.332,5.409,4.997
	C8.24,9.664,8.5,9.905,8.764,10.142c0.172,0.154,0.376,0.208,0.604,0.156c0.155-0.036,0.274-0.132,0.388-0.237
	c0.698-0.646,1.396-1.29,2.094-1.936c1.329-1.23,2.657-2.461,3.986-3.692c0.017-0.015,0.031-0.033,0.046-0.05c0-0.01,0-0.02,0-0.031
	c-0.123-0.015-0.246-0.044-0.369-0.044C11.307,4.307,7.101,4.307,2.895,4.307c-0.03,0-0.061-0.003-0.09,0.002
	C2.715,4.324,2.625,4.343,2.535,4.36z M2.809,13.686c4.274,0,8.523,0,12.797,0c-1.413-1.382-2.811-2.749-4.211-4.119
	c-0.028,0.025-0.049,0.042-0.069,0.06c-0.367,0.339-0.734,0.678-1.1,1.017c-0.589,0.544-1.425,0.547-2.017,0.007
	C7.971,10.433,7.736,10.213,7.5,9.995c-0.152-0.14-0.304-0.28-0.459-0.424C5.631,10.942,4.228,12.306,2.809,13.686z M2.102,5.013
	c-0.01,0.003-0.019,0.006-0.029,0.009c0,0.053,0,0.106,0,0.159c0,2.541,0,5.083,0,7.624c0,0.045-0.005,0.091,0.004,0.135
	c0.021,0.109,0.049,0.217,0.079,0.349c1.459-1.419,2.894-2.815,4.336-4.218C5.024,7.714,3.563,6.364,2.102,5.013z M16.234,13.26
	c0.013-0.001,0.025-0.002,0.038-0.003c0.021-0.131,0.061-0.263,0.061-0.394c0.004-2.576,0.003-5.151,0.002-7.727
	c0-0.038-0.007-0.075-0.012-0.134c-1.471,1.361-2.927,2.708-4.389,4.061C13.372,10.465,14.803,11.863,16.234,13.26z"/>
</svg>
