<?xml version="1.0" encoding="utf-8"?>
<!-- Generator: Adobe Illustrator 17.0.0, SVG Export Plug-In . SVG Version: 6.00 Build 0)  -->
<!DOCTYPE svg PUBLIC "-//W3C//DTD SVG 1.1//EN" "http://www.w3.org/Graphics/SVG/1.1/DTD/svg11.dtd">
<svg version="1.1" id="圖層_1" xmlns="http://www.w3.org/2000/svg" xmlns:xlink="http://www.w3.org/1999/xlink" x="0px" y="0px"
	 width="18px" height="18px" viewBox="0 0 18 18" enable-background="new 0 0 18 18" xml:space="preserve">
<g id="XMLID_642_">
	<path id="XMLID_772_" fill="#FFFFFF" d="M9.757,12.268c0.332-0.327,0.655-0.648,0.983-0.963c0.11-0.106,0.226-0.209,0.353-0.293
		c0.572-0.376,1.269-0.313,1.762,0.163c0.618,0.596,1.233,1.196,1.843,1.801c0.669,0.665,0.661,1.569-0.012,2.256
		c-0.334,0.341-0.671,0.68-1.005,1.021c-0.597,0.609-1.33,0.813-2.159,0.726c-1.364-0.143-2.576-0.707-3.737-1.389
		c-2.119-1.246-3.823-2.931-5.154-4.992C1.957,9.557,1.422,8.447,1.135,7.232C1.001,6.661,0.94,6.083,1.06,5.5
		c0.097-0.473,0.333-0.874,0.664-1.217c0.347-0.359,0.703-0.71,1.059-1.06c0.283-0.279,0.612-0.464,1.02-0.484
		c0.427-0.021,0.793,0.129,1.099,0.416c0.309,0.291,0.604,0.597,0.904,0.897c0.332,0.332,0.667,0.66,0.992,0.997
		c0.217,0.225,0.362,0.492,0.418,0.804c0.075,0.42-0.028,0.805-0.299,1.118c-0.326,0.376-0.691,0.72-1.042,1.074
		C5.725,8.196,5.719,8.192,5.813,8.38c0.306,0.613,0.72,1.149,1.172,1.658c0.655,0.737,1.381,1.394,2.215,1.925
		C9.376,12.075,9.566,12.165,9.757,12.268z M1.835,6.152C1.863,6.378,1.877,6.606,1.92,6.829c0.171,0.867,0.506,1.676,0.932,2.443
		c1.419,2.551,3.382,4.561,5.975,5.932c0.855,0.452,1.738,0.83,2.713,0.937c0.589,0.065,1.114-0.055,1.536-0.501
		c0.141-0.15,0.285-0.297,0.431-0.442c0.205-0.204,0.417-0.401,0.618-0.608c0.298-0.308,0.293-0.631-0.003-0.938
		c-0.043-0.044-0.087-0.087-0.13-0.13c-0.557-0.552-1.117-1.102-1.67-1.658c-0.314-0.317-0.643-0.317-0.954,0.003
		c-0.364,0.373-0.733,0.742-1.106,1.107c-0.205,0.201-0.448,0.275-0.721,0.148c-0.221-0.104-0.442-0.211-0.653-0.335
		c-1.062-0.625-1.95-1.451-2.744-2.385c-0.496-0.583-0.932-1.204-1.239-1.91C4.769,8.176,4.822,7.904,5.07,7.666
		c0.342-0.327,0.684-0.654,1.02-0.987c0.413-0.409,0.413-0.685,0.003-1.093C5.516,5.011,4.936,4.439,4.355,3.867
		C4.293,3.807,4.223,3.749,4.147,3.708C3.9,3.574,3.632,3.627,3.395,3.861C3.052,4.199,2.723,4.553,2.37,4.881
		C1.998,5.229,1.835,5.65,1.835,6.152z"/>
	<path id="XMLID_771_" fill="#FFFFFF" d="M17.004,7.661c0,0.284-0.152,0.475-0.344,0.494c-0.25,0.025-0.435-0.116-0.498-0.366
		c-0.105-0.411-0.183-0.832-0.331-1.227c-0.785-2.096-2.222-3.565-4.315-4.367c-0.422-0.162-0.875-0.242-1.315-0.353
		c-0.21-0.053-0.336-0.166-0.355-0.35c-0.023-0.219,0.061-0.398,0.244-0.46C10.184,1,10.298,0.994,10.398,1.011
		c3.147,0.539,5.718,2.939,6.476,6.042C16.928,7.274,16.969,7.498,17.004,7.661z"/>
	<path id="XMLID_645_" fill="#FFFFFF" d="M13.867,8.272c-0.23,0.001-0.37-0.135-0.442-0.387c-0.094-0.327-0.173-0.665-0.318-0.969
		c-0.605-1.27-1.616-2.038-2.986-2.338C9.816,4.511,9.675,4.333,9.731,4.065c0.05-0.243,0.247-0.379,0.494-0.336
		c0.995,0.173,1.855,0.61,2.58,1.314c0.757,0.735,1.248,1.614,1.452,2.652C14.323,8.027,14.16,8.271,13.867,8.272z"/>
	<path id="XMLID_643_" fill="#FFFFFF" d="M11.261,8.632c-0.227-0.004-0.383-0.132-0.437-0.377c-0.072-0.324-0.216-0.609-0.492-0.796
		c-0.174-0.118-0.374-0.209-0.575-0.271c-0.288-0.088-0.426-0.257-0.368-0.52c0.057-0.261,0.275-0.391,0.566-0.318
		c0.809,0.203,1.355,0.701,1.628,1.49c0.045,0.13,0.076,0.272,0.077,0.409C11.66,8.475,11.477,8.636,11.261,8.632z"/>
</g>
</svg>
