<?xml version="1.0" encoding="utf-8"?>
<!-- Generator: Adobe Illustrator 17.0.0, SVG Export Plug-In . SVG Version: 6.00 Build 0)  -->
<!DOCTYPE svg PUBLIC "-//W3C//DTD SVG 1.1//EN" "http://www.w3.org/Graphics/SVG/1.1/DTD/svg11.dtd">
<svg version="1.1" id="圖層_1" xmlns="http://www.w3.org/2000/svg" xmlns:xlink="http://www.w3.org/1999/xlink" x="0px" y="0px"
	 width="25px" height="25px" viewBox="0 0 25 25" enable-background="new 0 0 25 25" xml:space="preserve">
<g id="XMLID_5_">
	<path id="XMLID_28_" fill="#A52937" d="M3.097,10.424c-0.018-4.364,2.82-8.136,6.919-9.223c5.361-1.422,10.446,1.857,11.639,6.937
		c0.477,2.03,0.251,3.997-0.566,5.917c-1.275,2.996-3.218,5.512-5.523,7.769c-0.673,0.659-1.386,1.279-2.096,1.9
		c-0.608,0.532-1.28,0.549-1.9,0.039c-2.539-2.087-4.763-4.457-6.46-7.289c-0.788-1.314-1.432-2.694-1.788-4.195
		C3.168,11.627,3.094,10.967,3.097,10.424z M20.679,10.406c-0.019-1.053-0.126-1.915-0.433-2.734
		c-1.207-3.222-3.511-5.094-6.932-5.543c-1.409-0.185-2.784,0.026-4.066,0.628C6.441,4.073,4.787,6.263,4.399,9.366
		c-0.136,1.088-0.04,2.162,0.284,3.206c0.483,1.555,1.259,2.968,2.172,4.307c1.52,2.231,3.39,4.139,5.449,5.871
		c0.144,0.121,0.249,0.125,0.389-0.003c0.566-0.517,1.152-1.013,1.708-1.542c2.377-2.262,4.382-4.791,5.634-7.862
		C20.444,12.342,20.65,11.303,20.679,10.406z"/>
	<path id="XMLID_22_" fill="#A52937" d="M7.628,10.323c-0.035-2.51,2.079-4.818,4.833-4.846c2.672-0.027,4.875,2.148,4.908,4.877
		c0.031,2.627-2.166,4.839-4.832,4.873C9.858,15.26,7.601,13.041,7.628,10.323z M12.462,6.706c-2.109,0.041-3.606,1.752-3.614,3.563
		c-0.01,2.226,1.756,3.748,3.678,3.733c2.022-0.015,3.641-1.662,3.618-3.671C16.121,8.204,14.409,6.692,12.462,6.706z"/>
</g>
</svg>
