<?xml version="1.0" encoding="utf-8"?>
<!-- Generator: Adobe Illustrator 17.0.0, SVG Export Plug-In . SVG Version: 6.00 Build 0)  -->
<!DOCTYPE svg PUBLIC "-//W3C//DTD SVG 1.1//EN" "http://www.w3.org/Graphics/SVG/1.1/DTD/svg11.dtd">
<svg version="1.1" id="圖層_1" xmlns="http://www.w3.org/2000/svg" xmlns:xlink="http://www.w3.org/1999/xlink" x="0px" y="0px"
	 width="25px" height="25px" viewBox="0 0 25 25" enable-background="new 0 0 25 25" xml:space="preserve">
<rect x="0" y="0" fill="none" width="25" height="25"/>
<g id="XMLID_4_">
	<path id="XMLID_75_" fill="#A52937" d="M13.616,17.183c0.476-0.468,0.938-0.928,1.409-1.38c0.157-0.151,0.323-0.3,0.505-0.419
		c0.82-0.538,1.818-0.448,2.525,0.233c0.886,0.854,1.767,1.713,2.64,2.58c0.959,0.952,0.947,2.247-0.017,3.233
		c-0.478,0.489-0.961,0.974-1.439,1.463c-0.855,0.873-1.905,1.164-3.094,1.04c-1.955-0.204-3.691-1.012-5.354-1.99
		c-3.036-1.785-5.477-4.2-7.385-7.152c-0.965-1.493-1.732-3.083-2.142-4.824C1.07,9.148,0.984,8.321,1.156,7.485
		c0.139-0.678,0.477-1.252,0.952-1.743c0.497-0.515,1.008-1.017,1.518-1.519C4.031,3.824,4.503,3.558,5.087,3.53
		c0.612-0.03,1.136,0.184,1.574,0.596c0.443,0.416,0.865,0.855,1.295,1.286C8.431,5.886,8.911,6.356,9.377,6.84
		c0.31,0.322,0.519,0.706,0.599,1.152c0.107,0.601-0.04,1.153-0.429,1.602c-0.467,0.539-0.989,1.032-1.494,1.539
		c-0.215,0.216-0.223,0.21-0.089,0.479c0.438,0.878,1.031,1.646,1.679,2.375c0.938,1.057,1.978,1.998,3.174,2.758
		C13.07,16.905,13.342,17.034,13.616,17.183z M2.265,8.42c0.04,0.323,0.06,0.65,0.123,0.969c0.245,1.242,0.725,2.402,1.336,3.501
		c2.034,3.655,4.846,6.535,8.56,8.5c1.224,0.648,2.49,1.189,3.888,1.343c0.844,0.093,1.597-0.079,2.201-0.719
		c0.203-0.215,0.409-0.426,0.618-0.634c0.293-0.292,0.598-0.574,0.885-0.872c0.427-0.441,0.42-0.903-0.005-1.343
		c-0.061-0.063-0.124-0.124-0.187-0.186c-0.798-0.791-1.601-1.578-2.393-2.376c-0.45-0.454-0.921-0.454-1.367,0.004
		c-0.521,0.535-1.051,1.063-1.584,1.586c-0.294,0.288-0.642,0.394-1.033,0.212c-0.317-0.149-0.634-0.303-0.935-0.48
		c-1.521-0.896-2.794-2.079-3.932-3.418c-0.71-0.836-1.336-1.725-1.775-2.737c-0.195-0.449-0.119-0.839,0.237-1.179
		c0.49-0.468,0.979-0.937,1.461-1.414c0.592-0.586,0.592-0.981,0.005-1.566C7.54,6.785,6.708,5.965,5.876,5.146
		C5.787,5.059,5.687,4.977,5.579,4.918C5.224,4.725,4.84,4.802,4.501,5.137C4.009,5.622,3.538,6.128,3.033,6.599
		C2.499,7.097,2.266,7.7,2.265,8.42z"/>
	<path id="XMLID_74_" fill="#A52937" d="M24,10.581c0,0.407-0.218,0.68-0.492,0.707c-0.358,0.035-0.623-0.167-0.714-0.525
		c-0.15-0.588-0.262-1.192-0.474-1.757c-1.125-3.003-3.184-5.107-6.183-6.257c-0.604-0.232-1.253-0.347-1.884-0.505
		c-0.301-0.076-0.482-0.238-0.509-0.501c-0.033-0.314,0.088-0.571,0.35-0.659c0.136-0.046,0.299-0.055,0.441-0.03
		c4.509,0.772,8.193,4.211,9.279,8.658C23.891,10.027,23.95,10.348,24,10.581z"/>
	<path id="XMLID_73_" fill="#A52937" d="M19.505,11.457c-0.329,0.002-0.53-0.194-0.634-0.555c-0.134-0.468-0.248-0.952-0.456-1.389
		c-0.867-1.82-2.316-2.92-4.279-3.35c-0.436-0.096-0.637-0.351-0.558-0.735c0.072-0.348,0.354-0.543,0.708-0.481
		c1.425,0.248,2.658,0.874,3.696,1.883c1.085,1.053,1.789,2.313,2.081,3.8C20.158,11.106,19.925,11.455,19.505,11.457z"/>
	<path id="XMLID_72_" fill="#A52937" d="M15.771,11.973c-0.326-0.006-0.549-0.189-0.627-0.54c-0.103-0.464-0.31-0.873-0.705-1.14
		c-0.249-0.169-0.536-0.3-0.824-0.388c-0.412-0.127-0.61-0.369-0.527-0.745c0.082-0.374,0.394-0.56,0.81-0.455
		c1.16,0.291,1.941,1.005,2.332,2.135c0.065,0.186,0.109,0.39,0.11,0.586C16.343,11.747,16.08,11.979,15.771,11.973z"/>
</g>
</svg>
