<?xml version="1.0" encoding="utf-8"?>
<!-- Generator: Adobe Illustrator 17.0.0, SVG Export Plug-In . SVG Version: 6.00 Build 0)  -->
<!DOCTYPE svg PUBLIC "-//W3C//DTD SVG 1.1//EN" "http://www.w3.org/Graphics/SVG/1.1/DTD/svg11.dtd">
<svg version="1.1" id="圖層_1" xmlns="http://www.w3.org/2000/svg" xmlns:xlink="http://www.w3.org/1999/xlink" x="0px" y="0px"
	 width="25px" height="25px" viewBox="0 0 25 25" enable-background="new 0 0 25 25" xml:space="preserve">
<g id="XMLID_11_">
	<path id="XMLID_51_" fill="#A52937" stroke="#A52937" stroke-width="0.25" stroke-miterlimit="10" d="M2.42,12.057
		c0.229,0,0.426,0,0.623,0c0.442,0,0.884-0.004,1.325,0.003c0.268,0.004,0.449,0.19,0.451,0.443c0.002,0.249-0.182,0.44-0.449,0.443
		c-0.559,0.007-1.119,0.003-1.679,0.003c-0.08,0-0.16,0-0.276,0c0.126,2.388,0.955,4.475,2.53,6.24
		c1.877,2.104,4.251,3.214,7.099,3.398c0-0.103,0-0.181,0-0.259c0-0.552-0.002-1.104,0.001-1.657
		c0.001-0.307,0.172-0.493,0.442-0.493c0.269,0,0.442,0.187,0.444,0.494c0.004,0.625,0.001,1.249,0.001,1.907
		c2.463-0.138,4.596-1.016,6.386-2.675c2.012-1.864,3.076-4.188,3.247-6.956c-0.239,0-0.451,0-0.662,0
		c-0.412,0-0.825,0.002-1.237-0.001c-0.316-0.002-0.512-0.177-0.512-0.45c0-0.267,0.2-0.439,0.521-0.44
		c0.537-0.002,1.075-0.001,1.612-0.001c0.08,0,0.159,0,0.275,0c-0.147-2.485-1.038-4.635-2.72-6.436
		c-1.857-1.989-4.174-3.018-6.91-3.205c0,0.282,0,0.53,0,0.779c0,0.398,0.005,0.795-0.003,1.193
		c-0.005,0.276-0.181,0.444-0.443,0.445c-0.263,0.001-0.437-0.166-0.44-0.445c-0.006-0.56-0.002-1.119-0.003-1.679
		c0-0.08,0-0.159,0-0.289c-0.45,0.055-0.88,0.088-1.302,0.162c-2.51,0.442-4.563,1.662-6.16,3.649
		C4.383,6.477,4.097,6.527,3.89,6.357C3.694,6.196,3.68,5.917,3.865,5.687c1.604-1.999,3.64-3.331,6.146-3.884
		c3.022-0.667,5.87-0.196,8.473,1.507c2.323,1.52,3.862,3.642,4.598,6.317c0.784,2.85,0.455,5.599-0.982,8.175
		c-1.631,2.924-4.111,4.812-7.4,5.445c-4.291,0.826-7.925-0.475-10.735-3.833c-1.948-2.328-2.711-5.07-2.389-8.09
		c0.077-0.719,0.272-1.427,0.44-2.133C2.047,9.058,2.19,8.903,2.318,8.855c0.118-0.044,0.306,0.006,0.424,0.078
		c0.153,0.094,0.176,0.273,0.134,0.455c-0.121,0.522-0.25,1.044-0.345,1.571C2.467,11.311,2.457,11.671,2.42,12.057z"/>
	<path id="XMLID_50_" fill="#A52937" stroke="#A52937" stroke-width="0.25" stroke-miterlimit="10" d="M12.932,9.507
		c0,0.846,0.005,1.693-0.004,2.539c-0.002,0.179,0.054,0.295,0.192,0.409c1.451,1.201,2.896,2.408,4.343,3.615
		c0.084,0.07,0.172,0.141,0.242,0.225c0.127,0.154,0.121,0.377,0,0.531c-0.134,0.17-0.341,0.225-0.531,0.13
		c-0.078-0.039-0.149-0.095-0.216-0.151c-1.566-1.304-3.131-2.609-4.699-3.911c-0.148-0.123-0.216-0.265-0.216-0.457
		c0.003-1.854,0.001-3.709,0.003-5.563c0-0.294,0.188-0.498,0.445-0.496c0.256,0.002,0.44,0.205,0.441,0.503
		C12.934,7.755,12.932,8.631,12.932,9.507z"/>
</g>
<rect x="0" y="0" fill="none" width="25" height="25"/>
</svg>
