<?xml version="1.0" encoding="utf-8"?>
<!-- Generator: Adobe Illustrator 17.0.0, SVG Export Plug-In . SVG Version: 6.00 Build 0)  -->
<!DOCTYPE svg PUBLIC "-//W3C//DTD SVG 1.1//EN" "http://www.w3.org/Graphics/SVG/1.1/DTD/svg11.dtd">
<svg version="1.1" id="圖層_1" xmlns="http://www.w3.org/2000/svg" xmlns:xlink="http://www.w3.org/1999/xlink" x="0px" y="0px"
	 width="74.222px" height="74.649px" viewBox="0 0 74.222 74.649" enable-background="new 0 0 74.222 74.649" xml:space="preserve">
<g id="XMLID_64_">
	<path id="XMLID_1358_" fill="#A52937" d="M43.989,45.55c0.426,0,0.827-0.001,1.228,0c1.034,0.003,1.789,0.68,1.802,1.708
		c0.026,2.065,0.013,4.132-0.001,6.197c-0.002,0.264-0.106,0.528-0.165,0.806c0.401,0.207,0.819,0.404,1.219,0.633
		c4.082,2.339,6.707,5.769,7.672,10.396c0.207,0.992,0.252,2.023,0.302,3.04c0.049,1.007,0.011,2.018,0.01,3.027
		c-0.001,1.011-0.341,1.358-1.338,1.358c-12.051,0.001-24.102,0.001-36.153,0c-0.97,0-1.319-0.341-1.31-1.3
		c0.014-1.507-0.059-3.024,0.083-4.519c0.418-4.392,2.413-7.957,5.865-10.704c0.962-0.765,2.017-1.376,3.137-1.876
		c0.107-0.048,0.212-0.101,0.255-0.122c0-2.332-0.011-4.621,0.005-6.908c0.007-0.904,0.763-1.602,1.7-1.623
		c0.461-0.01,0.923-0.002,1.451-0.002c-0.087-0.501-0.15-0.965-0.249-1.422c-0.671-3.078-2.105-5.748-4.288-8.021
		c-2.365-2.462-3.798-5.397-4.327-8.759c-0.563-3.577-0.155-7.044,1.496-10.288c2.464-4.841,6.345-7.95,11.738-8.822
		c5.365-0.868,10.049,0.748,13.906,4.59c2.497,2.487,4.015,5.522,4.529,9.002c0.797,5.389-0.594,10.162-4.29,14.203
		c-2.267,2.479-3.7,5.343-4.207,8.666C44.027,45.043,44.015,45.278,43.989,45.55z M41.597,45.641
		c0.289-2.534,1.042-4.875,2.228-7.085c0.843-1.571,1.971-2.924,3.109-4.281c2.924-3.487,4.113-7.503,3.355-12
		c-0.719-4.264-2.936-7.608-6.647-9.858c-3.951-2.396-8.174-2.782-12.367-0.866c-5.196,2.375-7.969,6.605-8.391,12.304
		c-0.211,2.849,0.474,5.531,1.86,8.034c0.714,1.29,1.7,2.365,2.659,3.466c2.095,2.406,3.54,5.15,4.204,8.283
		c0.139,0.658,0.224,1.328,0.333,1.991c1.264,0,2.513,0,3.766,0c0.009-0.079,0.018-0.126,0.018-0.172
		c0.001-4.571,0.003-9.142-0.006-13.712c0-0.134-0.079-0.297-0.173-0.398c-0.445-0.477-0.909-0.937-1.366-1.404
		c-1.313-1.34-2.627-2.678-3.937-4.021c-0.479-0.491-0.507-1.055-0.088-1.52c0.464-0.514,1.118-0.483,1.679,0.088
		c1.571,1.602,3.14,3.206,4.704,4.815c0.087,0.089,0.124,0.228,0.193,0.36c0.799-0.799,1.478-1.479,2.157-2.158
		c1.033-1.033,2.06-2.07,3.1-3.096c0.576-0.569,1.368-0.472,1.749,0.195c0.253,0.443,0.162,0.904-0.277,1.345
		c-1.76,1.766-3.519,3.533-5.285,5.292c-0.189,0.188-0.279,0.374-0.278,0.649c0.009,4.452,0.006,8.904,0.006,13.356
		c0,0.126,0,0.252,0,0.393C39.156,45.641,40.362,45.641,41.597,45.641z M19.482,70.535c4.137,0,8.286,0,12.432,0
		c0.649-3.709,1.295-7.398,1.934-11.088c0.02-0.118-0.008-0.263-0.061-0.373c-0.584-1.218-1.173-2.434-1.776-3.642
		c-0.046-0.093-0.213-0.188-0.317-0.181c-2.82,0.187-5.339,1.171-7.506,2.981c-2.737,2.285-4.324,5.223-4.688,8.77
		C19.382,68.16,19.482,69.341,19.482,70.535z M41.476,55.253c-0.561,1.296-1.128,2.599-1.685,3.907
		c-0.042,0.099-0.025,0.235-0.004,0.348c0.65,3.557,1.308,7.111,1.948,10.67c0.053,0.292,0.135,0.386,0.442,0.385
		c3.81-0.012,7.62-0.007,11.43-0.008c0.125,0,0.249-0.011,0.367-0.017C54.791,60.491,47.474,55.418,41.476,55.253z M28.79,47.957
		c0,1.717,0,3.384,0,5.095c5.359-0.037,10.693-0.073,16.039-0.11c0-1.716,0-3.403,0-5.116C39.469,47.87,34.144,47.913,28.79,47.957z
		 M39.631,70.543c-0.015-0.116-0.023-0.198-0.037-0.279c-0.25-1.401-0.5-2.801-0.751-4.201c-0.334-1.867-0.665-3.735-1.007-5.601
		c-0.016-0.09-0.121-0.231-0.189-0.233c-0.566-0.019-1.134-0.011-1.709-0.011c-0.619,3.46-1.231,6.883-1.846,10.324
		C35.963,70.543,37.776,70.543,39.631,70.543z M34.376,55.248c-0.005,0.039-0.018,0.067-0.01,0.084
		c0.425,0.858,0.846,1.718,1.286,2.568c0.044,0.084,0.206,0.147,0.315,0.15c0.556,0.015,1.113,0,1.669,0.011
		c0.194,0.004,0.299-0.057,0.371-0.243c0.143-0.375,0.314-0.74,0.47-1.11c0.201-0.475,0.4-0.951,0.613-1.459
		C37.484,55.248,35.929,55.248,34.376,55.248z"/>
	<path id="XMLID_1357_" fill="#A52937" d="M44.027,8.438c-0.914-0.012-1.471-0.768-1.204-1.506c0.451-1.245,0.949-2.473,1.454-3.698
		c0.216-0.523,0.84-0.718,1.389-0.492c0.566,0.232,0.817,0.765,0.595,1.371c-0.329,0.899-0.693,1.786-1.043,2.678
		c-0.134,0.341-0.257,0.687-0.408,1.021C44.631,8.213,44.314,8.432,44.027,8.438z"/>
	<path id="XMLID_1346_" fill="#A52937" d="M37.779,4.013c0,0.641,0.007,1.282-0.001,1.923c-0.009,0.691-0.422,1.116-1.068,1.119
		c-0.609,0.003-1.074-0.471-1.078-1.128c-0.008-1.282-0.009-2.564,0-3.846C35.637,1.409,36.045,1.006,36.691,1
		c0.663-0.006,1.075,0.4,1.086,1.09C37.787,2.731,37.779,3.372,37.779,4.013z"/>
	<path id="XMLID_1345_" fill="#A52937" d="M15.761,26.093c-0.616,0-1.233,0.006-1.849-0.002c-0.682-0.009-1.112-0.424-1.122-1.068
		c-0.009-0.638,0.414-1.077,1.097-1.085c1.256-0.014,2.513-0.015,3.769,0c0.71,0.008,1.11,0.435,1.096,1.114
		c-0.013,0.635-0.445,1.029-1.142,1.04c-0.024,0-0.047,0-0.071,0C16.946,26.094,16.354,26.094,15.761,26.093z"/>
	<path id="XMLID_1344_" fill="#A52937" d="M57.639,26.089c-0.664,0-1.329,0.013-1.993-0.004c-0.493-0.013-0.862-0.338-0.967-0.797
		c-0.115-0.5,0.08-1.013,0.507-1.22c0.184-0.089,0.409-0.126,0.617-0.128c1.222-0.011,2.444-0.013,3.666-0.003
		c0.689,0.006,1.148,0.455,1.149,1.091c0.001,0.643-0.449,1.059-1.163,1.064c-0.605,0.005-1.21,0.001-1.815,0.001
		C57.639,26.092,57.639,26.091,57.639,26.089z"/>
	<path id="XMLID_1343_" fill="#A52937" d="M53.159,32.291c0.002-0.745,0.657-1.255,1.36-0.998c1.289,0.472,2.565,0.984,3.837,1.5
		c0.483,0.196,0.667,0.674,0.501,1.145c-0.207,0.59-0.758,0.939-1.293,0.795c-0.273-0.074-0.535-0.191-0.799-0.294
		c-0.971-0.379-1.942-0.756-2.91-1.142C53.376,33.107,53.158,32.779,53.159,32.291z"/>
	<path id="XMLID_1342_" fill="#A52937" d="M19.412,8.937c0.047-0.606,0.264-0.934,0.682-1.12c0.446-0.198,0.842-0.08,1.174,0.24
		c0.554,0.534,1.091,1.087,1.635,1.632c0.351,0.352,0.707,0.701,1.052,1.059c0.447,0.464,0.463,1.065,0.052,1.494
		c-0.444,0.462-1.067,0.482-1.544,0.018c-0.9-0.876-1.796-1.757-2.668-2.66C19.596,9.393,19.497,9.087,19.412,8.937z"/>
	<path id="XMLID_1341_" fill="#A52937" d="M20.246,17.832c0.001,0.785-0.729,1.262-1.504,0.964c-1.027-0.395-2.046-0.81-3.069-1.216
		c-0.154-0.061-0.308-0.121-0.462-0.183c-0.573-0.228-0.815-0.621-0.686-1.113c0.169-0.644,0.644-0.993,1.246-0.905
		c0.139,0.02,0.278,0.06,0.409,0.112c1.112,0.438,2.223,0.878,3.331,1.324C20.029,17.023,20.246,17.335,20.246,17.832z"/>
	<path id="XMLID_1340_" fill="#A52937" d="M19.103,31.35c0.593-0.002,0.986,0.323,1.121,0.875c0.114,0.463-0.069,0.908-0.541,1.116
		c-1.234,0.544-2.475,1.071-3.727,1.572c-0.533,0.214-1.101-0.054-1.309-0.539c-0.235-0.549-0.033-1.173,0.511-1.413
		c1.212-0.533,2.438-1.037,3.66-1.547C18.926,31.369,19.048,31.361,19.103,31.35z"/>
	<path id="XMLID_1339_" fill="#A52937" d="M29.329,8.438c-0.477,0.004-0.818-0.211-1.006-0.649
		c-0.494-1.154-0.986-2.308-1.468-3.467c-0.241-0.578,0.008-1.278,0.51-1.495c0.565-0.244,1.172,0.029,1.444,0.66
		c0.5,1.164,0.997,2.329,1.489,3.497C30.604,7.715,30.119,8.437,29.329,8.438z"/>
	<path id="XMLID_1338_" fill="#A52937" d="M57.713,15.03c0.642,0.024,0.997,0.316,1.113,0.832c0.108,0.48-0.113,0.981-0.574,1.182
		c-1.216,0.529-2.437,1.049-3.666,1.546c-0.549,0.222-1.136-0.036-1.343-0.533c-0.239-0.573-0.015-1.171,0.561-1.422
		c1.161-0.507,2.328-1.001,3.496-1.493C57.46,15.076,57.639,15.05,57.713,15.03z"/>
	<path id="XMLID_1337_" fill="#A52937" d="M53.994,8.948c-0.089,0.156-0.193,0.458-0.394,0.667
		c-0.865,0.895-1.752,1.768-2.644,2.636c-0.483,0.47-1.093,0.469-1.517,0.032c-0.458-0.471-0.456-1.057,0.025-1.545
		c0.882-0.895,1.769-1.785,2.663-2.668c0.339-0.335,0.742-0.455,1.202-0.245C53.747,8.017,53.951,8.352,53.994,8.948z"/>
</g>
</svg>
