<?xml version="1.0" encoding="utf-8"?>
<!-- Generator: Adobe Illustrator 17.0.0, SVG Export Plug-In . SVG Version: 6.00 Build 0)  -->
<!DOCTYPE svg PUBLIC "-//W3C//DTD SVG 1.1//EN" "http://www.w3.org/Graphics/SVG/1.1/DTD/svg11.dtd">
<svg version="1.1" id="圖層_1" xmlns="http://www.w3.org/2000/svg" xmlns:xlink="http://www.w3.org/1999/xlink" x="0px" y="0px"
	 width="74.222px" height="74.649px" viewBox="0 0 74.222 74.649" enable-background="new 0 0 74.222 74.649" xml:space="preserve">
<path id="XMLID_1427_" fill="#A52937" d="M37.076,44.639c-7.033,0-14.067,0-21.1,0c-1.034,0-1.41-0.37-1.41-1.39
	c0-7.575,0-15.151,0-22.726c0-0.135-0.003-0.272,0.009-0.406c0.041-0.467,0.36-0.835,0.82-0.921
	c0.204-0.038,0.416-0.044,0.624-0.044c14.092-0.002,28.183-0.002,42.275-0.002c0.984,0,1.37,0.38,1.37,1.355
	c0.001,7.6,0.001,15.2,0,22.8c0,0.973-0.361,1.334-1.34,1.334C51.241,44.64,44.158,44.639,37.076,44.639z M23.131,42.394
	c-0.003,0,0.094,0.013,0.19,0.013c9.151,0.001,18.303,0,27.454,0.007c0.268,0,0.344-0.09,0.398-0.343
	c0.486-2.283,1.67-4.097,3.736-5.232c0.764-0.42,1.627-0.658,2.445-0.979c0.058,0.018,0.074-0.054,0.074-0.126
	c0.001-2.611-0.003-5.222,0.008-7.833c0.001-0.277-0.129-0.315-0.349-0.354c-2.958-0.523-5.405-2.949-5.909-5.876
	c-0.053-0.311-0.153-0.396-0.464-0.396c-9.102,0.009-18.204,0.007-27.306,0.007c-0.13,0-0.261,0-0.366,0
	c-0.748,3.545-2.865,5.671-6.324,6.466C16.711,27.8,16.7,27.836,16.7,27.872c-0.001,2.648,0.001,5.296-0.007,7.944
	c-0.001,0.227,0.096,0.282,0.296,0.322c2.31,0.458,4.074,1.699,5.184,3.777C22.579,40.673,22.804,41.528,23.131,42.394z
	 M53.509,21.296c0.305,2.044,2.207,3.835,3.89,4.01c0-1.333,0-2.666,0-4.01C56.089,21.296,54.812,21.296,53.509,21.296z
	 M16.821,38.367c0,1.35,0,2.673,0,4.016c0.104,0.01,0.187,0.024,0.27,0.024c1.203,0.001,2.407,0.001,3.614,0.001
	C20.469,40.493,18.67,38.639,16.821,38.367z M57.407,42.385c0-1.353,0-2.683,0-4.017c-1.98,0.317-3.781,2.458-3.876,4.017
	C54.816,42.385,56.101,42.385,57.407,42.385z M16.811,25.32c1.911-0.319,3.689-2.297,3.898-4.006c-1.296,0-2.59,0-3.898,0
	C16.811,22.663,16.811,23.978,16.811,25.32z"/>
<path id="XMLID_1423_" fill="#A52937" d="M51.553,64.386c0-1.108-0.005-2.155,0.001-3.201c0.009-1.502,0.001-3.005,0.052-4.505
	c0.027-0.791,0.353-1.503,0.848-2.127c2.071-2.616,4.137-5.236,6.219-7.843c1.814-2.272,5.229-1.823,6.484,0.84
	c0.051,0.107,0.099,0.215,0.168,0.364c0.518-0.592,1.018-1.149,1.495-1.726c0.08-0.096,0.079-0.277,0.079-0.418
	c0.004-3.658-0.003-7.316,0.007-10.973c0.006-2.079,1.776-3.757,3.855-3.682c1.91,0.069,3.453,1.634,3.457,3.542
	c0.008,4.889,0.002,9.779,0,14.668c0,0.697-0.202,1.32-0.622,1.891c-2.348,3.194-4.677,6.4-7.025,9.594
	c-0.389,0.529-0.588,1.097-0.58,1.749c0.007,0.59,0.002,1.179,0.002,1.827c0.499,0,0.974-0.007,1.449,0.002
	c0.723,0.014,1.255,0.391,1.416,1.012c0.046,0.176,0.053,0.365,0.053,0.548c0.003,2.377,0.004,4.754,0.001,7.131
	c-0.001,1.035-0.537,1.569-1.57,1.57c-5.567,0.001-11.133,0.001-16.7,0c-1.019,0-1.557-0.533-1.558-1.54
	c-0.002-2.402-0.002-4.803,0-7.205c0.001-0.97,0.54-1.509,1.507-1.517C50.896,64.383,51.201,64.386,51.553,64.386z M63.863,64.371
	c0-0.672-0.002-1.309,0-1.947c0.003-1.082,0.335-2.053,0.975-2.924c0.779-1.062,1.553-2.128,2.329-3.193
	c1.567-2.149,3.136-4.295,4.696-6.449c0.108-0.149,0.184-0.348,0.199-0.53c0.017-0.21-0.076-0.428-0.076-0.642
	c-0.005-4.496-0.003-8.992-0.008-13.488c0-0.268-0.015-0.547-0.088-0.803c-0.196-0.682-0.9-1.129-1.56-1.027
	c-0.761,0.117-1.291,0.711-1.292,1.471c-0.003,3.88-0.006,7.76,0.004,11.64c0.001,0.499-0.155,0.898-0.483,1.27
	c-1.619,1.84-3.224,3.693-4.837,5.538c-0.169,0.194-0.343,0.393-0.549,0.543c-0.488,0.356-1.021,0.302-1.398-0.109
	c-0.432-0.472-0.462-1.026-0.073-1.498c0.36-0.437,0.732-0.865,1.088-1.305c0.73-0.903,0.687-1.984-0.104-2.806
	c-0.668-0.693-1.573-0.653-2.169,0.101c-1.985,2.512-3.959,5.032-5.96,7.532c-0.45,0.562-0.652,1.164-0.65,1.869
	c0.008,2.119,0.003,4.237,0.004,6.356c0,0.13,0.011,0.26,0.018,0.402C57.246,64.371,60.52,64.371,63.863,64.371z M66.661,66.666
	c-5.081,0-10.134,0-15.199,0c0,1.877,0,3.729,0,5.592c5.075,0,10.128,0,15.199,0C66.661,70.393,66.661,68.55,66.661,66.666z"/>
<path id="XMLID_1419_" fill="#A52937" d="M8.213,64.386c0-0.818,0.055-1.574-0.021-2.317c-0.044-0.431-0.221-0.898-0.474-1.251
	c-2.282-3.181-4.59-6.344-6.9-9.505C0.276,50.572-0.004,49.78,0,48.846c0.021-4.619,0.007-9.239,0.011-13.858
	c0.002-1.812,1.211-3.302,2.973-3.687c2.084-0.455,4.227,1.116,4.418,3.244c0.028,0.306,0.042,0.614,0.042,0.922
	c0.003,3.462-0.003,6.923,0.012,10.385c0.001,0.22,0.105,0.475,0.241,0.652c0.367,0.476,0.778,0.918,1.202,1.408
	c0.139-0.265,0.253-0.502,0.383-0.729c1.321-2.308,4.355-2.59,6.022-0.522c2.117,2.627,4.206,5.278,6.272,7.945
	c0.644,0.831,0.979,1.813,0.978,2.888c-0.002,2.131-0.001,4.262,0,6.393c0,0.146,0,0.293,0,0.499c0.35,0,0.677-0.003,1.003,0.001
	c0.947,0.009,1.478,0.509,1.483,1.457c0.013,2.451,0.013,4.903-0.001,7.354c-0.005,0.89-0.588,1.449-1.476,1.45
	c-5.642,0.004-11.284,0.004-16.926,0c-0.862-0.001-1.44-0.577-1.443-1.441c-0.008-2.464-0.008-4.927,0-7.391
	c0.003-0.847,0.571-1.409,1.419-1.426C7.14,64.377,7.667,64.386,8.213,64.386z M20.292,64.365c0.012-0.087,0.024-0.134,0.024-0.182
	c0.001-2.242,0.029-4.484-0.021-6.724c-0.011-0.488-0.182-1.058-0.475-1.44c-2.086-2.714-4.219-5.39-6.345-8.073
	c-0.409-0.516-0.999-0.629-1.591-0.347c-1.105,0.525-1.409,1.949-0.622,2.991c0.356,0.471,0.746,0.917,1.123,1.372
	c0.415,0.501,0.393,1.074-0.064,1.557c-0.394,0.416-0.954,0.432-1.461,0.033c-0.115-0.09-0.216-0.201-0.312-0.312
	c-1.657-1.904-3.298-3.824-4.982-5.704c-0.356-0.397-0.48-0.789-0.479-1.291c0.009-3.646,0.005-7.291,0.003-10.937
	c0-0.196-0.009-0.395-0.04-0.588c-0.121-0.758-0.805-1.308-1.54-1.25c-0.766,0.061-1.362,0.698-1.362,1.482
	c-0.003,4.779-0.003,9.558,0.005,14.336c0,0.169,0.065,0.366,0.164,0.503c2.286,3.163,4.577,6.321,6.876,9.475
	c0.796,1.091,1.221,2.291,1.179,3.65c-0.015,0.476-0.002,0.953-0.002,1.45C13.697,64.365,16.981,64.365,20.292,64.365z
	 M22.771,66.674c-5.095,0-10.147,0-15.191,0c0,1.885,0,3.737,0,5.576c5.084,0,10.138,0,15.191,0
	C22.771,70.377,22.771,68.533,22.771,66.674z"/>
<path id="XMLID_1415_" fill="#A52937" d="M35.327,0.102c0.405,0.03,0.811,0.091,1.215,0.082c0.501-0.012,1.001-0.077,1.501-0.127
	c3.273-0.33,5.986,0.786,8.014,3.34c3.302,4.157,2.43,9.956-1.912,13.009c-2.025,1.424-4.288,1.893-6.744,1.459
	c-0.442-0.078-0.922,0.05-1.384,0.095c-2.828,0.276-5.273-0.606-7.251-2.603c-4.33-4.373-3.071-11.594,2.455-14.328
	C32.474,0.408,33.977,0.073,35.327,0.102z M28.428,9.3c0.19,3.894,3.282,6.768,7.128,6.575c3.58-0.18,6.461-3.177,6.403-6.751
	c-0.069-4.209-3.495-6.947-7.137-6.776C31.228,2.518,28.254,5.741,28.428,9.3z M42.047,3.124c3.113,4.017,3.041,8.004-0.053,11.983
	c1.817-0.703,3.753-2.921,3.812-5.878C45.855,6.737,44.211,4.035,42.047,3.124z"/>
<path id="XMLID_1397_" fill="#A52937" d="M37.075,41.479c-5.461-0.057-9.694-4.466-9.536-10.091c0.142-5.07,4.325-9.317,9.634-9.288
	c5.184,0.028,9.515,4.235,9.517,9.796C46.692,37.162,42.268,41.533,37.075,41.479z M37.102,39.35
	c3.982,0.011,7.325-3.337,7.342-7.352c0.017-4.153-3.241-7.526-7.297-7.548c-4.134-0.022-7.271,3.426-7.373,7.167
	C29.657,35.919,33.04,39.361,37.102,39.35z"/>
<path id="XMLID_1393_" fill="#A52937" d="M35.766,14.299c-0.287,0-0.507,0-0.791,0c0-0.195-0.012-0.387,0.003-0.576
	c0.018-0.234-0.041-0.337-0.306-0.376c-1.055-0.156-2-0.572-2.844-1.305c0.297-0.374,0.585-0.736,0.883-1.111
	c0.64,0.597,1.361,0.99,2.263,1.113c0-0.795,0.006-1.567-0.011-2.339c-0.002-0.07-0.145-0.162-0.241-0.2
	c-0.466-0.188-0.96-0.319-1.404-0.549c-1.401-0.725-1.589-2.785-0.363-3.792c0.575-0.472,1.23-0.76,2-0.786
	c0.013-0.227,0.024-0.431,0.037-0.655c0.253,0,0.491,0,0.768,0c0,0.26,0,0.501,0,0.675c0.68,0.229,1.31,0.425,1.926,0.657
	c0.26,0.098,0.492,0.272,0.776,0.434c-0.264,0.382-0.512,0.741-0.775,1.121c-0.553-0.378-1.114-0.692-1.821-0.75
	c0,0.746-0.007,1.47,0.011,2.193c0.002,0.075,0.139,0.175,0.234,0.214c0.477,0.194,0.984,0.326,1.436,0.564
	c1.301,0.686,1.552,2.631,0.484,3.649c-0.54,0.515-1.187,0.839-1.941,0.884c-0.261,0.015-0.349,0.104-0.327,0.355
	C35.78,13.908,35.766,14.1,35.766,14.299z M35.784,12.025c0.769,0.019,1.324-0.44,1.333-1.065c0.008-0.568-0.618-1.097-1.333-1.116
	C35.784,10.564,35.784,11.283,35.784,12.025z M34.943,8.138c0-0.832,0-1.561,0-2.313c-0.167,0.033-0.303,0.047-0.429,0.088
	c-0.733,0.236-1.036,0.911-0.597,1.498C34.143,7.713,34.556,7.874,34.943,8.138z"/>
<path id="XMLID_1384_" fill="#A52937" d="M39.649,28.995c-0.648-0.265-1.255-0.513-1.914-0.782
	c-0.024,0.188-0.045,0.279-0.046,0.369c-0.003,0.665,0.008,1.33-0.007,1.994c-0.005,0.24,0.067,0.34,0.312,0.392
	c0.689,0.146,1.355,0.364,1.914,0.819c1.038,0.845,1.233,2.321,0.461,3.427c-0.563,0.807-1.377,1.154-2.313,1.282
	c-0.107,0.015-0.216,0.018-0.362,0.029c0,0.334,0,0.649,0,0.984c-0.315,0-0.59,0-0.907,0c0-0.333,0-0.647,0-0.983
	c-1.291-0.14-2.41-0.596-3.379-1.472c0.328-0.404,0.65-0.801,0.988-1.218c0.714,0.54,1.412,1.082,2.369,1.21
	c0.009-0.157,0.022-0.286,0.023-0.415c0.002-0.652-0.017-1.305,0.009-1.957c0.013-0.324-0.075-0.463-0.407-0.551
	c-0.47-0.125-0.945-0.296-1.364-0.539c-1.526-0.884-1.618-3.256-0.15-4.235c0.435-0.29,0.973-0.459,1.489-0.583
	c0.301-0.073,0.483-0.11,0.429-0.458c-0.011-0.068,0.014-0.142,0.025-0.233c0.282,0,0.547,0,0.845,0
	c0.015,0.247,0.03,0.486,0.045,0.718c1.282,0.228,2.082,0.537,2.76,1.077C40.183,28.262,39.897,28.655,39.649,28.995z
	 M36.872,30.529c0-0.795,0-1.561,0-2.326c-0.797-0.029-1.308,0.391-1.327,1.071C35.522,30.091,35.961,30.512,36.872,30.529z
	 M37.81,32.646c0,0.808,0,1.591,0,2.372c0.732,0.055,1.251-0.327,1.32-0.953C39.207,33.375,38.638,32.752,37.81,32.646z"/>
</svg>
