<?xml version="1.0" encoding="utf-8"?>
<!-- Generator: Adobe Illustrator 17.0.0, SVG Export Plug-In . SVG Version: 6.00 Build 0)  -->
<!DOCTYPE svg PUBLIC "-//W3C//DTD SVG 1.1//EN" "http://www.w3.org/Graphics/SVG/1.1/DTD/svg11.dtd">
<svg version="1.1" id="圖層_1" xmlns="http://www.w3.org/2000/svg" xmlns:xlink="http://www.w3.org/1999/xlink" x="0px" y="0px"
	 width="60px" height="60px" viewBox="0 0 60 60" enable-background="new 0 0 60 60" xml:space="preserve">
<g id="XMLID_142_">
	<path id="XMLID_2000_" fill="#FFFFFF" d="M54.286,37.871c0,0.181,0,0.317,0,0.453c0,2.179,0.002,4.357-0.001,6.536
		c-0.001,0.804-0.47,1.409-1.196,1.542c-0.489,0.09-0.898-0.096-1.263-0.406c-2.165-1.843-4.33-3.686-6.496-5.529
		c-0.742-0.632-1.486-1.262-2.229-1.892c-0.058-0.049-0.12-0.092-0.221-0.169c-0.007,0.16-0.017,0.269-0.017,0.378
		c-0.001,1.066-0.025,2.134,0.005,3.199c0.049,1.776-1.393,3.045-3.02,3.037c-7.236-0.035-14.471-0.014-21.707-0.021
		c-0.282,0-0.49,0.076-0.706,0.261c-3.059,2.615-6.125,5.221-9.19,7.829c-0.673,0.573-1.415,0.628-1.994,0.143
		c-0.379-0.318-0.518-0.738-0.518-1.222c0.002-2.179,0.001-4.357,0.001-6.536c0-0.137,0-0.274,0-0.47c-0.14,0-0.26,0-0.38,0
		c-0.826,0-1.651,0.001-2.477,0c-1.54-0.002-2.781-1.187-2.851-2.726c-0.007-0.149-0.004-0.298-0.004-0.447
		c0-8.371,0.026-16.742-0.021-25.113c-0.01-1.788,1.28-3.179,3.189-3.161c4.495,0.043,8.99,0.014,13.485,0.014
		c0.147,0,0.293,0,0.483,0c0-0.154,0-0.276,0-0.398c0-1.284-0.002-2.569,0.001-3.853c0.004-1.561,1.144-2.768,2.706-2.867
		c0.137-0.009,0.275-0.012,0.412-0.012c12.201-0.001,24.402,0.003,36.603-0.006c1.131-0.001,2.033,0.386,2.669,1.331
		C59.9,8.291,60,8.884,59.999,9.504c-0.002,6.433-0.001,12.866-0.001,19.299c0,2.041,0.006,4.082-0.002,6.123
		c-0.005,1.39-0.915,2.572-2.222,2.864c-0.353,0.079-0.728,0.072-1.093,0.077C55.892,37.878,55.104,37.871,54.286,37.871z
		 M20.035,9.304c0,8.577,0,17.125,0,25.713c0.166,0,0.312,0,0.458,0c7.281,0,14.563,0.007,21.844-0.012
		c0.702-0.002,1.244,0.204,1.769,0.66c2.337,2.03,4.698,4.032,7.051,6.043c0.072,0.061,0.152,0.113,0.274,0.203
		c0-0.191,0-0.316,0-0.442c0-1.64-0.001-3.279,0.001-4.919c0.001-0.907,0.627-1.532,1.533-1.533c1.261-0.002,2.523,0,3.784,0
		c0.122,0,0.243,0,0.374,0c0-8.599,0-17.148,0-25.713C44.757,9.304,32.412,9.304,20.035,9.304z M39.993,37.871
		c-0.192,0-0.351,0-0.509,0c-6.386,0-12.771,0.001-19.157-0.003c-0.319,0-0.647-0.005-0.956-0.075
		c-1.325-0.301-2.212-1.488-2.212-2.941c-0.002-5.984-0.001-11.969-0.001-17.953c0-0.145,0-0.291,0-0.443c-4.78,0-9.517,0-14.248,0
		c0,8.582,0,17.137,0,25.717c1.349,0,2.668,0.041,3.982-0.013c1.01-0.041,1.731,0.717,1.708,1.707
		c-0.036,1.593-0.01,3.187-0.01,4.78c0,0.12,0,0.241,0,0.432c0.148-0.118,0.236-0.184,0.319-0.255
		c2.399-2.045,4.802-4.084,7.191-6.141c0.416-0.359,0.852-0.519,1.402-0.518c7.349,0.011,14.698,0.007,22.046,0.007
		c0.144,0,0.289,0,0.446,0C39.993,40.724,39.993,39.328,39.993,37.871z"/>
	<path id="XMLID_1957_" fill="#FFFFFF" d="M37.16,25.349c0-0.539,0.015-1.078-0.004-1.616c-0.023-0.648,0.244-1.111,0.781-1.464
		c0.89-0.585,1.783-1.168,2.635-1.805c0.652-0.488,1.248-1.058,1.48-1.887c0.521-1.863-1.053-4.077-3.032-4.26
		c-0.363-0.034-0.731-0.021-1.097-0.017c-1.212,0.012-2.063,0.653-2.742,1.588c-0.175,0.241-0.336,0.492-0.513,0.731
		c-0.437,0.588-1.332,0.77-1.905,0.394c-0.612-0.402-0.857-1.291-0.469-1.918c1.077-1.742,2.546-2.984,4.574-3.492
		c3.917-0.98,7.512,1.984,8.05,5.315c0.271,1.677-0.189,3.148-1.229,4.462c-0.921,1.162-2.13,1.971-3.377,2.727
		c-0.232,0.14-0.331,0.287-0.324,0.566c0.021,0.802,0.012,1.604,0.006,2.407c-0.007,0.839-0.641,1.501-1.425,1.501
		c-0.782,0-1.399-0.664-1.408-1.513c0-0.023,0-0.046,0-0.069C37.16,26.45,37.16,25.899,37.16,25.349z"/>
	<path id="XMLID_1956_" fill="#FFFFFF" d="M37.161,31.42c-0.005-0.784,0.631-1.418,1.421-1.416c0.784,0.002,1.404,0.631,1.41,1.432
		c0.006,0.782-0.631,1.413-1.425,1.411C37.775,32.845,37.167,32.228,37.161,31.42z"/>
</g>
</svg>
