<?xml version="1.0" encoding="utf-8"?>
<!-- Generator: Adobe Illustrator 17.0.0, SVG Export Plug-In . SVG Version: 6.00 Build 0)  -->
<!DOCTYPE svg PUBLIC "-//W3C//DTD SVG 1.1//EN" "http://www.w3.org/Graphics/SVG/1.1/DTD/svg11.dtd">
<svg version="1.1" id="圖層_1" xmlns="http://www.w3.org/2000/svg" xmlns:xlink="http://www.w3.org/1999/xlink" x="0px" y="0px"
	 width="60px" height="60px" viewBox="0 0 60 60" enable-background="new 0 0 60 60" xml:space="preserve">
<g id="XMLID_291_">
	<path id="XMLID_294_" fill="#FFFFFF" stroke="#FFFFFF" stroke-miterlimit="10" d="M57.941,23.804
		c-1.16-5.01-3.549-9.459-7.099-13.224c-2.829-2.999-6.166-5.296-9.921-6.828c-4.199-1.714-8.611-2.404-13.117-2.052
		c-2.177,0.17-4.286,0.574-6.268,1.2C15.928,4.672,11.125,7.9,7.483,12.494c-4.04,5.097-6.315,11.047-6.315,17.685v0.004
		c0,1.849,0.276,3.546,0.578,5.189c0.876,4.763,2.892,9.053,5.881,12.753c0.668,0.827,1.437,1.618,2.138,2.357
		c0.526,0.555,1.43,0.579,1.997,0.054c0.569-0.527,0.62-1.386,0.11-2c-0.087-0.104-0.177-0.198-0.267-0.289
		c-0.033-0.033-0.065-0.067-0.098-0.101c-1.751-1.8-3.217-3.835-4.36-6.046c-1.477-2.859-2.396-5.941-2.731-9.16
		c-0.347-3.339-0.084-6.555,0.783-9.558c1.982-6.866,6.124-12.13,12.312-15.646c4.583-2.604,9.67-3.661,15.12-3.14
		c2.826,0.27,5.59,1.028,8.214,2.254c4.065,1.898,7.449,4.688,10.059,8.29c2.827,3.903,4.451,8.339,4.828,13.184
		c0.209,2.7-0.011,5.406-0.655,8.043c-0.958,3.923-2.79,7.49-5.446,10.601c-2.029,2.377-4.441,4.344-7.169,5.848
		c-3.775,2.081-7.942,3.16-12.384,3.206c-0.828,0.009-1.473,0.637-1.467,1.43c0.003,0.41,0.159,0.783,0.44,1.048
		c0.259,0.245,0.604,0.377,0.979,0.377c0.026,0,0.052-0.001,0.077-0.002l0.245-0.012c1.169-0.056,2.377-0.114,3.561-0.251
		c2.236-0.258,4.509-0.855,6.755-1.774c5.436-2.223,9.85-5.793,13.119-10.612c2.68-3.95,4.28-8.387,4.755-13.187
		C58.847,29.952,58.645,26.845,57.941,23.804z"/>
	<path id="XMLID_293_" fill="#FFFFFF" stroke="#FFFFFF" stroke-miterlimit="10" d="M28.39,46.333c0,0.988,0.847,1.557,1.511,1.557
		c0.046,0,0.157-0.007,0.204-0.007c0.865,0,1.446-0.686,1.453-1.427c0.007-0.728,0.075-3.25,0.091-3.252
		c0.429-0.058,1.093-0.179,1.42-0.303c0.504-0.191,0.824-0.411,1.226-0.654c4.184-2.526,4.678-7.5,2.807-10.849
		c-1.065-1.906-2.814-3.123-5.276-3.722c-0.498-0.121-1.026-0.2-1.521-0.277c-0.341-0.053-0.702-0.108-1.043-0.175
		c-0.932-0.184-1.597-0.518-2.083-1.049c-0.724-0.793-0.977-1.781-0.793-3.112c0.206-1.487,1.41-2.738,2.929-3.043
		c1.496-0.301,3.091,0.393,3.88,1.687c0.354,0.581,0.54,1.232,0.568,1.991c0.015,0.401,0.183,0.768,0.472,1.033
		c0.277,0.253,0.632,0.381,1.003,0.362c0.831-0.044,1.426-0.705,1.383-1.539c-0.008-0.151-0.023-0.299-0.04-0.449
		c-0.274-2.527-1.951-5.643-5.016-5.784c0,0-0.02-1.502-0.02-2.763c0-1.229-0.606-1.944-1.679-1.944c-1.046,0-1.7,0.666-1.7,1.531
		v3.099c0,0.021,0.056,0.042-0.024,0.062c-3.075,0.798-5.066,3.816-4.779,7.019c0.263,2.933,2.12,4.993,4.998,5.651
		c0.457,0.105,0.953,0.175,1.406,0.243c0.303,0.045,0.63,0.092,0.933,0.149c1.158,0.215,2.07,0.61,2.772,1.208
		c1.523,1.296,2.038,3.028,1.522,5.145c-0.576,2.365-2.809,3.966-5.305,3.807c-2.285-0.145-4.254-1.884-4.683-4.134
		c-0.04-0.21-0.058-0.424-0.078-0.651c-0.017-0.202-0.035-0.411-0.07-0.618c-0.121-0.721-0.787-1.235-1.517-1.166
		c-0.751,0.069-1.323,0.698-1.304,1.432c0.086,3.262,1.601,5.679,4.502,7.186c0.473,0.246,0.752,0.403,1.282,0.569
		c0.186,0.058,0.345,0.118,0.345,0.182v0.721C28.168,44.81,28.39,45.571,28.39,46.333z"/>
</g>
</svg>
