<?xml version="1.0" encoding="utf-8"?>
<!-- Generator: Adobe Illustrator 17.0.0, SVG Export Plug-In . SVG Version: 6.00 Build 0)  -->
<!DOCTYPE svg PUBLIC "-//W3C//DTD SVG 1.1//EN" "http://www.w3.org/Graphics/SVG/1.1/DTD/svg11.dtd">
<svg version="1.1" id="圖層_1" xmlns="http://www.w3.org/2000/svg" xmlns:xlink="http://www.w3.org/1999/xlink" x="0px" y="0px"
	 width="60px" height="60px" viewBox="0 0 60 60" enable-background="new 0 0 60 60" xml:space="preserve">
<path id="XMLID_9823_" fill="#FFFFFF" d="M9.486,36.628c-0.817,0.985-1.828,1.581-3.065,1.773c-0.284,0.044-0.573,0.07-0.86,0.073
	c-1.069,0.008-2.139,0.005-3.208,0.003C1.455,38.475,0.97,37.992,0.97,37.1c0-7.941,0-15.883,0-23.824
	c0-0.697,0.353-1.185,0.972-1.305c0.183-0.035,0.399-0.032,0.572,0.031c3.336,1.202,6.681,2.381,9.996,3.64
	c1.86,0.706,2.854,2.151,3.068,4.128c0.004,0.036,0.01,0.072,0.021,0.153c0.46-0.029,0.92-0.051,1.379-0.087
	c2.261-0.178,4.521-0.362,6.782-0.539c0.389-0.03,0.781-0.026,1.169-0.065c0.136-0.014,0.279-0.087,0.392-0.169
	c1.458-1.066,3.024-1.886,4.83-2.178c1.54-0.249,3.052-0.094,4.498,0.453c1.109,0.419,2.174,0.954,3.254,1.448
	c2.013,0.92,4.08,1.694,6.205,2.313c0.106,0.031,0.212,0.059,0.338,0.093c0.177-0.627,0.47-1.181,0.865-1.68
	c0.582-0.735,1.334-1.229,2.208-1.546c3.211-1.167,6.428-2.316,9.629-3.509c0.872-0.325,1.731,0.276,1.73,1.22
	c-0.012,7.96-0.006,15.92-0.007,23.88c0,0.817-0.507,1.326-1.32,1.328c-1.079,0.004-2.157-0.002-3.236,0.001
	c-1.607,0.005-2.925-0.598-3.934-1.859c-0.034-0.042-0.075-0.079-0.122-0.129c-0.98,0.544-1.955,1.082-2.923,1.632
	c-0.065,0.037-0.118,0.164-0.113,0.245c0.129,1.838-1.115,3.402-2.668,3.981c-0.426,0.159-0.902,0.194-1.358,0.259
	c-0.141,0.02-0.225,0.038-0.299,0.177c-0.791,1.503-2.725,2.502-4.419,2.293c-0.146-0.018-0.294-0.026-0.405-0.035
	c-0.29,0.4-0.53,0.816-0.851,1.156c-1.189,1.263-2.623,1.689-4.308,1.181c-0.082-0.025-0.206-0.005-0.276,0.044
	c-0.93,0.648-1.983,0.775-3.065,0.679c-1.68-0.149-3.173-0.807-4.524-1.8c-3.551-2.611-7-5.352-10.406-8.149
	c-1.63-1.338-3.346-2.57-5.024-3.85C9.585,36.684,9.544,36.664,9.486,36.628z M30.491,48.083c-0.817-0.828-1.618-1.629-2.406-2.442
	c-0.841-0.868-1.67-1.747-2.506-2.621c-0.286-0.299-0.439-0.65-0.372-1.064c0.08-0.495,0.374-0.824,0.854-0.966
	c0.471-0.139,0.885-0.012,1.221,0.337c0.844,0.878,1.664,1.779,2.524,2.641c1.063,1.066,2.123,2.139,3.247,3.139
	c1.199,1.067,2.365,0.232,2.798-0.712c0.058-0.126,0.051-0.202-0.057-0.311c-1.805-1.822-3.606-3.649-5.401-5.482
	c-0.326-0.333-0.457-0.743-0.326-1.206c0.256-0.9,1.367-1.171,2.028-0.488c0.731,0.755,1.429,1.541,2.172,2.284
	c1.176,1.176,2.385,2.32,3.565,3.493c0.401,0.399,0.865,0.475,1.383,0.39c0.654-0.108,1.2-0.396,1.522-1.003
	c0.045-0.084,0.029-0.268-0.033-0.331c-1.064-1.066-2.149-2.11-3.209-3.179c-1.178-1.189-2.342-2.391-3.496-3.602
	c-0.512-0.538-0.478-1.262,0.037-1.739c0.502-0.466,1.204-0.428,1.715,0.099c0.777,0.801,1.538,1.617,2.327,2.405
	c1.546,1.544,3.111,3.068,4.656,4.611c0.315,0.314,0.631,0.324,1.011,0.17c1.054-0.427,1.389-1.464,0.76-2.408
	c-0.164-0.247-0.345-0.485-0.538-0.71c-1.047-1.227-2.232-2.317-3.456-3.361c-3.147-2.684-6.31-5.349-9.464-8.026
	c-0.113-0.096-0.194-0.093-0.316-0.03c-0.726,0.369-1.497,0.596-2.296,0.746c-0.157,0.029-0.324,0.127-0.437,0.242
	c-1.503,1.534-3.313,2.35-5.469,2.251c-1.526-0.07-2.637-0.845-3.222-2.272c-0.414-1.008-0.269-2.027,0.109-3.018
	c0.568-1.485,1.521-2.715,2.593-3.863c0.064-0.068,0.124-0.141,0.213-0.242c-0.096,0-0.133-0.003-0.17,0
	c-2.214,0.176-4.428,0.358-6.643,0.523c-0.249,0.019-0.362,0.093-0.451,0.332c-1.388,3.732-2.788,7.46-4.185,11.188
	c-0.214,0.57-0.211,0.566,0.281,0.942c1.825,1.392,3.684,2.742,5.463,4.191c3.272,2.666,6.566,5.302,9.986,7.776
	c0.528,0.382,1.123,0.691,1.722,0.952C28.933,48.028,29.681,48.231,30.491,48.083z M49.232,36.724
	c-0.032-0.095-0.054-0.165-0.08-0.233c-1.101-2.937-2.205-5.873-3.302-8.811c-0.48-1.286-0.939-2.58-1.423-3.865
	c-0.035-0.092-0.178-0.172-0.287-0.202c-1.923-0.539-3.822-1.153-5.653-1.954c-1.335-0.583-2.639-1.235-3.972-1.822
	c-2.228-0.982-4.41-0.863-6.515,0.372c-2.079,1.221-3.805,2.843-5.285,4.732c-0.54,0.689-0.996,1.437-1.197,2.307
	c-0.17,0.736,0.126,1.317,0.776,1.513c0.184,0.055,0.388,0.091,0.577,0.074c1.454-0.132,2.725-0.635,3.616-1.862
	c0.232-0.319,0.526-0.528,0.923-0.553c1.092-0.07,2.073-0.469,3.017-0.988c0.643-0.354,1.127-0.269,1.664,0.244
	c0.544,0.52,1.087,1.043,1.662,1.528c2.274,1.917,4.565,3.813,6.839,5.729c1.613,1.36,3.215,2.735,4.648,4.291
	c0.344,0.374,0.668,0.765,1.005,1.153C47.242,37.825,48.224,37.282,49.232,36.724z M3.396,14.877c0,7.073,0,14.119,0,21.192
	c0.756,0,1.489,0.001,2.221,0c1.106-0.001,1.976-0.588,2.365-1.622c1.679-4.465,3.356-8.931,5.024-13.4
	c0.516-1.382-0.125-2.74-1.508-3.243c-2.608-0.949-5.216-1.895-7.824-2.842C3.59,14.932,3.503,14.91,3.396,14.877z M56.45,17.284
	c-0.092,0.028-0.161,0.047-0.229,0.071c-2.625,0.954-5.252,1.904-7.874,2.865c-1.429,0.524-2.031,1.86-1.497,3.286
	c1.136,3.033,2.274,6.064,3.411,9.096c0.528,1.407,1.052,2.816,1.584,4.222c0.412,1.088,1.253,1.66,2.42,1.66
	c0.548,0,1.097,0,1.645,0c0.174,0,0.348,0,0.54,0C56.45,31.411,56.45,24.368,56.45,17.284z"/>
</svg>
