<?xml version="1.0" encoding="utf-8"?>
<!-- Generator: Adobe Illustrator 17.0.0, SVG Export Plug-In . SVG Version: 6.00 Build 0)  -->
<!DOCTYPE svg PUBLIC "-//W3C//DTD SVG 1.1//EN" "http://www.w3.org/Graphics/SVG/1.1/DTD/svg11.dtd">
<svg version="1.1" id="圖層_1" xmlns="http://www.w3.org/2000/svg" xmlns:xlink="http://www.w3.org/1999/xlink" x="0px" y="0px"
	 width="60px" height="60px" viewBox="0 0 60 60" enable-background="new 0 0 60 60" xml:space="preserve">
<g id="XMLID_133_">
	<path id="XMLID_10030_" fill="#FFFFFF" d="M18.555,12.13c8.573,0,17.129,0,25.704,0c0.008-0.074,0.029-0.147,0.022-0.217
		c-0.067-0.609,0.108-1.161,0.336-1.719c1.025-2.519,2.027-5.047,3.038-7.571c0.369-0.92,1.159-1.486,2.093-1.5
		c0.944-0.014,1.77,0.533,2.152,1.461c0.519,1.262,1.017,2.532,1.523,3.799c0.545,1.363,1.084,2.728,1.64,4.087
		c0.16,0.391,0.266,0.779,0.227,1.203c-0.013,0.14-0.002,0.282-0.002,0.461c1.22,0,2.429,0,3.648,0c0,15.301,0,30.565,0,45.858
		c-0.121,0-0.222,0-0.323,0c-16.033,0-32.066,0.001-48.098-0.001c-3.947-0.001-7.277-2.554-8.162-6.288
		c-0.161-0.681-0.244-1.397-0.245-2.097c-0.014-12.14-0.028-24.28,0-36.42C2.117,9.651,3.775,7.033,6.98,5.549
		c2.63-1.218,5.275-1.016,7.746,0.536C16.939,7.474,18.185,9.518,18.555,12.13z M34.533,45.4c-2.183,2.177-4.336,4.325-6.538,6.521
		c-0.08-0.099-0.164-0.226-0.27-0.333c-0.862-0.87-1.731-1.735-2.591-2.608c-0.118-0.12-0.203-0.133-0.361-0.064
		c-0.74,0.324-1.485,0.64-2.238,0.932c-0.198,0.077-0.275,0.152-0.273,0.372c0.011,1.254,0.006,2.507,0.006,3.761
		c0,0.101,0,0.202,0,0.335c-0.13,0-0.231,0-0.332,0c-1.499,0-2.997,0.002-4.496-0.003c-0.167-0.001-0.27,0.049-0.375,0.184
		c-0.265,0.342-0.548,0.67-0.835,0.994c-0.195,0.22-0.408,0.422-0.625,0.646c13.842,0,27.664,0,41.497,0c0-14.063,0-28.109,0-42.166
		c-0.608,0-1.197,0-1.813,0c0,0.138,0,0.259,0,0.379c0,7.409,0,14.817,0,22.226c0,0.132,0.002,0.264-0.005,0.396
		c-0.075,1.528-1.257,2.658-2.78,2.658c-1.838,0-3.676,0.014-5.514-0.011c-0.374-0.005-0.778-0.089-1.114-0.249
		c-1.094-0.524-1.594-1.437-1.594-2.642c0.002-7.456,0.001-14.911,0.001-22.367c0-0.128,0-0.255,0-0.382c-8.585,0-17.127,0-25.669,0
		c0,0.616,0,1.206,0,1.836c1.224,0,2.432,0,3.655,0c0,0.143,0,0.246,0,0.349c0,1.254,0.003,2.507-0.003,3.761
		c-0.001,0.173,0.039,0.255,0.218,0.324c0.762,0.296,1.517,0.611,2.265,0.94c0.18,0.079,0.275,0.059,0.408-0.076
		c0.888-0.898,1.785-1.787,2.679-2.679c0.071-0.071,0.146-0.139,0.215-0.205c2.158,2.167,4.299,4.316,6.451,6.477
		c-0.039,0.041-0.101,0.111-0.167,0.176c-0.899,0.901-1.794,1.805-2.7,2.698c-0.148,0.146-0.151,0.25-0.069,0.435
		c0.314,0.714,0.616,1.434,0.892,2.163c0.089,0.236,0.194,0.305,0.441,0.303c1.235-0.014,2.469-0.007,3.704-0.007
		c0.101,0,0.202,0,0.319,0c0,3.064,0,6.094,0,9.148c-1.457,0-2.896,0-4.291,0c-0.358,0.841-0.69,1.65-1.051,2.445
		c-0.093,0.205-0.094,0.317,0.073,0.48C32.618,43.49,33.57,44.444,34.533,45.4z M16.78,44.548c0-0.152,0-0.233,0-0.315
		c0-10.349,0.002-20.698-0.006-31.047c0-0.459-0.039-0.927-0.131-1.376c-0.705-3.419-3.829-5.604-7.282-5.109
		c-3.029,0.434-5.425,3.16-5.427,6.201C3.929,23.336,3.932,33.77,3.933,44.204c0,0.088,0.01,0.176,0.018,0.293
		C7.261,40.45,13.473,40.529,16.78,44.548z M25.311,23.577c-0.092-0.044-0.137-0.06-0.176-0.084
		c-1.396-0.863-2.882-1.511-4.491-1.858c-0.191-0.041-0.198-0.153-0.197-0.306c0.004-1.122,0.002-2.243,0.002-3.365
		c0-0.101,0-0.201,0-0.313c-0.634,0-1.23,0-1.832,0c0,2.467,0,4.913,0,7.356c5.173,0.549,8.592,4.604,9.075,8.877
		c0.249,2.207-0.14,4.29-1.273,6.198c-1.76,2.963-4.397,4.617-7.821,5.03c0,0.133,0,0.236,0,0.339c0,1.395,0.018,2.79-0.008,4.185
		c-0.012,0.609-0.096,1.218-0.183,1.823c-0.049,0.339-0.171,0.668-0.264,1.015c0.777,0,1.532,0,2.307,0c0-0.128,0-0.231,0-0.334
		c0-1.093,0.007-2.187-0.006-3.28c-0.003-0.241,0.067-0.344,0.307-0.399c1.536-0.352,2.975-0.945,4.307-1.79
		c0.173-0.11,0.267-0.084,0.403,0.054c0.787,0.799,1.583,1.589,2.377,2.381c0.071,0.071,0.145,0.139,0.178,0.17
		c1.309-1.309,2.597-2.597,3.915-3.916c-0.895-0.895-1.814-1.812-2.744-2.742c0.937-1.473,1.597-3.074,1.982-4.813
		c1.327,0,2.631,0,3.924,0c0-1.848,0-3.662,0-5.49c-1.228,0-2.434-0.007-3.64,0.006c-0.226,0.002-0.306-0.076-0.354-0.283
		c-0.26-1.113-0.63-2.188-1.16-3.203c-0.238-0.456-0.497-0.903-0.782-1.418c0.925-0.905,1.859-1.819,2.779-2.718
		c-1.302-1.307-2.586-2.595-3.873-3.886C27.149,21.728,26.233,22.649,25.311,23.577z M10.212,43.312
		c-3.646,0.074-6.539,3.232-6.275,6.857c0.255,3.496,3.294,6.208,6.81,5.972c3.401-0.229,6.086-3.044,6.019-6.492
		C16.695,45.923,13.664,43.24,10.212,43.312z M21.214,38.023c1.204-1.632,1.432-3.352,0.491-5.155
		c-0.65-1.246-1.709-1.987-3.095-2.305c0,3.003,0,5.969,0,9.012c0.479-0.172,0.924-0.331,1.39-0.499
		c0.287,0.494,0.583,1.005,0.886,1.526c-0.094,0.056-0.161,0.113-0.239,0.14c-0.611,0.212-1.225,0.414-1.835,0.629
		c-0.08,0.028-0.202,0.105-0.204,0.161c-0.015,0.563-0.009,1.127-0.009,1.691c1.853-0.081,4.604-1.296,6.115-3.853
		c1.706-2.886,1.679-5.823-0.046-8.674c-1.36-2.246-3.429-3.492-6.054-3.841c0,0.643,0,1.242,0,1.829
		c2.809,0.603,4.669,2.217,5.325,5.031c0.47,2.017-0.038,3.848-1.341,5.48C22.115,38.787,21.664,38.404,21.214,38.023z
		 M46.14,12.149c0,6.424,0,12.825,0,19.236c0.914,0,1.805,0,2.712,0c0-6.419,0-12.82,0-19.236
		C47.944,12.149,47.053,12.149,46.14,12.149z M53.436,31.39c0-6.426,0-12.828,0-19.235c-0.917,0-1.816,0-2.709,0
		c0,6.421,0,12.822,0,19.235C51.634,31.39,52.517,31.39,53.436,31.39z M46.138,33.235c-0.009,0.059-0.019,0.095-0.019,0.131
		c-0.001,1.169-0.009,2.337,0.002,3.506c0.006,0.582,0.388,0.944,0.97,0.945c1.772,0.003,3.543,0.002,5.315,0.001
		c0.684,0,1.044-0.356,1.047-1.045c0.005-1.103,0.002-2.205,0-3.308c0-0.072-0.01-0.145-0.017-0.23
		C51,33.235,48.582,33.235,46.138,33.235z M52.987,10.291c-0.01-0.063-0.009-0.101-0.022-0.133
		c-0.915-2.286-1.832-4.572-2.748-6.859c-0.083-0.208-0.23-0.321-0.453-0.311c-0.224,0.009-0.346,0.145-0.427,0.349
		c-0.898,2.253-1.801,4.503-2.701,6.755c-0.023,0.057-0.033,0.118-0.055,0.198C48.724,10.291,50.839,10.291,52.987,10.291z"/>
	<path id="XMLID_9938_" fill="#FFFFFF" d="M36.976,41.498c6.107,0,12.191,0,18.293,0c0,4.266,0,8.52,0,12.796
		c-6.092,0-12.181,0-18.293,0C36.976,50.034,36.976,45.781,36.976,41.498z M38.789,52.479c4.899,0,9.767,0,14.649,0
		c0-3.059,0-6.099,0-9.15c-4.892,0-9.767,0-14.649,0C38.789,46.386,38.789,49.42,38.789,52.479z"/>
	<path id="XMLID_9936_" fill="#FFFFFF" d="M14.888,49.72c-0.579,0-1.16,0-1.769,0c-0.056-0.945-0.435-1.725-1.225-2.268
		c-0.538-0.37-1.143-0.527-1.794-0.468c-1.276,0.115-2.368,1.174-2.483,2.396c-0.077,0.817,0.116,1.556,0.668,2.175
		c0.539,0.606,1.234,0.907,2.047,0.949c0,0.606,0,1.187,0,1.768c-1.107,0.155-2.979-0.596-3.915-2.191
		c-1.031-1.757-0.818-3.962,0.54-5.427c1.399-1.509,3.588-1.932,5.435-1.022C14.092,46.471,14.995,48.277,14.888,49.72z"/>
	<path id="XMLID_9816_" fill="#FFFFFF" d="M40.632,50.627c0-0.602,0-1.183,0-1.783c2.433,0,4.851,0,7.292,0c0,0.585,0,1.174,0,1.783
		C45.506,50.627,43.081,50.627,40.632,50.627z"/>
	<path id="XMLID_2268_" fill="#FFFFFF" d="M49.809,48.84c0.602,0,1.182,0,1.785,0c0,0.588,0,1.175,0,1.785c-0.582,0-1.175,0-1.785,0
		C49.809,50.036,49.809,49.457,49.809,48.84z"/>
</g>
</svg>
