<?xml version="1.0" encoding="utf-8"?>
<!-- Generator: Adobe Illustrator 17.0.0, SVG Export Plug-In . SVG Version: 6.00 Build 0)  -->
<!DOCTYPE svg PUBLIC "-//W3C//DTD SVG 1.1//EN" "http://www.w3.org/Graphics/SVG/1.1/DTD/svg11.dtd">
<svg version="1.1" id="圖層_1" xmlns="http://www.w3.org/2000/svg" xmlns:xlink="http://www.w3.org/1999/xlink" x="0px" y="0px"
	 width="60px" height="60px" viewBox="0 0 60 60" enable-background="new 0 0 60 60" xml:space="preserve">
<g id="XMLID_132_">
	<path id="XMLID_10028_" fill="#FFFFFF" d="M59,46.852c-5.314,0-10.578,0-15.864,0c0,0.558,0,1.092,0,1.655
		c-0.631,0.161-1.244,0.346-1.869,0.466c-0.371,0.071-0.532,0.244-0.643,0.599c-0.156,0.5-0.392,0.977-0.616,1.453
		c-0.082,0.174-0.094,0.3,0.012,0.468c0.376,0.6,0.735,1.21,1.09,1.799c-1.229,1.23-2.441,2.443-3.674,3.677
		c-0.592-0.353-1.212-0.713-1.819-1.092c-0.161-0.1-0.28-0.094-0.447-0.02c-0.578,0.255-1.168,0.48-1.744,0.738
		c-0.107,0.048-0.213,0.181-0.245,0.296c-0.17,0.619-0.325,1.242-0.466,1.868c-0.043,0.189-0.124,0.241-0.31,0.24
		c-1.564-0.007-3.128-0.007-4.692,0c-0.187,0.001-0.265-0.054-0.308-0.242c-0.139-0.616-0.31-1.226-0.45-1.842
		c-0.046-0.204-0.149-0.288-0.341-0.36c-0.564-0.211-1.12-0.446-1.669-0.693c-0.168-0.076-0.285-0.082-0.445,0.018
		c-0.602,0.374-1.215,0.732-1.799,1.08c-1.228-1.228-2.447-2.446-3.685-3.684c0.349-0.577,0.711-1.186,1.084-1.787
		c0.096-0.154,0.1-0.27,0.022-0.443c-0.256-0.566-0.488-1.144-0.713-1.723c-0.062-0.161-0.143-0.241-0.313-0.282
		c-0.697-0.166-1.39-0.349-2.1-0.529c0-0.549,0-1.084,0-1.654c-5.29,0-10.561,0-15.859,0c-0.007-0.136-0.016-0.238-0.016-0.34
		c-0.001-14.163-0.001-28.327,0-42.49c0-1.749,1.208-2.922,3.002-2.922c15.833-0.001,31.666,0,47.499,0
		c1.497,0,2.994-0.006,4.491,0.002c1.412,0.007,2.517,0.878,2.809,2.215c0.059,0.269,0.076,0.552,0.076,0.828
		C59,18.265,59,32.381,59,46.496C59,46.6,59,46.703,59,46.852z M2.999,44.974c4.681,0,9.329,0,14.005,0c0-0.566,0-1.11,0-1.653
		c0.706-0.173,1.384-0.345,2.065-0.501c0.19-0.043,0.279-0.135,0.348-0.318c0.208-0.555,0.431-1.106,0.681-1.643
		c0.097-0.209,0.09-0.355-0.029-0.545c-0.369-0.591-0.719-1.195-1.057-1.76c1.238-1.238,2.451-2.451,3.68-3.681
		c0.592,0.355,1.211,0.72,1.822,1.097c0.148,0.091,0.263,0.085,0.42,0.016c0.569-0.251,1.144-0.489,1.724-0.711
		c0.164-0.063,0.245-0.147,0.285-0.312c0.151-0.634,0.316-1.264,0.467-1.898c0.035-0.147,0.098-0.202,0.252-0.201
		c1.593,0.005,3.186,0.006,4.779-0.001c0.17-0.001,0.231,0.063,0.268,0.219c0.146,0.615,0.31,1.226,0.455,1.841
		c0.043,0.183,0.12,0.288,0.31,0.359c0.582,0.219,1.155,0.461,1.725,0.711c0.149,0.065,0.256,0.068,0.394-0.017
		c0.563-0.347,1.134-0.68,1.698-1.026c0.126-0.077,0.207-0.076,0.318,0.036c1.122,1.131,2.248,2.257,3.38,3.378
		c0.121,0.12,0.119,0.204,0.034,0.341c-0.338,0.546-0.658,1.103-0.997,1.649c-0.102,0.164-0.109,0.289-0.022,0.469
		c0.217,0.447,0.454,0.896,0.584,1.372c0.125,0.456,0.365,0.64,0.813,0.716c0.58,0.099,1.147,0.276,1.732,0.422
		c0,0.564,0,1.099,0,1.649c4.67,0,9.319,0,13.977,0c0-11.516,0-23.014,0-34.521c-18.047,0-36.073,0-54.112,0
		C2.999,21.97,2.999,33.463,2.999,44.974z M57.132,8.567c0-0.116,0-0.202,0-0.288c0-1.401,0.001-2.801-0.001-4.202
		c-0.001-0.757-0.349-1.1-1.113-1.1c-17.308,0-34.615,0-51.923,0c-0.767,0-1.108,0.339-1.109,1.101
		c-0.001,1.401-0.001,2.801,0,4.202c0,0.092,0.01,0.185,0.016,0.287C21.048,8.567,39.071,8.567,57.132,8.567z M22.949,37.189
		c-0.512,0.509-0.997,1-1.493,1.48c-0.122,0.118-0.09,0.204-0.018,0.322c0.286,0.466,0.56,0.938,0.85,1.401
		c0.084,0.133,0.081,0.231-0.003,0.361c-0.662,1.024-1.129,2.129-1.389,3.323c-0.021,0.099-0.147,0.219-0.248,0.248
		c-0.525,0.151-1.055,0.28-1.587,0.406c-0.157,0.037-0.219,0.105-0.217,0.272c0.009,0.614,0.01,1.228-0.001,1.842
		c-0.003,0.184,0.073,0.246,0.238,0.285c0.523,0.121,1.044,0.247,1.56,0.394c0.102,0.029,0.232,0.146,0.254,0.245
		c0.272,1.189,0.713,2.305,1.393,3.321c0.088,0.131,0.081,0.229,0,0.359c-0.289,0.463-0.571,0.932-0.844,1.405
		c-0.042,0.072-0.061,0.223-0.018,0.267c0.498,0.516,1.01,1.019,1.523,1.529c0.525-0.315,1.04-0.612,1.54-0.931
		c0.174-0.111,0.298-0.095,0.459,0.012c0.969,0.644,2.024,1.087,3.164,1.318c0.245,0.05,0.342,0.169,0.393,0.404
		c0.121,0.558,0.273,1.109,0.411,1.658c0.78,0,1.525,0,2.288,0c0.146-0.584,0.297-1.157,0.431-1.734
		c0.042-0.179,0.118-0.276,0.306-0.317c1.172-0.255,2.267-0.705,3.272-1.361c0.143-0.093,0.246-0.083,0.386,0.003
		c0.519,0.322,1.046,0.631,1.58,0.951c0.509-0.511,1.007-1.002,1.49-1.508c0.05-0.053,0.049-0.213,0.007-0.287
		c-0.259-0.459-0.53-0.912-0.813-1.356c-0.105-0.165-0.119-0.289-0.007-0.459c0.657-0.994,1.099-2.082,1.347-3.246
		c0.039-0.185,0.131-0.252,0.294-0.291c0.521-0.126,1.039-0.269,1.562-0.388c0.165-0.038,0.216-0.108,0.214-0.271
		c-0.008-0.614-0.008-1.228,0-1.842c0.002-0.164-0.052-0.238-0.213-0.276c-0.531-0.125-1.062-0.256-1.588-0.403
		c-0.097-0.027-0.227-0.129-0.246-0.217c-0.266-1.212-0.742-2.333-1.399-3.383c-0.049-0.078-0.04-0.239,0.009-0.324
		c0.268-0.476,0.563-0.937,0.833-1.411c0.043-0.076,0.054-0.238,0.006-0.288c-0.49-0.512-0.996-1.009-1.502-1.514
		c-0.532,0.319-1.053,0.623-1.565,0.943c-0.151,0.094-0.262,0.097-0.413,0c-0.999-0.647-2.083-1.098-3.247-1.348
		c-0.2-0.043-0.277-0.15-0.321-0.337c-0.133-0.576-0.283-1.148-0.426-1.724c-0.771,0-1.518,0-2.285,0
		c-0.15,0.596-0.306,1.187-0.444,1.782c-0.038,0.164-0.109,0.244-0.272,0.277c-1.168,0.238-2.254,0.682-3.251,1.334
		c-0.182,0.119-0.316,0.101-0.49-0.009C23.968,37.793,23.463,37.498,22.949,37.189z"/>
	<path id="XMLID_9820_" fill="#FFFFFF" d="M7.225,27.256c0.227-0.21,0.415-0.373,0.59-0.547c1.131-1.121,1.716-2.47,1.706-4.073
		c-0.009-1.574-0.007-3.147,0-4.721c0.013-2.999,2.328-5.423,5.323-5.582c0.076-0.004,0.152-0.001,0.251-0.001
		c0,0.605,0,1.204,0,1.814c-0.22,0.03-0.439,0.049-0.654,0.09c-1.798,0.346-3.035,1.822-3.052,3.658
		c-0.012,1.362-0.03,2.726,0.004,4.087c0.048,1.919-0.341,3.695-1.551,5.231c0.238,0.386,0.486,0.748,0.693,1.133
		c0.605,1.121,0.85,2.333,0.851,3.599c0.001,1.526-0.006,3.051,0.002,4.577c0.01,1.932,1.251,3.407,3.149,3.754
		c0.177,0.032,0.36,0.037,0.56,0.057c0,0.605,0,1.205,0,1.836c-0.557,0.035-1.088-0.079-1.606-0.239
		c-2.42-0.75-3.957-2.864-3.971-5.46c-0.008-1.535-0.005-3.07-0.001-4.606c0.005-1.588-0.552-2.94-1.685-4.052
		C7.652,27.633,7.456,27.465,7.225,27.256z"/>
	<path id="XMLID_9819_" fill="#FFFFFF" d="M45.014,14.15c0-0.603,0-1.195,0-1.871c0.504,0.085,1.004,0.113,1.468,0.256
		c2.286,0.704,3.632,2.255,4.04,4.611c0.057,0.329,0.071,0.668,0.073,1.003c0.008,1.448,0.022,2.897-0.002,4.345
		c-0.028,1.71,0.559,3.147,1.808,4.315c0.133,0.124,0.258,0.257,0.385,0.387c0.012,0.013,0.015,0.034,0.049,0.118
		c-0.164,0.147-0.356,0.304-0.533,0.478c-1.153,1.132-1.727,2.495-1.711,4.124c0.017,1.726,0.048,3.456-0.043,5.178
		c-0.146,2.75-2.637,5.055-5.387,5.084c-0.038,0-0.075-0.006-0.137-0.011c0-0.611,0-1.217,0-1.805
		c0.362-0.069,0.716-0.105,1.052-0.205c1.544-0.456,2.617-1.846,2.644-3.457c0.025-1.477,0.029-2.955,0.003-4.432
		c-0.031-1.791,0.374-3.437,1.461-4.889c0.044-0.058,0.043-0.207,0-0.265c-1.088-1.452-1.487-3.101-1.46-4.89
		c0.022-1.477,0.032-2.955-0.011-4.431c-0.056-1.953-1.518-3.45-3.461-3.615C45.178,14.169,45.103,14.159,45.014,14.15z"/>
	<path id="XMLID_2105_" fill="#FFFFFF" d="M44.973,17.933c0,0.61,0,1.202,0,1.821c-9.939,0-19.871,0-29.823,0
		c0-0.604,0-1.202,0-1.821C25.085,17.933,35.01,17.933,44.973,17.933z"/>
	<path id="XMLID_2104_" fill="#FFFFFF" d="M15.145,27.223c0-0.614,0-1.205,0-1.815c9.94,0,19.872,0,29.824,0
		c0,0.604,0,1.201,0,1.815C35.029,27.223,25.105,27.223,15.145,27.223z"/>
	<path id="XMLID_2103_" fill="#FFFFFF" d="M32.884,23.49c0-0.615,0-1.207,0-1.819c4.026,0,8.046,0,12.086,0c0,0.605,0,1.202,0,1.819
		C40.941,23.49,36.929,23.49,32.884,23.49z"/>
	<path id="XMLID_2102_" fill="#FFFFFF" d="M27.236,21.667c0,0.61,0,1.201,0,1.817c-4.028,0-8.046,0-12.085,0
		c0-0.605,0-1.203,0-1.817C19.175,21.667,23.188,21.667,27.236,21.667z"/>
	<path id="XMLID_2100_" fill="#FFFFFF" d="M15.144,30.956c0-0.609,0-1.2,0-1.811c4.027,0,8.042,0,12.081,0c0,0.596,0,1.193,0,1.811
		C23.21,30.956,19.195,30.956,15.144,30.956z"/>
	<path id="XMLID_2098_" fill="#FFFFFF" d="M44.974,29.145c0,0.609,0,1.2,0,1.81c-4.027,0-8.042,0-12.081,0c0-0.595,0-1.193,0-1.81
		C36.909,29.145,40.924,29.145,44.974,29.145z"/>
	<path id="XMLID_2097_" fill="#FFFFFF" d="M4.869,6.707c0-0.636,0-1.233,0-1.847c0.614,0,1.212,0,1.847,0
		c0,0.58,0.003,1.151-0.005,1.722c-0.001,0.042-0.078,0.119-0.12,0.12C6.02,6.71,5.449,6.707,4.869,6.707z"/>
	<path id="XMLID_2095_" fill="#FFFFFF" d="M14.168,4.866c0,0.611,0,1.203,0,1.819c-0.606,0-1.203,0-1.82,0c0-0.599,0-1.198,0-1.819
		C12.939,4.866,13.536,4.866,14.168,4.866z"/>
	<path id="XMLID_2094_" fill="#FFFFFF" d="M8.611,4.858c0.602,0,1.192,0,1.809,0c0,0.604,0,1.201,0,1.825c-0.594,0-1.19,0-1.809,0
		C8.611,6.089,8.611,5.491,8.611,4.858z"/>
	<path id="XMLID_2078_" fill="#FFFFFF" d="M30.033,49.645c-2.086-0.02-3.723-1.691-3.706-3.785c0.016-2.044,1.719-3.689,3.795-3.665
		c2.036,0.023,3.688,1.722,3.669,3.771C33.772,48.005,32.076,49.665,30.033,49.645z M30.057,47.787
		c1.029-0.001,1.859-0.812,1.868-1.825c0.009-1.051-0.816-1.901-1.855-1.912c-1.011-0.01-1.873,0.827-1.878,1.826
		C28.185,46.965,28.988,47.788,30.057,47.787z"/>
	<path id="XMLID_2077_" fill="#FFFFFF" d="M23.518,42.393c0.527,0.286,1.054,0.573,1.58,0.859c-1.106,2.496-0.873,4.804,1.109,6.719
		c1.897,1.832,4.138,1.973,6.528,0.91c0.284,0.523,0.57,1.05,0.856,1.576c-2.159,1.303-6.01,1.511-8.768-1.21
		C22.141,48.603,22.111,44.764,23.518,42.393z"/>
	<path id="XMLID_2076_" fill="#FFFFFF" d="M27.389,40.969c-0.272-0.502-0.536-0.989-0.799-1.477
		c-0.022-0.04-0.033-0.087-0.049-0.128c2.496-1.423,6.242-1.293,8.822,1.318c2.461,2.489,2.715,6.222,1.242,8.781
		c-0.526-0.285-1.053-0.571-1.578-0.856c1.12-2.592,0.807-4.927-1.276-6.885C32.261,40.321,29.834,39.76,27.389,40.969z"/>
	<path id="XMLID_276_" fill="#FFFFFF" d="M59,46.852c-5.314,0-10.578,0-15.864,0c0,0.558,0,1.092,0,1.655
		c-0.631,0.161-1.244,0.346-1.869,0.466c-0.371,0.071-0.532,0.244-0.643,0.599c-0.156,0.5-0.392,0.977-0.616,1.453
		c-0.082,0.174-0.094,0.3,0.012,0.468c0.376,0.6,0.735,1.21,1.09,1.799c-1.229,1.23-2.441,2.443-3.674,3.677
		c-0.592-0.353-1.212-0.713-1.819-1.092c-0.161-0.1-0.28-0.094-0.447-0.02c-0.578,0.255-1.168,0.48-1.744,0.738
		c-0.107,0.048-0.213,0.181-0.245,0.296c-0.17,0.619-0.325,1.242-0.466,1.868c-0.043,0.189-0.124,0.241-0.31,0.24
		c-1.564-0.007-3.128-0.007-4.692,0c-0.187,0.001-0.265-0.054-0.308-0.242c-0.139-0.616-0.31-1.226-0.45-1.842
		c-0.046-0.204-0.149-0.288-0.341-0.36c-0.564-0.211-1.12-0.446-1.669-0.693c-0.168-0.076-0.285-0.082-0.445,0.018
		c-0.602,0.374-1.215,0.732-1.799,1.08c-1.228-1.228-2.447-2.446-3.685-3.684c0.349-0.577,0.711-1.186,1.084-1.787
		c0.096-0.154,0.1-0.27,0.022-0.443c-0.256-0.566-0.488-1.144-0.713-1.723c-0.062-0.161-0.143-0.241-0.313-0.282
		c-0.697-0.166-1.39-0.349-2.1-0.529c0-0.549,0-1.084,0-1.654c-5.29,0-10.561,0-15.859,0c-0.007-0.136-0.016-0.238-0.016-0.34
		c-0.001-14.163-0.001-28.327,0-42.49c0-1.749,1.208-2.922,3.002-2.922c15.833-0.001,31.666,0,47.499,0
		c1.497,0,2.994-0.006,4.491,0.002c1.412,0.007,2.517,0.878,2.809,2.215c0.059,0.269,0.076,0.552,0.076,0.828
		C59,18.265,59,32.381,59,46.496C59,46.6,59,46.703,59,46.852z M2.999,44.974c4.681,0,9.329,0,14.005,0c0-0.566,0-1.11,0-1.653
		c0.706-0.173,1.384-0.345,2.065-0.501c0.19-0.043,0.279-0.135,0.348-0.318c0.208-0.555,0.431-1.106,0.681-1.643
		c0.097-0.209,0.09-0.355-0.029-0.545c-0.369-0.591-0.719-1.195-1.057-1.76c1.238-1.238,2.451-2.451,3.68-3.681
		c0.592,0.355,1.211,0.72,1.822,1.097c0.148,0.091,0.263,0.085,0.42,0.016c0.569-0.251,1.144-0.489,1.724-0.711
		c0.164-0.063,0.245-0.147,0.285-0.312c0.151-0.634,0.316-1.264,0.467-1.898c0.035-0.147,0.098-0.202,0.252-0.201
		c1.593,0.005,3.186,0.006,4.779-0.001c0.17-0.001,0.231,0.063,0.268,0.219c0.146,0.615,0.31,1.226,0.455,1.841
		c0.043,0.183,0.12,0.288,0.31,0.359c0.582,0.219,1.155,0.461,1.725,0.711c0.149,0.065,0.256,0.068,0.394-0.017
		c0.563-0.347,1.134-0.68,1.698-1.026c0.126-0.077,0.207-0.076,0.318,0.036c1.122,1.131,2.248,2.257,3.38,3.378
		c0.121,0.12,0.119,0.204,0.034,0.341c-0.338,0.546-0.658,1.103-0.997,1.649c-0.102,0.164-0.109,0.289-0.022,0.469
		c0.217,0.447,0.454,0.896,0.584,1.372c0.125,0.456,0.365,0.64,0.813,0.716c0.58,0.099,1.147,0.276,1.732,0.422
		c0,0.564,0,1.099,0,1.649c4.67,0,9.319,0,13.977,0c0-11.516,0-23.014,0-34.521c-18.047,0-36.073,0-54.112,0
		C2.999,21.97,2.999,33.463,2.999,44.974z M57.132,8.567c0-0.116,0-0.202,0-0.288c0-1.401,0.001-2.801-0.001-4.202
		c-0.001-0.757-0.349-1.1-1.113-1.1c-17.308,0-34.615,0-51.923,0c-0.767,0-1.108,0.339-1.109,1.101
		c-0.001,1.401-0.001,2.801,0,4.202c0,0.092,0.01,0.185,0.016,0.287C21.048,8.567,39.071,8.567,57.132,8.567z M22.949,37.189
		c-0.512,0.509-0.997,1-1.493,1.48c-0.122,0.118-0.09,0.204-0.018,0.322c0.286,0.466,0.56,0.938,0.85,1.401
		c0.084,0.133,0.081,0.231-0.003,0.361c-0.662,1.024-1.129,2.129-1.389,3.323c-0.021,0.099-0.147,0.219-0.248,0.248
		c-0.525,0.151-1.055,0.28-1.587,0.406c-0.157,0.037-0.219,0.105-0.217,0.272c0.009,0.614,0.01,1.228-0.001,1.842
		c-0.003,0.184,0.073,0.246,0.238,0.285c0.523,0.121,1.044,0.247,1.56,0.394c0.102,0.029,0.232,0.146,0.254,0.245
		c0.272,1.189,0.713,2.305,1.393,3.321c0.088,0.131,0.081,0.229,0,0.359c-0.289,0.463-0.571,0.932-0.844,1.405
		c-0.042,0.072-0.061,0.223-0.018,0.267c0.498,0.516,1.01,1.019,1.523,1.529c0.525-0.315,1.04-0.612,1.54-0.931
		c0.174-0.111,0.298-0.095,0.459,0.012c0.969,0.644,2.024,1.087,3.164,1.318c0.245,0.05,0.342,0.169,0.393,0.404
		c0.121,0.558,0.273,1.109,0.411,1.658c0.78,0,1.525,0,2.288,0c0.146-0.584,0.297-1.157,0.431-1.734
		c0.042-0.179,0.118-0.276,0.306-0.317c1.172-0.255,2.267-0.705,3.272-1.361c0.143-0.093,0.246-0.083,0.386,0.003
		c0.519,0.322,1.046,0.631,1.58,0.951c0.509-0.511,1.007-1.002,1.49-1.508c0.05-0.053,0.049-0.213,0.007-0.287
		c-0.259-0.459-0.53-0.912-0.813-1.356c-0.105-0.165-0.119-0.289-0.007-0.459c0.657-0.994,1.099-2.082,1.347-3.246
		c0.039-0.185,0.131-0.252,0.294-0.291c0.521-0.126,1.039-0.269,1.562-0.388c0.165-0.038,0.216-0.108,0.214-0.271
		c-0.008-0.614-0.008-1.228,0-1.842c0.002-0.164-0.052-0.238-0.213-0.276c-0.531-0.125-1.062-0.256-1.588-0.403
		c-0.097-0.027-0.227-0.129-0.246-0.217c-0.266-1.212-0.742-2.333-1.399-3.383c-0.049-0.078-0.04-0.239,0.009-0.324
		c0.268-0.476,0.563-0.937,0.833-1.411c0.043-0.076,0.054-0.238,0.006-0.288c-0.49-0.512-0.996-1.009-1.502-1.514
		c-0.532,0.319-1.053,0.623-1.565,0.943c-0.151,0.094-0.262,0.097-0.413,0c-0.999-0.647-2.083-1.098-3.247-1.348
		c-0.2-0.043-0.277-0.15-0.321-0.337c-0.133-0.576-0.283-1.148-0.426-1.724c-0.771,0-1.518,0-2.285,0
		c-0.15,0.596-0.306,1.187-0.444,1.782c-0.038,0.164-0.109,0.244-0.272,0.277c-1.168,0.238-2.254,0.682-3.251,1.334
		c-0.182,0.119-0.316,0.101-0.49-0.009C23.968,37.793,23.463,37.498,22.949,37.189z"/>
	<path id="XMLID_272_" fill="#FFFFFF" d="M7.225,27.256c0.227-0.21,0.415-0.373,0.59-0.547c1.131-1.121,1.716-2.47,1.706-4.073
		c-0.009-1.574-0.007-3.147,0-4.721c0.013-2.999,2.328-5.423,5.323-5.582c0.076-0.004,0.152-0.001,0.251-0.001
		c0,0.605,0,1.204,0,1.814c-0.22,0.03-0.439,0.049-0.654,0.09c-1.798,0.346-3.035,1.822-3.052,3.658
		c-0.012,1.362-0.03,2.726,0.004,4.087c0.048,1.919-0.341,3.695-1.551,5.231c0.238,0.386,0.486,0.748,0.693,1.133
		c0.605,1.121,0.85,2.333,0.851,3.599c0.001,1.526-0.006,3.051,0.002,4.577c0.01,1.932,1.251,3.407,3.149,3.754
		c0.177,0.032,0.36,0.037,0.56,0.057c0,0.605,0,1.205,0,1.836c-0.557,0.035-1.088-0.079-1.606-0.239
		c-2.42-0.75-3.957-2.864-3.971-5.46c-0.008-1.535-0.005-3.07-0.001-4.606c0.005-1.588-0.552-2.94-1.685-4.052
		C7.652,27.633,7.456,27.465,7.225,27.256z"/>
	<path id="XMLID_270_" fill="#FFFFFF" d="M45.014,14.15c0-0.603,0-1.195,0-1.871c0.504,0.085,1.004,0.113,1.468,0.256
		c2.286,0.704,3.632,2.255,4.04,4.611c0.057,0.329,0.071,0.668,0.073,1.003c0.008,1.448,0.022,2.897-0.002,4.345
		c-0.028,1.71,0.559,3.147,1.808,4.315c0.133,0.124,0.258,0.257,0.385,0.387c0.012,0.013,0.015,0.034,0.049,0.118
		c-0.164,0.147-0.356,0.304-0.533,0.478c-1.153,1.132-1.727,2.495-1.711,4.124c0.017,1.726,0.048,3.456-0.043,5.178
		c-0.146,2.75-2.637,5.055-5.387,5.084c-0.038,0-0.075-0.006-0.137-0.011c0-0.611,0-1.217,0-1.805
		c0.362-0.069,0.716-0.105,1.052-0.205c1.544-0.456,2.617-1.846,2.644-3.457c0.025-1.477,0.029-2.955,0.003-4.432
		c-0.031-1.791,0.374-3.437,1.461-4.889c0.044-0.058,0.043-0.207,0-0.265c-1.088-1.452-1.487-3.101-1.46-4.89
		c0.022-1.477,0.032-2.955-0.011-4.431c-0.056-1.953-1.518-3.45-3.461-3.615C45.178,14.169,45.103,14.159,45.014,14.15z"/>
	<path id="XMLID_262_" fill="#FFFFFF" d="M44.973,17.933c0,0.61,0,1.202,0,1.821c-9.939,0-19.871,0-29.823,0
		c0-0.604,0-1.202,0-1.821C25.085,17.933,35.01,17.933,44.973,17.933z"/>
	<path id="XMLID_261_" fill="#FFFFFF" d="M15.145,27.223c0-0.614,0-1.205,0-1.815c9.94,0,19.872,0,29.824,0c0,0.604,0,1.201,0,1.815
		C35.029,27.223,25.105,27.223,15.145,27.223z"/>
	<path id="XMLID_260_" fill="#FFFFFF" d="M32.884,23.49c0-0.615,0-1.207,0-1.819c4.026,0,8.046,0,12.086,0c0,0.605,0,1.202,0,1.819
		C40.941,23.49,36.929,23.49,32.884,23.49z"/>
	<path id="XMLID_233_" fill="#FFFFFF" d="M27.236,21.667c0,0.61,0,1.201,0,1.817c-4.028,0-8.046,0-12.085,0c0-0.605,0-1.203,0-1.817
		C19.175,21.667,23.188,21.667,27.236,21.667z"/>
	<path id="XMLID_230_" fill="#FFFFFF" d="M15.144,30.956c0-0.609,0-1.2,0-1.811c4.027,0,8.042,0,12.081,0c0,0.596,0,1.193,0,1.811
		C23.21,30.956,19.195,30.956,15.144,30.956z"/>
	<path id="XMLID_229_" fill="#FFFFFF" d="M44.974,29.145c0,0.609,0,1.2,0,1.81c-4.027,0-8.042,0-12.081,0c0-0.595,0-1.193,0-1.81
		C36.909,29.145,40.924,29.145,44.974,29.145z"/>
	<path id="XMLID_227_" fill="#FFFFFF" d="M4.869,6.707c0-0.636,0-1.233,0-1.847c0.614,0,1.212,0,1.847,0
		c0,0.58,0.003,1.151-0.005,1.722c-0.001,0.042-0.078,0.119-0.12,0.12C6.02,6.71,5.449,6.707,4.869,6.707z"/>
	<path id="XMLID_221_" fill="#FFFFFF" d="M14.168,4.866c0,0.611,0,1.203,0,1.819c-0.606,0-1.203,0-1.82,0c0-0.599,0-1.198,0-1.819
		C12.939,4.866,13.536,4.866,14.168,4.866z"/>
	<path id="XMLID_220_" fill="#FFFFFF" d="M8.611,4.858c0.602,0,1.192,0,1.809,0c0,0.604,0,1.201,0,1.825c-0.594,0-1.19,0-1.809,0
		C8.611,6.089,8.611,5.491,8.611,4.858z"/>
	<path id="XMLID_216_" fill="#FFFFFF" d="M30.033,49.645c-2.086-0.02-3.723-1.691-3.706-3.785c0.016-2.044,1.719-3.689,3.795-3.665
		c2.036,0.023,3.688,1.722,3.669,3.771C33.772,48.005,32.076,49.665,30.033,49.645z M30.057,47.787
		c1.029-0.001,1.859-0.812,1.868-1.825c0.009-1.051-0.816-1.901-1.855-1.912c-1.011-0.01-1.873,0.827-1.878,1.826
		C28.185,46.965,28.988,47.788,30.057,47.787z"/>
	<path id="XMLID_146_" fill="#FFFFFF" d="M23.518,42.393c0.527,0.286,1.054,0.573,1.58,0.859c-1.106,2.496-0.873,4.804,1.109,6.719
		c1.897,1.832,4.138,1.973,6.528,0.91c0.284,0.523,0.57,1.05,0.856,1.576c-2.159,1.303-6.01,1.511-8.768-1.21
		C22.141,48.603,22.111,44.764,23.518,42.393z"/>
	<path id="XMLID_144_" fill="#FFFFFF" d="M27.389,40.969c-0.272-0.502-0.536-0.989-0.799-1.477c-0.022-0.04-0.033-0.087-0.049-0.128
		c2.496-1.423,6.242-1.293,8.822,1.318c2.461,2.489,2.715,6.222,1.242,8.781c-0.526-0.285-1.053-0.571-1.578-0.856
		c1.12-2.592,0.807-4.927-1.276-6.885C32.261,40.321,29.834,39.76,27.389,40.969z"/>
</g>
</svg>
