<?xml version="1.0" encoding="utf-8"?>
<!-- Generator: Adobe Illustrator 17.0.0, SVG Export Plug-In . SVG Version: 6.00 Build 0)  -->
<!DOCTYPE svg PUBLIC "-//W3C//DTD SVG 1.1//EN" "http://www.w3.org/Graphics/SVG/1.1/DTD/svg11.dtd">
<svg version="1.1" id="圖層_1" xmlns="http://www.w3.org/2000/svg" xmlns:xlink="http://www.w3.org/1999/xlink" x="0px" y="0px"
	 width="60px" height="60px" viewBox="0 0 60 60" enable-background="new 0 0 60 60" xml:space="preserve">
<g id="XMLID_71_">
	<path id="XMLID_17786_" fill="#FFFFFF" d="M8.442,28.761c-1.668-1.667-3.31-3.308-4.964-4.962c0.39-0.649,0.785-1.32,1.197-1.98
		c0.1-0.16,0.094-0.28,0.019-0.444c-0.177-0.389-0.343-0.784-0.485-1.187c-0.06-0.17-0.155-0.239-0.314-0.278
		c-0.683-0.169-1.364-0.343-2.046-0.517c-0.082-0.021-0.163-0.047-0.262-0.076c0-0.094,0-0.178,0-0.263
		c0-2.142,0.004-4.285-0.006-6.427c-0.001-0.224,0.067-0.315,0.282-0.364c0.686-0.157,1.369-0.327,2.048-0.509
		c0.106-0.028,0.227-0.132,0.273-0.231c0.189-0.414,0.363-0.837,0.517-1.266c0.04-0.112,0.033-0.282-0.025-0.384
		C4.281,9.191,3.868,8.519,3.471,7.86c1.659-1.658,3.301-3.299,4.96-4.958c0.648,0.389,1.32,0.783,1.982,1.194
		c0.168,0.104,0.298,0.104,0.472,0.025c0.398-0.18,0.81-0.328,1.208-0.508c0.094-0.043,0.195-0.151,0.221-0.249
		c0.181-0.67,0.355-1.342,0.505-2.019C12.876,1.091,12.966,0.999,13.247,1c3.552,0.012,7.103,0.008,10.655,0.008
		c11.559,0,23.119,0,34.678,0c0.132,0,0.264,0,0.42,0c0,19.152,0,38.283,0,57.431c-14.806,0-29.599,0-44.429,0
		c0-1.832,0-3.664,0-5.527c-0.154-0.007-0.273-0.018-0.392-0.018c-2.59-0.001-5.18-0.008-7.77,0.002
		c-1.374,0.005-2.576-0.421-3.514-1.431c-1.271-1.37-1.667-2.987-1.031-4.755c0.638-1.775,1.962-2.777,3.834-3.036
		c0.263-0.036,0.531-0.043,0.796-0.043c2.561-0.003,5.123-0.002,7.684-0.002c0.112,0,0.225,0,0.358,0c0-4.331,0-8.637,0-12.971
		c-0.543,0-1.073,0-1.624,0c-0.184-0.737-0.376-1.45-0.535-2.171c-0.06-0.271-0.171-0.42-0.446-0.506
		c-0.379-0.119-0.735-0.312-1.109-0.449c-0.104-0.038-0.262-0.031-0.356,0.023C9.783,27.95,9.109,28.361,8.442,28.761z
		 M31.227,19.328c-0.764,0.195-1.507,0.393-2.256,0.569c-0.211,0.05-0.314,0.151-0.385,0.352c-0.14,0.393-0.302,0.78-0.478,1.159
		c-0.069,0.149-0.06,0.254,0.023,0.389c0.375,0.607,0.735,1.223,1.11,1.83c0.087,0.14,0.107,0.229-0.028,0.362
		c-1.554,1.543-3.102,3.092-4.645,4.647c-0.135,0.136-0.223,0.112-0.362,0.027c-0.6-0.369-1.209-0.721-1.806-1.094
		c-0.167-0.104-0.296-0.096-0.467-0.018c-0.38,0.174-0.767,0.333-1.159,0.476c-0.171,0.062-0.258,0.151-0.3,0.329
		c-0.16,0.685-0.345,1.364-0.5,2.05c-0.046,0.202-0.131,0.251-0.327,0.25c-0.971-0.01-1.942-0.004-2.914-0.004
		c-0.101,0-0.202,0-0.301,0c0,4.349,0,8.656,0,12.978c0.157,0,0.29,0,0.422,0c6.903,0,13.807-0.001,20.71,0.004
		c0.194,0,0.398,0.037,0.581,0.104c1.303,0.478,2.6,0.969,3.9,1.455c0.092,0.034,0.187,0.06,0.321,0.103c0-1.198,0-2.345,0-3.494
		c4.327,0,8.626,0,12.931,0c0,4.317,0,8.615,0,12.923c-4.318,0-8.616,0-12.948,0c0-1.171,0-2.325,0-3.507
		c-0.154,0.054-0.27,0.092-0.384,0.135c-1.254,0.473-2.506,0.951-3.764,1.414c-0.208,0.077-0.442,0.121-0.663,0.121
		c-6.903,0.006-13.807,0.005-20.71,0.005c-0.131,0-0.262,0-0.403,0c0,1.25,0,2.463,0,3.681c13.588,0,27.158,0,40.723,0
		c0-17.911,0-35.798,0-53.688c-10.906,0-21.791,0-32.721,0c0.092,0.1,0.152,0.17,0.216,0.235c0.45,0.452,0.91,0.895,1.349,1.358
		c0.171,0.181,0.347,0.249,0.595,0.249c9.436-0.006,18.872-0.005,28.308-0.005c0.13,0,0.26,0,0.404,0c0,4.334,0,8.632,0,12.966
		c-8.028,0-16.039,0-24.075,0C31.227,18.252,31.227,18.782,31.227,19.328z M31.223,15.825c7.427,0,14.819,0,22.226,0
		c0-3.09,0-6.16,0-9.243c-8.435,0-16.853,0-25.271,0c-0.016,0.024-0.032,0.048-0.048,0.071c0.357,0.341,0.71,0.686,1.072,1.02
		c0.127,0.117,0.142,0.209,0.046,0.361c-0.383,0.613-0.757,1.232-1.118,1.858c-0.054,0.093-0.056,0.251-0.018,0.355
		c0.157,0.428,0.33,0.851,0.519,1.265c0.046,0.101,0.161,0.21,0.265,0.238c0.688,0.186,1.38,0.357,2.075,0.519
		c0.189,0.044,0.259,0.115,0.256,0.321c-0.013,0.876-0.006,1.752-0.006,2.628C31.223,15.416,31.223,15.613,31.223,15.825z
		 M8.739,5.232C7.753,6.214,6.784,7.177,5.802,8.154c0.327,0.547,0.672,1.105,0.993,1.676c0.056,0.099,0.064,0.282,0.01,0.378
		c-0.498,0.883-0.886,1.81-1.139,2.791c-0.05,0.195-0.152,0.275-0.341,0.318c-0.547,0.123-1.088,0.275-1.636,0.392
		c-0.2,0.043-0.257,0.123-0.255,0.323c0.01,0.952,0.005,1.904,0.005,2.856c0,0.332,0,0.663,0,1.007
		c0.639,0.161,1.254,0.326,1.873,0.468c0.2,0.046,0.306,0.131,0.36,0.333c0.258,0.969,0.638,1.891,1.14,2.759
		c0.088,0.152,0.081,0.267-0.011,0.415c-0.345,0.556-0.677,1.12-0.996,1.652c0.979,0.983,1.937,1.946,2.913,2.926
		c0.554-0.333,1.121-0.682,1.698-1.01c0.091-0.052,0.259-0.056,0.349-0.006c0.904,0.497,1.841,0.909,2.844,1.159
		c0.165,0.041,0.225,0.128,0.262,0.285c0.131,0.565,0.29,1.123,0.414,1.689c0.044,0.203,0.129,0.254,0.326,0.252
		c1.2-0.009,2.399-0.01,3.599,0.001c0.204,0.002,0.281-0.066,0.324-0.256c0.128-0.565,0.276-1.126,0.41-1.69
		c0.036-0.151,0.101-0.241,0.266-0.283c0.992-0.252,1.926-0.651,2.814-1.156c0.154-0.087,0.262-0.084,0.41,0.009
		c0.491,0.309,0.994,0.599,1.487,0.905c0.138,0.085,0.229,0.107,0.362-0.029c0.861-0.875,1.732-1.742,2.606-2.604
		c0.119-0.118,0.125-0.202,0.04-0.34c-0.311-0.501-0.604-1.013-0.917-1.513c-0.094-0.15-0.074-0.256-0.005-0.411
		c0.365-0.824,0.75-1.642,1.046-2.491c0.14-0.403,0.32-0.596,0.736-0.669c0.538-0.094,1.062-0.262,1.598-0.4
		c0-1.336,0.003-2.64-0.009-3.944c-0.001-0.073-0.113-0.188-0.193-0.21c-0.569-0.154-1.141-0.296-1.716-0.426
		c-0.182-0.041-0.265-0.126-0.313-0.305c-0.263-0.977-0.634-1.913-1.151-2.785c-0.093-0.156-0.076-0.265,0.014-0.41
		c0.302-0.484,0.582-0.982,0.888-1.463c0.107-0.169,0.099-0.268-0.047-0.41c-0.54-0.523-1.065-1.062-1.596-1.595
		c-0.376-0.376-0.753-0.751-1.139-1.136c-0.574,0.345-1.138,0.677-1.693,1.024c-0.15,0.093-0.263,0.091-0.413,0.005
		c-0.795-0.455-1.62-0.853-2.513-1.063c-0.402-0.095-0.572-0.284-0.642-0.682c-0.095-0.547-0.263-1.081-0.401-1.623
		c-1.339,0-2.643-0.003-3.947,0.009c-0.072,0.001-0.185,0.114-0.207,0.195c-0.159,0.577-0.292,1.162-0.453,1.738
		c-0.029,0.102-0.14,0.229-0.238,0.256c-0.997,0.272-1.936,0.677-2.841,1.17c-0.098,0.053-0.28,0.044-0.379-0.012
		C9.827,5.898,9.27,5.552,8.739,5.232z M44.193,43.637c0,0.682,0.016,1.33-0.007,1.976c-0.01,0.289,0.07,0.424,0.355,0.53
		c1.157,0.429,1.759,1.622,1.409,2.762c-0.234,0.763-0.758,1.254-1.5,1.532c-0.098,0.037-0.244,0.139-0.246,0.214
		c-0.018,0.739-0.011,1.48-0.011,2.238c3.1,0,6.17,0,9.247,0c0-3.092,0-6.169,0-9.25C50.353,43.637,47.291,43.637,44.193,43.637z
		 M14.563,51.026c7.413,0,14.81,0,22.208,0c0-0.622,0-1.224,0-1.824c-7.418,0-14.808,0-22.208,0
		C14.563,49.821,14.563,50.417,14.563,51.026z M36.778,45.506c-7.42,0-14.809,0-22.212,0c0,0.613,0,1.206,0,1.813
		c7.41,0,14.801,0,22.212,0C36.778,46.717,36.778,46.122,36.778,45.506z M8.982,50.992c0-1.816,0-3.647,0-5.499
		c-0.976,0-1.935-0.019-2.894,0.004c-1.356,0.033-2.543,1.155-2.64,2.462c-0.111,1.494,0.823,2.847,2.24,3.008
		C6.766,51.09,7.869,50.992,8.982,50.992z M38.651,50.616c0.117-0.038,0.199-0.06,0.278-0.089c1.617-0.607,3.234-1.215,4.852-1.82
		c0.215-0.08,0.411-0.172,0.415-0.441c0.004-0.284-0.203-0.38-0.426-0.463c-1.627-0.609-3.252-1.22-4.879-1.829
		c-0.074-0.028-0.152-0.043-0.239-0.068C38.651,47.484,38.651,49.032,38.651,50.616z M12.7,45.511c-0.629,0-1.23,0-1.837,0
		c0,1.854,0,3.685,0,5.514c0.623,0,1.226,0,1.837,0C12.7,49.18,12.7,47.357,12.7,45.511z M20.398,2.885
		c0.039,0.397,0.091,0.756,0.587,0.83c0.182,0.027,0.369,0.111,0.524,0.215c0.475,0.32,0.883,0.242,1.332-0.087
		c0.468-0.344,0.992-0.612,1.492-0.913c-0.005-0.015-0.011-0.03-0.016-0.045C23.014,2.885,21.711,2.885,20.398,2.885z"/>
	<path id="XMLID_17666_" fill="#FFFFFF" d="M42.378,26.963c4.313,0,8.61,0,12.924,0c0,4.313,0,8.61,0,12.926
		c-4.309,0-8.606,0-12.924,0C42.378,35.589,42.378,31.292,42.378,26.963z M53.45,28.821c-3.085,0-6.154,0-9.241,0
		c0,3.085,0,6.155,0,9.24c3.085,0,6.155,0,9.241,0C53.45,34.977,53.45,31.908,53.45,28.821z"/>
	<path id="XMLID_17665_" fill="#FFFFFF" d="M40.474,34.381c0,0.608,0,1.195,0,1.806c-7.399,0-14.788,0-22.194,0
		c0-0.603,0-1.197,0-1.806C25.676,34.381,33.057,34.381,40.474,34.381z"/>
	<path id="XMLID_17664_" fill="#FFFFFF" d="M18.27,39.892c0-0.611,0-1.19,0-1.793c7.394,0,14.782,0,22.216,0
		c0,0.292,0,0.592,0,0.892c0,0.293,0,0.587,0,0.901C33.073,39.892,25.685,39.892,18.27,39.892z"/>
	<path id="XMLID_17662_" fill="#FFFFFF" d="M51.599,23.281c0,0.608,0,1.195,0,1.8c-6.166,0-12.32,0-18.489,0c0-0.6,0-1.186,0-1.8
		C39.266,23.281,45.419,23.281,51.599,23.281z"/>
	<path id="XMLID_17652_" fill="#FFFFFF" d="M55.304,19.57c0,0.605,0,1.191,0,1.799c-6.159,0-12.312,0-18.486,0
		c0-0.596,0-1.189,0-1.799C42.984,19.57,49.136,19.57,55.304,19.57z"/>
	<path id="XMLID_17651_" fill="#FFFFFF" d="M23.846,32.489c0-0.609,0-1.204,0-1.814c5.545,0,11.072,0,16.619,0
		c0,0.604,0,1.198,0,1.814C34.929,32.489,29.395,32.489,23.846,32.489z"/>
	<path id="XMLID_17650_" fill="#FFFFFF" d="M40.474,26.976c0,0.609,0,1.197,0,1.807c-3.688,0-7.366,0-11.066,0
		c0-0.595,0-1.19,0-1.807C33.085,26.976,36.763,26.976,40.474,26.976z"/>
	<path id="XMLID_17649_" fill="#FFFFFF" d="M55.296,25.089c-0.608,0-1.196,0-1.827,0c0-0.573-0.003-1.14,0.007-1.707
		c0.001-0.043,0.095-0.121,0.147-0.121c0.55-0.009,1.101-0.006,1.674-0.006C55.296,23.872,55.296,24.465,55.296,25.089z"/>
	<path id="XMLID_17648_" fill="#FFFFFF" d="M33.107,21.367c0-0.598,0-1.183,0-1.792c0.597,0,1.189,0,1.803,0
		c0,0.585,0,1.177,0,1.792C34.326,21.367,33.734,21.367,33.107,21.367z"/>
	<path id="XMLID_17645_" fill="#FFFFFF" d="M16.438,6.573c5.084,0.014,9.284,4.161,9.225,9.384c-0.055,4.95-4.066,9.157-9.304,9.132
		c-5.254-0.025-9.347-4.354-9.211-9.595C7.274,10.632,11.528,6.502,16.438,6.573z M23.823,15.88c0.014-4.096-3.31-7.449-7.396-7.461
		c-4.04-0.012-7.401,3.305-7.438,7.301c-0.038,4.054,3.158,7.461,7.264,7.527C20.555,23.317,23.799,19.864,23.823,15.88z"/>
	<path id="XMLID_10079_" fill="#FFFFFF" d="M16.432,10.288c3.141,0.046,5.588,2.552,5.525,5.697
		c-0.06,2.945-2.541,5.549-5.819,5.395c-3.096-0.145-5.308-2.714-5.277-5.593C10.893,12.72,13.403,10.244,16.432,10.288z
		 M12.703,15.827c0.011,2.052,1.659,3.714,3.695,3.727c2.009,0.013,3.739-1.712,3.723-3.711c-0.016-2.066-1.68-3.719-3.736-3.711
		C14.352,12.14,12.692,13.807,12.703,15.827z"/>
</g>
</svg>
