<?xml version="1.0" encoding="utf-8"?>
<!-- Generator: Adobe Illustrator 17.0.0, SVG Export Plug-In . SVG Version: 6.00 Build 0)  -->
<!DOCTYPE svg PUBLIC "-//W3C//DTD SVG 1.1//EN" "http://www.w3.org/Graphics/SVG/1.1/DTD/svg11.dtd">
<svg version="1.1" id="圖層_1" xmlns="http://www.w3.org/2000/svg" xmlns:xlink="http://www.w3.org/1999/xlink" x="0px" y="0px"
	 width="60px" height="60px" viewBox="0 0 60 60" enable-background="new 0 0 60 60" xml:space="preserve">
<g id="XMLID_145_">
	<path id="XMLID_17781_" fill="#FFFFFF" d="M2.615,41.782c0-0.65,0-1.248,0-1.87c3.803,0,7.599,0,11.42,0c0,0.608,0,1.219,0,1.87
		c-0.545,0-1.083,0.016-1.619-0.007c-0.286-0.012-0.357,0.087-0.378,0.361c-0.179,2.291-0.376,4.581-0.567,6.872
		c-0.064,0.772-0.124,1.544-0.188,2.337c1.245,0,2.469,0,3.74,0c0-0.942,0-1.887,0-2.846c0.652,0,1.258,0,1.904,0
		c0,0.941,0,1.886,0,2.848c1.607,0,3.175,0,4.78,0c0-1.891,0-3.781,0-5.695c0.647,0,1.259,0,1.912,0c0,1.895,0,3.785,0,5.693
		c1.932,0,3.823,0,5.751,0c0-1.899,0-3.789,0-5.698c0.642,0,1.247,0,1.888,0c0,1.889,0,3.779,0,5.693c1.611,0,3.186,0,4.794,0
		c0-1.258,0-2.51,0-3.786c0.646,0,1.259,0,1.915,0c0,1.255,0,2.515,0,3.792c3.202,0,6.363,0,9.559,0
		c0.005-0.102,0.015-0.206,0.015-0.309c0.001-0.825-0.002-1.651,0.002-2.476c0.003-0.646,0.38-1.028,1.024-1.029
		c1.838-0.003,3.675-0.002,5.513-0.001c0.737,0.001,1.096,0.359,1.101,1.109c0.006,0.786,0.001,1.572,0.001,2.358
		c0,0.107,0,0.214,0,0.365c0.131,0,0.235,0,0.339,0c0.816,0,1.631-0.003,2.447,0.001c0.633,0.003,1.024,0.365,1.027,0.996
		c0.01,1.887,0.01,3.774-0.001,5.66c-0.003,0.599-0.387,0.957-0.989,0.976c-0.118,0.004-0.236,0.001-0.354,0.001
		c-18.219,0-36.439,0-54.658,0c-0.098,0-0.197,0.001-0.295-0.001c-0.674-0.012-1.043-0.366-1.046-1.039
		c-0.007-1.857-0.007-3.715,0-5.572c0.002-0.653,0.379-1.019,1.029-1.022c0.786-0.004,1.572-0.001,2.358-0.001
		c0.106,0,0.211,0,0.345,0c-0.048-0.601-0.091-1.166-0.138-1.731c-0.17-2.046-0.341-4.091-0.512-6.137
		c-0.041-0.489-0.089-0.978-0.117-1.469c-0.011-0.191-0.082-0.252-0.269-0.249C3.779,41.788,3.211,41.782,2.615,41.782z
		 M57.086,53.284c-17.86,0-35.687,0-53.522,0c0,1.274,0,2.527,0,3.785c17.851,0,35.686,0,53.522,0
		C57.086,55.799,57.086,54.552,57.086,53.284z M53.248,51.353c0-0.653,0-1.275,0-1.896c-1.279,0-2.537,0-3.785,0
		c0,0.649,0,1.27,0,1.896C50.735,51.353,51.979,51.353,53.248,51.353z M6.499,41.796c0.065,0.768,0.127,1.507,0.188,2.231
		c0.033,0.016,0.042,0.025,0.049,0.023c1.05-0.184,2.1-0.368,3.149-0.558c0.054-0.01,0.138-0.07,0.142-0.113
		c0.052-0.522,0.091-1.045,0.135-1.584C8.931,41.796,7.738,41.796,6.499,41.796z M6.848,45.987c0.053,0.628,0.104,1.229,0.158,1.865
		c0.881-0.161,1.728-0.311,2.572-0.477c0.059-0.012,0.126-0.135,0.137-0.213c0.039-0.291,0.059-0.586,0.081-0.879
		c0.021-0.269,0.036-0.538,0.056-0.841C8.829,45.627,7.849,45.805,6.848,45.987z M9.534,49.318
		c-0.817,0.152-1.584,0.295-2.367,0.441c0.038,0.498,0.068,0.966,0.118,1.433c0.007,0.063,0.115,0.163,0.178,0.164
		c0.579,0.013,1.159,0.013,1.738,0c0.063-0.001,0.172-0.1,0.178-0.162C9.438,50.59,9.481,49.984,9.534,49.318z"/>
	<path id="XMLID_17775_" fill="#FFFFFF" d="M50.408,10.651c0-2.624,0.001-5.247-0.002-7.871c0-0.302,0.005-0.621,0.253-0.815
		c0.196-0.154,0.461-0.306,0.697-0.309c1.906-0.025,3.813-0.02,5.719-0.01c0.589,0.003,0.96,0.399,0.963,1
		c0.007,1.425,0.003,2.85,0.003,4.275c0,3.891-0.001,7.783,0.005,11.674c0,0.148,0.031,0.321,0.112,0.439
		c1.94,2.835,0.38,6.763-3.241,7.388c-0.151,0.026-0.317,0.109-0.425,0.216c-2.244,2.231-4.48,4.47-6.722,6.702
		c-0.15,0.149-0.193,0.277-0.136,0.489c0.248,0.929,0.464,1.866,0.71,2.795c0.11,0.416,0.034,0.769-0.232,1.1
		c-1.213,1.508-2.425,3.016-3.629,4.532c-0.272,0.343-0.593,0.5-1.038,0.496c-1.798-0.014-3.597-0.012-5.395-0.002
		c-0.456,0.003-0.813-0.133-1.015-0.556c-0.205-0.429-0.06-0.793,0.226-1.136c1.38-1.651,2.753-3.307,4.134-4.957
		c0.11-0.131,0.156-0.24,0.045-0.384c-0.023-0.031-0.04-0.068-0.053-0.105c-0.193-0.576-0.579-0.947-1.152-1.153
		c-0.185-0.067-0.286-0.069-0.428,0.076c-1.298,1.328-2.605,2.648-3.91,3.969c-0.338,0.343-0.675,0.687-1.019,1.024
		c-0.301,0.295-0.653,0.449-1.07,0.279c-0.43-0.175-0.612-0.514-0.611-0.978c0.006-2.181,0.006-4.363,0-6.544
		c-0.001-0.353,0.131-0.624,0.403-0.841c1.575-1.255,3.148-2.513,4.722-3.769c0.262-0.209,0.553-0.275,0.883-0.189
		c0.997,0.26,1.996,0.509,2.992,0.771c0.167,0.044,0.28,0.032,0.413-0.101c2.239-2.249,4.486-4.491,6.725-6.741
		c0.088-0.089,0.155-0.227,0.175-0.352c0.117-0.739,0.372-1.419,0.787-2.044c0.079-0.119,0.104-0.293,0.105-0.442
		C50.41,15.938,50.408,13.294,50.408,10.651z M52.334,3.56c0,4.597,0,9.165,0,13.671c0.639-0.099,1.265-0.273,1.89-0.271
		c0.635,0.002,1.269,0.177,1.904,0.276c0-4.518,0-9.09,0-13.675C54.857,3.56,53.604,3.56,52.334,3.56z M35.098,36.517
		c0.035,0.026,0.069,0.051,0.104,0.077c0.059-0.089,0.105-0.191,0.179-0.266c1.217-1.241,2.436-2.481,3.658-3.717
		c0.401-0.406,0.77-0.469,1.28-0.222c0.574,0.278,1.157,0.54,1.71,0.855c0.232,0.132,0.448,0.353,0.584,0.585
		c0.296,0.507,0.515,1.059,0.803,1.571c0.309,0.55,0.228,1.008-0.175,1.477c-0.966,1.125-1.908,2.27-2.859,3.408
		c-0.135,0.162-0.265,0.327-0.429,0.529c0.152,0.007,0.247,0.015,0.341,0.015c0.864,0.001,1.729-0.006,2.593,0.006
		c0.209,0.003,0.342-0.063,0.469-0.224c0.965-1.215,1.942-2.42,2.903-3.638c0.076-0.097,0.121-0.271,0.093-0.389
		c-0.211-0.907-0.439-1.811-0.674-2.712c-0.032-0.124-0.11-0.252-0.201-0.343c-1.044-1.053-2.094-2.101-3.147-3.146
		c-0.086-0.085-0.201-0.161-0.316-0.192c-0.89-0.24-1.782-0.472-2.677-0.691c-0.102-0.025-0.256,0.011-0.339,0.077
		c-1.256,0.992-2.505,1.993-3.75,2.999c-0.073,0.059-0.143,0.173-0.144,0.261C35.095,34.063,35.098,35.29,35.098,36.517z
		 M46.526,31.786c1.915-1.919,3.816-3.823,5.724-5.735c-1.073-0.482-1.872-1.301-2.422-2.468c-1.93,1.948-3.819,3.856-5.746,5.802
		c0.766,0.755,1.52,1.498,2.275,2.24C46.424,31.693,46.495,31.757,46.526,31.786z M51.359,21.692
		c-0.003,1.608,1.279,2.904,2.867,2.901c1.564-0.003,2.869-1.313,2.869-2.877c0-1.565-1.277-2.833-2.858-2.838
		C52.657,18.873,51.361,20.139,51.359,21.692z"/>
	<path id="XMLID_17747_" fill="#FFFFFF" d="M10.237,10.656c0,2.643-0.002,5.286,0.006,7.929c0.001,0.165,0.05,0.352,0.138,0.49
		c0.731,1.149,1.004,2.376,0.663,3.713c-0.043,0.17-0.012,0.284,0.117,0.413c2.984,2.977,5.96,5.961,8.947,8.935
		c0.127,0.126,0.33,0.203,0.511,0.241c1.354,0.283,2.711,0.554,4.068,0.82c0.378,0.074,0.633,0.279,0.803,0.621
		c0.917,1.845,1.841,3.687,2.76,5.531c0.256,0.515,0.196,0.878-0.204,1.28c-0.894,0.898-1.794,1.791-2.684,2.693
		c-0.356,0.361-0.747,0.45-1.232,0.285c-1.81-0.616-3.624-1.222-5.442-1.815c-0.402-0.131-0.643-0.38-0.793-0.76
		c-0.551-1.396-1.107-2.79-1.67-4.18c-0.064-0.158-0.165-0.314-0.286-0.435c-3.255-3.262-6.513-6.52-9.778-9.773
		C6.047,26.532,5.87,26.447,5.71,26.42c-2.914-0.498-4.706-3.301-3.851-6.073c0.134-0.434,0.396-0.828,0.585-1.247
		c0.073-0.163,0.153-0.343,0.153-0.515C2.606,13.318,2.602,8.052,2.612,2.786c0-0.252,0.073-0.525,0.186-0.749
		c0.142-0.28,0.43-0.392,0.745-0.392C5.46,1.642,7.376,1.636,9.292,1.646c0.538,0.003,0.893,0.367,0.936,0.904
		c0.011,0.137,0.009,0.275,0.009,0.412C10.237,5.527,10.237,8.092,10.237,10.656z M8.313,26.131
		c0.108,0.089,0.205,0.158,0.288,0.241c2.953,2.951,5.906,5.901,8.85,8.86c0.187,0.188,0.343,0.432,0.445,0.678
		c0.539,1.305,1.051,2.621,1.588,3.927c0.051,0.124,0.187,0.255,0.312,0.298c1.428,0.491,2.862,0.962,4.291,1.45
		c0.188,0.064,0.299,0.028,0.432-0.109c0.52-0.535,1.047-1.064,1.585-1.582c0.155-0.149,0.169-0.262,0.072-0.452
		c-0.706-1.39-1.404-2.785-2.092-4.184c-0.097-0.197-0.216-0.294-0.43-0.335c-1.271-0.247-2.538-0.514-3.809-0.758
		c-0.344-0.066-0.618-0.212-0.864-0.459c-2.893-2.899-5.79-5.794-8.687-8.69c-0.073-0.073-0.151-0.142-0.216-0.204
		c-0.287,0.251-0.539,0.501-0.82,0.711C8.977,25.735,8.667,25.906,8.313,26.131z M4.523,3.56c0,4.598,0,9.166,0,13.74
		c1.306-0.363,1.626-0.599,3.794-0.007c0-4.574,0-9.147,0-13.733C7.048,3.56,5.794,3.56,4.523,3.56z M9.285,21.709
		c-0.001-1.57-1.272-2.829-2.86-2.831c-1.577-0.003-2.876,1.271-2.875,2.82c0.001,1.591,1.272,2.884,2.845,2.895
		C7.971,24.603,9.286,23.291,9.285,21.709z"/>
	<path id="XMLID_17671_" fill="#FFFFFF" d="M19.815,8.217c0-1.808-0.001-3.616,0-5.424c0-0.809,0.339-1.152,1.138-1.153
		c1.788-0.001,3.577-0.002,5.365,0c0.779,0.001,1.125,0.351,1.125,1.14c0.001,3.665-0.002,7.33,0.007,10.996
		c0,0.182,0.062,0.388,0.162,0.54c1.169,1.791,1.023,4.088-0.366,5.725c-0.107,0.126-0.188,0.301-0.216,0.465
		c-0.504,2.981-0.996,5.963-1.494,8.945c-0.093,0.556-0.452,0.859-1.019,0.864c-0.599,0.005-1.199,0.006-1.798,0
		c-0.549-0.006-0.905-0.309-0.996-0.853c-0.497-2.972-0.988-5.945-1.49-8.916c-0.029-0.173-0.104-0.364-0.217-0.495
		c-1.392-1.616-1.544-3.932-0.378-5.723c0.104-0.16,0.167-0.377,0.168-0.568C19.82,11.912,19.815,10.065,19.815,8.217z
		 M21.729,3.562c0,2.995,0,5.974,0,8.993c1.276-0.528,2.538-0.519,3.796-0.004c0-3.029,0-6.009,0-8.989
		C24.249,3.562,22.995,3.562,21.729,3.562z M23.628,19.779c1.595,0,2.873-1.27,2.869-2.852c-0.003-1.566-1.282-2.826-2.868-2.825
		c-1.575,0-2.863,1.256-2.866,2.794C20.758,18.517,22.013,19.779,23.628,19.779z M22.352,21.534
		c0.013,0.126,0.017,0.222,0.033,0.316c0.228,1.374,0.457,2.748,0.686,4.122c0.122,0.735,0.241,1.471,0.371,2.205
		c0.014,0.082,0.075,0.169,0.14,0.222c0.031,0.026,0.154,0,0.18-0.039c0.046-0.069,0.056-0.165,0.07-0.252
		c0.293-1.751,0.586-3.502,0.877-5.254c0.072-0.431,0.137-0.863,0.215-1.349C24.042,21.782,23.212,21.755,22.352,21.534z"/>
	<path id="XMLID_17642_" fill="#FFFFFF" d="M32.086,27.954c-0.552-0.347-1.066-0.67-1.61-1.013c1.271-2.034,2.532-4.053,3.772-6.039
		c-0.373-0.399-0.776-0.752-1.083-1.174c-1.214-1.668-1.232-3.735-0.097-5.461c0.084-0.128,0.128-0.307,0.129-0.463
		c0.007-3.674,0.003-7.348,0.012-11.022c0.001-0.236,0.05-0.493,0.153-0.703c0.148-0.302,0.442-0.438,0.782-0.438
		c1.916-0.002,3.831-0.007,5.747,0.003c0.549,0.003,0.916,0.383,0.935,0.934c0.015,0.422,0.006,0.845,0.006,1.267
		c0,3.31-0.002,6.621,0.007,9.931c0.001,0.181,0.067,0.384,0.163,0.54c1.044,1.71,1.107,3.458,0.044,5.146
		c-1.076,1.709-2.7,2.416-4.712,2.191c-0.217-0.024-0.331,0.028-0.447,0.214c-1.2,1.935-2.41,3.864-3.617,5.795
		C32.212,27.756,32.155,27.845,32.086,27.954z M38.922,3.572c-1.293,0-2.553,0-3.809,0c0,2.998,0,5.971,0,8.883
		c0.642-0.098,1.277-0.273,1.911-0.272c0.632,0.001,1.264,0.179,1.897,0.279C38.922,9.532,38.922,6.558,38.922,3.572z
		 M34.148,16.898c-0.004,1.617,1.258,2.909,2.851,2.919c1.567,0.01,2.876-1.289,2.884-2.861c0.008-1.585-1.269-2.855-2.87-2.854
		C35.438,14.102,34.151,15.358,34.148,16.898z"/>
</g>
</svg>
