<?xml version="1.0" encoding="utf-8"?>
<!-- Generator: Adobe Illustrator 17.0.0, SVG Export Plug-In . SVG Version: 6.00 Build 0)  -->
<!DOCTYPE svg PUBLIC "-//W3C//DTD SVG 1.1//EN" "http://www.w3.org/Graphics/SVG/1.1/DTD/svg11.dtd">
<svg version="1.1" id="圖層_1" xmlns="http://www.w3.org/2000/svg" xmlns:xlink="http://www.w3.org/1999/xlink" x="0px" y="0px"
	 width="60px" height="60px" viewBox="0 0 60 60" enable-background="new 0 0 60 60" xml:space="preserve">
<g id="XMLID_84_">
	<path id="XMLID_17944_" fill="#FFFFFF" d="M11.358,53.005c0.277,0.273,0.517,0.502,0.747,0.739
		c0.437,0.449,0.453,1.002,0.015,1.445c-1.363,1.375-2.734,2.744-4.109,4.108c-0.402,0.399-0.974,0.401-1.376,0.002
		c-1.836-1.826-3.666-3.656-5.492-5.492c-0.442-0.444-0.432-0.997,0.012-1.444c1.345-1.352,2.693-2.699,4.046-4.043
		c0.471-0.468,1.008-0.461,1.487,0.006c0.178,0.174,0.342,0.362,0.544,0.577c0.565-0.573,1.097-1.101,1.61-1.648
		c0.053-0.057,0.027-0.24-0.022-0.332c-0.57-1.066-1.024-2.177-1.282-3.359c-0.896-4.106-0.095-7.859,2.481-11.176
		c2.19-2.82,5.106-4.512,8.651-4.94c4.923-0.595,9.01,1.081,12.13,4.93c2.214,2.732,3.104,5.925,2.786,9.422
		c-0.489,5.378-4.223,9.913-9.424,11.426c-3.843,1.118-7.481,0.568-10.875-1.548c-0.283-0.176-0.439-0.171-0.664,0.077
		C12.231,52.182,11.799,52.573,11.358,53.005z M9.122,40.569c0.029,6.296,5.094,11.293,11.359,11.241
		c6.047-0.051,11.094-4.965,11.104-11.216c0.009-6.009-4.71-11.162-11.141-11.241C14.199,29.277,9.131,34.351,9.122,40.569z
		 M3.216,53.021c1.408,1.411,2.778,2.784,4.14,4.149c0.883-0.886,1.788-1.794,2.672-2.681c-1.363-1.366-2.734-2.741-4.134-4.145
		c-0.65,0.66-1.309,1.332-1.973,2.001C3.68,52.586,3.429,52.816,3.216,53.021z M10.045,48.915c-0.474,0.473-0.924,0.923-1.341,1.339
		c0.429,0.427,0.881,0.876,1.289,1.283c0.431-0.426,0.884-0.872,1.355-1.337c-0.373-0.37-0.764-0.758-1.155-1.145
		C10.137,48.999,10.078,48.946,10.045,48.915z"/>
	<path id="XMLID_17941_" fill="#FFFFFF" d="M34.677,5.267c0.646,0.141,1.297,0.261,1.935,0.432c0.324,0.087,0.54,0.005,0.818-0.165
		c0.442-0.27,0.577-0.622,0.59-1.107c0.014-0.54,0.096-1.078,0.151-1.617c0.037-0.364,0.246-0.609,0.567-0.756
		c0.978-0.449,1.99-0.795,3.044-1.015c0.403-0.084,0.728,0.039,0.992,0.35c0.429,0.504,0.857,1.01,1.302,1.5
		c0.086,0.095,0.243,0.145,0.377,0.172c0.628,0.126,1.077-0.12,1.432-0.649c0.249-0.372,0.584-0.687,0.876-1.031
		c0.284-0.335,0.642-0.453,1.053-0.321c0.961,0.309,1.918,0.633,2.873,0.962c0.46,0.159,0.665,0.503,0.695,0.986
		c0.041,0.65,0.107,1.299,0.177,1.947c0.011,0.104,0.098,0.201,0.154,0.299c0.014,0.024,0.051,0.033,0.071,0.054
		c0.431,0.458,0.925,0.528,1.512,0.315c0.383-0.139,0.8-0.183,1.198-0.285c0.476-0.121,0.879-0.028,1.175,0.379
		c0.581,0.803,1.156,1.61,1.73,2.418c0.282,0.397,0.262,0.801,0.02,1.212c-0.321,0.544-0.648,1.085-0.947,1.641
		c-0.069,0.129-0.06,0.314-0.048,0.47c0.055,0.698,0.488,1.048,1.123,1.245c0.38,0.118,0.735,0.318,1.104,0.474
		c0.434,0.184,0.665,0.51,0.668,0.978c0.007,1.001,0.006,2.003,0,3.004c-0.003,0.458-0.228,0.773-0.65,0.956
		c-0.597,0.259-1.195,0.52-1.782,0.801c-0.115,0.055-0.209,0.192-0.273,0.312c-0.321,0.599-0.225,1.144,0.184,1.681
		c0.247,0.325,0.414,0.709,0.627,1.06c0.236,0.39,0.255,0.783-0.006,1.157c-0.592,0.845-1.192,1.683-1.803,2.514
		c-0.265,0.361-0.635,0.453-1.071,0.343c-0.612-0.154-1.227-0.297-1.846-0.419c-0.135-0.027-0.302,0.034-0.436,0.094
		c-0.62,0.275-0.79,0.788-0.78,1.428c0.007,0.439-0.074,0.879-0.112,1.318c-0.035,0.411-0.242,0.716-0.62,0.85
		c-0.999,0.355-2.002,0.699-3.015,1.009c-0.383,0.117-0.726-0.057-0.989-0.364c-0.424-0.496-0.843-0.996-1.281-1.479
		c-0.086-0.095-0.242-0.148-0.375-0.174c-0.635-0.127-1.1,0.103-1.461,0.649c-0.247,0.373-0.581,0.69-0.878,1.03
		c-0.285,0.326-0.642,0.449-1.056,0.317c-0.924-0.296-1.843-0.605-2.763-0.913c-0.545-0.182-0.779-0.573-0.806-1.139
		c-0.029-0.6-0.093-1.2-0.168-1.797c-0.017-0.136-0.123-0.274-0.22-0.383c-0.431-0.482-0.941-0.533-1.537-0.317
		c-0.402,0.146-0.838,0.197-1.257,0.297c-0.384,0.091-0.714,0.015-0.982-0.286c-0.731-0.819-1.368-1.704-1.908-2.659
		c-0.201-0.357-0.172-0.706,0.033-1.055c0.335-0.57,0.669-1.142,0.987-1.722c0.058-0.105,0.057-0.259,0.043-0.385
		c-0.081-0.685-0.471-1.084-1.133-1.28c-0.4-0.119-0.772-0.332-1.156-0.504c-0.357-0.16-0.569-0.422-0.613-0.823
		c-0.119-1.082-0.124-2.162-0.001-3.243c0.046-0.409,0.266-0.682,0.634-0.845c0.596-0.263,1.197-0.515,1.785-0.793
		c0.115-0.054,0.207-0.192,0.272-0.312c0.341-0.62,0.223-1.18-0.198-1.731c-0.247-0.324-0.417-0.707-0.626-1.061
		c-0.226-0.383-0.233-0.766,0.026-1.13c0.598-0.84,1.203-1.676,1.814-2.507C34.101,5.411,34.35,5.267,34.677,5.267z M44.767,26.31
		c0.261-0.013,0.524-0.011,0.782-0.044c0.41-0.053,0.718,0.097,0.976,0.406c0.386,0.462,0.789,0.91,1.173,1.373
		c0.118,0.143,0.228,0.196,0.408,0.13c0.385-0.141,0.774-0.276,1.166-0.398c0.174-0.054,0.225-0.156,0.238-0.328
		c0.047-0.61,0.126-1.218,0.161-1.828c0.024-0.424,0.23-0.702,0.566-0.932c0.43-0.294,0.858-0.594,1.257-0.929
		c0.317-0.267,0.648-0.331,1.034-0.239c0.585,0.139,1.17,0.28,1.759,0.4c0.096,0.02,0.256-0.032,0.314-0.106
		c0.272-0.346,0.513-0.717,0.778-1.07c0.107-0.142,0.108-0.254,0.017-0.405c-0.315-0.524-0.614-1.058-0.924-1.585
		c-0.196-0.333-0.228-0.663-0.092-1.034c0.183-0.497,0.348-1.004,0.478-1.517c0.106-0.417,0.338-0.687,0.727-0.852
		c0.535-0.227,1.06-0.476,1.597-0.7c0.181-0.075,0.274-0.169,0.268-0.374c-0.012-0.421-0.01-0.843-0.004-1.264
		c0.003-0.185-0.068-0.288-0.243-0.361c-0.545-0.228-1.077-0.489-1.626-0.708c-0.39-0.156-0.607-0.421-0.715-0.821
		c-0.138-0.512-0.293-1.021-0.475-1.519c-0.147-0.402-0.105-0.757,0.113-1.117c0.306-0.506,0.59-1.025,0.896-1.531
		c0.092-0.152,0.091-0.266-0.014-0.406c-0.259-0.345-0.511-0.694-0.759-1.047c-0.094-0.134-0.193-0.163-0.356-0.124
		c-0.613,0.149-1.232,0.275-1.847,0.418c-0.318,0.074-0.59-0.001-0.846-0.194c-0.488-0.369-0.979-0.732-1.472-1.093
		c-0.25-0.183-0.391-0.421-0.418-0.731c-0.056-0.65-0.108-1.3-0.184-1.947c-0.013-0.108-0.116-0.257-0.214-0.296
		c-0.399-0.159-0.81-0.294-1.224-0.41c-0.092-0.026-0.252,0.028-0.318,0.101c-0.411,0.453-0.811,0.917-1.203,1.387
		c-0.282,0.338-0.629,0.456-1.065,0.428c-0.469-0.029-0.943-0.031-1.412-0.001c-0.434,0.028-0.784-0.079-1.067-0.42
		c-0.384-0.463-0.791-0.908-1.172-1.374c-0.131-0.16-0.251-0.188-0.438-0.117c-0.365,0.138-0.736,0.262-1.108,0.38
		c-0.163,0.052-0.241,0.132-0.254,0.315c-0.041,0.59-0.116,1.178-0.154,1.768c-0.029,0.445-0.208,0.771-0.584,1.022
		c-0.441,0.295-0.861,0.623-1.28,0.949c-0.279,0.217-0.569,0.314-0.924,0.229c-0.604-0.145-1.214-0.267-1.818-0.411
		c-0.156-0.037-0.259-0.028-0.358,0.115c-0.25,0.363-0.51,0.72-0.776,1.072c-0.1,0.133-0.094,0.235-0.009,0.376
		c0.32,0.533,0.623,1.076,0.935,1.613c0.183,0.313,0.218,0.631,0.098,0.98c-0.185,0.539-0.359,1.084-0.513,1.633
		c-0.103,0.367-0.31,0.61-0.663,0.756c-0.564,0.234-1.117,0.497-1.679,0.736c-0.151,0.064-0.216,0.147-0.213,0.312
		c0.009,0.451,0.011,0.902,0.002,1.353c-0.003,0.17,0.07,0.244,0.218,0.307c0.535,0.227,1.058,0.482,1.597,0.7
		c0.428,0.174,0.669,0.468,0.781,0.915c0.124,0.495,0.274,0.985,0.452,1.463c0.142,0.381,0.113,0.718-0.091,1.061
		c-0.313,0.525-0.622,1.054-0.914,1.59c-0.048,0.089-0.051,0.256,0.002,0.337c0.25,0.387,0.52,0.762,0.801,1.127
		c0.053,0.069,0.202,0.115,0.291,0.097c0.589-0.122,1.174-0.261,1.759-0.4c0.384-0.091,0.717-0.042,1.036,0.228
		c0.389,0.33,0.803,0.635,1.233,0.91c0.414,0.264,0.596,0.616,0.62,1.095c0.028,0.571,0.099,1.139,0.141,1.709
		c0.013,0.173,0.082,0.265,0.251,0.318c0.382,0.119,0.76,0.253,1.136,0.39c0.173,0.063,0.287,0.033,0.411-0.118
		c0.395-0.481,0.81-0.944,1.215-1.417c0.238-0.278,0.524-0.419,0.9-0.376C44.204,26.296,44.486,26.296,44.767,26.31z"/>
	<path id="XMLID_17938_" fill="#FFFFFF" d="M15.952,26.384c-0.416,0.017-0.654-0.154-0.858-0.391
		c-0.347-0.403-0.694-0.806-1.044-1.206c-0.199-0.228-0.882-0.225-1.08,0.004c-0.355,0.409-0.71,0.818-1.062,1.23
		c-0.275,0.322-0.621,0.453-1.023,0.326c-0.839-0.264-1.674-0.543-2.504-0.835c-0.429-0.151-0.645-0.477-0.675-0.938
		c-0.034-0.51-0.087-1.019-0.141-1.528c-0.046-0.429-0.569-0.786-0.993-0.688c-0.459,0.106-0.919,0.207-1.376,0.321
		c-0.455,0.114-0.84,0.019-1.121-0.367c-0.513-0.704-1.022-1.411-1.521-2.125c-0.263-0.376-0.247-0.766-0.01-1.158
		c0.254-0.42,0.486-0.854,0.744-1.272c0.114-0.184,0.114-0.342,0.07-0.556c-0.085-0.423-0.31-0.65-0.711-0.782
		c-0.369-0.121-0.715-0.314-1.075-0.465c-0.421-0.176-0.668-0.475-0.671-0.94c-0.005-0.89-0.006-1.781,0.003-2.671
		c0.004-0.426,0.235-0.712,0.617-0.882c0.467-0.207,0.932-0.42,1.404-0.615c0.182-0.075,0.261-0.196,0.341-0.373
		c0.193-0.423,0.109-0.77-0.148-1.134C2.889,9.015,2.714,8.65,2.511,8.304c-0.202-0.343-0.224-0.7,0-1.024
		c0.529-0.766,1.072-1.523,1.63-2.267c0.236-0.315,0.579-0.408,0.97-0.313c0.506,0.122,1.015,0.235,1.523,0.35
		C6.97,5.125,7.521,4.744,7.558,4.4c0.057-0.528,0.109-1.057,0.149-1.587C7.74,2.368,7.941,2.04,8.361,1.891
		c0.82-0.292,1.644-0.572,2.473-0.834c0.445-0.141,0.821-0.003,1.123,0.368c0.323,0.397,0.657,0.785,1.009,1.156
		c0.092,0.098,0.261,0.134,0.402,0.172c0.45,0.121,0.718-0.13,0.968-0.461c0.241-0.32,0.524-0.607,0.783-0.914
		c0.274-0.326,0.627-0.454,1.024-0.331c0.85,0.263,1.693,0.549,2.532,0.846c0.42,0.149,0.62,0.483,0.655,0.923
		c0.04,0.51,0.088,1.019,0.132,1.528c0.034,0.395,0.577,0.786,0.968,0.697c0.508-0.116,1.017-0.226,1.524-0.346
		c0.357-0.085,0.684-0.006,0.897,0.277c0.584,0.775,1.149,1.565,1.697,2.366c0.219,0.32,0.143,0.672-0.045,0.996
		c-0.267,0.46-0.535,0.918-0.799,1.379c-0.171,0.299,0.06,0.985,0.376,1.124c0.467,0.207,0.934,0.415,1.403,0.617
		c0.423,0.182,0.647,0.503,0.653,0.957c0.01,0.861,0.01,1.722,0,2.583c-0.006,0.456-0.239,0.773-0.658,0.955
		c-0.469,0.203-0.941,0.4-1.399,0.625c-0.123,0.061-0.223,0.202-0.294,0.329c-0.225,0.398-0.156,0.762,0.112,1.132
		c0.234,0.323,0.407,0.69,0.611,1.035c0.22,0.373,0.225,0.751-0.02,1.104c-0.496,0.716-1.006,1.422-1.518,2.127
		c-0.287,0.395-0.674,0.5-1.144,0.38c-0.485-0.124-0.976-0.228-1.465-0.336c-0.309-0.068-0.865,0.339-0.894,0.653
		c-0.046,0.499-0.099,0.998-0.129,1.498c-0.031,0.514-0.253,0.878-0.752,1.046c-0.815,0.274-1.632,0.545-2.449,0.813
		C16.051,26.382,15.958,26.383,15.952,26.384z M21.742,20.651c0.037-0.029,0.124-0.072,0.176-0.141
		c0.182-0.239,0.368-0.478,0.519-0.737c0.055-0.095,0.062-0.27,0.012-0.367c-0.207-0.4-0.432-0.793-0.674-1.173
		c-0.248-0.388-0.289-0.776-0.103-1.198c0.084-0.192,0.15-0.394,0.207-0.596c0.346-1.229,0.179-1.127,1.487-1.695
		c0.954-0.414,0.942-0.422,0.894-1.465c-0.01-0.209-0.091-0.301-0.267-0.374c-0.416-0.173-0.822-0.371-1.24-0.539
		c-0.385-0.155-0.622-0.416-0.71-0.825c-0.055-0.254-0.1-0.522-0.217-0.748c-0.392-0.754-0.316-1.442,0.213-2.093
		c0.012-0.015,0.019-0.035,0.028-0.053c0.156-0.299,0.45-0.607,0.43-0.893c-0.02-0.292-0.358-0.557-0.54-0.844
		c-0.104-0.164-0.224-0.193-0.403-0.148c-0.447,0.113-0.898,0.209-1.346,0.317c-0.364,0.088-0.693,0.041-0.984-0.214
		c-0.188-0.165-0.38-0.331-0.589-0.468c-1.071-0.702-0.998-0.595-1.111-1.964c-0.083-1.014-0.084-1.007-1.071-1.308
		c-0.179-0.055-0.273-0.013-0.381,0.117c-0.314,0.378-0.638,0.748-0.957,1.121c-0.246,0.287-0.55,0.4-0.933,0.377
		c-0.449-0.026-0.902-0.016-1.352,0.002c-0.331,0.013-0.616-0.057-0.841-0.309c-0.194-0.217-0.382-0.439-0.577-0.654
		c-0.214-0.234-0.403-0.6-0.659-0.657c-0.278-0.062-0.617,0.174-0.935,0.265C9.629,3.44,9.582,3.552,9.571,3.736
		c-0.029,0.48-0.085,0.959-0.125,1.438C9.415,5.549,9.253,5.839,8.93,6.042c-0.229,0.144-0.48,0.274-0.662,0.467
		C7.69,7.125,7.026,7.265,6.252,6.955C6.243,6.951,6.233,6.949,6.224,6.946C5.168,6.701,5.172,6.704,4.576,7.615
		C4.482,7.759,4.495,7.856,4.575,7.991c0.253,0.421,0.49,0.852,0.741,1.273C5.504,9.579,5.533,9.9,5.399,10.242
		c-0.095,0.242-0.196,0.485-0.26,0.737c-0.326,1.298-0.304,1.127-1.449,1.657c-0.305,0.141-0.727,0.226-0.868,0.468
		c-0.153,0.264-0.032,0.682-0.048,1.033c-0.009,0.186,0.081,0.262,0.237,0.328c0.452,0.19,0.898,0.396,1.348,0.591
		c0.316,0.137,0.518,0.365,0.604,0.701c0.067,0.262,0.13,0.526,0.216,0.781c0.405,1.205,0.497,0.988-0.224,2.226
		c-0.168,0.288-0.443,0.606-0.418,0.889c0.025,0.294,0.36,0.557,0.546,0.842c0.097,0.149,0.198,0.186,0.374,0.141
		c0.495-0.127,0.996-0.229,1.493-0.344c0.296-0.068,0.555,0.007,0.789,0.19c0.229,0.179,0.444,0.381,0.687,0.537
		c1.13,0.726,0.958,0.683,1.079,1.92c0.102,1.042,0.085,1.039,1.073,1.334c0.177,0.053,0.273,0.007,0.381-0.123
		c0.294-0.355,0.61-0.693,0.9-1.052c0.277-0.342,0.616-0.492,1.055-0.439c0.218,0.026,0.442,0.04,0.66,0.025
		c1.319-0.091,1.159-0.069,2.049,0.936c0.655,0.74,0.649,0.738,1.579,0.383c0.18-0.068,0.247-0.166,0.26-0.348
		c0.034-0.48,0.09-0.958,0.124-1.438c0.025-0.354,0.168-0.628,0.46-0.836c0.416-0.296,0.825-0.604,1.234-0.91
		c0.255-0.191,0.528-0.266,0.846-0.187C20.644,20.41,21.163,20.52,21.742,20.651z"/>
	<path id="XMLID_17935_" fill="#FFFFFF" d="M39.909,38.552c0.38,0.085,0.908,0.202,1.435,0.321c0.361,0.081,0.79-0.238,0.819-0.605
		c0.037-0.46,0.082-0.919,0.123-1.378c0.038-0.429,0.245-0.746,0.654-0.89c0.774-0.271,1.552-0.528,2.332-0.779
		c0.383-0.123,0.713-0.003,0.976,0.294c0.326,0.368,0.644,0.742,0.967,1.113c0.211,0.243,0.74,0.243,0.951,0
		c0.309-0.356,0.618-0.712,0.925-1.069c0.29-0.338,0.645-0.468,1.077-0.327c0.732,0.239,1.462,0.482,2.191,0.728
		c0.498,0.168,0.721,0.533,0.752,1.046c0.027,0.45,0.076,0.899,0.12,1.348c0.026,0.263,0.486,0.593,0.745,0.535
		c0.45-0.101,0.9-0.201,1.347-0.31c0.434-0.106,0.805-0.008,1.071,0.353c0.487,0.661,0.964,1.329,1.431,2.004
		c0.239,0.346,0.222,0.714,0.009,1.077c-0.234,0.397-0.462,0.798-0.692,1.198c-0.191,0.333-0.015,0.861,0.341,1.019
		c0.403,0.179,0.805,0.358,1.21,0.533c0.396,0.172,0.632,0.461,0.635,0.9c0.007,0.83,0.007,1.66-0.002,2.49
		c-0.005,0.414-0.231,0.695-0.6,0.861c-0.429,0.193-0.862,0.378-1.292,0.57c-0.291,0.13-0.471,0.69-0.311,0.968
		c0.225,0.391,0.447,0.784,0.682,1.169c0.244,0.4,0.266,0.798-0.004,1.184c-0.453,0.648-0.917,1.289-1.382,1.929
		c-0.29,0.4-0.685,0.487-1.149,0.372c-0.428-0.106-0.859-0.2-1.289-0.295c-0.282-0.063-0.722,0.262-0.751,0.552
		c-0.051,0.509-0.1,1.017-0.151,1.526c-0.039,0.388-0.251,0.665-0.606,0.792c-0.79,0.283-1.586,0.556-2.389,0.799
		c-0.387,0.117-0.728-0.03-0.993-0.342c-0.305-0.359-0.614-0.715-0.925-1.07c-0.196-0.223-0.756-0.222-0.951,0.001
		c-0.31,0.355-0.621,0.709-0.926,1.069c-0.292,0.345-0.658,0.456-1.08,0.321c-0.743-0.236-1.482-0.486-2.219-0.74
		c-0.473-0.163-0.685-0.516-0.712-1.008c-0.026-0.46-0.077-0.919-0.122-1.378c-0.024-0.242-0.486-0.58-0.724-0.528
		c-0.44,0.097-0.881,0.191-1.318,0.302c-0.466,0.119-0.858,0.027-1.147-0.371c-0.47-0.648-0.94-1.297-1.396-1.955
		c-0.254-0.366-0.232-0.75-0.005-1.13c0.236-0.396,0.463-0.797,0.692-1.197c0.159-0.277-0.018-0.837-0.308-0.967
		c-0.402-0.181-0.803-0.364-1.21-0.532c-0.421-0.173-0.683-0.469-0.691-0.928c-0.015-0.82-0.016-1.641,0-2.461
		c0.008-0.445,0.254-0.743,0.665-0.914c0.416-0.174,0.826-0.361,1.237-0.545c0.29-0.13,0.467-0.686,0.307-0.966
		c-0.224-0.392-0.444-0.786-0.679-1.171c-0.244-0.4-0.266-0.798,0.004-1.184c0.465-0.664,0.937-1.323,1.421-1.974
		C39.185,38.671,39.437,38.527,39.909,38.552z M40.197,40.612c-0.032,0.021-0.114,0.052-0.161,0.111
		c-0.148,0.189-0.277,0.394-0.426,0.582c-0.103,0.13-0.103,0.236-0.015,0.376c0.206,0.332,0.387,0.68,0.595,1.011
		c0.23,0.366,0.298,0.734,0.112,1.14c-0.083,0.181-0.145,0.374-0.198,0.566c-0.323,1.155-0.166,1.069-1.445,1.623
		c-0.762,0.33-0.759,0.336-0.728,1.176c0.001,0.02-0.006,0.045,0.004,0.059c0.065,0.096,0.113,0.231,0.204,0.277
		c0.367,0.184,0.744,0.35,1.124,0.505c0.374,0.153,0.592,0.417,0.693,0.807c0.1,0.387,0.215,0.773,0.359,1.146
		c0.146,0.379,0.112,0.719-0.096,1.061c-0.219,0.36-0.434,0.722-0.63,1.095c-0.043,0.082-0.041,0.242,0.012,0.311
		c0.193,0.252,0.415,0.484,0.633,0.716c0.017,0.018,0.093-0.022,0.142-0.032c0.411-0.092,0.823-0.175,1.232-0.278
		c0.318-0.08,0.59-0.012,0.846,0.184c0.375,0.285,0.752,0.567,1.136,0.841c0.273,0.194,0.417,0.448,0.443,0.781
		c0.034,0.43,0.076,0.859,0.12,1.288c0.009,0.087,0.02,0.226,0.069,0.247c0.294,0.125,0.594,0.257,0.904,0.307
		c0.1,0.016,0.245-0.202,0.358-0.324c0.15-0.162,0.303-0.323,0.429-0.503c0.354-0.506,0.809-0.761,1.44-0.639
		c0.116,0.022,0.24,0.007,0.361,0.006c1.238-0.015,1.033-0.208,1.997,0.922c0.525,0.615,0.526,0.623,1.275,0.313
		c0.102-0.042,0.213-0.18,0.229-0.287c0.058-0.376,0.091-0.757,0.106-1.137c0.02-0.48,0.206-0.846,0.632-1.087
		c0.165-0.093,0.323-0.204,0.47-0.325c0.988-0.815,0.873-0.682,2.013-0.437c0.863,0.186,0.867,0.196,1.337-0.542
		c0.053-0.083,0.059-0.247,0.013-0.335c-0.204-0.391-0.434-0.767-0.657-1.148c-0.172-0.295-0.196-0.597-0.085-0.923
		c0.146-0.426,0.283-0.856,0.403-1.291c0.093-0.336,0.291-0.565,0.602-0.705c0.338-0.152,0.671-0.32,1.02-0.441
		c0.301-0.105,0.377-0.275,0.405-0.59c0.048-0.537-0.115-0.858-0.649-0.974c-0.058-0.013-0.109-0.052-0.167-0.068
		c-0.804-0.227-1.291-0.727-1.372-1.581c-0.003-0.029-0.014-0.059-0.025-0.086c-0.467-1.207-0.362-1.111,0.227-2.141
		c0.428-0.748,0.437-0.749-0.116-1.423c-0.062-0.076-0.216-0.132-0.313-0.115c-0.424,0.076-0.842,0.18-1.262,0.278
		c-0.323,0.075-0.611,0.019-0.878-0.186c-0.373-0.288-0.753-0.566-1.135-0.843c-0.25-0.181-0.402-0.413-0.43-0.724
		c-0.027-0.29-0.061-0.578-0.088-0.868c-0.074-0.776-0.075-0.771-0.844-1.002c-0.159-0.048-0.258-0.022-0.362,0.105
		c-0.268,0.325-0.555,0.635-0.821,0.961c-0.259,0.316-0.586,0.423-0.985,0.402c-0.379-0.02-0.761-0.016-1.14,0.001
		c-0.399,0.019-0.728-0.092-0.98-0.414c-0.148-0.189-0.313-0.366-0.471-0.548c-0.529-0.609-0.532-0.615-1.281-0.295
		c-0.1,0.043-0.206,0.184-0.222,0.291c-0.062,0.436-0.096,0.877-0.129,1.317c-0.026,0.347-0.188,0.601-0.468,0.799
		c-0.36,0.255-0.719,0.512-1.063,0.787c-0.291,0.232-0.6,0.296-0.957,0.207C41.118,40.813,40.686,40.723,40.197,40.612z"/>
	<path id="XMLID_17917_" fill="#FFFFFF" d="M20.125,49.3c-4.967-0.08-8.84-4.399-8.487-9.357c0.342-4.798,4.538-8.411,9.375-8.072
		c4.711,0.33,8.385,4.531,8.063,9.212C28.724,46.192,24.407,49.467,20.125,49.3z M13.568,40.352
		c-0.096,3.512,2.469,6.638,6.149,6.985c3.905,0.368,7.208-2.586,7.432-6.454c0.208-3.59-2.711-6.873-6.378-7.086
		C17.07,33.583,13.711,36.406,13.568,40.352z"/>
	<path id="XMLID_17914_" fill="#FFFFFF" d="M44.756,24.439c-4.923-0.078-8.772-3.934-8.77-8.809
		c0.002-4.863,3.956-8.769,8.779-8.763c4.834,0.006,8.786,3.971,8.776,8.805C53.531,20.489,49.559,24.453,44.756,24.439z
		 M51.605,15.675c0.045-3.719-3.049-6.863-6.819-6.861c-3.829,0.002-6.816,3.044-6.858,6.781c-0.041,3.668,2.936,6.855,6.775,6.891
		C48.456,22.52,51.559,19.477,51.605,15.675z"/>
	<path id="XMLID_17911_" fill="#FFFFFF" d="M13.499,5.888c4.286-0.018,7.816,3.502,7.821,7.799c0.005,4.318-3.502,7.816-7.835,7.814
		c-4.28-0.002-7.763-3.504-7.77-7.813C5.709,9.403,9.198,5.906,13.499,5.888z M19.381,13.68c-0.026-3.247-2.684-5.879-5.906-5.847
		c-3.217,0.032-5.844,2.672-5.82,5.869c0.024,3.169,2.466,5.846,5.886,5.857C16.779,19.571,19.406,16.881,19.381,13.68z"/>
	<path id="XMLID_17908_" fill="#FFFFFF" d="M40.86,46.895c0.002-3.765,3.099-6.851,6.847-6.826c3.774,0.026,6.806,3.068,6.807,6.831
		c0.001,3.768-3.079,6.842-6.841,6.826C43.918,53.712,40.858,50.644,40.86,46.895z M47.683,42.009
		c-2.7,0.016-4.88,2.203-4.873,4.889c0.007,2.711,2.205,4.903,4.903,4.891c2.675-0.013,4.875-2.232,4.864-4.907
		C52.567,44.198,50.353,41.993,47.683,42.009z"/>
	<path id="XMLID_17895_" fill="#FFFFFF" d="M23.071,37.119c-0.449,0.461-0.881,0.906-1.328,1.366
		c-0.91-0.702-1.829-0.72-2.733-0.024c-0.447-0.458-0.891-0.914-1.338-1.373C18.927,35.676,21.735,35.673,23.071,37.119z"/>
	<path id="XMLID_17894_" fill="#FFFFFF" d="M50.352,13.392c-1.518,1.606-3.012,3.187-4.507,4.768
		c-0.331,0.35-0.657,0.704-0.993,1.048c-0.422,0.432-0.948,0.477-1.394,0.083c-1.082-0.955-2.148-1.927-3.25-2.918
		c0.437-0.484,0.862-0.956,1.299-1.441c0.853,0.765,1.687,1.513,2.549,2.286c1.63-1.722,3.251-3.436,4.882-5.16
		C49.412,12.505,49.871,12.938,50.352,13.392z"/>
	<path id="XMLID_17893_" fill="#FFFFFF" d="M15.649,11.036c0.542,0.536,0.99,0.978,1.448,1.431
		c-0.863,0.862-1.735,1.734-2.607,2.606c-0.412,0.411-0.819,0.827-1.237,1.232c-0.399,0.387-0.922,0.46-1.301,0.104
		c-0.693-0.65-1.34-1.349-2.005-2.025c0.437-0.442,0.878-0.888,1.346-1.363c0.391,0.423,0.777,0.841,1.181,1.277
		C13.576,13.168,14.621,12.093,15.649,11.036z"/>
	<path id="XMLID_17892_" fill="#FFFFFF" d="M49.02,46.857c0.514,0.512,0.954,0.949,1.373,1.366
		c-0.461,0.453-0.914,0.898-1.375,1.351c-0.389-0.399-0.827-0.85-1.271-1.306c-0.478,0.492-0.92,0.948-1.337,1.377
		c-0.512-0.504-0.966-0.95-1.451-1.427c0.426-0.423,0.88-0.874,1.362-1.352c-0.459-0.445-0.912-0.883-1.341-1.299
		c0.461-0.461,0.905-0.905,1.351-1.351c0.399,0.414,0.841,0.872,1.3,1.348c0.499-0.527,0.938-0.99,1.37-1.445
		c0.504,0.502,0.949,0.946,1.394,1.389C49.951,45.943,49.496,46.39,49.02,46.857z"/>
</g>
</svg>
