<?xml version="1.0" encoding="utf-8"?>
<!-- Generator: Adobe Illustrator 17.0.0, SVG Export Plug-In . SVG Version: 6.00 Build 0)  -->
<!DOCTYPE svg PUBLIC "-//W3C//DTD SVG 1.1//EN" "http://www.w3.org/Graphics/SVG/1.1/DTD/svg11.dtd">
<svg version="1.1" id="圖層_1" xmlns="http://www.w3.org/2000/svg" xmlns:xlink="http://www.w3.org/1999/xlink" x="0px" y="0px"
	 width="60px" height="60px" viewBox="0 0 60 60" enable-background="new 0 0 60 60" xml:space="preserve">
<g id="XMLID_318_">
	<path id="XMLID_17812_" fill="#FFFFFF" d="M42.715,21.156c0.156,0,0.273,0,0.389,0c1.756,0.001,3.513-0.018,5.268,0.008
		c4.928,0.072,9.25,3.58,10.309,8.396c0.192,0.874,0.288,1.786,0.298,2.682c0.035,3.165,0.014,6.33,0.014,9.495
		c0,0.739-0.305,1.041-1.05,1.042c-0.247,0-0.493,0-0.771,0c0.099,2.269-0.72,4.11-2.516,5.473
		c-1.288,0.978-2.769,1.348-4.372,1.188c-3.047-0.303-5.772-3.045-5.523-6.637c-9.569,0-19.136,0-28.726,0
		c0.103,2.078-0.615,3.813-2.176,5.178c-1.213,1.061-2.652,1.509-4.25,1.483c-1.141-0.018-2.182-0.366-3.139-0.974
		c-0.96-0.61-1.688-1.435-2.197-2.45c-0.509-1.014-0.702-2.095-0.629-3.261c-0.326,0-0.62,0.003-0.915-0.001
		c-0.562-0.007-0.882-0.316-0.911-0.878c-0.005-0.089-0.002-0.179-0.002-0.268c0-9.435,0-18.871,0.001-28.306
		c0-0.148-0.004-0.3,0.022-0.445c0.06-0.346,0.275-0.568,0.61-0.654c0.151-0.039,0.314-0.038,0.472-0.038
		c12.898-0.002,25.796-0.001,38.694-0.001c0.099,0,0.199-0.004,0.297,0.005c0.447,0.041,0.755,0.333,0.788,0.784
		c0.025,0.345,0.016,0.694,0.016,1.041c0.001,2.242,0.001,4.485,0.001,6.727C42.715,20.87,42.715,20.996,42.715,21.156z
		 M3.497,41.088c0.24-0.004,0.458,0.101,0.595-0.23c1.118-2.697,3.968-4.251,6.87-3.701c2.114,0.401,3.647,1.625,4.53,3.607
		c0.112,0.251,0.24,0.324,0.505,0.324c8.214-0.007,16.429-0.006,24.643-0.006c0.117,0,0.233,0,0.362,0c0-9.087,0-18.138,0-27.203
		c-12.505,0-24.99,0-37.506,0C3.497,22.949,3.497,32.001,3.497,41.088z M57.267,41.062c0.005-0.084,0.015-0.171,0.015-0.258
		c0.005-2.906,0.031-5.812,0-8.718c-0.009-0.805-0.104-1.63-0.302-2.41c-1.025-4.049-4.623-6.823-8.83-6.85
		c-1.716-0.011-3.432-0.002-5.147-0.001c-0.086,0-0.173,0.009-0.267,0.014c0,6.082,0,12.146,0,18.243
		c0.724,0,1.426-0.008,2.128,0.005c0.211,0.004,0.309-0.066,0.393-0.262c1.143-2.668,3.91-4.212,6.765-3.679
		c2.119,0.395,3.677,1.611,4.589,3.588C56.752,41.041,56.9,41.183,57.267,41.062z M9.803,47.776
		c2.499,0.002,4.555-2.027,4.546-4.501c-0.009-2.442-1.876-4.47-4.423-4.533c-2.53-0.063-4.626,1.984-4.63,4.41
		C5.291,45.74,7.275,47.774,9.803,47.776z M46.432,43.22c0.016,2.544,2.024,4.572,4.51,4.556c2.507-0.017,4.563-2.065,4.522-4.521
		c-0.045-2.668-2.179-4.593-4.653-4.51C48.214,38.832,46.427,40.937,46.432,43.22z"/>
	<path id="XMLID_10062_" fill="#FFFFFF" d="M44.18,28.18c0-1.21-0.001-2.42,0.001-3.629c0.001-0.637,0.313-0.974,0.937-0.967
		c1.02,0.01,2.049-0.033,3.057,0.085c1.994,0.234,3.698,2.103,3.787,4.111c0.06,1.366,0.043,2.735,0.042,4.103
		c0,0.577-0.34,0.905-0.914,0.907c-1.993,0.006-3.986,0.006-5.979,0.001c-0.605-0.002-0.928-0.34-0.929-0.952
		C44.177,30.619,44.18,29.4,44.18,28.18z M45.883,25.305c0,1.929,0,3.856,0,5.782c1.487,0,2.951,0,4.413,0
		c0-1.069,0.06-2.123-0.015-3.167c-0.098-1.37-1.091-2.411-2.448-2.6C47.203,25.232,46.55,25.305,45.883,25.305z"/>
	<path id="XMLID_10059_" fill="#FFFFFF" d="M9.795,46.765c-1.913,0.006-3.473-1.575-3.478-3.525
		c-0.005-1.897,1.572-3.473,3.49-3.487c1.949-0.015,3.526,1.571,3.525,3.544C13.33,45.203,11.744,46.758,9.795,46.765z
		 M9.867,41.434c-0.979-0.03-1.833,0.762-1.871,1.734c-0.039,0.997,0.758,1.888,1.718,1.92c1.028,0.034,1.899-0.762,1.938-1.77
		C11.69,42.325,10.875,41.465,9.867,41.434z"/>
	<path id="XMLID_10056_" fill="#FFFFFF" d="M50.955,46.765c-1.943-0.001-3.5-1.569-3.504-3.528c-0.003-1.911,1.597-3.496,3.52-3.485
		c1.93,0.011,3.507,1.612,3.495,3.55C54.455,45.2,52.867,46.766,50.955,46.765z M50.967,45.088c0.976-0.004,1.809-0.826,1.819-1.794
		c0.011-1.024-0.832-1.876-1.842-1.862c-0.992,0.014-1.818,0.831-1.815,1.794C49.132,44.269,49.946,45.093,50.967,45.088z"/>
	<g id="XMLID_317_">
		<path id="XMLID_302_" fill="#FFFFFF" d="M15.785,20.516c0.414,0.09,0.832,0.167,1.24,0.277c0.208,0.056,0.346,0.003,0.525-0.106
			c0.283-0.173,0.37-0.399,0.378-0.71c0.009-0.346,0.061-0.691,0.097-1.037c0.024-0.233,0.158-0.39,0.364-0.485
			c0.627-0.288,1.276-0.509,1.952-0.651c0.258-0.054,0.466,0.025,0.636,0.225c0.275,0.323,0.549,0.648,0.835,0.962
			c0.055,0.061,0.156,0.093,0.242,0.11c0.403,0.081,0.691-0.077,0.918-0.416c0.16-0.239,0.375-0.44,0.562-0.661
			c0.182-0.215,0.412-0.291,0.675-0.206c0.616,0.198,1.23,0.406,1.842,0.617c0.295,0.102,0.426,0.323,0.446,0.632
			c0.026,0.417,0.068,0.833,0.113,1.249c0.007,0.067,0.063,0.129,0.099,0.192c0.009,0.015,0.033,0.021,0.046,0.035
			c0.276,0.294,0.593,0.339,0.969,0.202c0.246-0.089,0.513-0.117,0.768-0.182c0.305-0.078,0.564-0.018,0.753,0.243
			c0.373,0.515,0.741,1.032,1.11,1.55c0.181,0.255,0.168,0.514,0.013,0.777c-0.206,0.349-0.415,0.696-0.607,1.052
			c-0.044,0.083-0.039,0.201-0.031,0.302c0.035,0.448,0.313,0.672,0.72,0.798c0.244,0.076,0.471,0.204,0.708,0.304
			c0.278,0.118,0.426,0.327,0.428,0.627c0.005,0.642,0.004,1.284,0,1.926c-0.002,0.293-0.146,0.496-0.417,0.613
			c-0.383,0.166-0.766,0.333-1.143,0.513c-0.074,0.035-0.134,0.123-0.175,0.2c-0.206,0.384-0.144,0.734,0.118,1.078
			c0.158,0.208,0.266,0.454,0.402,0.68c0.151,0.25,0.164,0.502-0.004,0.742c-0.379,0.542-0.764,1.079-1.156,1.612
			c-0.17,0.231-0.407,0.29-0.687,0.22c-0.392-0.098-0.787-0.19-1.184-0.268c-0.086-0.017-0.193,0.022-0.28,0.06
			c-0.398,0.176-0.507,0.505-0.5,0.916c0.005,0.281-0.048,0.563-0.072,0.845c-0.022,0.263-0.155,0.459-0.397,0.545
			c-0.64,0.228-1.284,0.448-1.933,0.647c-0.245,0.075-0.466-0.036-0.634-0.233c-0.272-0.318-0.541-0.638-0.821-0.948
			c-0.055-0.061-0.155-0.095-0.24-0.112c-0.407-0.081-0.705,0.066-0.937,0.416c-0.158,0.239-0.372,0.442-0.563,0.66
			c-0.183,0.209-0.412,0.288-0.677,0.203c-0.592-0.19-1.182-0.388-1.772-0.585c-0.349-0.117-0.5-0.367-0.517-0.73
			c-0.018-0.385-0.06-0.769-0.108-1.152c-0.011-0.087-0.079-0.176-0.141-0.246c-0.276-0.309-0.604-0.342-0.986-0.203
			c-0.258,0.093-0.537,0.126-0.806,0.19c-0.246,0.059-0.458,0.01-0.63-0.183c-0.468-0.525-0.877-1.093-1.223-1.705
			c-0.129-0.229-0.11-0.453,0.021-0.677c0.215-0.366,0.429-0.732,0.633-1.104c0.037-0.068,0.037-0.166,0.027-0.247
			c-0.052-0.439-0.302-0.695-0.727-0.821c-0.256-0.076-0.495-0.213-0.741-0.323c-0.229-0.102-0.365-0.27-0.393-0.528
			c-0.076-0.693-0.079-1.386-0.001-2.079c0.03-0.263,0.17-0.437,0.406-0.542c0.382-0.169,0.767-0.33,1.145-0.508
			c0.074-0.035,0.133-0.123,0.175-0.2c0.218-0.398,0.143-0.757-0.127-1.11c-0.159-0.208-0.267-0.453-0.401-0.68
			c-0.145-0.246-0.149-0.491,0.017-0.724c0.384-0.539,0.771-1.075,1.163-1.607C15.416,20.608,15.576,20.516,15.785,20.516z
			 M22.254,34.008c0.167-0.009,0.336-0.007,0.501-0.028c0.263-0.034,0.46,0.062,0.626,0.26c0.247,0.296,0.506,0.583,0.752,0.881
			c0.076,0.091,0.146,0.126,0.262,0.083c0.247-0.091,0.496-0.177,0.747-0.255c0.112-0.035,0.144-0.1,0.153-0.21
			c0.03-0.391,0.081-0.781,0.103-1.172c0.016-0.272,0.147-0.45,0.363-0.598c0.276-0.189,0.55-0.381,0.806-0.596
			c0.203-0.171,0.415-0.212,0.663-0.153c0.375,0.089,0.75,0.179,1.128,0.256c0.062,0.013,0.164-0.02,0.202-0.068
			c0.175-0.222,0.329-0.46,0.499-0.686c0.068-0.091,0.069-0.163,0.011-0.26c-0.202-0.336-0.393-0.678-0.593-1.016
			c-0.126-0.213-0.146-0.425-0.059-0.663c0.117-0.319,0.223-0.644,0.307-0.973c0.068-0.268,0.217-0.44,0.466-0.546
			c0.343-0.146,0.68-0.305,1.024-0.449c0.116-0.048,0.175-0.108,0.172-0.24c-0.007-0.27-0.006-0.54-0.003-0.81
			c0.002-0.119-0.044-0.184-0.156-0.231c-0.35-0.146-0.691-0.314-1.042-0.454c-0.25-0.1-0.389-0.27-0.458-0.527
			c-0.088-0.328-0.188-0.655-0.304-0.974c-0.094-0.258-0.067-0.486,0.072-0.716c0.196-0.324,0.378-0.657,0.575-0.982
			c0.059-0.097,0.058-0.171-0.009-0.261c-0.166-0.221-0.328-0.445-0.487-0.672c-0.06-0.086-0.124-0.105-0.228-0.079
			c-0.393,0.095-0.79,0.177-1.184,0.268c-0.204,0.047-0.379-0.001-0.543-0.125c-0.313-0.236-0.628-0.47-0.944-0.701
			c-0.161-0.117-0.251-0.27-0.268-0.469c-0.036-0.417-0.069-0.833-0.118-1.248c-0.008-0.069-0.074-0.165-0.137-0.19
			c-0.256-0.102-0.519-0.188-0.785-0.263c-0.059-0.017-0.161,0.018-0.204,0.065c-0.264,0.29-0.52,0.588-0.771,0.889
			c-0.181,0.217-0.404,0.292-0.683,0.275c-0.301-0.019-0.605-0.02-0.905-0.001c-0.278,0.018-0.503-0.051-0.684-0.269
			c-0.246-0.297-0.507-0.582-0.752-0.881c-0.084-0.103-0.161-0.121-0.281-0.075c-0.234,0.089-0.472,0.168-0.711,0.244
			c-0.104,0.033-0.155,0.084-0.163,0.202c-0.027,0.378-0.074,0.755-0.099,1.134c-0.018,0.285-0.133,0.495-0.374,0.655
			c-0.283,0.189-0.552,0.399-0.82,0.608c-0.179,0.139-0.365,0.201-0.592,0.147c-0.387-0.093-0.778-0.171-1.166-0.264
			c-0.1-0.024-0.166-0.018-0.229,0.074c-0.16,0.233-0.327,0.462-0.498,0.687c-0.064,0.085-0.06,0.151-0.006,0.241
			c0.205,0.342,0.399,0.69,0.6,1.034c0.117,0.201,0.14,0.404,0.063,0.628c-0.119,0.346-0.23,0.695-0.329,1.047
			c-0.066,0.235-0.198,0.391-0.425,0.485c-0.362,0.15-0.716,0.319-1.077,0.472c-0.097,0.041-0.139,0.094-0.137,0.2
			c0.006,0.289,0.007,0.578,0.001,0.868c-0.002,0.109,0.045,0.156,0.14,0.197c0.343,0.146,0.679,0.309,1.024,0.449
			c0.275,0.111,0.429,0.3,0.501,0.587c0.079,0.317,0.176,0.632,0.29,0.938c0.091,0.244,0.073,0.46-0.059,0.68
			c-0.201,0.337-0.399,0.676-0.586,1.02c-0.031,0.057-0.032,0.164,0.001,0.216c0.161,0.248,0.333,0.489,0.514,0.723
			c0.034,0.044,0.129,0.074,0.186,0.062c0.377-0.078,0.752-0.168,1.128-0.256c0.246-0.058,0.46-0.027,0.664,0.146
			c0.249,0.212,0.515,0.407,0.79,0.583c0.265,0.169,0.382,0.395,0.397,0.702c0.018,0.366,0.063,0.73,0.091,1.096
			c0.008,0.111,0.053,0.17,0.161,0.204c0.245,0.076,0.487,0.163,0.729,0.25c0.111,0.04,0.184,0.021,0.263-0.076
			c0.253-0.308,0.519-0.606,0.779-0.908c0.152-0.178,0.336-0.268,0.577-0.241C21.894,33.999,22.074,33.999,22.254,34.008z"/>
		<path id="XMLID_246_" fill="#FFFFFF" d="M22.248,32.809c-3.157-0.05-5.624-2.523-5.623-5.648c0.001-3.118,2.537-5.622,5.629-5.619
			c3.1,0.004,5.634,2.546,5.627,5.645C27.874,30.276,25.327,32.818,22.248,32.809z M26.639,27.189
			c0.029-2.384-1.955-4.401-4.372-4.399c-2.455,0.001-4.371,1.952-4.397,4.348c-0.026,2.352,1.882,4.395,4.344,4.418
			C24.62,31.578,26.61,29.627,26.639,27.189z"/>
		<path id="XMLID_143_" fill="#FFFFFF" d="M25.836,25.725c-0.973,1.03-1.931,2.043-2.89,3.057c-0.212,0.224-0.421,0.451-0.637,0.672
			c-0.27,0.277-0.608,0.306-0.894,0.054c-0.694-0.612-1.378-1.235-2.084-1.871c0.28-0.311,0.553-0.613,0.833-0.924
			c0.547,0.491,1.082,0.97,1.634,1.466c1.045-1.104,2.084-2.203,3.13-3.309C25.233,25.157,25.527,25.434,25.836,25.725z"/>
	</g>
</g>
</svg>
