<?xml version="1.0" encoding="utf-8"?>
<!-- Generator: Adobe Illustrator 17.0.0, SVG Export Plug-In . SVG Version: 6.00 Build 0)  -->
<!DOCTYPE svg PUBLIC "-//W3C//DTD SVG 1.1//EN" "http://www.w3.org/Graphics/SVG/1.1/DTD/svg11.dtd">
<svg version="1.1" id="圖層_1" xmlns="http://www.w3.org/2000/svg" xmlns:xlink="http://www.w3.org/1999/xlink" x="0px" y="0px"
	 width="74.222px" height="74.649px" viewBox="0 0 74.222 74.649" enable-background="new 0 0 74.222 74.649" xml:space="preserve">
<g id="XMLID_69_">
	<path id="XMLID_1297_" fill="#A52937" d="M50.824,40.477c0.138,0,0.275,0,0.413,0c2.891,0,5.782-0.005,8.673,0.002
		c2.055,0.005,3.645,1.219,4.116,3.12c0.696,2.812-1.243,5.301-4.148,5.306c-4.045,0.008-8.09,0.002-12.136,0.002
		c-0.531,0-0.531,0-0.602,0.522c-0.082,0.597-0.164,1.195-0.254,1.846c0.383,0,0.729,0,1.074,0c0.408,0,0.816,0,1.224,0
		c1.179,0.001,1.867,0.68,1.87,1.866c0.005,2.425,0.002,4.85,0.002,7.274c0,0.291,0.003,0.583-0.001,0.874
		c-0.013,1.021-0.808,1.815-1.822,1.816c-1.795,0.002-3.59,0.001-5.412,0.001c0,1.07,0,2.123,0,3.228c0.272,0,0.547,0,0.822,0
		c0.583,0.001,1.166-0.009,1.749,0.006c0.578,0.015,1.038,0.505,1.029,1.069c-0.009,0.557-0.457,1.022-1.026,1.032
		c-0.804,0.013-1.609,0.01-2.413,0.002c-0.206-0.002-0.302,0.038-0.337,0.275c-0.314,2.09-1.876,3.658-3.974,3.846
		c-1.225,0.11-2.475,0.107-3.701,0.003c-1.954-0.167-3.458-1.612-3.919-3.597c-0.037-0.158-0.067-0.318-0.11-0.524
		c-0.181,0-0.363,0-0.546,0c-0.723-0.001-1.446,0.008-2.168-0.006c-0.599-0.011-1-0.431-1.011-1.026
		c-0.011-0.575,0.435-1.064,1.016-1.073c0.85-0.014,1.7-0.004,2.581-0.004c0-1.074,0-2.126,0-3.231c-0.126,0-0.26,0-0.394,0
		c-1.655,0-3.311,0.001-4.966,0c-1.038-0.001-1.749-0.69-1.751-1.721c-0.006-2.798-0.005-5.596-0.001-8.394
		c0.001-0.859,0.725-1.647,1.592-1.696c0.697-0.039,1.398-0.017,2.097-0.021c0.138-0.001,0.275,0,0.443,0
		c0.036-0.82-0.058-1.588-0.277-2.338c-0.021-0.071-0.192-0.139-0.294-0.14c-0.932-0.011-1.865-0.006-2.798-0.006
		c-0.326,0-0.654-0.016-0.979,0.003c-2.452,0.143-4.836-0.184-7.211-0.825c-3.078-0.83-6.196-1.512-9.297-2.26
		c-0.598-0.144-0.898-0.512-0.897-1.08c0.001-0.541,0.302-0.92,0.883-1.058c4.28-1.02,8.561-2.035,12.843-3.047
		c0.145-0.034,0.299-0.045,0.449-0.045c1.061-0.004,2.122-0.002,3.183-0.002c0.124,0,0.249,0,0.453,0
		c-0.138-0.17-0.227-0.284-0.32-0.395c-1.136-1.344-2.34-2.636-3.394-4.041c-2.209-2.943-3.552-6.269-4.031-9.921
		c-0.809-6.163,0.791-11.681,4.691-16.483c3.169-3.901,7.282-6.383,12.241-7.263c5.947-1.055,11.404,0.232,16.203,3.942
		c4.269,3.3,6.875,7.662,7.863,12.963c0.824,4.424,0.384,8.718-1.473,12.845c-1.009,2.243-2.386,4.233-4.038,6.047
		c-0.648,0.712-1.248,1.467-1.87,2.203C50.781,40.409,50.803,40.443,50.824,40.477z M37.851,40.477
		c3.369,0,6.737,0.002,10.106-0.007c0.141,0,0.351-0.054,0.413-0.154c0.971-1.575,2.183-2.949,3.397-4.339
		c3.912-4.483,5.289-9.754,4.522-15.597c-0.409-3.111-1.572-5.968-3.453-8.485c-3.901-5.22-9.089-7.935-15.657-7.82
		c-3.861,0.068-7.374,1.284-10.399,3.658c-6.101,4.788-8.544,11.116-7.439,18.759c0.543,3.754,2.214,7.047,4.773,9.856
		c1.117,1.226,2.207,2.466,3.134,3.841c0.15,0.222,0.307,0.295,0.568,0.294C31.16,40.474,34.506,40.477,37.851,40.477z
		 M26.942,60.692c7.341,0,14.643,0,21.961,0c0-2.535,0-5.001,0-7.512c-7.329,0.042-14.639,0.083-21.961,0.125
		C26.942,55.801,26.942,58.257,26.942,60.692z M53.822,42.632c-10.541,0-21.047,0-31.561,0c0,1.317,0,2.613,0,3.903
		c10.535,0,21.041,0,31.561,0C53.822,45.229,53.822,43.949,53.822,42.632z M34.242,62.914c-0.022,0.042-0.041,0.062-0.041,0.082
		c0.002,1.689-0.043,3.379,0.026,5.065c0.051,1.25,1.169,2.201,2.418,2.202c0.92,0.001,1.841,0.001,2.761-0.001
		c0.127,0,0.257-0.004,0.381-0.029c1.157-0.24,1.973-1.257,1.983-2.5c0.012-1.468-0.006-2.936,0.011-4.403
		c0.004-0.333-0.088-0.441-0.43-0.439c-2.26,0.014-4.52,0.007-6.78,0.008C34.457,62.899,34.343,62.909,34.242,62.914z M45.08,48.721
		c-4.787,0-9.533,0-14.313,0c0.11,0.829,0.217,1.63,0.327,2.459c4.576-0.04,9.115-0.08,13.669-0.12
		C44.872,50.26,44.974,49.503,45.08,48.721z M55.984,46.539c1.485,0,2.953,0.058,4.414-0.019c1.061-0.056,1.855-1.144,1.734-2.167
		c-0.118-0.994-0.957-1.724-2.036-1.737c-1.293-0.015-2.587-0.004-3.88-0.003c-0.077,0-0.153,0.018-0.231,0.028
		C55.984,43.952,55.984,45.24,55.984,46.539z M20.079,42.942c-2.396,0.56-4.752,1.11-7.107,1.661c0,0.025,0,0.049,0.001,0.074
		c2.361,0.557,4.721,1.115,7.107,1.678C20.079,45.211,20.079,44.108,20.079,42.942z"/>
	<path id="XMLID_1285_" fill="#A52937" d="M50.392,13.633c-0.137,0.287-0.226,0.566-0.387,0.795
		c-0.436,0.619-0.896,1.221-1.361,1.819c-0.127,0.163-0.118,0.286-0.043,0.468c0.374,0.902,0.734,1.81,1.086,2.721
		c0.068,0.177,0.154,0.247,0.346,0.266c0.753,0.076,1.504,0.177,2.256,0.263c0.697,0.08,1.099,0.508,1.103,1.202
		c0.006,0.979,0.005,1.958,0.001,2.937c-0.003,0.708-0.366,1.124-1.081,1.222c-0.773,0.106-1.549,0.189-2.322,0.299
		c-0.093,0.013-0.227,0.121-0.248,0.207c-0.233,0.971-0.624,1.876-1.116,2.74c-0.116,0.203-0.102,0.339,0.043,0.523
		c0.461,0.586,0.902,1.187,1.345,1.787c0.451,0.61,0.401,1.097-0.163,1.59c-0.712,0.62-1.426,1.238-2.143,1.851
		c-0.576,0.492-1.088,0.508-1.706,0.055c-0.592-0.434-1.182-0.871-1.764-1.318c-0.157-0.12-0.273-0.132-0.463-0.048
		c-0.841,0.369-1.688,0.725-2.546,1.05c-0.246,0.093-0.345,0.205-0.371,0.46c-0.075,0.753-0.164,1.505-0.27,2.255
		c-0.094,0.669-0.519,1.026-1.19,1.029c-0.991,0.003-1.982,0.004-2.972,0c-0.645-0.003-1.078-0.373-1.165-1.015
		c-0.105-0.773-0.181-1.55-0.29-2.323c-0.017-0.118-0.119-0.275-0.222-0.32c-0.872-0.38-1.757-0.729-2.629-1.111
		c-0.203-0.089-0.332-0.117-0.52,0.041c-0.561,0.473-1.145,0.919-1.72,1.376c-0.667,0.53-1.116,0.5-1.699-0.11
		c-0.693-0.725-1.384-1.45-2.081-2.17c-0.442-0.457-0.478-0.947-0.073-1.465c0.481-0.615,0.967-1.226,1.466-1.826
		c0.149-0.179,0.152-0.319,0.063-0.53c-0.37-0.878-0.723-1.764-1.066-2.653c-0.07-0.183-0.136-0.282-0.354-0.304
		c-0.73-0.072-1.456-0.18-2.185-0.265c-0.798-0.094-1.184-0.514-1.187-1.314c-0.003-0.932-0.003-1.865,0-2.797
		c0.003-0.76,0.396-1.183,1.152-1.267c0.752-0.084,1.504-0.174,2.254-0.278c0.097-0.013,0.24-0.117,0.258-0.201
		c0.215-0.99,0.628-1.898,1.124-2.772c0.114-0.201,0.074-0.33-0.053-0.496c-0.468-0.61-0.924-1.229-1.38-1.848
		c-0.389-0.527-0.361-0.981,0.102-1.472c0.72-0.762,1.448-1.518,2.177-2.272c0.436-0.451,0.939-0.492,1.437-0.107
		c0.636,0.491,1.266,0.991,1.888,1.501c0.159,0.13,0.276,0.136,0.463,0.055c0.865-0.372,1.736-0.728,2.611-1.076
		c0.169-0.067,0.259-0.138,0.279-0.337c0.073-0.73,0.178-1.457,0.257-2.186c0.084-0.783,0.499-1.178,1.274-1.179
		c0.967-0.002,1.935-0.003,2.902,0.001c0.68,0.002,1.125,0.414,1.206,1.099c0.089,0.752,0.191,1.502,0.267,2.255
		c0.02,0.196,0.1,0.268,0.272,0.339c0.922,0.384,1.841,0.777,2.75,1.189c0.181,0.082,0.285,0.067,0.429-0.05
		c0.606-0.492,1.219-0.976,1.832-1.459c0.532-0.419,1.031-0.412,1.497,0.06c0.761,0.772,1.513,1.553,2.243,2.354
		C50.183,13.068,50.255,13.355,50.392,13.633z M46.754,12.847c-0.618,0.457-1.243,0.924-1.875,1.384
		c-0.471,0.343-1.057,0.362-1.496,0.02c-1.045-0.813-2.231-1.278-3.524-1.521c-0.232-0.044-0.516-0.19-0.635-0.377
		c-0.191-0.301-0.314-0.668-0.377-1.022c-0.124-0.697-0.187-1.404-0.276-2.108c-0.484,0-0.933,0-1.399,0
		c-0.103,0.818-0.204,1.614-0.303,2.41c-0.076,0.616-0.415,1.016-0.99,1.107c-1.291,0.204-2.447,0.734-3.534,1.433
		c-0.615,0.396-0.927,0.388-1.511-0.071c-0.584-0.459-1.171-0.914-1.729-1.35c-0.338,0.334-0.65,0.643-0.979,0.967
		c0.5,0.594,1.012,1.197,1.519,1.805c0.41,0.492,0.432,1.093,0.052,1.606c-0.747,1.01-1.236,2.128-1.449,3.368
		c-0.106,0.617-0.481,0.994-1.104,1.093c-0.506,0.08-1.017,0.128-1.525,0.193c-0.306,0.039-0.612,0.084-0.931,0.128
		c0,0.393,0.014,0.743-0.005,1.09c-0.014,0.246,0.085,0.31,0.316,0.335c0.683,0.075,1.363,0.176,2.043,0.272
		c0.595,0.085,0.982,0.428,1.077,0.985c0.226,1.32,0.758,2.512,1.488,3.624c0.303,0.462,0.294,0.845-0.031,1.284
		c-0.491,0.662-0.979,1.326-1.449,1.964c0.336,0.343,0.643,0.657,0.966,0.987c0.601-0.441,1.21-0.89,1.822-1.334
		c0.522-0.379,1.109-0.393,1.619-0.012c1.009,0.755,2.136,1.226,3.371,1.446c0.593,0.106,0.919,0.476,1.049,1.03
		c0.072,0.305,0.087,0.622,0.128,0.934c0.068,0.527,0.136,1.054,0.203,1.568c0.494,0,0.941,0,1.396,0
		c0.101-0.815,0.199-1.6,0.297-2.386c0.066-0.527,0.293-0.948,0.839-1.085c1.415-0.354,2.719-0.95,3.948-1.732
		c0.355-0.226,0.723-0.189,1.073,0.078c0.602,0.459,1.218,0.9,1.83,1.347c0.072,0.053,0.153,0.093,0.243,0.147
		c0.289-0.326,0.565-0.636,0.842-0.949c-0.482-0.654-0.94-1.271-1.393-1.892c-0.339-0.464-0.365-1.061-0.03-1.499
		c0.789-1.031,1.26-2.192,1.5-3.459c0.113-0.596,0.544-0.976,1.143-1.052c0.716-0.091,1.433-0.181,2.148-0.285
		c0.091-0.013,0.238-0.104,0.242-0.166c0.023-0.379,0.011-0.76,0.011-1.145c-0.8-0.101-1.55-0.201-2.301-0.289
		c-0.758-0.089-1.072-0.348-1.269-1.078c-0.342-1.268-0.855-2.46-1.559-3.57c-0.317-0.499-0.296-0.839,0.057-1.312
		c0.486-0.651,0.965-1.306,1.423-1.929C47.38,13.483,47.071,13.169,46.754,12.847z"/>
	<path id="XMLID_1279_" fill="#A52937" d="M38.009,29.364c-3.624,0.071-6.887-2.959-6.817-7.068c0.06-3.507,3.233-6.601,6.852-6.581
		c3.712,0.021,6.813,3.181,6.807,6.938C44.845,26.299,41.721,29.363,38.009,29.364z M33.327,22.584
		c0.093,2.741,2.238,4.772,4.984,4.644c2.594-0.121,4.415-2.262,4.406-4.759c-0.009-2.68-2.329-4.751-4.976-4.621
		C35.353,17.966,33.245,20.19,33.327,22.584z"/>
</g>
</svg>
