<?xml version="1.0" encoding="utf-8"?>
<!-- Generator: Adobe Illustrator 17.0.0, SVG Export Plug-In . SVG Version: 6.00 Build 0)  -->
<!DOCTYPE svg PUBLIC "-//W3C//DTD SVG 1.1//EN" "http://www.w3.org/Graphics/SVG/1.1/DTD/svg11.dtd">
<svg version="1.1" id="圖層_1" xmlns="http://www.w3.org/2000/svg" xmlns:xlink="http://www.w3.org/1999/xlink" x="0px" y="0px"
	 width="27px" height="27px" viewBox="0 0 27 27" enable-background="new 0 0 27 27" xml:space="preserve">
<g id="XMLID_657_">
	<path id="XMLID_664_" fill="#9D2A35" d="M26.933,0.021C26.923,0.007,26.906,0,26.889,0L4.455,0.002c-0.013,0-0.025,0-0.038,0H4.383
		c-0.031,0-0.057,0.026-0.057,0.058s0.026,0.057,0.058,0.057h0.071c2.998,0.017,5.656,2.037,6.471,4.924
		c0.049,0.174,0.087,0.327,0.116,0.469c0.005,0.026,0.029,0.046,0.057,0.046h9.111c0.603,0,1.204-0.08,1.788-0.236
		c0.429-0.115,0.847-0.273,1.243-0.468c1.563-0.769,2.767-2.087,3.391-3.713l0.077-0.211c0.1-0.288,0.179-0.577,0.238-0.859
		C26.949,0.051,26.944,0.035,26.933,0.021z"/>
	<path id="XMLID_663_" fill="#9D2A35" d="M23.02,10.729H10.007c-0.019,0-0.037,0.009-0.047,0.024
		c-0.057,0.081-0.114,0.16-0.174,0.239c-0.414,0.539-0.905,1.013-1.46,1.407c-0.016,0.012-0.025,0.03-0.024,0.05
		c0.001,0.02,0.013,0.038,0.03,0.047c0.58,0.313,1.12,0.705,1.606,1.166c0.713,0.674,1.28,1.467,1.686,2.354
		c0.009,0.02,0.029,0.034,0.052,0.034h4.719c0.497,0,0.999-0.056,1.491-0.164c2.189-0.483,4.007-2.012,4.867-4.088l0.208-0.57
		v-0.002c0.04-0.128,0.079-0.267,0.116-0.426c0.004-0.017,0-0.036-0.01-0.049C23.055,10.737,23.038,10.729,23.02,10.729z"/>
	<path id="XMLID_662_" fill="#9D2A35" d="M19.15,21.223h-7.085c-0.025,0-0.048,0.017-0.056,0.042
		c-0.525,1.82-1.706,3.368-3.326,4.361c-1.177,0.721-2.538,1.105-3.936,1.111l0,0l0,0c-0.031,0-0.057,0.026-0.057,0.058
		s0.026,0.058,0.058,0.058l0,0l7.708-0.001c2.853,0,5.443-1.796,6.443-4.468l0.036-0.1c0.114-0.321,0.205-0.654,0.271-0.993
		c0.003-0.017-0.001-0.035-0.012-0.047C19.184,21.23,19.167,21.223,19.15,21.223z"/>
	<path id="XMLID_661_" fill="#9D2A35" d="M0.136,10.831h3.412c1.48,0,2.684-1.204,2.684-2.684S5.027,5.464,3.548,5.464l-0.03,0
		L0.136,5.462c-0.016,0-0.029,0.006-0.041,0.017S0.078,5.504,0.078,5.52v5.253C0.078,10.804,0.104,10.831,0.136,10.831z"/>
	<path id="XMLID_658_" fill="#9D2A35" d="M6.832,18.641c0-1.48-1.204-2.684-2.684-2.684l-0.029,0.001l-3.982-0.001
		c-0.016,0-0.029,0.006-0.041,0.017c-0.012,0.01-0.018,0.024-0.018,0.04v5.253c0,0.031,0.026,0.058,0.058,0.058h4.012
		C5.628,21.325,6.832,20.12,6.832,18.641z"/>
</g>
</svg>
