<?xml version="1.0" encoding="utf-8"?>
<!-- Generator: Adobe Illustrator 17.0.0, SVG Export Plug-In . SVG Version: 6.00 Build 0)  -->
<!DOCTYPE svg PUBLIC "-//W3C//DTD SVG 1.1//EN" "http://www.w3.org/Graphics/SVG/1.1/DTD/svg11.dtd">
<svg version="1.1" id="圖層_1" xmlns="http://www.w3.org/2000/svg" xmlns:xlink="http://www.w3.org/1999/xlink" x="0px" y="0px"
	 width="164.96px" height="25.894px" viewBox="0 0 164.96 25.894" enable-background="new 0 0 164.96 25.894" xml:space="preserve">
<g id="XMLID_656_">
	<g id="XMLID_189_">
		<path id="XMLID_190_" fill="#231815" d="M31.74,0.202h5.461c1.355,0,2.38,0.348,3.074,1.044c0.538,0.538,0.806,1.206,0.806,2.003
			v0.034c0,0.337-0.042,0.634-0.125,0.892c-0.084,0.258-0.195,0.491-0.335,0.698c-0.139,0.208-0.301,0.39-0.485,0.547
			c-0.184,0.157-0.382,0.292-0.594,0.404c0.681,0.258,1.217,0.609,1.609,1.052c0.391,0.444,0.586,1.058,0.586,1.843v0.034
			c0,0.538-0.103,1.01-0.311,1.414c-0.207,0.404-0.504,0.741-0.891,1.01c-0.387,0.269-0.852,0.471-1.395,0.606
			c-0.544,0.135-1.145,0.202-1.806,0.202H31.74V0.202z M36.655,4.966c0.572,0,1.027-0.098,1.363-0.295
			c0.337-0.196,0.505-0.513,0.505-0.951V3.687c0-0.393-0.146-0.693-0.438-0.901c-0.292-0.208-0.713-0.312-1.262-0.312h-2.559v2.491
			H36.655z M37.345,9.712c0.572,0,1.021-0.104,1.346-0.312c0.325-0.207,0.488-0.53,0.488-0.967V8.399
			c0-0.393-0.152-0.704-0.455-0.934c-0.303-0.23-0.791-0.345-1.464-0.345h-2.996v2.592H37.345z"/>
		<path id="XMLID_194_" fill="#231815" d="M44.431,0.202h2.592v11.782h-2.592V0.202z"/>
		<path id="XMLID_196_" fill="#231815" d="M50.39,0.202h2.39l5.521,7.255V0.202h2.559v11.782h-2.205l-5.706-7.49v7.49H50.39V0.202z"
			/>
		<path id="XMLID_198_" fill="#231815" d="M64.108,0.202H66.7v4.662h4.78V0.202h2.592v11.782H71.48v-4.73H66.7v4.73h-2.592V0.202z"
			/>
		<path id="XMLID_200_" fill="#231815" d="M83.043,12.187c-0.909,0-1.745-0.16-2.508-0.48c-0.763-0.319-1.422-0.752-1.977-1.296
			c-0.556-0.544-0.988-1.184-1.296-1.919c-0.308-0.735-0.463-1.523-0.463-2.365V6.093c0-0.841,0.157-1.63,0.471-2.364
			c0.314-0.735,0.749-1.381,1.305-1.936C79.13,1.237,79.792,0.8,80.561,0.48C81.329,0.16,82.168,0,83.077,0
			c0.909,0,1.745,0.16,2.508,0.48c0.763,0.319,1.422,0.752,1.977,1.296c0.555,0.544,0.987,1.184,1.296,1.919
			c0.308,0.735,0.463,1.523,0.463,2.365v0.033c0,0.842-0.157,1.63-0.471,2.365c-0.315,0.735-0.75,1.381-1.305,1.936
			s-1.217,0.993-1.986,1.313C84.791,12.026,83.952,12.187,83.043,12.187z M83.077,9.796c0.516,0,0.993-0.095,1.431-0.286
			c0.437-0.191,0.811-0.454,1.12-0.791c0.308-0.336,0.55-0.726,0.724-1.17c0.174-0.443,0.261-0.917,0.261-1.423V6.093
			c0-0.505-0.087-0.982-0.261-1.431c-0.174-0.448-0.421-0.842-0.741-1.178c-0.32-0.337-0.698-0.603-1.136-0.8
			c-0.437-0.196-0.915-0.295-1.431-0.295c-0.527,0-1.007,0.096-1.439,0.286c-0.432,0.191-0.803,0.454-1.111,0.791
			c-0.308,0.336-0.55,0.726-0.724,1.17c-0.174,0.444-0.261,0.917-0.261,1.423v0.033c0,0.505,0.087,0.982,0.261,1.431
			c0.174,0.449,0.421,0.842,0.741,1.178c0.32,0.337,0.696,0.603,1.128,0.8C82.07,9.698,82.55,9.796,83.077,9.796z"/>
		<path id="XMLID_203_" fill="#231815" d="M92.048,0.202h2.39l5.521,7.255V0.202h2.559v11.782h-2.205l-5.706-7.49v7.49h-2.559V0.202
			z"/>
		<path id="XMLID_205_" fill="#231815" d="M111.438,12.187c-0.92,0-1.759-0.152-2.516-0.455c-0.757-0.303-1.409-0.724-1.952-1.262
			c-0.545-0.538-0.968-1.178-1.271-1.919c-0.303-0.741-0.454-1.549-0.454-2.424V6.093c0-0.841,0.154-1.63,0.463-2.364
			c0.308-0.735,0.738-1.381,1.288-1.936c0.549-0.555,1.201-0.993,1.952-1.313c0.752-0.32,1.576-0.48,2.474-0.48
			c0.527,0,1.007,0.037,1.439,0.109c0.432,0.073,0.833,0.177,1.204,0.312c0.37,0.135,0.718,0.303,1.043,0.505s0.64,0.432,0.943,0.69
			l-1.633,1.97c-0.225-0.191-0.449-0.359-0.673-0.505c-0.225-0.145-0.457-0.269-0.698-0.37c-0.242-0.101-0.502-0.179-0.783-0.236
			c-0.281-0.056-0.589-0.084-0.926-0.084c-0.471,0-0.912,0.099-1.321,0.295c-0.41,0.197-0.769,0.461-1.077,0.793
			c-0.308,0.332-0.55,0.72-0.724,1.164c-0.174,0.444-0.261,0.92-0.261,1.426v0.033c0,0.54,0.087,1.038,0.261,1.493
			c0.174,0.456,0.421,0.852,0.741,1.19c0.32,0.337,0.696,0.598,1.128,0.784c0.432,0.186,0.912,0.278,1.439,0.278
			c0.965,0,1.779-0.237,2.441-0.712V7.44h-2.609V5.201h5.117v5.117c-0.606,0.516-1.327,0.957-2.163,1.321
			C113.472,12.004,112.516,12.187,111.438,12.187z"/>
		<path id="XMLID_207_" fill="#231815" d="M124.094,11.984h-1.346V1.434h-3.954V0.206h9.255v1.228h-3.954V11.984z"/>
		<path id="XMLID_209_" fill="#231815" d="M139.477,1.417h-7.185v4.021h6.428V6.65h-6.428v4.122h7.269v1.212h-8.598V0.206h8.514
			V1.417z"/>
		<path id="XMLID_211_" fill="#231815" d="M148.045,12.187c-3.399,0-5.906-2.675-5.906-6.075c0-3.365,2.49-6.108,5.957-6.108
			c2.137,0,3.415,0.757,4.593,1.868l-0.908,0.976c-0.993-0.942-2.103-1.615-3.702-1.615c-2.608,0-4.56,2.103-4.56,4.846
			s1.969,4.88,4.56,4.88c1.615,0,2.675-0.623,3.803-1.7l0.875,0.858C151.528,11.362,150.182,12.187,148.045,12.187z"/>
		<path id="XMLID_213_" fill="#231815" d="M156.832,6.684v5.3h-1.329V0.206h1.329v5.233h6.798V0.206h1.329v11.779h-1.329v-5.3
			H156.832z"/>
	</g>
	<g id="XMLID_98_">
		<path id="XMLID_99_" fill="#231815" d="M34.991,19.504v-0.419c-0.706,0.017-1.453,0.033-2.241,0.033l-0.229-0.665
			c2.175,0,4.013-0.107,5.523-0.32l0.386,0.656c-0.738,0.115-1.601,0.197-2.585,0.254v0.46h3.078v0.722h-3.078v0.443h2.38v1.092
			h0.87v0.69h-0.87v1.1h-1.682c0.558,0.509,1.412,0.969,2.561,1.363l-0.558,0.722c-1.248-0.607-2.142-1.264-2.701-1.97v2.15h-0.854
			V23.69c-0.517,0.755-1.428,1.42-2.725,1.986l-0.443-0.747c1.166-0.41,1.995-0.87,2.471-1.379h-1.674v-0.689h2.372V22.45h-3.234
			v-0.69h3.234v-0.402h-2.323v-0.69h2.323v-0.443h-3.061v-0.722H34.991z M35.844,21.761h1.592v-0.402h-1.592V21.761z M35.844,22.861
			h1.592V22.45h-1.592V22.861z"/>
		<path id="XMLID_103_" fill="#231815" d="M42.668,21.088c0.098-0.377,0.173-0.755,0.238-1.149l0.878,0.115
			c-0.082,0.361-0.164,0.706-0.246,1.034h4.013V21.9h-4.26c-0.591,1.756-1.395,3.021-2.413,3.809l-0.542-0.698
			c0.936-0.813,1.625-1.846,2.085-3.111h-1.863v-0.813H42.668z M47.429,20.743h-0.846v-1.026H41.51v1.026h-0.845v-1.83h2.946
			c-0.106-0.23-0.222-0.452-0.353-0.648l0.919-0.148c0.115,0.238,0.222,0.501,0.337,0.796h2.914V20.743z M47.429,25.47l-0.755,0.386
			c-0.082-0.197-0.164-0.377-0.246-0.542c-1.33,0.164-2.585,0.296-3.775,0.386l-0.156-0.763c0.542-0.337,1.108-1.198,1.682-2.594
			l0.846,0.246c-0.435,1.001-0.87,1.765-1.313,2.306c1.058-0.115,1.846-0.205,2.364-0.279c-0.205-0.394-0.419-0.755-0.641-1.084
			l0.739-0.336C46.649,23.878,47.067,24.634,47.429,25.47z"/>
		<path id="XMLID_108_" fill="#231815" d="M49.869,22.434c-0.115,0.985-0.263,1.846-0.435,2.593l-0.624-0.222
			c0.181-0.665,0.345-1.51,0.484-2.528L49.869,22.434z M49.869,20.612l-0.558,0.148c-0.098-0.575-0.213-1.133-0.345-1.658
			l0.607-0.197C49.689,19.397,49.787,19.972,49.869,20.612z M50.058,21.039v-2.807h0.813v2.807h0.895v0.78h-0.895v3.989h-0.813
			v-3.989h-1.083v-0.78H50.058z M52.012,24.346L51.38,24.51c-0.091-0.722-0.205-1.42-0.345-2.093l0.517-0.173
			C51.716,22.861,51.872,23.558,52.012,24.346z M51.954,18.872c-0.049,0.681-0.172,1.288-0.361,1.822l-0.55-0.181
			c0.148-0.493,0.246-1.067,0.287-1.724L51.954,18.872z M52.504,25.824l-0.624-0.566c0.369-0.443,0.558-1.018,0.566-1.707v-1.789
			h3.554v3.267c0,0.493-0.279,0.739-0.829,0.739h-0.821l-0.197-0.739c0.279,0.017,0.534,0.033,0.78,0.033
			c0.164,0,0.246-0.115,0.246-0.328v-0.205h-2.06C53.005,25.027,52.799,25.463,52.504,25.824z M53.809,18.666v-0.46h0.829v0.46
			h1.625v0.69h-1.625v0.345h1.387v0.673h-1.387v0.353h1.806v0.706h-4.465v-0.706h1.83v-0.353h-1.436v-0.673h1.436v-0.345h-1.674
			v-0.69H53.809z M53.243,23.501c0,0.131-0.008,0.254-0.024,0.386h1.962v-0.402h-1.937V23.501z M55.18,22.434h-1.937v0.41h1.937
			V22.434z"/>
		<path id="XMLID_121_" fill="#231815" d="M63.53,20.242c-0.681,0.804-1.526,1.494-2.536,2.06h1.297
			c0.148,0,0.263-0.041,0.337-0.123c0.09-0.082,0.147-0.328,0.181-0.747l0.804,0.263c-0.074,0.665-0.205,1.059-0.386,1.174
			c-0.164,0.123-0.427,0.189-0.772,0.189H60.6c-0.304,0-0.525-0.082-0.673-0.23c-0.656,0.279-1.354,0.517-2.109,0.722l-0.337-0.722
			c0.805-0.213,1.543-0.459,2.208-0.755v-1.56h0.829v1.157c0.961-0.525,1.756-1.165,2.389-1.904L63.53,20.242z M64.786,20.628
			h-0.837v-1.042H58.63v1.042h-0.837v-1.814h3.029c-0.074-0.181-0.156-0.353-0.238-0.509l0.911-0.148
			c0.074,0.197,0.147,0.411,0.222,0.657h3.07V20.628z M59.64,20.341c-0.263,0.764-0.624,1.42-1.1,1.978l-0.698-0.443
			c0.501-0.525,0.854-1.092,1.059-1.699L59.64,20.341z M61.741,23.271v1.47h1.723v-1.313h0.845v2.396h-0.845v-0.295h-4.235v0.287
			h-0.837V23.55h0.837v1.191h1.658v-1.47H61.741z M61.831,20.53l-0.632,0.435c-0.181-0.287-0.427-0.599-0.738-0.944l0.624-0.386
			C61.404,19.972,61.651,20.267,61.831,20.53z M65.073,22.212l-0.682,0.476c-0.295-0.509-0.697-1.058-1.198-1.666l0.615-0.443
			C64.351,21.203,64.778,21.744,65.073,22.212z"/>
		<path id="XMLID_128_" fill="#231815" d="M67.547,20.333v-0.944c-0.353,0.049-0.714,0.091-1.083,0.123l-0.173-0.804
			c1.059-0.082,2.003-0.238,2.84-0.484l0.304,0.804c-0.328,0.082-0.665,0.164-1.026,0.23v1.075h1.018v0.829h-1.018v0.279
			c0.427,0.328,0.862,0.69,1.305,1.092l-0.484,0.722c-0.321-0.402-0.591-0.731-0.821-0.977v3.505h-0.862v-3.431
			c-0.296,0.69-0.681,1.33-1.141,1.904l-0.377-0.961c0.64-0.624,1.108-1.338,1.412-2.134h-1.149v-0.829H67.547z M73.743,23.402
			l-0.755,0.123v2.265h-0.862v-2.126l-2.438,0.386l-0.132-0.837l2.569-0.411v-4.563h0.862v4.424l0.615-0.098L73.743,23.402z
			 M71.708,21.761l-0.616,0.616c-0.328-0.378-0.804-0.796-1.412-1.24l0.607-0.591C70.846,20.956,71.314,21.359,71.708,21.761z
			 M71.921,19.824l-0.591,0.599c-0.328-0.369-0.796-0.763-1.404-1.174l0.607-0.591C71.076,19.052,71.544,19.438,71.921,19.824z"/>
		<path id="XMLID_150_" fill="#231815" d="M75.043,25.717l-0.181-0.796c0.205,0.033,0.403,0.049,0.6,0.049
			c0.181,0,0.271-0.107,0.271-0.32V23c-0.279,0.106-0.566,0.205-0.845,0.304l-0.222-0.845c0.361-0.082,0.714-0.189,1.067-0.304
			v-1.699H74.83v-0.829h0.903v-1.404h0.837v1.404h0.772v0.829H76.57v1.362c0.263-0.123,0.525-0.254,0.788-0.402v0.837
			c-0.263,0.139-0.525,0.271-0.788,0.394v2.216c0,0.566-0.279,0.854-0.821,0.854H75.043z M79.443,19.315v-1.075h0.837v1.075h1.896
			v0.813H80.28v1.108h1.584v0.755c-0.246,0.845-0.673,1.567-1.264,2.175c0.492,0.353,1.1,0.665,1.805,0.944l-0.443,0.714
			c-0.78-0.345-1.436-0.722-1.962-1.133c-0.615,0.468-1.362,0.854-2.241,1.157l-0.402-0.723c0.796-0.246,1.477-0.566,2.035-0.968
			c-0.624-0.632-1.042-1.337-1.256-2.117H77.71v-0.804h1.732v-1.108h-1.896v-0.813H79.443z M79.976,23.657
			c0.46-0.46,0.813-1.001,1.051-1.617h-2.084C79.131,22.639,79.475,23.181,79.976,23.657z"/>
		<path id="XMLID_154_" fill="#231815" d="M89.542,19.709l-0.066,0.722h1.223v0.673H89.41l-0.066,0.714h-4.678l0.107-0.714h-1.157
			v-0.673h1.256l0.107-0.722H89.542z M89.673,22.089v2.709h-0.788c0.558,0.098,1.092,0.229,1.609,0.377l-0.271,0.681
			c-0.796-0.295-1.625-0.525-2.479-0.69l0.197-0.369h-1.642l0.263,0.353c-0.574,0.287-1.403,0.525-2.479,0.714L83.698,25.2
			c0.813-0.115,1.477-0.246,1.986-0.402h-1.043v-2.709H89.673z M90.592,20.193h-0.805v-0.78h-5.269v0.78h-0.804v-1.453h3.004
			c-0.065-0.156-0.131-0.304-0.205-0.435l0.862-0.148c0.074,0.173,0.148,0.369,0.222,0.583h2.996V20.193z M88.868,22.852v-0.279
			h-3.423v0.279H88.868z M88.868,23.558v-0.271h-3.423v0.271H88.868z M88.868,24.001h-3.423v0.279h3.423V24.001z M86.677,21.334
			l0.049-0.32h-1.174l-0.057,0.32H86.677z M86.8,20.538l0.057-0.328H85.7l-0.057,0.328H86.8z M87.424,21.334h1.191l0.041-0.32
			h-1.182L87.424,21.334z M87.547,20.538h1.166l0.033-0.328h-1.141L87.547,20.538z"/>
		<path id="XMLID_165_" fill="#231815" d="M95.454,18.215v1.165h0.599v-1.165h0.837v1.165h0.517c0.213-0.337,0.402-0.69,0.566-1.067
			l0.796,0.304c-0.164,0.295-0.328,0.55-0.493,0.763h1.108v0.747h-2.208l0.583,0.205c-0.099,0.172-0.214,0.336-0.328,0.484h1.576
			v0.738h-2.799v0.394h2.413v0.706h-2.413v0.394h3.169v0.755h-3.169v2.027h-0.87v-2.027h-3.168v-0.755h3.168v-0.394h-2.413V21.95
			h2.413v-0.394H92.54v-0.738h1.584c-0.099-0.181-0.205-0.345-0.328-0.501l0.492-0.189h-2.125v-0.747h1.124
			c-0.132-0.271-0.287-0.525-0.459-0.755l0.796-0.304c0.181,0.296,0.345,0.648,0.493,1.059h0.501v-1.165H95.454z M94.617,24.396
			c-0.501,0.501-1.116,0.944-1.855,1.321l-0.534-0.69c0.723-0.32,1.33-0.697,1.822-1.133L94.617,24.396z M94.666,20.128
			c0.131,0.213,0.254,0.443,0.361,0.69h1.444c0.164-0.222,0.304-0.452,0.427-0.69H94.666z M99.303,25.101l-0.615,0.615
			c-0.402-0.394-0.977-0.821-1.715-1.272l0.558-0.533C98.228,24.314,98.819,24.707,99.303,25.101z"/>
		<path id="XMLID_170_" fill="#231815" d="M102.351,25.824l-0.615-0.566c0.501-0.509,0.755-1.149,0.771-1.937v-1.543
			c-0.41,0.476-0.862,0.911-1.354,1.313l-0.558-0.731c0.927-0.73,1.658-1.567,2.2-2.503h-1.978v-0.829h2.389
			c0.123-0.287,0.229-0.574,0.32-0.87l0.878,0.107c-0.082,0.263-0.164,0.517-0.254,0.763h3.915v0.829h-4.284
			c-0.131,0.246-0.263,0.493-0.402,0.723h3.718v4.416c0,0.509-0.287,0.763-0.862,0.763h-0.829l-0.205-0.772
			c0.279,0.025,0.542,0.041,0.788,0.041c0.197,0,0.295-0.106,0.295-0.32v-0.615h-3.061C103.09,24.773,102.795,25.347,102.351,25.824
			z M103.304,23.263c0,0.033-0.008,0.057-0.008,0.09h2.988v-0.64h-2.979V23.263z M106.283,21.318h-2.979v0.665h2.979V21.318z"/>
		<path id="XMLID_174_" fill="#231815" d="M112.212,18.47v0.673c-0.246,0.69-0.525,1.42-0.845,2.191
			c0.508,0.763,0.78,1.42,0.821,1.978c0,0.394-0.082,0.682-0.246,0.845c-0.246,0.214-0.681,0.328-1.288,0.337l-0.279-0.87
			c0.181,0.033,0.336,0.049,0.46,0.049c0.197-0.016,0.328-0.041,0.394-0.09c0.066-0.049,0.099-0.139,0.099-0.271
			c0-0.55-0.279-1.165-0.829-1.846c0.361-0.813,0.648-1.543,0.853-2.192h-1.026v6.541h-0.837V18.47H112.212z M113.287,24.65
			c0.419-0.131,0.829-0.287,1.24-0.484l0.205,0.796c-0.607,0.254-1.371,0.501-2.29,0.73l-0.205-0.755
			c0.132-0.049,0.205-0.123,0.205-0.238v-6.238h3.759v3.727h-2.914V24.65z M115.364,19.266h-2.077v0.689h2.077V19.266z
			 M113.287,21.408h2.077v-0.682h-2.077V21.408z M116.677,22.951c-0.328,0.394-0.706,0.698-1.116,0.927
			c0.369,0.468,0.804,0.837,1.313,1.116l-0.501,0.738c-1.018-0.607-1.765-1.567-2.224-2.864l0.648-0.361
			c0.106,0.279,0.229,0.534,0.361,0.763c0.336-0.205,0.665-0.492,0.976-0.87L116.677,22.951z"/>
		<path id="XMLID_180_" fill="#231815" d="M120.875,18.773c-0.575,1.65-1.33,2.914-2.274,3.8l-0.681-0.591
			c0.977-0.886,1.699-2.069,2.159-3.529L120.875,18.773z M124.724,25.454l-0.804,0.361c-0.107-0.263-0.214-0.517-0.32-0.763
			c-1.42,0.214-3.004,0.369-4.744,0.484l-0.148-0.837c0.55-0.123,1.362-1.363,2.43-3.718l0.845,0.295
			c-0.64,1.322-1.297,2.454-1.97,3.39c1.108-0.074,2.183-0.188,3.234-0.353c-0.254-0.509-0.517-0.985-0.788-1.42l0.772-0.263
			C123.805,23.509,124.305,24.453,124.724,25.454z M123.476,18.428c0.279,1.444,0.927,2.61,1.953,3.505l-0.673,0.607
			c-0.952-0.878-1.6-1.978-1.937-3.308h-1.272v-0.804H123.476z"/>
		<path id="XMLID_184_" fill="#231815" d="M131.835,20.086v0.78h-5.245v-0.78H131.835z M131.301,25.75l-0.222-0.821l1.166,0.025
			c0.181,0,0.271-0.148,0.271-0.427V19.29h-5.466V18.47h6.32v6.295c0,0.657-0.312,0.985-0.936,0.985H131.301z M131.088,21.654v2.725
			h-3.809v-2.725H131.088z M130.267,22.409h-2.175v1.215h2.175V22.409z"/>
	</g>
	<g id="XMLID_657_">
		<path id="XMLID_664_" fill="#A52937" d="M25.619,0.299c-0.01-0.013-0.026-0.02-0.042-0.02L4.175,0.281c-0.012,0-0.024,0-0.036,0
			l-0.032,0c-0.03,0-0.054,0.025-0.054,0.055c0,0.03,0.025,0.054,0.055,0.054h0.068c2.86,0.016,5.396,1.943,6.173,4.697
			c0.047,0.166,0.083,0.312,0.111,0.447c0.005,0.025,0.028,0.044,0.054,0.044h8.692c0.575,0,1.149-0.076,1.706-0.225
			c0.409-0.11,0.808-0.26,1.186-0.446c1.491-0.734,2.64-1.991,3.235-3.542l0.073-0.201c0.095-0.275,0.171-0.55,0.227-0.819
			C25.634,0.328,25.629,0.312,25.619,0.299z"/>
		<path id="XMLID_663_" fill="#A52937" d="M21.886,10.514H9.472c-0.018,0-0.035,0.009-0.045,0.023
			c-0.054,0.077-0.109,0.153-0.166,0.228c-0.395,0.514-0.863,0.966-1.393,1.342c-0.015,0.011-0.024,0.029-0.023,0.048
			c0.001,0.019,0.012,0.036,0.029,0.045c0.553,0.299,1.068,0.673,1.532,1.112c0.68,0.643,1.221,1.399,1.608,2.246
			c0.009,0.019,0.028,0.032,0.05,0.032h4.502c0.474,0,0.953-0.053,1.422-0.156c2.088-0.461,3.823-1.919,4.643-3.9l0.198-0.544
			l0-0.002c0.038-0.122,0.075-0.255,0.111-0.406c0.004-0.016,0-0.034-0.01-0.047C21.919,10.522,21.903,10.514,21.886,10.514z"/>
		<path id="XMLID_662_" fill="#A52937" d="M18.194,20.525h-6.759c-0.024,0-0.046,0.016-0.053,0.04
			c-0.501,1.736-1.627,3.213-3.173,4.16c-1.123,0.688-2.421,1.054-3.755,1.06h0h0c-0.03,0-0.054,0.025-0.054,0.055
			c0,0.03,0.025,0.055,0.055,0.055h0l7.353-0.001c2.722,0,5.192-1.713,6.146-4.262l0.034-0.095c0.109-0.306,0.196-0.624,0.259-0.947
			c0.003-0.016-0.001-0.033-0.011-0.045C18.226,20.532,18.21,20.525,18.194,20.525z"/>
		<path id="XMLID_661_" fill="#A52937" d="M0.055,10.611h3.255c1.412,0,2.56-1.149,2.56-2.56s-1.149-2.56-2.56-2.56L3.281,5.491
			L0.055,5.49c-0.015,0-0.028,0.006-0.039,0.016S0,5.53,0,5.545v5.011C0,10.586,0.025,10.611,0.055,10.611z"/>
		<path id="XMLID_658_" fill="#A52937" d="M6.443,18.062c0-1.412-1.149-2.56-2.56-2.56l-0.028,0.001l-3.799-0.001
			c-0.015,0-0.028,0.006-0.039,0.016C0.006,15.528,0,15.541,0,15.556v5.011c0,0.03,0.025,0.055,0.055,0.055h3.827
			C5.294,20.622,6.443,19.473,6.443,18.062z"/>
	</g>
</g>
</svg>
