<?xml version="1.0" encoding="utf-8"?>
<!-- Generator: Adobe Illustrator 17.0.0, SVG Export Plug-In . SVG Version: 6.00 Build 0)  -->
<!DOCTYPE svg PUBLIC "-//W3C//DTD SVG 1.1//EN" "http://www.w3.org/Graphics/SVG/1.1/DTD/svg11.dtd">
<svg version="1.1" id="圖層_1" xmlns="http://www.w3.org/2000/svg" xmlns:xlink="http://www.w3.org/1999/xlink" x="0px" y="0px"
	 width="902.269px" height="494.186px" viewBox="0 0 902.269 494.186" enable-background="new 0 0 902.269 494.186"
	 xml:space="preserve">
<path id="XMLID_18987_" fill="#F0EFEF" d="M81.872,107.402c1.789,0,2.011,0.649,3.546,0c1.535-0.642,6.065-3.636,7.6-4.047
	c1.532-0.408,2.518,0.135,0.257,1.394c-2.268,1.259-6.8,3.983-5.991,3.778c0.803-0.206,3.103-1.189,6.357-2.721
	c3.251-1.532,2.955-0.851,3.794-2.483c0.841-1.632,1.281-2.486,1.281-2.486s5.149,5.274,5.625,5.48
	c0.475,0.202,0.661-0.035,0.915-0.681c0.254-0.649,0.803-1.568,1.536-1.259c0.729,0.308,0.106,1.564,0.543,1.734
	c0.44,0.17,1.169-0.032,2.522-0.475c1.353-0.443,0.658-1.426,0.658-1.426s-0.144-0.039,1.426-0.174
	c1.571-0.135,6.502,1.667,7.963,2.246c1.462,0.578,5.885,1.056,7.128,1.461c1.237,0.411,1.712-0.713,3.434,0.206
	c1.715,0.919,2.997,2.142,1.715,2.788c-1.278,0.649-4.494,1.124-2.849,1.533c1.639,0.408,4.131,0.922,6.505,0.851
	c2.374-0.071,6.646-0.951,7.96-0.951c1.317,0,2.12,0.816,3.363,2.891c1.243,2.075,2.226,2.891,2.701,3.061
	c0.476,0.17-0.475-0.986-0.221-2.008c0.257-1.021-0.254-3.029-0.546-3.707c-0.289-0.681,0-1.022-0.585-2.011
	c-0.581-0.983-1.532-0.816,0.222-1.664c1.754-0.851,2.958-2.107,5.078-1.837c2.117,0.27,2.702,2.962,4.529,3.161
	c1.828,0.206,2.158,0.919,5.297,1.16c3.142,0.238,1.828,0.035,5.336,0.273c3.504,0.238,2.229-0.379,2.958-2.178
	c0.732-1.805,1.535-2.146,2.374-2.075c0.842,0.067,3.797,0.475,3.797,0.851c0,0.373-1.24,2.309-0.62,3.264
	c0.62,0.954,3.148,2.518,3.148,2.518s-0.549-2.178-0.549-2.416c0-0.238-0.183-1.937,0.183-2.245c0.367-0.308,2.448,0.17,3.762-2.383
	c1.31-2.55-0.88-2.416-0.88-2.416s-0.803,0.038-0.402-1.018c0.402-1.057,2.74-1.699,2.74-1.699s0.148,0.476-0.148-0.379
	c-0.289-0.848-1.821-0.678-3.469-0.781c-1.645-0.1-2.772-0.337-3.068-1.734c-0.292-1.394-0.402-4.32-0.402-6.328
	c0-2.008,1.609-1.294,1.899-2.415c0.292-1.121-0.074-6.598-0.472-7.722c-0.405-1.121,0.581-3.54,0.806-5.136
	c0.212-1.6,1.86-0.887,1.86-0.887c-0.292-0.546,0.472-2.075,2.666-2.721c2.194-0.646,6.36,0.032,6.36,0.032
	s-0.369,0.035-1.391,1.362c-1.025,1.327-0.363,3.678-1.902,5.342c-1.529,1.667-5.441,1.124-5.441,1.124s1.205,2.756,0.694,3.636
	c-0.514,0.886-0.839,2.692-0.839,2.692s3.434,0.951,3.617,3.128c0.183,2.178,1.895,2.55,2.3,4.558
	c0.398,2.007-1.68,3.675-1.243,3.98c0.44,0.308,0.584,0.443,1.831,0.511c1.237,0.067,2.92,0.305,2.92,0.305
	s-0.694,1.021-0.074,2.111c0.623,1.089,0.148,1.77,0.219,2.926c0.074,1.156,0.768,2.142,1.057,1.94
	c0.295-0.206,1.648-3.167,1.94-4.49c0.289-1.33,0.511-2.043,1.092-2.043c0.584,0,2.56,1.805,2.778,2.451
	c0.222,0.646,0.366,1.532-0.729,3.299c-1.095,1.77-0.986,2.586-0.035,3.267c0.944,0.678,0.986,0.478,2.701,1.294
	c1.715,0.816,1.391,0.745,2.448,0.44c1.06-0.305-0.44-2.994-0.331-3.061c0.113-0.071,2.525-0.341,1.979-1.703
	c-0.549-1.362-1.102-2.04,0.032-2.721c1.137-0.681,1.937-1.224,1.937-1.224c-0.475-0.851-0.62-0.919-1.423-3.2
	c-0.803-2.281,0.69-1.664,3.839-1.429c3.138,0.241,3.283,1.327,4.966,2.178c1.68,0.851,0.62,1.156,1.166,2.519
	c0.549,1.359-1.387,1.564-1.387,1.564s-1.278,0.237-0.986,1.291c0.296,1.057,0.877,2.313,1.793,3.948
	c0.912,1.635-0.254,2.756-1.683,4.083c-1.423,1.327-3.106,1.703-4.783,1.735c-1.683,0.032-2.412,0.713-2.519,0.238
	c-0.116-0.475-0.919-0.919-1.828-0.713c-0.919,0.203-3,1.022-2.268,1.291c0.729,0.273,2.666,0.206,1.863,1.703
	c-0.806,1.497-1.5,1.497-3.106,1.327c-1.606-0.17-3.103-0.17-4.131-0.241c-1.018-0.064-6.064-0.373-6.064-0.373
	s3.405,2.075,6.106,2.926c2.698,0.851,5.554,0.341,5.554,0.341s-1.099,2.04-2.416,4.217c-1.314,2.178-2.557,1.227-3.649,1.362
	c-1.102,0.135-1.757,1.021-3.8,1.291c-2.05,0.273-6.322-0.578-5.666-0.27c0.658,0.309,0.951,0.848,2.12,1.021
	c1.173,0.167,1.902,0.373,2.923,1.224c1.022,0.851-0.658,1.057-2.007,1.291c-1.355,0.241-1.719,0.479-2.339,1.327
	c-0.623,0.854-2.926,4.15-3.655,5.172c-0.733,1.021-1.388,2.721-1.68,4.728c-0.296,2.011-2.008,4.423-1.24,4.934
	c0.764,0.511,3.649,0.578,4.857,1.327c1.204,0.748,2.56,4.423,3.469,5.817c0.918,1.394,1.645,2.451,2.666,1.362
	c1.025-1.089,3.036-0.816,4.934-0.135c1.902,0.681,5.772,3.366,6.98,4.555c1.204,1.192,3.321,0.989,5.695,1.33
	c2.374,0.34,2.644,1.233,2.644,1.233s2.473,0.128,1.452,1.182c-1.021,1.054-1.317,0.032-0.295,1.802
	c1.025,1.77,0.989,4.15,0.697,5.342c-0.295,1.192,3.273,0.591,4.773,1.475c1.497,0.883,1.58,4.481,2.351,4.038
	c0.768-0.444,2.043-1.227,2.191-2.178c0.148-0.951-0.035-2.21-0.183-3.845c-0.148-1.635-0.549-4.628-1.353-5.817
	c-0.803-1.192,1.449-1.667,1.082-2.178c-0.359-0.508-0.279-1.529,1.256-1.94c1.536-0.405,1.645-0.032,2.483-0.681
	c0.842-0.646,0.986-3.672,1.131-4.761c0.151-1.089-0.253-3.437-0.617-4.32c-0.363-0.883-1.866-3.71-2.409-4.32
	c-0.556-0.614-1.243-0.784,0.257-2.689c1.494-1.905,0.617-1.497,0.398-2.075c-0.219-0.581-0.546-2.008-0.839-3.299
	c-0.299-1.294,0.62-2.724,0.071-4.561s-1.131-1.426-1.021-1.837c0.109-0.408,3.578-0.305,6.138-0.032
	c2.557,0.27,3.578-0.273,4.307-0.273c0.732,0,2.05,0.717,3.472,1.635c1.423,0.916,1.972,0.681,2.705,1.802
	c0.729,1.121,1.131,1.734,2.624,1.667c1.5-0.071,3.113,0.646,3.113,0.646s-1.063,0.614-0.877,2.621
	c0.18,2.004-0.222,3.466-0.186,4.285c0.035,0.816,0.443,0.851,1.13,0.954c0.694,0.103,2.564,1.767,4.494,2.448
	c1.937,0.681,2.448,0.475,3.068-1.089c0.627-1.564,0.771-1.43,1.539-1.529c0.764-0.103,1.022,0.17,1.349-0.17
	c0.331-0.34-0.585-1.021-0.366-2.107c0.219-1.092,1.278-2.518,2.159-3.338c0.874-0.816,1.497,0.819,2.265,2.316
	c0.768,1.497,3.434,6.36,4.201,7.957c0.764,1.603,1.754,1.703,0.838,3.203c-0.912,1.494-1.352,2.139,0.074,2.82
	c1.423,0.681,2.704,1.873,2.598,2.994c-0.116,1.124-0.408,1.157,0.071,1.465c0.475,0.305,2.191-0.613,3.434-0.067
	c1.24,0.543,2.737,1.057,3.617,1.937c0.874,0.886,0.806,1.192-0.44,1.632c-1.243,0.443-2.486,0.886-3.106,1.259
	c-0.623,0.376-1.606,1.092-1.571,1.67c0.039,0.575-0.257,1.529,0.732,0.781c0.986-0.749,2.596-1.497,3.762-1.837
	c1.169-0.337,0.292-0.035,1.352-0.17c1.064-0.135,2.081,0.511,3.546,0.919c1.455,0.411,1.057,1.327,0.691,2.178
	c-0.363,0.848-0.691,1.664-0.109,2.621c0.588,0.951-0.254,1.802-1.536,2.958c-1.278,1.157-2.226,1.327-4.308,1.6
	c-2.081,0.273-3.074,1.529-4.532,2.888c-1.458,1.362-2.191,1.021-4.311,1.124c-2.12,0.103-1.279-1.054-1.934-0.816
	c-0.662,0.241-1.497,0.954-2.849,1.092c-1.356,0.135-5.923,0.202-7.677,0.713c-1.751,0.507-1.202,1.699-1.642,2.685
	c-0.44,0.986-1.134,0.578-2.447,1.021c-1.317,0.443-2.888,2.383-4.42,5.037c-1.539,2.653-3.617,4.285-3.617,4.285
	c0.437-0.103,2.596-1.429,3.653-2.724c1.06-1.291,5.48-4.353,6.832-5.303c1.349-0.954,4.272-2.348,4.966-2.146
	c0.697,0.206,2.416,1.533,2.416,2.213c0,0.681-0.514,1.224-1.754,2.38c-1.24,1.157-2.888,0-2.778,0.475
	c0.109,0.479,0.986,1.564,1.937,1.802c0.951,0.238,0.909,1.397,0.909,1.976c0,0.578-0.546,1.326,1.645,3.164
	c2.194,1.837,3.729,1.972,5.338,1.87c1.606-0.1,0.765,0.546,1.423,0.478c0.655-0.067,0.803-1.327,1.021-2.348
	c0.222-1.021,0.588-1.972,1.169-2.416c0.588-0.443,1.021-1.259,1.208,0.308c0.18,1.561-0.659,3.707-1.503,4.182
	c-0.835,0.475-0.652,1.089-0.652,1.564c0,0.479-0.951,0.511-3.219,1.77c-2.261,1.259-2.994,1.564-3.395,1.394
	c-0.401-0.17-1.243,0.206-2.335,1.192c-1.099,0.986-2.265,2.316-3.067,2.277c-0.81-0.032-1.5-0.372-0.405-1.497
	c1.092-1.124,1.465-2.685,2.557-3.232c1.095-0.546,1.606-0.475,2.522-0.475c0.912,0,0.475-0.546,1.205-1.086
	c0.729-0.546-0.549-0.379-1.792-0.581c-1.24-0.202-0.289-1.295-0.289-1.295l-1.282,0.681c0,0-1.934,1.021-2.447,1.092
	c-0.508,0.064-0.398,0.405-0.546,0.61c-0.148,0.206-1.972,0.34-1.972,0.34s-0.951,1.937-2.377,2.21
	c-1.423,0.276-0.434,0.17-1.461,0.611c-1.022,0.443-0.835-0.508-1.057-0.238c-0.218,0.276-0.402,0.514-1.532,1.362
	c-1.134,0.854-1.795,1.124-2.595,4.221c-0.806,3.097,0.144,4.217,0.109,4.696c-0.036,0.475-1.426-0.308-1.825,0.064
	c-0.408,0.376-1.32,1.533-2.525,1.873c-1.205,0.34-3.578,0.954-4.128,1.532c-0.549,0.578-0.584,1.394-0.842,2.582
	c-0.254,1.195-1.68,3.983-1.68,3.983s0.328-1.124-0.658-1.94c-0.986-0.816-0.835-1.564-0.835-1.564s-0.225,1.121,0.145,2.277
	c0.369,1.156,1.092,2.316,0.768,3.572c-0.334,1.259-0.954,2.827-1.715,3.267c-0.771,0.444,0.18-0.851,0.18-1.869
	c0-1.022-0.511-1.089-0.842-1.597c-0.331-0.514-0.331-1.805,0.254-3.543c0.588-1.735-0.546-0.678-1.205,0.479
	c-0.655,1.156-1.128,3.299-0.109,4.696c1.025,1.394-0.655,1.256,0.039,3.264c0.69,2.008-0.839,2.994-0.553,3.302
	c0.296,0.305,1.099-0.135,1.465,0.848c0.363,0.989-0.729,0.546-1.095,0.819c-0.369,0.273-0.186,0.645,0.036,1.192
	c0.218,0.539,0.658,0.199,0.475,0.372c-0.183,0.167-0.697,0.848-1.645,1.156c-0.948,0.305-1.025-0.173-1.61,0.511
	c-0.581,0.678-1.018,1.292-1.641,2.072c-0.62,0.784-1.057,0.514-1.715,1.056c-0.658,0.543-0.912,0.986-1.722,1.667
	c-0.8,0.681-2.627,1.734-3.614,3.061c-0.986,1.327-0.733,1.667-1.208,3.813c-0.472,2.139,1.208,5.885,2.268,9.425
	c1.063,3.537,1.497,2.55,1.349,3.672c-0.145,1.121-0.62,2.483-1.391,3.267c-0.761,0.784-1.198-0.546-2.258-1.33
	c-1.06-0.781-0.222-1.323-1.243-2.955c-1.025-1.635-0.951-2.213-1.06-3.405c-0.113-1.189-0.292-2.891-0.839-4.182
	c-0.549-1.298-1.722-2.93-3.472-2.281c-1.754,0.649-1.314,0.341-2.265,0.064c-0.954-0.27-3.469-1.288-4.751-0.61
	c-1.282,0.681-5.329-0.206-6.174,0c-0.842,0.206-1.465,0.276-1.465,0.855c0,0.578-0.36,0.674,1.137,1.085
	c1.497,0.408,1.279,0.851,1.172,1.497c-0.113,0.646-1.211-0.34-1.796-0.578c-0.588-0.238-1.131,0.475-2.152,0.475
	c-1.025,0-1.208-0.986-2.123-1.121c-0.912-0.138-1.278,0-2.155-0.34c-0.874-0.344-2.043-0.919-3.068-0.851
	c-1.021,0.071-4.969,2.689-6.832,4.083c-1.86,1.397-3.289,2.756-3.723,3.877c-0.44,1.124-0.478,1.227,1.022,2.894
	c1.497,1.667,0.803,1.397,0.511,2.348c-0.292,0.951-1.169,2.107-2.226,4.558c-1.063,2.448-0.44,3.64,0.835,5.988
	c1.282,2.348,2.416,4.047,3.437,5.033c1.025,0.986,1.751,2.043,2.631,2.416c0.877,0.372,1.057,0.511,1.462,0.919
	c0.402,0.411,0.292,0.578,1.683,0.206c1.381-0.373,2.406-0.919,3.395-0.919c0.983,0,1.902,0.032,2.448,0.546
	c0.546,0.508,0.62,0.206,0.62-0.071c0-0.27,0.437-1.291,0.585-1.564c0.144-0.273,1.461-2.143,1.68-3.164
	c0.218-1.021,0.218-3.064,1.5-3.199c1.275-0.135,4.015-0.781,6.501-0.611c2.483,0.167,1.388,1.394,0.733,2.685
	c-0.662,1.295-0.919,1.43-0.919,2.416c0,0.989,0.295,0.989-0.504,1.568c-0.803,0.578-0.296-0.34-0.623,0.237
	c-0.331,0.578-1.497,1.394-1.352,1.26c0.144-0.135,0.511,0.983,0.511,1.529c0,0.546-0.109,0.816-0.109,2.146
	c0,1.324-2.596,2.686-2.596,2.686s0.951,0.546,2.338,0.546c1.391,0,3.068,0,4.529,0.681c1.461,0.678,4.237-0.546,6.286,0.475
	c2.046,1.022,1.317,1.632,1.458,2.586c0.148,0.951,0.366,4.217,0.225,4.966c-0.151,0.749-1.101,2.856-1.612,4.356
	c-0.511,1.494,1.461,2.586,3.292,3.81c1.825,1.224,3.431,1.77,4.385,2.04c0.941,0.273,2.698-1.43,5.917-1.224
	c3.212,0.206,4.308,2.926,4.308,2.926s0.366-1.702,1.828-4.015c1.465-2.313,1.532-2.994,3.504-3.742
	c1.978-0.748,2.634-0.883,5.849-1.905c3.215-1.021,2.627-0.27,4.304-0.135c1.686,0.135,5.557,0.476,9.431,1.632
	c3.87,1.156,9.794,1.497,12.055,2.448c2.265,0.954,3.289,3.61,5.628,5.785c2.338,2.175,5.258,4.15,6.501,5.171
	c1.243,1.022,8.185,1.975,9.72,2.586c1.532,0.61,3.652,3.128,3.797,4.625c0.144,1.497,1.68,2.245,3.797,3.129
	c2.12,0.886,2.778,1.908,4.169,4.629c1.391,2.721,0.948,3.469,2.846,4.15c1.905,0.684,15.055,4.218,18.338,5.512
	c3.289,1.295,7.455,4.764,8.551,5.172c1.099,0.408,3.071-0.344,3.948,0.135c0.877,0.478-0.514,3.061,0.585,4.898
	c1.095,1.837,1.169,1.975,0.511,3.334c-0.655,1.362-3.289,4.629-4.308,6.261c-1.028,1.635-3.219,2.653-4.458,3.338
	c-1.243,0.675-2.342,0-1.243,1.359c1.096,1.359,0.074,2.515-0.877,3.742c-0.95,1.224,0.074,1.085-0.221,5.036
	c-0.292,3.944,0,8.23-0.44,9.932c-0.437,1.703-2.991-1.497-5.917,2.178c-2.92,3.674-3.723,6.463-5.477,6.87
	c-1.757,0.408-5.846,2.451-7.234,3.742c-1.391,1.291-1.68,1.77-2.56,3.675c-0.874,1.901-1.751,5.782-2.702,8.165
	c-0.951,2.38-2.483,3.742-5.991,6.938c-3.511,3.2-5.043,6.466-7.311,8.984c-2.261,2.515-1.68,1.969-2.152,2.448
	c-1.211,1.214-6.196-1.959-4.908-0.202c0.951,1.291-0.536,0,0.267,1.221c0.803,1.227,1.391,1.702-0.363,3.88
	c-1.751,2.178-3.778,1.748-5.165,2.088c-1.387,0.34-3.459-1.43-3.604-0.543c-0.144,0.883-0.948,3.083-2.046,3.626
	c-1.092,0.546-4.015,1.362-3.941,1.703c1.381,6.447,4.217,7.118,1.214,6.822c-8.239-0.803-2.361-2.759-8.088,9.232
	c-0.874,1.841-1.75,0.887-1.606,3.064c0.148,2.178,0,3.81,1.172,5.172c1.169,1.362,0.363,1.291-1.609,3.128
	c-1.972,1.837-2.12,1.568-3.944,4.356c-1.828,2.788-3.582,2.653-2.927,4.764c0.659,2.111,0.806,5.239,1.902,8.368
	c1.092,3.129,3.36,2.583,6.942,4.764c3.578,2.175,4.018,1.018,5.772,1.564c1.754,0.546-1.243,0.681-4.388,1.223
	c-3.138,0.546-5.185,1.157-7.378,0.684c-2.191-0.478-7.375-3.472-9.132-4.767c-1.754-1.291-4.6-3.604-5.625-5.849
	c-1.021-2.245-1.754-4.491-3.067-7.552c-1.314-3.064-0.369-4.969,0.218-11.705c0.584-6.736,1.025-11.975,1.972-15.579
	c0.948-3.611,3.874-19.665,4.674-23.818c0.806-4.15,4.532-21.024,4.825-23.677c0.289-2.653,0.514-4.696,1.095-7.35
	c0.585-2.653,0.222-8.03,0.222-8.3s-0.222-0.475-1.028-2.994c-0.8-2.519-2.117-3.54-3.941-4.626
	c-1.824-1.092-3.729-2.451-5.187-3.472c-1.465-1.018-3.219-2.451-4.677-4.285c-1.465-1.837-2.852-5.579-3.581-7.147
	c-0.729-1.561-3.434-6.868-5.917-10.542c-2.483-3.675-2.631-3.745-3.874-7.626c-1.24-3.877,1.095-3.945,1.535-6.122
	c0.434-2.175,1.898-4.356,3.508-7.414c1.606-3.064,3.726-3.948,4.969-6.669c1.24-2.724,0.292-2.724-0.148-5.377
	c-0.44-2.653,0.148-2.242-0.662-3.675c-0.803-1.426-1.236-3.193-1.969-3.672c-0.729-0.478-1.825-0.819-2.483-0.067
	c-0.658,0.745-1.828,2.923-2.557,3.061c-0.729,0.135-1.025-0.684-1.462-1.159c-0.44-0.475-2.557-0.475-2.997-0.951
	c-0.44-0.475-1.532-0.546-2.261-0.883c-0.736-0.34-3.585-1.841-4.388-2.518c-0.803-0.681-1.825-2.316-1.825-4.083
	c0-1.767-1.532-2.451-4.966-4.898c-3.437-2.451-4.899-2.792-9.065-3.813c-4.166-1.018-5.843-3.944-7.234-4.761
	c-1.388-0.816-1.24-1.702-4.311-1.362c-3.068,0.34-6.794-1.362-9.136-2.313c-2.332-0.954-6.501-1.631-8.258-2.788
	c-1.747-1.159-4.815-1.568-6.132-4.356c-1.317-2.792-1.099-1.703-0.585-4.15c0.511-2.451-2.997-4.491-5.117-6.803
	c-2.117-2.316-3.726-2.653-4.821-5.512c-1.099-2.859-2.702-2.724-4.821-4.764c-2.12-2.043-2.194-4.629-3.071-6.942
	c-0.874-2.313-6.717-5.647-6.717-5.647s1.529,3.88,2.187,5.445c0.658,1.564,2.191,5.307,3.948,8.098
	c1.751,2.788,3.289,3.469,4.895,6.258c1.606,2.788,0.074,4.49-0.514,3.405c-0.585-1.092-2.923-1.568-2.923-2.859
	c0-1.295-0.581-2.111-1.095-3.129c-0.508-1.021-2.776-2.181-4.969-3.951c-2.191-1.767-3.723-2.582-2.338-2.582
	c1.388,0,3.363,1.291,2.997,0.475c-0.366-0.816-2.849-3.334-4.019-5.104c-1.166-1.77-1.538-3.742-2.704-6.736
	c-1.169-2.994-5.477-5.853-7.6-6.055c-2.117-0.206-2.702-1.224-3.431-3.402c-0.729-2.178-0.877-4.491-1.828-6.193
	c-0.951-1.699-5.043-7.414-5.114-9.591c-0.077-2.178-1.243-8.506,0.218-12.046c1.462-3.536,1.095-11.429,0.877-12.996
	c-0.218-1.561-2.852-4.555-2.852-5.714c0-1.157,1.539-0.476,2.708-0.138c1.166,0.344,3.649,1.362,3.649,1.362
	s-1.895-3.536-3.064-4.76c-1.172-1.227-4.606-2.791-6.138-3.132c-1.539-0.337-3.508-0.883-4.311-2.175
	c-0.803-1.295-1.68-2.994-2.267-4.086c-0.582-1.086-3.071-2.377-3.649-3.536c-0.588-1.16-0.44-3.402-1.243-4.558
	c-0.803-1.156-1.975-1.837-3.292-1.362c-1.317,0.475-1.747-0.681-2.772-2.383c-1.025-1.696-3.289-2.515-3.948-2.718
	c-0.658-0.206-2.92-3.199-3.068-3.948c-0.144-0.748-3.729-4.696-4.895-5.512c-1.172-0.819-12.495-4.491-12.784-4.491
	c-0.295,0-3.585,0.476-4.458,0.206c-0.877-0.273-3.874-2.859-5.403-3.402c-1.539-0.546-2.637,0.611-3.363,2.313
	c-0.735,1.699-4.314,4.625-6.286,5.917c-1.972,1.298-3.582,1.433-3.437,0.752c0.148-0.681,0.074-1.77,0.736-3.405
	c0.655-1.632,1.021-2.107,3.064-3.129c2.053-1.022,1.972-1.089,1.173-1.022c-0.803,0.067-1.391-0.135,0.218-1.086
	c1.606-0.957,2.265-1.092,2.191-1.908c-0.074-0.816-3.508,1.092-5.702,2.859c-2.194,1.767-3.501,2.994-5.403,6.122
	c-1.901,3.132,0.219,1.972-1.391,4.016c-1.606,2.042-7.086,6.193-8.692,7.757c-1.609,1.564-8.255,5.033-10.963,5.852
	c-2.705,0.816-3.797,1.157-5.114,2.246c-1.317,1.086-4.6,1.426-3.508,0.681c1.099-0.752,3.142-2.454,4.532-3.27
	c1.385-0.816,5.114-2.313,6.209-2.717c1.099-0.411,4.163-2.316,5.702-4.015c1.532-1.703,2.557-3.675,3.578-5.306
	c1.022-1.635,1.243-2.383-0.874-1.703c-2.123,0.681-4.314,0.408-5.409,0c-1.096-0.408-3.948,1.291-4.969,0.546
	c-1.021-0.751,0.074-2.316-0.588-3.064c-0.652-0.748-2.92-0.27-4.381-0.546c-1.462-0.27-3.505-1.426-3.505-3.469
	s-1.461-3.81-0.661-5.374c0.806-1.564,1.978-1.976,3.289-2.856c1.314-0.886,4.966-2.043,5.698-2.043
	c0.736,0,1.757-0.748,2.412-1.429c0.658-0.678-1.535-3.132-1.535-3.132s0.366-0.27,1.243-0.816c0.877-0.543,0.222-1.699-1.317-1.497
	c-1.536,0.206-4.821,1.773-6.868,2.313c-2.043,0.546-4.818,0.206-4.747-0.678c0.074-0.883,0.511-1.429-0.219-2.11
	c-0.726-0.681-1.317-1.43-0.585-1.767c0.733-0.341,5.262-2.859,5.262-2.859s1.606,1.767,3.36,1.972s5.477-3.061,5.477-3.061
	c-2.335-1.429-1.825-1.837-1.825-1.837s-3.8-0.067-4.677-0.614c-0.874-0.546-1.169-1.631-1.388-2.582
	c-0.218-0.954-3.944-1.703-2.92-3.27c1.022-1.561,2.92-2.108,4.163-3.672c1.243-1.564,2.338-4.494,5.92-6.126
	c3.581-1.632,7.892-3.128,9.791-4.49c1.898-1.362,2.775-0.064,3.508,0.135c0.729,0.206,5.261-0.199,7.012-0.199
	c1.754,0,2.046,1.969,2.631,2.444c0.581,0.478,16.003,0.954,16.003,0.954s13.073,0.206,15.708,0.954
	c2.631,0.749,7.378,2.721,7.378,2.721C80.34,110.91,80.087,107.402,81.872,107.402z M257.561,28.476c0,0-1.317,5.444-6.572,6.941
	c-5.262,1.497-14.911,5.714-15.348,5.987c-0.44,0.27,0.585,3.264,1.899,4.761c1.317,1.497,2.557,2.518,3.726,4.015
	c1.166,1.497,3.215,1.362,4.825,2.926c1.606,1.564,2.772,1.018,7.16,1.089c4.385,0.067,3.215,0.408,8.111,0.681
	c4.895,0.27,10.012,0.681,11.692,2.178c1.676,1.497,4.089,7.35,5.624,10.886c1.536,3.537,4.24,9.389,4.24,9.935
	c0,0.54-1.683,4.831-1.683,5.509c0,0.684,0.877,1.837,1.683,2.791c0.8,0.951,0.363,1.7,0.215,2.583
	c-0.144,0.886,0.877,3.132,1.025,3.405c0.148,0.27,2.335-2.178,3.726-2.586c1.387-0.408,4.825,2.451,4.825,4.423
	c0,4.471,1.217,2.949-6.065,8.233c-0.961,0.697-1.898,6.055-1.169,8.638c0.729,2.589,2.483,5.65,3.871,9.325
	c1.388,3.672,5.48,8.843,6.794,11.227c1.317,2.383,1.683,5.647,4.603,6.398c2.923,0.745,5.702,1.767,7.819,2.242
	c2.12,0.475,3.508,1.156,4.529-0.816c1.028-1.972,3.071-9.457,4.754-14.901c1.677-5.444-0.151-7.076,3.797-8.3
	c3.944-1.224,10.227-3.675,11.907-4.423c1.683-0.751,1.391-6.122,5.117-7.895c3.729-1.767,4.237-1.628,7.889-2.788
	c3.655-1.156,8.769-3.469,12.424-6.055c3.652-2.586,4.674-1.224,5.991-3.607c1.317-2.38-1.317-5.853-1.606-9.389
	c-0.292-3.536,1.169-3.742,1.895-6.941c0.736-3.196,1.099-5.306,3.948-7.484c2.852-2.178,4.381-3.399,3.874-5.442
	c-0.514-2.043-1.972-5.104-1.972-7.35c0-2.248,0.511-0.95-0.658-4.079c-1.169-3.132-1.169-3.54-0.077-6.466
	c1.102-2.927,4.022-2.175,3.803-3.472c-0.222-1.292-4.677-3.264-4.747-6.871c-0.074-3.607,0.803-4.693,1.532-5.58
	c0.729-0.886,8.185-6.803,8.695-7.349c0.511-0.543-0.145-2.04,3.508-3.81c3.652-1.767,4.895-2.923,6.283-3.469
	c1.391-0.546,3.582-0.475-0.658-1.703c-4.24-1.224-5.185-1.767-7.963-1.426c-2.775,0.34-3.723,1.905-8.695,2.383
	c-4.969,0.472-10.597,2.788-10.597,2.788s1.683-1.497,0.222-2.929c-1.462-1.426,3.8-6.122,4.68-6.669
	c0.871-0.54-6.871-2.447-10.892-3.193c-4.015-0.752-11.907-3.132-16.437-2.795c-4.532,0.34-11.178,0.276-13.446,1.021
	c-2.264,0.749-1.969,3.675-4.529,3.813c-2.557,0.135-7.304-1.497-10.96-0.954c-3.652,0.546-9.501,3.064-10.156,3.199
	c-0.659,0.135,2.267,1.905,4.166,2.313c1.898,0.411,4.381,4.356,4.381,4.356s-5.11-1.703-10.301-3.132
	c-5.191-1.429-11.255,0-13.372,0.614c-2.12,0.61-4.895,1.767-9.132,1.972c-4.24,0.206-9.059,3.675-11.471,5.306
	c-2.412,1.632-9.936,5.988-11.837,7.009c-1.902,1.022-1.169,1.497,0.877,2.043C255.367,28.135,257.561,28.476,257.561,28.476z
	 M149.28,84.724c0.581,2.493,0.581,6.078-0.784,4.536c-1.362-1.542-2.483-4.673-4.674-3.405c-2.191,1.272-4.577,0.912-4.189,0.639
	c0.389-0.273-0.048-1.635-1.172-2.043c-1.114-0.408-1.799,0.228-2.965,0.909c-1.173,0.681-4.873,1.587-3.363,0.405
	c1.51-1.178,1.021-1.811,0.485-3.173c-0.534-1.362-4.385,0.951-6.431,2.406c-2.043,1.448-3.26,3.671-4.481,5.168
	c-1.217,1.497-0.34,2.454,1.51,2.994c1.853,0.546,4.825,0.909,2.338,1.818c-2.48,0.906-4.385,1.539-3.116,2.313
	c1.266,0.771,3.46,0.906,5.65,0.632c2.194-0.273,4.044-0.857,7.552,0.094c3.508,0.95,5.599,0.906,5.599,0.906
	s-1.314,0.816-3.652,1.227c-2.338,0.405-6.627,0-8.82,0.405c-2.188,0.411-5.647,0.996-4.77,1.815
	c0.874,0.819,1.558,2.085,4.577,3.039c3.019,0.954,3.559,0.048,5.358,0.498c1.805,0.456,0.832,2.496,1.317,2.814
	c0.488,0.318,3.899-0.27,7.307-0.906c3.411-0.636,2.143-1.182,4.825-1.863c2.676-0.678,2.772-2.718,4.333-3.174
	c1.555-0.453,0.44,1.044,2.287,1.497c1.853,0.456,0.829,0.591,2.827,0.909c1.998,0.318,1.606,1.089,3.556,0.95
	c1.95-0.135,4.236-1.449,3.944-1.68c-0.289-0.225-0.585-0.816-0.385-1.722c0.193-0.906-1.956,0.18-2.73,0.636
	c-0.781,0.453-0.729-1.227,0.922-2.043c1.661-0.816,3.125,0,4.095,0c0.973,0,0.1-2.814-1.657-3.264
	c-1.754-0.456-2.531-1.545-5.165-2.994c-2.628-1.452-1.266-2.088-2.043-3.99c-0.781-1.908-2.438-7.536-3.9-8.532
	c-1.458-0.999-3.019-0.726-4.478-1.722C148.987,80.824,148.695,82.228,149.28,84.724z M108.848,80.87
	c0.636,1.811,0.729,0.678-0.536,2.672c-1.266,1.998-0.536,2.724-1.413,4.221c-0.874,1.497-3.212,3.495-2.483,4.491
	c0.729,0.996,3.068,1.587,4.044,2.358c0.973,0.771,1.947,2.358,3.697,1.77c1.757-0.591,2.338-0.999,3.559-1.635
	c1.221-0.633,2.242-1.359,2.191-2.949c-0.045-1.587-0.096-2.355,0.395-2.22c0.485,0.135,1.263,0.861,1.651-0.183
	c0.392-1.041,1.073-2.403,1.901-3.219c0.826-0.816,3.212-1.635,4.333-2.586c1.124-0.954,3.022-1.995,3.556-2.811
	c0.54-0.822-0.976-1.452-1.898-1.818c-0.925-0.363-1.995-1.812-4.141-1.812c-2.143,0-3.311,1.632-3.215,0.906
	c0.099-0.726-1.462-1.089-2.335-1.407c-0.88-0.315-1.706-0.816-4.484-0.498c-2.775,0.318-3.935,0.501-6.138,1.134
	C105.633,77.828,108.215,79.051,108.848,80.87z M172.269,102.596c-0.289,0.405-1.558,0.816-2.335,1.722
	c-0.777,0.906,1.654,0.411,2.431,0.681c0.781,0.273,1.365,1.041,1.998,1.272c0.636,0.225,4.044,0.36,5.457-0.321
	c1.41-0.678,1.555-0.906,1.41-1.221c-0.148-0.321-2.92-3.039-4.969-4.131c-2.046-1.089-2.094-1.131-2.531-0.861
	C173.294,100.007,172.561,102.185,172.269,102.596z M163.06,81.367c-1.32,0.658-2.281,1.449-0.045,2.586
	c2.236,1.131,2.971,2.088,4.481,3.039c1.51,0.951,2.142,3.675,5.309,2.451c3.164-1.224,4.433-2.676,4.876-3.948
	c0.431-1.272-0.443-1.542-1.22-2.724c-0.784-1.175-0.973-1.677-2.583-1.497c-1.609,0.183-2.146,0.183-2.146,0.183
	s1.073-1.362,2.827-2.223c1.754-0.864,0.289-1.452,1.118-2.268c0.832-0.816-2.091-1.224-3.357-0.909
	c-1.269,0.321-1.317-0.09-3.411-0.18c-2.095-0.09-5.406,1.815-5.262,2.492c0.148,0.681,1.706,0.411,3.167,1.227
	c1.462,0.819,1.899,0.726,0.437,3.039c-1.458,2.313-2.239-0.543-2.727-0.909C164.039,81.367,164.428,80.686,163.06,81.367z
	 M153.712,77.195c-2.187,0.206-2.926,1.722-2.094,1.95c0.826,0.228,1.362-0.228,2.676,1.179c1.317,1.407,2.486,2.178,3.019-0.135
	C157.85,77.876,157.072,76.874,153.712,77.195z M118.539,59.637c-2.441,1.953-2.92,3.495-4.818,4.722
	c-1.902,1.221-1.465,2.268-0.828,2.943c0.633,0.684,2.531-0.042,3.408-0.495c0.877-0.456,1.606-1.587,2.143-0.906
	c0.536,0.681,2.778-2.313,3.655-3.315c0.877-0.996,2.239-2.04,2.486-1.992c0.244,0.045-0.835,1.179-0.44,2.13
	c0.389,0.954,2.139,0.999,3.7-0.633c1.561-1.635,0.148-3.132,1.365-4.401c1.217-1.272,2.239-1.092-0.144-2.226
	c-2.387-1.134-3.9,0.138-4.388,0.729C124.192,56.782,123.316,55.828,118.539,59.637z M133.395,62.724
	c-1.381,0.064-1.995,0.273-4.285,1.269c-2.29,0.999-3.263,3.585-3.797,4.992c-0.54,1.407,0.241,1.407,2.338,2.223
	c2.091,0.816,5.017-0.225,5.695-2.178c0.684-1.953,1.516,0.453,1.124,1.452c-0.388,0.996,1.462,0.09,2.339-0.366
	c0.877-0.45,3.504-0.633,3.7-0.633c0.196,0-2.143,1.77-4.436,2.541c-2.287,0.771-4.137,1.179-4.773,1.269
	c-0.633,0.093,0.591,1.044,3.264,1.59c2.682,0.543,4.288-1.635,8.139-3.087c3.845-1.449,3.652-1.725,4.918-1.359
	c1.269,0.36,2.631-0.636,4.188-1.002c1.558-0.36,2.191,0.231,2.878-2.085c0.678-2.313,1.895-4.536-0.295-4.674
	c-2.194-0.135-2.339-0.135-2.631,2.361c-0.292,2.496-0.489,0.954-0.489,0.954s-1.461-2.178-2.338-3.315
	c-0.874-1.131-1.51-2.9-2.483-3.855c-0.973-0.95-1.413,0.408-2.923,2.088c-1.509,1.677-0.292,2.313,1.218,3.039
	c1.509,0.726,2.583,2.586,1.853,3.084c-0.732,0.501-1.561-0.09-4.336,0.228c-2.779,0.318-2.679-0.861-3.46-1.224
	c-0.781-0.366,1.314-1.134-1.661-2.358C134.179,62.451,134.375,62.676,133.395,62.724z M124.385,65.085
	c0.308-0.527-3.697,2.358-4.307,3.286c-0.611,0.928,0.61,0.771,1.828,0.726C123.12,69.052,123.367,66.829,124.385,65.085z
	 M132.085,59.072c-1.002,0.45-1.002,0.793,0.63,0.973c1.635,0.183,2.586-0.543,2.242-1.224
	C134.619,58.14,132.888,58.709,132.085,59.072z M140.388,50.457c-1.07,0.177-4.237,1.291-4.411,1.831
	c-0.17,0.546,0.029,1.725,0.514,2.656c0.488,0.928,0.662,1.067,3.382,0.34c2.73-0.726,4.606-2.133,3.7-2.383
	c-0.899-0.247-1.455-0.658-2.258-0.768c-0.806-0.115,0.703-0.546,2.505-1.111C145.624,50.457,146.234,49.477,140.388,50.457z
	 M131.16,51.883c-0.771,0.353-1.05,0.359,0.559,0.976c1.606,0.611,3.338,0.565,3.116,0.068
	C134.619,52.423,133.325,50.881,131.16,51.883z M137.44,47.415c-1.523,0.601-1.87,1.699-2.213,2.129
	c-0.341,0.434,1.728-0.315,2.676-0.543c0.954-0.228,1.169,0.337,2.097-0.479c0.925-0.816,2.753,0.026,4.41-0.34
	c1.654-0.36,1.921-1.449,1.558-2.4C145.602,44.829,141.801,45.69,137.44,47.415z M153.953,51.52c-0.45,0.215-0.292,0.928,0.1,1.77
	c0.388,0.835,0.488,0.633,1.314,0.951c0.828,0.318,1.654,0.976,1.85,1.179c0.199,0.206,0.315,0.273,0.658-0.543
	c0.344-0.819-0.17-0.681-1.095-1.77C155.855,52.018,155.125,50.952,153.953,51.52z M159.581,58.642
	c-1.262-0.344-1.972,0.385-2.438,0.61c-0.462,0.228,0.244,0.748,0.562,1.722c0.311,0.98,0.048,1.298,1.898,1.433
	c1.85,0.135,2.412-0.206,2.557-1.384C162.308,59.843,160.75,58.959,159.581,58.642z M166.766,60.774
	c-1.147-0.842-1.706-1.522-2.875-1.044c-1.166,0.475-0.196,1.064-0.196,1.385c0,0.315,1.414-0.045,1.439,0.726
	c0.022,0.771,0.459,1.086-1.243,1.179c-1.703,0.09-2.172,0.022-2.827,0.52c-0.652,0.498,1.269-0.067,1.853,0.704
	c0.585,0.771,1.583,0.861,3.212,0.613c1.635-0.25,3.849-0.613,3.849-0.613s-1.192,1.131-1.68,1.927
	c-0.485,0.793-0.681,1.928,0.17,2.493c0.854,0.572,0.951-0.584,3.315-0.633c2.361-0.045,3.068-1.269,3.068-1.269
	s-0.537-0.524-0.463-1.703c0.074-1.179-0.026-1.452-0.026-1.452s0.954,0.681,1.169,0.954c0,0-0.17-0.704-0.511-1.976
	c-0.341-1.266-0.071-1.362-0.44-3.083c-0.366-1.722-0.292-2.088-2.069-2.043c-1.78,0.048-2.997,0.662-4.462,0.662
	c-1.455,0-2.094,0.27-1.018,0.816c1.073,0.543,1.221,1.201,1.728,1.812c0.514,0.614,0.414,2.088,0.44,2.02
	C169.224,62.702,166.766,60.774,166.766,60.774z M157.875,67.237c-0.029,0.006-0.052,0.023-0.077,0.032
	c-0.742,0.366-0.996,1.189-1.044,1.761c-0.048,0.591,0.977,0.247,2.608-0.318C160.991,68.143,160.191,66.492,157.875,67.237z
	 M180.868,64.153c-1.356,0.736-2.435,1.722-3.215,2.608c-0.778,0.883-0.096,0.996,1.924,2.017c2.024,1.021,4.189,1.224,5.136,0.157
	C185.663,67.873,184.276,62.29,180.868,64.153z M190.266,56.239c-2.592,0.257-1.789,0.642-4.786-0.34
	c-2.993-0.989-6.758-1.092-7.78-1.092c-1.025,0-0.546,0.479,0.514,2.217c1.057,1.731,1.349,2.345,3.543,1.798
	c2.194-0.546,3.98-0.915,5.589,1.394c1.603,2.316,2.448,3.032,1.131,3.88c-1.317,0.851-0.697,2.21,0.074,3.983
	c0.768,1.767,2.519,1.696,4.969,1.696c2.447,0,17.936-0.235,20.349-0.678c2.409-0.444,4.564-2.483,5.846-3.402
	c1.279-0.919,1.973-2.348,0.219-3.405c-1.757-1.053-4.24-2.04-6.212-2.04c-1.975,0-3.652,1.022-6.649,1.327
	c-2.994,0.308-2.336,1.738-5.04,1.805c-2.708,0.064-1.391,1.259-4.715-0.103c-3.322-1.362-5.772-3.064-4.195-3.302
	c1.567-0.238,2.846-0.44,1.969-1.189C194.211,58.038,192.679,55.998,190.266,56.239z M159.289,43.583
	c1.606,0.543,2.011,0.951,0.218,1.426c-1.789,0.476-3.18,1.735-1.388,1.497c1.789-0.238,3.324,0.17,5.624,0.546
	c2.306,0.372,2.117,0.135,3.142,1.429c1.028,1.291,2.12,1.291,3.694,0.919c1.567-0.376,1.786-0.479,0.768-1.603
	c-1.025-1.121-2.085-3.193-3.472-4.012c-1.391-0.816-2.557-1.975-3.948-1.834c-1.388,0.135-1.715,0.167-2.923-1.465
	c-1.204-1.632-2.152-0.854-3.909-0.411c-1.751,0.443-2.313,1.696-2.994,2.248C152.713,43.448,157.683,43.037,159.289,43.583z
	 M180.335,26.912c-1.901,2.38-3.437,4.388-1.285,4.625c2.158,0.238,3.106-0.17,3.254,0.514c0.148,0.674-0.366,1.153-3.581,1.153
	c-3.212,0-2.226,0.716-0.437,2.823c1.793,2.111,1.975,1.394,4.713,1.327c2.74-0.067,3.652-1.057,5.92-0.472
	c2.264,0.578,2.958,1.156,0.912,1.767c-2.049,0.611-6.871,1.767-5.772,2.788c1.095,1.021,4.494,3.469,6.029,3.71
	c1.532,0.238,1.86-1.021,5.188-0.649c3.325,0.375,2.522,0.716,2.884-0.203c0.366-0.919,2.194-3.264,2.557-4.118
	c0.366-0.848,1.281-1.394,3.106-1.802c1.828-0.408,2.412-0.986,0.694-1.6c-1.712-0.614-3.652-0.883-3.469-1.359
	c0.18-0.479,1.243-1.873,0.508-2.589c-0.729-0.713-1.895-0.681-2.849-1.054c-0.945-0.373-2.008-2.107-3.216-2.856
	c-1.201-0.748-2.261-0.819-3.726-1.94c-1.458-1.121-3.797-3.861-6.72-3.707C183.075,23.372,182.23,24.528,180.335,26.912z
	 M176.602,46.814c-0.729,0.372-2.553,0.44-1.201,1.561c1.349,1.124,0.986,1.16,2.698,0.514c1.722-0.649,4.205-2.248,4.426-2.724
	c0.215-0.475-1.719-1.394-3.035-1.802c-1.314-0.408-2.226-1.461-4.969-2.213C170.538,41.064,177.335,46.435,176.602,46.814z
	 M265.987,11.423c-3.019-0.819-13.831-2.907-17.339-2.091c-3.508,0.819-3.315-1.811-8.184-1.176
	c-4.87,0.633-12.37,0.27-14.708,0.633c-2.335,0.363,1.166,1.362,2.435,2.178c1.266,0.816-6.039-0.906-11.596,0.636
	c-5.551,1.542-9.158,2.358-3.209,4.625c5.939,2.268,6.72,2.904,6.72,2.904s-7.6-1.362-10.815-2.631
	c-3.215-1.269-1.458-1.179-7.503,0.543c-6.036,1.722-11.882,2.634-11.59,4.445c0.289,1.815,4.873,4.266,7.889,4.899
	c3.019,0.636,9.257-0.906,9.746-1.089c0.485-0.18-2.438,2.451-2.438,2.451s3.115-0.636,6.623-1.545
	c3.508-0.906,6.235-1.902,9.55-3.084c3.312-1.179,3.897-1.542,3.897-1.542s-5.747,4.449-9.742,5.987
	c-3.993,1.542-9.161,2.544-11.593,2.634c-2.435,0.09-2.05,1.632,0.389,2.904c2.435,1.269,4.285,3.99,5.554,4.895
	c1.262,0.912,1.462,2.361,1.462,2.361s-3.8-2.994-7.989,0c-4.192,2.991-3.607,4.536-2.535,4.899c1.07,0.36,4.773,0.726,5.454,1.995
	c0.684,1.269,5.554-1.179,5.554-1.179s-2.431,3.083-4.773,3.083c-2.335,0-2.239-1.995-5.65-1.632
	c-3.411,0.363-3.216,1.182-1.75,2.358c1.458,1.182,2.631,1.545,0.096,2.724c-2.535,1.179-3.704,1.542-3.8,2.994
	c-0.1,1.452,3.311,1.452,5.454,1.452c2.142,0,4.189-0.186,8.088-0.273c3.893-0.093,3.408-1.362,4.87-1.362
	c1.465,0,2.923,0.453,2.339,1.905c-0.581,1.452,0.581,0.546,4.873-0.996c4.282-1.542,2.332-3.906,2.046-4.718
	c-0.292-0.819-1.854-1.089-2.827-1.542c-0.977-0.453,2.923-4.449,2.335-5.804c-0.578-1.362,4.776-0.276,7.208-3.45
	c2.438-3.174,1.561-5.535-0.193-6.077c-1.75-0.546,3.219-0.18,4.773-1.092c1.561-0.903,4.972-1.991,6.334-3.716
	c1.362-1.725,1.85-2.361-1.458-1.995c-3.315,0.363,4.767-1.452,8.666-3.996c3.897-2.538,8.381-5.531,9.351-6.257
	c0.977-0.726,1.857-0.366-2.727-0.09c-4.577,0.27-10.035-0.363-7.012-0.726c3.019-0.363,11.984-1.452,14.323-3.174
	C264.917,11.962,265.987,11.423,265.987,11.423z M211.435,74.381c-4.876-0.456-11.981-1.632-13.446,2.538
	c-1.465,4.176-3.7,13.433-3.897,15.155c-0.193,1.722,5.846,4.263,10.035,4.443c4.189,0.183,11.011,0.453,9.646-0.543
	c-1.368-0.996-0.196-1.542,3.7-1.362c3.896,0.183,4.288-0.816,4.288-1.632c0-0.816,0.681,0.996,3.408,2.447
	c2.724,1.452,5.069,5.538,7.504,7.896c2.432,2.358,7.889,5.531,6.819,7.349c-1.076,1.812,1.166,8.165-7.214,9.617
	c-8.374,1.449-8.863,0.45-8.763,2.358c0.096,1.902,0.482,2.721,3.797,2.721c3.312,0,7.892-2.721,9.45-0.726
	c1.561,1.995,3.7,2.72,5.069,3.177c1.362,0.453-1.658,1.266-2.438,1.542c-0.778,0.27,1.658,0.543,6.431,2.81
	c4.773,2.268,10.52,2.541,7.693,0.909c-2.823-1.635-4.185-4.625-5.454-5.628c-1.266-0.996-0.096-0.18,2.146,0.366
	c2.239,0.543,4.285,2.358,5.258,3.173c0.973,0.816,1.461-0.27,2.143-3.45c0.681-3.174-0.289-3.174-4.093-5.711
	c-3.797-2.541-4.966-4.536-5.358-6.353c-0.389-1.815,1.95-2.178,2.927-3.45c0.973-1.265,3.703,2.271,5.553,4.356
	c1.85,2.088,3.405,5.718,4.87,3.087c1.458-2.631,2.82-8.528,2.82-9.89c0-1.359-1.458,0.09-7.69-2.994
	c-6.238-3.084-9.453-4.263-10.034-4.263c-0.588,0,1.654-1.179,4.384-2.541c2.721-1.362,3.893-1.176-1.953-6.713
	c-5.846-5.535-7.5-6.714-11.3-7.076c-3.8-0.363-4.87-4.356-7.597-5.714c-2.727-1.362-9.061,1.632-10.915,2.088
	c-1.847,0.45-1.265,1.176-3.604-2.178C213.285,76.829,211.435,74.381,211.435,74.381z M215.816,74.381
	c-2.422,0.289,1.461,4.716,4.577,4.902c3.122,0.18,5.75-1.362,6.431-1.545C227.512,77.555,219.616,73.925,215.816,74.381z
	 M204.882,119.377c-0.408,0.989-1.391,3.745-1.535,5.583c-0.148,1.837-0.44,2.107-0.803,3.264c-0.363,1.156,1.169-0.203,2.194,1.497
	c1.018,1.703,0.578,2.178,2.409,0.206c1.828-1.972,3.874-2.653,6.428-1.837c2.56,0.816,4.532,1.156,3.655-0.405
	c-0.877-1.568-2.046-1.433-3.8-3.54c-1.754-2.11-3.067-2.653-5.258-3.472C205.977,119.855,205.755,117.27,204.882,119.377z
	 M223.265,278.346c-0.755-1.574-1.889-4.124-6.627-5.005c-4.738-0.88-6.338,0.88-8.088,1.471c-1.754,0.591,1.635,0.88,3.89,0
	c2.252-0.88,3.971-0.19,4.279,0.215c0.299,0.408-0.761,0.652-1.143,0.222c-0.389-0.431-0.459,1.057,2.088,1.975
	c2.547,0.922,3.167,1.359,3.424,2.451c0.257,1.092,0.234,1.676,0.813,2.589c0.582,0.912,0.8,1.298-0.27,1.696
	c-1.076,0.405-0.694,0.347,0.093,0.835c0.787,0.485,2.371,1.297,4.606,1.484c2.226,0.189,2.961,0.604,1.413-1.433
	C226.195,282.808,223.503,278.841,223.265,278.346z M230.341,288.31c1.233,1.265,0.877,2.64,0.79,3.366
	c-0.086,0.726-1.416,0.164-3.864-0.482c-2.444-0.649-2.072-0.331,0.055,0.816c2.124,1.15,3.501,0.867,3.408,2.396
	c-0.093,1.529,1.953,0.142,2.855-0.745c0.903-0.886,0.842-0.099,4.619,0.469c3.784,0.572,4.555,1.253,3.954-0.404
	c-0.607-1.658,1.731-1.523-1.625-3.103C237.177,289.04,228.941,286.871,230.341,288.31z M219.584,289.255
	c-1.423-1.574-3.199-1.802-3.215-0.462c-0.019,1.339,0.482,1.259,1.792,1.625C219.484,290.784,220.493,290.257,219.584,289.255z
	 M247.025,296.081c-1.545-0.53-1.863,0.633-0.835,1.603c1.031,0.964,2.608,0.633,4.163,0.559
	C251.908,298.172,249.724,297.009,247.025,296.081z M229.249,106.213c-2.05,0.864-3.251,1.462-1.462,3.81
	c1.793,2.348,2.853,3.81,3.54,2.111C232.025,110.434,232.719,104.749,229.249,106.213z M212.848,131.4
	c-3.087,0.498-4.096,0.588-3.607,2.316c0.488,1.722,1.317,1.449,3.408,0.405C214.746,133.08,216.208,130.857,212.848,131.4z
	 M219.276,134.031c-0.527,0.161-0.681,1.362,0,2.447c0.681,1.092,1.995-0.36,2.582-1.676
	C222.443,133.485,221.225,133.44,219.276,134.031z M185.567,50.296c-2.92,0.096-7.308,1.131-4.873,1.176
	c2.435,0.048,4.436,0.546,8.384,0.321c3.945-0.228,4.33-0.501,4.43-2.406C193.604,47.482,190.928,50.113,185.567,50.296z
	 M167.303,34.284c-2.981,0.925-2.242,1.542,1.262,3.084c3.508,1.545,3.607,0.816,3.219-2.088
	C171.392,32.376,169.057,33.738,167.303,34.284z M375.521,110.209c-3.691,1.031-4.927,0.414-5.628,2.287
	c-0.704,1.866-2.146,0.867-2.981,1.099c-0.832,0.231-2.014,5.454-2.598,4.677c-0.591-0.778-0.797-1.202-1.648-2.994
	c-0.848-1.796,0.28-1.478-1.343-3.369c-1.622-1.892-4.831-1.677-5.059-0.903c-0.225,0.777,2.216,1.426,1.388,2.3
	c-0.835,0.88-2.817,1.953-3.572,2.586c-0.752,0.633,1.445,0.357,2.826,0.032c1.378-0.324,2.326,1.037,2.891,2.001
	c0.562,0.967-0.633,1.905-1.23,2.374c-0.594,0.472,2.008,0.357,3.048,0.549c1.044,0.193,1.587,1.07,0.877,2.249
	c-0.713,1.179,3.097,0.167,5.207,0.045c2.104-0.122,2.66,1.445,5.846,0.447c3.19-0.999,4.706-0.928,7.61-3.077
	c2.904-2.149,2.679-1.648,4.606-3.035c1.924-1.381,1.465-1.812,1.545-3.347c0.077-1.535,1.272,0.43,0.819-1.889
	c-0.446-2.322-2.83-1.69-4.49-1.869c-1.667-0.183-1.603-1.484-2.438-1.895C380.368,108.06,379.263,109.165,375.521,110.209z
	 M622.138,310.069c-0.158,0.553-0.392,1.179-0.392,2.403c0,1.227-0.144,2.544-0.048,3.765c0.096,1.227,0.17,2.088,0.851,2.361
	c0.684,0.273,1.147,0.543,2.268,0.022c1.121-0.52,2.168-1.452,1.609-2.859c-0.562-1.404-1.609-3.334-2.219-4.375
	C623.599,310.346,622.43,309.029,622.138,310.069z M621.244,308.386c0.119,0.52,0.286,0.411,0.533,0.771
	c0.241,0.363,0.511,0.045,0.17-0.43c-0.341-0.475-0.299-0.533-0.299-0.533s-0.433-0.147-0.433,0.283 M726.423,380.795
	c-0.016,0.055-0.081,0.083-0.119,0.128c-2.001,2.024-3.819,1.458-7.256,2.525c-3.505,1.086-9.572,4.626-10.012,6.193
	c-0.437,1.561,0,1.767-0.437,1.561c-0.44-0.206-1.172-1.156-1.172-1.156s-0.948,1.908-0.729,3.607
	c0.218,1.699,1.021,2.721,0.95,4.899c-0.074,2.178-0.877,3.469-0.803,4.966c0.071,1.5,2.554,4.355,3.215,6.128
	c0.655,1.767,1.095,1.292,1.458,4.491c0.363,3.193,2.046,4.963,0.363,6.665c-1.677,1.699-2.92,1.359-0.874,3.129
	c2.046,1.77,3.729,2.926,7.012,1.77c3.289-1.157,2.415-2.178,4.972-2.724c2.553-0.54,3.068-1.086,5.258-1.224
	c2.191-0.135,3.726,0.067,4.536-1.494c0.8-1.568,0.215-1.497,2.406-2.589c2.194-1.086,1.972-1.362,3.437-1.632
	c1.461-0.27,2.409,0.752,4.381-0.816c1.972-1.564,0.511-1.703,4.895-1.703c4.385,0,6.215,0.617,7.819,1.156
	c1.609,0.546,4.24,1.973,4.895,2.994c0.662,1.021,1.535,2.249,1.825,2.249c0.292,0,0.662,0.064,1.683-0.954
	c1.022-1.022,3.945-3.061,3.945-3.061s-0.148,2.178-0.803,2.994c-0.662,0.816-0.662,1.972-0.662,2.384
	c0,0.405,1.683-1.298,1.905-1.362c0.219-0.071,0.437,2.994,0.655,3.264c0.222,0.273,0.88,0.135,1.535,1.021
	c0.659,0.883,1.536,1.568,2.194,3.267c0.655,1.699,3.434,3.402,5.187,3.671c1.754,0.276,3.286,0.138,4.603-0.067
	c1.314-0.202,1.388-1.77,2.775-1.153c1.387,0.611-0.071,1.902,3.215,1.632c3.289-0.273,4.166-1.362,5.48-2.249
	c1.314-0.88,1.462,1.227,3.141-1.086c1.68-2.313,1.972-1.77,2.265-4.561c0.292-2.788,0.218-3.334,1.825-5.988
	c1.609-2.653,1.978-1.362,3.074-5.236c1.092-3.88,2.483-7.555,2.339-10.751c-0.148-3.203,0.067-1.089-0.662-4.699
	c-0.729-3.604-0.218-3.193-2.557-4.689c-2.342-1.497-2.92-1.092-3.508-3.2c-0.581-2.11,0.148-2.724-0.951-2.724
	c-1.092,0-2.046,0.475-2.701-0.951c-0.659-1.43-0.582-1.972-1.825-3.334c-1.243-1.362-2.409-1.089-4.677-2.107
	c-2.268-1.021-1.102-1.294-1.102-3.064c0-1.767,0.128-3.649-1.677-4.468c-1.802-0.816-0.729,0.453-0.729-2.451
	c0-2.897,0-2.493-1.461-2.991c-1.458-0.501-1.95-0.453-2.875-2.226c-0.925-1.767-2.143-4.67-2.579-5.846
	c-0.44-1.182-0.973,0.135-1.561,0.996c-0.585,0.861-1.413,2.766-1.413,4.536c0,1.767,0.781,2.769,0.781,5.127
	c0,2.358-1.654,4.715-2.679,6.078c-1.021,1.362-1.85,0.135-2.73-0.228c-0.874-0.363-1.07-1.68-2.92-2.586
	c-1.854-0.906-5.259-1.722-6.82-3.129c-1.561-1.407-0.488-1.452,0-2.904c0.488-1.452,1.169-2.631,2.339-3.585
	c1.169-0.951,0.828-1.317-0.633-2.133c-1.461-0.816-3.508-0.861-5.994-0.861c-2.486,0-3.945-0.18-3.8,1.227
	c0.151,1.407,1.606,1.947-0.481,1.542c-2.097-0.411-3.9-0.591-4.825,0.405c-0.925,1.002-1.124,1.593-1.657,3.723
	c-0.536,2.13,0.148,2.265-0.729,2.265c-0.88,0-4.336-1.677-5.506-2.172c-1.169-0.501-1.799-0.456-3.164,0.816
	c-1.365,1.265-6.09,5.396-7.844,6.392C728.103,375.44,728.199,375.212,726.423,380.795z M661.422,319.468
	c-1.034-0.141-1.609-0.411-0.344,1.221c1.269,1.635,1.609,1.953,2.827,3.087c1.217,1.134,1.657-0.819,2.583,1.359
	c0.925,2.178,0.585,2.223,1.51,3.039c0.925,0.816,1.706,1.047,1.947,1.863c0.244,0.816,0.536,2.085,1.609,2.994
	c1.073,0.906,1.073,0.771,1.703,2.538c0.636,1.77,1.609,3.039,2.097,4.536c0.485,1.497,3.264,2.904,4.674,4.719
	c1.414,1.815,3.803,4.446,4.192,3.72c0.389-0.726,1.41,0,2.142-0.27c0.729-0.273,0.973-1.317,1.461-3.858
	c0.488-2.541-0.44-3.719-1.124-4.311c-0.678-0.588-1.947-0.723-2.284-1.269c-0.34-0.543-0.925-2.403-1.754-2.994
	c-0.832-0.588-1.028,0.045-1.028-1.407c0-1.449,0.976-1.314-0.241-2.13c-1.217-0.816-1.365-1.407-1.757-1.815
	c-0.385-0.408-3.016-1.044-3.7-1.77c-0.678-0.726-3.552-2.043-4.918-3.405c-1.365-1.355-2.875-2.448-3.312-3.443
	C667.265,320.872,665.9,320.053,661.422,319.468z M689.769,348.725c-1.166,0-1.75-0.681-2.531,0.726
	c-0.778,1.407-0.681,1.407,0.536,1.407c1.217,0,0.973,0.636,0.922,0.816c-0.045,0.18-0.581-0.138,1.902,0.861
	c2.483,0.996,4.24,0.591,4.921,0.225c0.681-0.363,0.925,0.909,4.337,1.452c3.405,0.546,5.21-0.315,7.401,0.228
	c2.194,0.543,1.661-0.273,0.1-1.449c-1.561-1.182-1.414-0.546-2.974-1.68c-1.552-1.134-3.749-1.179-4.77-1.362
	c-1.025-0.183,0.874,1.089-2.239,0.678c-3.122-0.405-1.998,0.276-3.607-0.768c-1.609-1.044-1.609-1.224-2.682-1.407
	C690.013,348.272,689.769,348.725,689.769,348.725z M714.516,353.713c-0.877,0.273-2.679,0.774-1.85,1.134
	c0.829,0.363,0.19,0.591,2.775,0.363c2.58-0.228,4.825-0.543,5.162-1.089c0.34-0.546-0.437-0.18-1.513-0.501
	c-1.069-0.315-0.973,0.228-2.435,0.411C715.2,354.211,714.516,353.713,714.516,353.713z M723.577,353.53
	c-1.728,0.212-1.513,0.591-0.147,1.002c1.365,0.404,2.631,0.584,3.652,0.315c1.022-0.27,1.169-0.546,3.071-0.861
	c1.899-0.318,2.531-0.273,4.038-0.456c1.516-0.18,1.516-0.18,1.516-0.18s-0.148-0.315-1.172-0.27
	c-1.022,0.045-1.747,0.09-2.775,0.09c-1.025,0-2.775,0.906-3.508,0.861c-0.729-0.045-2.139-0.498-2.483-0.273
	C725.424,353.986,725.431,353.305,723.577,353.53z M733.319,355.753c-0.029,0.013-0.045,0.032-0.064,0.045
	c-1.205,0.825-1.256,1.054-1.147,1.709c0.106,0.662-0.132,0.951-0.132,0.951s1.773-0.083,3.125-1.445
	c1.353-1.362,1.407-1.343,2.792-1.837c1.391-0.495,2.961-2.004,2.961-2.004s-1.095,0.238-2.3,0.135
	c-1.208-0.103-2.393,0.63-2.778,0.951C735.395,354.58,736.156,354.667,733.319,355.753z M723.137,356.469
	c-1.269-0.909-2.499-0.781-2.592-0.222c-0.09,0.559-1.098,0.527,0.691,1.192c1.792,0.661,3.492,1.532,3.363,0.626
	C724.47,357.166,723.686,356.858,723.137,356.469z M711.496,318.649c-0.732,1.044,0.681,0.771-0.392,1.68
	c-1.07,0.906-1.895,0.498-2.965,1.857c-1.07,1.362-2.682,2.313-3.363,2.814c-0.681,0.501-2.878,1.085-3.851,2.406
	c-0.973,1.314,0.344,2.04,0.344,2.04s-0.588,0.27-2.146-0.318c-1.558-0.588-1.654-1.314-1.654-1.314s-1.121-0.045-1.75,1.632
	c-0.636,1.677-0.98,1.857,0.138,2.859c1.124,0.996-0.774,1.041-0.533,1.722c0.241,0.681,0.247,1.953,0.925,2.088
	c0.681,0.135,0.829-0.636,1.661,0.408c0.826,1.044,0.145,3.99,1.214,4.128c1.073,0.135,1.85-0.318,2.775,0.09
	c0.931,0.411,1.606,0.771,2.827,0.363c1.217-0.408,2.531,0,3.167,0.363c0.63,0.363,2.92,1.134,4.041,1.044
	c1.124-0.09,1.314,0.183,1.51-1.407c0.196-1.587,0.051-3.084,1.413-4.308c1.362-1.227,1.414-1.227,1.51-2.361
	c0.1-1.134,0.1-2.313,0.929-3.492c0.822-1.182,1.314,0.681,1.754-0.228c0.437-0.909,0.877-0.903,0.63-1.359
	c-0.244-0.456-1.51-0.456-1.995-1.317c-0.488-0.861,0.148-1.317-0.44-3.084c-0.588-1.767-0.922-1.089-0.096-2.088
	c0.829-0.996,1.51-1.179,1.606-1.95c0.1-0.774,0.437-0.819,1.465-1.542c1.018-0.726-0.164-0.386-1.137-1.111
	c-0.97-0.726-2.798-3.447-3.932-3.424C714.538,314.849,712.225,317.605,711.496,318.649z M855.43,414.95
	c-0.469-0.344-0.871-0.09,0.202,1.178c1.07,1.272,1.166,0.906,1.847,0.951c0.681,0.045,1.269,2.544,1.654,3.18
	c0.392,0.633,1.121,1.404,1.121,1.404s0.395,2.721,0.051,3.948c-0.34,1.224-1.073,1.767-1.314,2.904
	c-0.244,1.134,1.118,0.816,1.998,1.179c0.874,0.363,0.729,0.363,0.389,1.359c-0.34,0.999-1.365,1.452-1.365,1.635
	c0,0.183,1.998,1.314,3.023,0.09c1.018-1.224,2.624-3.039,3.07-4.353c0.434-1.317-0.784-0.729,0.63-1.68
	c1.41-0.954,1.217-0.501,1.95-1.68c0.726-1.179,1.506-2.402,0.681-3.039c-0.829-0.636-1.751,0.771-2.49,1.044
	c-0.726,0.273-1.314,0.318-2.335-0.183c-1.022-0.498-1.218-0.498-1.606-1.407c-0.392-0.906-0.877-1.407-0.877-1.407
	s-0.296,1.542-1.022,1.047c-0.732-0.501-0.539-1.047-1.073-1.908c-0.536-0.861-0.536-1.134-0.88-1.767
	c-0.337-0.636-0.048-1.863-1.75-2.043C855.632,415.223,855.869,415.267,855.43,414.95z M855.725,431.418
	c0,0-1.365,1.175-2.579,2.856c-1.217,1.68-1.414,2.313-1.802,3.222c-0.389,0.906-1.802,1.995-4.141,3.219
	c-2.339,1.227-3.219,1.725-3.996,2.859c-0.777,1.137-3.556,4.67-3.893,5.081c-0.344,0.405,1.311,0.816,3.02,0.816
	c1.703,0,4.381,1.542,5.843-0.045c1.461-1.587,2.923-5.355,3.848-6.713c0.925-1.362,1.802-1.86,3.264-3.177
	c1.458-1.314,3.897-3.765,3.897-4.719c0-0.951-0.633-2.492-0.633-2.492s-0.536,1.041-1.805,0.906
	C855.481,433.095,855.725,431.418,855.725,431.418z M844.238,448.841c-1.712-0.906-2.046,0.781-2.322,2.512
	c-0.28,1.731,0.739,0.26,2.226-0.52C845.636,450.055,844.891,449.188,844.238,448.841z M786.314,436.949
	c-1.927-0.642-1.606,1.182-1.314,2.541c0.289,1.359,0.681,2.451,1.414,3.582c0.729,1.137,3.456,1.542,4.533,1.047
	c1.07-0.501,1.847-2.178,2.92-3.768c1.072-1.587,1.558-3.402,1.365-4.353c-0.196-0.954-1.558,0.861-2.438,1.269
	c-0.874,0.408-2.046,1.452-3.7,0.999C787.438,437.81,786.998,437.178,786.314,436.949z M762.059,339.56
	c-1.558,0.363-2.338-0.999-3.607-3.63c-1.269-2.631-2.239-2.991-5.454-1.815c-3.216,1.182-2.727,0.909-0.585,1.725
	c2.146,0.819,2.438,1.089,2.727,1.089c0.292,0,3.411,0.453,2.727,0.906c-0.684,0.456-3.604,0.906-1.754,2.178
	c1.85,1.272,1.073,0.363,5.946,2.814c4.87,2.447,5.65,0.636,7.211,3.81c1.555,3.173,1.555,2.631,0.289,3.45
	c-1.269,0.816-2.923,1.632-2.239,1.722c0.678,0.09,1.95,0.363,5.258,0.546c3.315,0.18,0.196,2.085,3.896,2.085
	c3.704,0,4.677-1.179,6.139-2.904c1.461-1.725,1.754-0.816,4.87-0.09c3.119,0.726,4.192,3.447,8.088,4.536
	c3.893,1.089,5.551,2.541,3.116,0.273c-2.435-2.268-3.312-3.9-6.627-6.533c-3.312-2.628-3.504-2.904-4.478-4.899
	c-0.977-1.995-4.385-4.356-8.181-5.897c-3.803-1.542-5.975-1.757-10.426-2.994C764.394,334.662,763.617,339.197,762.059,339.56z
	 M736.429,330.489c-1.458,1.018-1.638,0.395-2.73-0.279c-1.092-0.681-0.787,1.41-3.216,0.279c-2.428-1.134-3.334-1.696-5.946,0.228
	c-2.611,1.921-0.97,2.711-1.034,4.067c-0.064,1.355-2.184,5.197-2.974,6.61c-0.784,1.414-0.781,1.921-0.18,2.827
	c0.604,0.9,1.458,0.562,1.821,1.015c0.363,0.45,0,4.012-0.427,5.197c-0.424,1.189,1.034,1.413,2.55,1.073
	c1.519-0.341,0.183-0.45,0.183-1.693c0-1.243,0.726-1.808,0.726-4.128c0-2.313,0-3.386,0-3.386s0.427-0.228,0.973,0.562
	c0.546,0.793,1.336,2.997,2.001,4.128c0.668,1.128,1.333,1.976,2.367,1.182c1.031-0.79,1.998-1.693,1.998-1.693
	s-1.998-0.62-1.998-1.301c0-0.678,0.848-1.24-0.549-3.501c-1.394-2.261-2.12-2.374-0.36-2.486c1.757-0.115,1.699-1.866,2.727-2.374
	c1.031-0.51,2.49-0.337,2.49-0.337s-1.034-1.073-2.608-0.623c-1.577,0.45-2.974,0.678-4.311,1.413
	c-1.333,0.733-2.489,1.189-2.73-0.17c-0.241-1.355-0.421-1.693-0.241-3.562c0.183-1.863,2.303-0.45,3.883-0.9
	c1.58-0.456,1.58-0.34,5.036-0.116c3.456,0.225,3.701-0.565,4.732-1.975c1.028-1.413,1.635-3.055,1.635-3.055
	S737.884,329.471,736.429,330.489z M744.62,325.546c0.308-0.566-2.534,1.947-3.068,2.448c-0.536,0.501,0,1.224,0.385,1.953
	c0.392,0.726,0.296,3.218,0.44,3.761c0.148,0.543,1.609,1.044,1.609,1.044s-0.048-1.677,0.485-2.447c0.536-0.771,0-1.725,0-3.129
	C744.472,327.768,743.695,327.223,744.62,325.546z M739.018,340.437c-2.236-0.854-3.071-0.292-3.071,0.877
	c0,1.166-0.247,1.751,2.133,1.751C740.463,343.065,743.155,342.014,739.018,340.437z M743.47,339.679
	c-0.549,0.173-1.128,1.927-0.813,2.975c0.308,1.053,0.688,0.353,1.943,0.119c1.253-0.234,1.06-1.224,2.628-1.343
	c1.571-0.116,4.828,1.108,4.828,1.108s0.691-0.816-1.812-2.39C747.733,338.568,746.599,338.687,743.47,339.679z M698.904,281.976
	c0,0-2.239,0.064-2.582,0.064c-0.341,0-1.121,0.867-1.68,1.208c-0.562,0.338-0.559,0.813-0.167,1.696
	c0.385,0.887,1.044,0.931,2.139,1.227c1.095,0.295,0.706-0.475,1.513-0.771c0.8-0.295,1.022-1.021,1.195-1.677
	c0.167-0.661,0.704-0.957,0.899-1.182c0.193-0.225-0.633-0.996-0.633-1.067C699.589,281.411,698.904,281.976,698.904,281.976z
	 M725.283,285.127c-0.88-0.652-1.365,1.635-1.609,2.811c-0.244,1.182-0.536,1.953-0.097,2.814c0.44,0.861,0.244,1.137,0.244,1.137
	l-1.269-0.958c0,0-0.34,1.092-0.34,2.043c0,0.954-0.392,1.362,1.073,2.043c1.458,0.681,1.95,0.315,2.139,1.362
	c0.196,1.041,0.196,1.494,1.173,1.677c0.973,0.18,2.094,0.588,2.483,1.227c0.388,0.633,0.193-1.683,0.877-1.545
	c0.681,0.138,1.465,0.999,1.95,1.77c0.488,0.771,1.214,0.816,1.214,0.816s-1.118-1.86-0.63-2.088
	c0.485-0.225,0.63-0.405-0.636-1.179c-1.265-0.768-2.287-0.588-3.26-0.726c-0.973-0.135-0.973,0.681-1.705-1.224
	c-0.733-1.905-0.145-3.083-0.145-3.495c0-0.405,0.533,0.636,1.121-0.681c0.581-1.314,0.729-2.357,0.63-3.626
	c-0.096-1.269,0.877-1.77,0.145-1.815C727.907,285.445,725.768,285.49,725.283,285.127z M736.872,309.504
	c0.148,0.919-0.874-0.257-1.259,0.27c-0.382,0.53-0.584,0.424-1.204,0.681c-0.62,0.257-2.117,1.651-2.117,1.651
	s-0.019-0.899,0.016-1.105c0.036-0.206-0.456-1.259-0.912-0.546c-0.456,0.713-0.896,1.175-1.921,1.683
	c-1.025,0.514-1.661,1.259-1.786,2.178c-0.132,0.919,0.62,0.887,0.62,0.887s0.402-0.308,1.079-1.362
	c0.675-1.053,0.8-1.022,2.024-1.175c1.227-0.148,1.13-0.135,1.519,0.527c0.386,0.668,0.09,1.67,0.125,2.403
	c0.035,0.729-0.036,1.612,1.22,2.04c1.266,0.427,0.662,0.036,1.812-0.067c1.153-0.103,1.134-0.071,0.967-0.649
	c-0.164-0.578-0.511-1.085-0.588-1.767c-0.071-0.681,0.665-0.97,0.899-1.105c0.238-0.135,0.386,0.681,0.733,1.529
	c0.347,0.855,0.491,0.816,0.639,0.17c0.148-0.646,0.546-2.175,0.402-2.994c-0.148-0.816-0.218-1.445-0.218-2.126
	c0-0.678-0.569-1.497-0.896-1.735c-0.331-0.241-1.461-1.24-1.461-1.24S736.731,308.585,736.872,309.504z M731.267,303.95
	c0,0,0.025-0.578-1.031-1.616c-1.06-1.041-1.086-1.339-2.702-1.619c-1.609-0.276-3.225,0.141-2.544,1.873
	c0.681,1.731,0.88,1.985,2.245,2.194c1.359,0.206,2.191-0.533,2.191-0.533s0.103,0.276-1.185,1.086
	c-1.285,0.809-1.436,2.354-0.427,2.955c1.008,0.6,0.983,1.522,1.564,1.06c0.578-0.46,1.005-2.053,2.191-3.161
	c1.186-1.108,1.259-1.269,1.413-2.447c0.148-1.176,0.026-2.123,0.026-2.123L731.267,303.95z M734.026,300.626
	c-0.148,0.116-0.989-0.087-0.112,0.764c0.877,0.848,1.68,1.038,1.571,1.664c-0.109,0.633-0.035,0.752-0.527,0.681
	c-0.495-0.067-0.642-0.186-0.861-0.202c-0.219-0.016-0.251,0.408-0.106,0.8c0.142,0.392,0.106-0.052,0.527,0.61
	c0.421,0.665,0.312,0.886,0.44,1.651c0.128,0.764,0.456,0.392,0.456,0.392s-0.109-1.837-0.055-2.21
	c0.055-0.376-0.148-1.278,0.472-0.989c0.623,0.289,0.456,1.381,0.822,0.36c0.366-1.021,0.202-1.924,0.022-2.74
	c-0.183-0.819-0.825-0.851-1.574-0.851C734.354,300.555,734.026,300.626,734.026,300.626z M721.425,303.771
	c-0.363,0.09-0.588,0.443-0.806,1.686c-0.222,1.24-0.915,1.889-1.661,2.618c-0.752,0.732-2.782,2.688-2.888,3.08
	c-0.116,0.389-0.131,0.151,1.388-0.565c1.516-0.713,2.72-1.664,2.897-2.634c0.189-0.97-0.177-0.373,1.16-1.002
	c1.333-0.63,0.655-0.835,0.71-1.824C722.276,304.146,722.093,303.6,721.425,303.771z M802.076,340.919
	c-0.164,1.262,0.363,1.638-0.806,2.563c-1.172,0.931-2.483,0.931-3.729,1.137c-1.24,0.202-0.334-0.206-1.872-0.251
	c-1.536-0.045-1.927,0.068-1.217,0.838c0.703,0.774,0.533,1.52,2.798,1.43c2.268-0.09,4.141-1.314,5.605-1.767
	c1.461-0.456,1.339-1.635,1.461-2.178C804.437,342.146,802.243,339.56,802.076,340.919z M808.404,343.643
	c0.626,0.89,0.388,0.752,1.192,1.927c0.806,1.179,2.075,1.384,3.022,1.703c0.948,0.315,0.003-0.341-0.703-1.292
	c-0.707-0.954-0.758-1.478-1.805-2.428C809.062,342.602,807.308,342.079,808.404,343.643z M726.134,267.367
	c-3.122,1.985-4.529,1.837-3.286,4.356c1.24,2.518,2.021,3.585,2.191,4.06c0.167,0.475,0.803-0.318,1.651-2.313
	c0.858-1.998,0.954-4.606,1.295-5.397C728.328,267.277,727.204,266.686,726.134,267.367z M779.594,169.503
	c0.344,1.317,0.681,3.357-0.096,3.581c-0.781,0.228-1.317,1.68-1.51,3.18c-0.196,1.494-0.584,3.398,0.241,4.581
	c0.832,1.175,0.244,1.266,0.244,2.268c0,0.996,0.292,3.536-0.196,5.033c-0.485,1.497-0.777,1.86-0.582,3.447
	c0.193,1.587,0,1.905,0,4.176c0,2.268-0.144,4.079-0.048,4.985c0.1,0.912,0.581-0.45,0.922-0.768
	c0.34-0.318,1.657-0.501,2.387,0.273c0.735,0.771,0.735,0.771,0.735,0.771s1.166,0.498-0.44-2.949
	c-1.609-3.45-1.898-2.721-1.461-5.853c0.437-3.128,0.681-3.174,2.335-3.495c1.658-0.315,2.531,1.953,2.731,2.178
	c0.196,0.231-0.148-0.771-0.733-2.537c-0.581-1.77-1.121-2.358-1.314-4.581c-0.196-2.223-0.88-4.086-1.754-4.719
	c-0.877-0.633-0.437-1.68-0.048-2.541c0.389-0.861,0.536-2.178,0.344-3.675c-0.199-1.497-0.639-3.585-0.877-4.401
	c-0.247-0.816-1.221,0.498-1.221,0.498L779.594,169.503z M778.132,204.252c0.096,0.996,0.196,1.901-0.485,3.036
	c-0.684,1.134-0.196,1.407-0.585,2.994c-0.389,1.587-2.29,0-2.29,0.321c0,0.315-0.292,1.452-0.781,1.856
	c-0.485,0.408-2.146,0.501-1.658,2.088c0.488,1.587,1.368,3.264,1.368,3.264s0.973-0.906,1.262-0.996
	c0.295-0.09,1.073-0.315,1.073-0.315s-0.144-0.456-1.217-0.954c-1.073-0.498-0.977-1.545-0.828-1.86c0.148-0.321,1.509,0.09,2.386,0
	c0.877-0.09,1.609-0.546,2.682,0.315c1.07,0.861,2.631,1.182,2.631,1.182s0.193-1.272,0.678-2.178
	c0.489-0.906,1.902-0.501,3.315-0.906c1.413-0.411,2.483-0.636,1.998-1.227c-0.488-0.591-0.44-1.905-0.736-2.904
	c-0.289-0.999-1.217-0.045-1.947,0.318c-0.729,0.363-1.654,0.09-2.631-0.543c-0.973-0.636-2.727-3.039-3.36-3.992
	C779.009,203.751,778.033,203.252,778.132,204.252z M773.77,219.127c-0.462,0.228-1.057,1.429-0.948,2.756
	c0.109,1.327,1.24-0.103-0.222,3.98c-1.458,4.083-2.194,5.001-3.617,6.058c-1.423,1.053-2.737,1.053-3.286,0.781
	c-0.549-0.27,0.148-1.192,0.549-1.465c0.401-0.27-1.246-0.373-1.937-0.27c-0.694,0.103-0.039,0.886-0.113,1.529
	c-0.071,0.649-1.423,2.383-1.275,3.167c0.145,0.781,0.145,1.022-0.732,1.291c-0.88,0.273-1.458-0.649-1.715-0.784
	c-0.257-0.135-1.571,0.241-3.289,0.475c-1.719,0.238-2.152,0.816-2.885,2.078c-0.732,1.259-2.451,1.461-3.691,1.937
	c-1.243,0.476-0.768,2.248-2.12,2.859c-1.352,0.61-1.352,1.734-1.461,2.653c-0.106,0.919,0.839,0.273,0.986,0.206
	c0.148-0.071,0.148-1.294,0.989-1.156c0.839,0.135,0.948,0.167,0.508,1.121c-0.44,0.954-0.691,1.429-1.128,2.245
	c-0.44,0.816,0.145,1.192,0.8,2.011c0.659,0.813,1.281-0.241,2.666-1.702c1.391-1.465,1.5-1.805,1.391-3.472
	c-0.112-1.667-0.662-1.703-1.68-2.175c-1.025-0.479-1.246,0-0.113-1.298c1.131-1.291,1.645-0.032,2.412-0.61
	c0.768-0.578,2.631-0.546,4.42-0.986c1.789-0.443,3.511-1.018,3.582-0.443c0.07,0.582,0.623,2.518,0.69,2.927
	c0.074,0.411,1.25-0.578,2.448-1.022c1.208-0.443,0.077-0.642-0.036-1.426c-0.109-0.784,0.549-1.227,0.549-1.227
	s0.623,1.294,2.557,0.375c1.937-0.919,2.084-1.294,2.595-1.159c0.511,0.138,0.842,0.649,1.641,0.138
	c0.806-0.511,0.954-0.036,0.806,0.375c-0.145,0.405,2.338-0.784,2.884-1.156c0.549-0.376,0.257-0.036,0.036-1.465
	c-0.216-1.426-0.912-1.529-0.508-3.367c0.401-1.837,0.292-2.011,0.401-3.167c0.106-1.156,0.546-1.323,0.838-1.394
	c0.296-0.064,0.296-1.6,0.912-2.412c0.623-0.819,0.475-1.192,0.475-3.064c0-1.869-1.025-1.532-1.092-2.856
	c-0.074-1.33,0.25-2.621,0.25-2.621s-2.081,0.784-2.297,1.259c-0.225,0.476-0.225,0.476-0.225,0.476S774.467,218.787,773.77,219.127
	z M760.135,239.572c-2.156,0.36-3.681,0.591-4.96,0.999c-1.282,0.411-1.555,0.973-1.355,2.252c0.199,1.282,0.703,2.56,0.877,3.225
	c0.177,0.665,0.877,0,2.081-0.639c1.201-0.642,1.127-2.509,2.28-2.509s0.726,1.333,2.278-0.536c1.555-1.869,0.376-2.024,0.424-2.968
	C761.811,238.448,760.135,239.572,760.135,239.572z M896.645,138.817c-2.309-0.45-2.977-0.951-3.189-0.116
	c-0.222,0.842-0.466,1.115,0.996,1.635c1.465,0.523,2.191-0.386,3.559,0.636c1.362,1.018,1.75,0.973,2.798,0.839
	c1.047-0.135,1.461-0.658,1.461-0.658S898.398,139.157,896.645,138.817z M870.26,102.471c-0.848,0.237-1.538-0.578-1.317,1.497
	c0.215,2.072,0.69,2.313,3.357,1.937c2.669-0.373,0.659-0.1,4.314-0.373c3.652-0.27,4.417-0.784,4.417-0.784
	s-0.511-1.021-1.751-1.972c-1.243-0.951-2.888,0.649-5.702,0.17C870.768,102.471,870.26,102.471,870.26,102.471z M787.949,71.818
	c0.036,0.797,3.652,3.026,4.966,3.675c1.317,0.649,2.336,0.373,5.117,0.067c2.778-0.305,2.997-1.494,3.321-2.175
	c0.328-0.681-1.314-0.443-3.173-0.816c-1.87-0.379-3.398,0.337-4.057,0c-0.659-0.34,0.986-0.681-0.659-1.294
	c-1.648-0.614-2.046,0.202-2.412-0.067c-0.363-0.276-0.437-0.855-1.24-0.919C789.009,70.218,787.91,71.073,787.949,71.818z
	 M773.626,76.478c-1.259,0.504-1.169,0.954,0.254,2.143c1.426,1.192,0.954,0.919,0.331,1.77c-0.617,0.851,0-0.036,2.046,0.883
	c2.046,0.919,2.888,2.589,4.166,2.961c1.279,0.373,2.156-0.103,2.156-0.103s-0.44-1.362-1.645-2.994
	c-1.205-1.632-3.803-2.107-4.279-3.537C776.183,76.173,775.415,75.762,773.626,76.478z M786.667,69.813c0,0-1.86-1.124-4.677-2.894
	c-2.811-1.77-3.871-2.245-4.821-2.38c-0.954-0.135-0.8,0.989-1.169,1.869c-0.363,0.886-0.62,0.713-2.085,0
	c-1.458-0.713-2.923-1.802-4.416-2.146c-1.5-0.337-2.409,0.887-4.128,2.589c-1.715,1.7-0.729,2.178,1.352,4.693
	c2.081,2.522,2.997,2.656,4.674,1.667c1.683-0.983,1.205-1.632,2.412-1.156c1.208,0.475,5.371-0.476,5.518-0.476
	c0.145,0-0.257,2.313,1.571,1.703c1.821-0.61,3.504-0.919,4.346-1.837C786.079,70.526,786.667,69.813,786.667,69.813z
	 M660.153,21.22c-0.533,0.45-3.652,0.18-5.261,2.717c-1.606,2.544-2.724,0.774-3.556,2.316c-0.822,1.542-1.51,3.402-1.51,3.402
	s1.465,1.725,3.023,1.59c1.558-0.138,4.285,0.543,5.795,2.631c1.51,2.084,2.631,2.084,6.283,2.672
	c3.655,0.591,1.995,1.092,3.9,0.912c1.898-0.186,4.526,0.225,3.944-0.729c-0.584-0.954-1.025-1.542-0.777-3.402
	c0.241-1.86,1.943-1.77-0.051-2.994c-1.998-1.227-3.411-0.225-3.312-0.453c0.1-0.228,1.802-0.909,1.121-0.954
	c-0.684-0.045-4.044-0.225-4.433-2.13c-0.392-1.905,0.922-2.046,1.603-2.181c0.684-0.135,0.491-0.36-1.461-1.767
	c-1.947-1.407-4.574-2.859-4.574-2.859C659.668,20.629,660.69,20.764,660.153,21.22z M678.469,34.961
	c-1.413,0.273-2.582,1.68-3.408,2.904c-0.832,1.227-2.486,3.084-3.508,3.9c-1.025,0.816-0.732,1.047,0.925,1.638
	c1.657,0.585,4.577-1.047,5.406-1.092c0.829-0.045,1.462,1.227,4.092,0.906c2.631-0.315,6.623-0.816,4.677-2.223
	c-1.95-1.403-1.265-0.726-3.411-2.447c-2.142-1.722-4.87-1.86-4.87-1.86s4.433-1.497,3.363-1.587
	C680.66,35.006,678.469,34.961,678.469,34.961z M565.854,12.598c-2.55,0.915-1.657,1.362-3.315,2.679
	c-1.651,1.317-0.539,1.677,3.023,0.816c3.556-0.861,3.748-1.227,6.039-2.268C573.888,12.778,569.654,11.236,565.854,12.598z
	 M571.501,18.997c-2.393,1.06-1.754,2.178-1.118,3.084c0.633,0.906,2.383-0.546,2.869,0.456c0.488,0.996,0.636,0.584,2.878-0.912
	c2.239-1.497,1.414-1.041,0.539-2.628C575.792,17.41,575.597,17.182,571.501,18.997z M558.193,18.338
	c-1.532,0.729-1.532,0.646-0.077,1.327c1.465,0.681,5.008,1.224,6.832,0.032c1.828-1.188,1.686-0.951-0.62-1.291
	C562.028,18.066,559.905,17.519,558.193,18.338z M535.615,21.091c2.377-0.202,4.568-0.302,6.469-0.099
	c1.895,0.206,1.201,1.837-2.306,2.213c-3.508,0.372,0.331,0.919,2.814,0.816c2.483-0.103,0.877-2.146,2.962-2.859
	c2.078-0.713,3.395-0.273,5.878-1.156c2.483-0.887-1.423-1.735-4.311-1.667c-2.881,0.067-3.835,0.234-6.283,0.067
	c-2.448-0.17-4.423,0.931-6.942,1.362C528.709,20.652,533.241,21.297,535.615,21.091z M554.242,21.74
	c-2.088,0-7.122,1.157-2.885,1.564c4.24,0.408,3.913,0.681,5.663,0.035C558.778,22.691,556.439,21.74,554.242,21.74z
	 M569.008,22.627c-2.974-0.983-3.039-0.581-5.338-0.478c-2.3,0.1-3.212,1.532-1.712,2.143c1.494,0.613,2.515,0.372,3.758,0.173
	c1.24-0.206,1.169-0.578,0.366-0.886C565.276,23.272,570.759,23.205,569.008,22.627z M581.5,18.952
	c-2.281,0.283-2.412,0.681-2.631,1.426c-0.222,0.749,0.328,0.578,2.74,0.273c2.412-0.305,3.543-0.646,5.114-1.497
	c1.57-0.851-0.328-2.926-0.328-3.302c0-0.373-2.226,1.127-2.849,1.667C582.923,18.066,584.199,18.611,581.5,18.952z M402.59,149.449
	c-1.15,3.173-3.045,4.638-0.803,3.758c2.239-0.88,4.481-3.611,4.368-1.269c-0.116,2.342-2.3,2.001-1.612,4.295
	c0.69,2.297,0.173,2.1,3.909,2.929c3.739,0.832,0.687,0.54,1.609,2.737c0.915,2.197,1.548,2.878,0.572,3.514
	c-0.976,0.633-3.848-2.001-4.018-0.88c-0.173,1.121,0.398,1.953,1.089,3.514c0.691,1.561-0.459,2.441-2.64,3.466
	c-2.188,1.028-0.289,1.661,1.378,1.564c1.667-0.096,5.859-0.88,5.168,0.584c-0.684,1.465-2.698-0.244-4.131,2.197
	c-1.442,2.441-6.729,4.539-3.97,4.394c2.759-0.148,2.358-0.88,10.578-2.049c8.217-1.173,2.522-0.1,7.924-1.76
	c5.403-1.658,3.678-2.101,0.691-1.609c-2.991,0.488,1.956-2.933,1.265-6.1c-0.69-3.177-2.64-0.148-3.909-2.152
	c-1.265-2.001-1.092-2.586,1.323-1.857c2.412,0.733,2.184-0.485-2.473-3.462c-4.654-2.978-1.78-2.393-3.906-4.883
	c-2.123-2.493-5.743-2.197-5.743-2.197s1.548-0.925,2.467-2.733c0.919-1.805,1.092-1.661,2.069-3.855
	c0.98-2.197-0.977-2.001-3.443-1.468c-2.474,0.536-3.28,0.784-2.759-0.193c0.517-0.977,0.861-1.365,2.011-2.589
	c1.15-1.221,1.375-1.853-0.748-1.365c-2.127,0.485-2.447,0.44-4.25,1.269C401.844,144.518,403.74,146.275,402.59,149.449z
	 M396.786,156.917c-3.755,1.481-2.699,2.444-2.066,2.978c0.633,0.539,1.779-0.489-1.725,1.516c-3.508,2.001-3.562,4.195-1.725,4.635
	c1.844,0.44,1.609-1.073-0.341,2.589c-1.959,3.659-3.276,6.151,0.691,5.223c3.961-0.928,5.053-2.978,6.948-3.222
	c1.895-0.244,2.242-1.757,2.242-4.054c0-2.294-1.263-2.342,0.231-4.247c1.49-1.901,1.606-3.906-1.327-4.831
	C396.786,156.574,399.143,155.989,396.786,156.917z M443.978,208.151c-0.202,0.514,0.247,1.905-1.269,2.855
	c-1.51,0.954,0.732,1.818,1.217,2.724c0.491,0.906,1.121-3.084,0.973-4.992C444.759,206.837,444.611,206.516,443.978,208.151z
	 M443.249,215.68c-2.477,1.173-2.628,2.04-2.926,3.903c-0.292,1.857,2.001,0.36,1.413,1.992c-0.585,1.635-0.045,2.496,2.534,0.957
	c2.58-1.545,1.121-2.949,1.51-4.902C446.172,215.68,446.513,214.139,443.249,215.68z M481.435,235.727
	c-2.178-0.212-3.142,1.157,0.584,1.568c3.726,0.408,5.406,0.475,6.797,0.135c1.385-0.34,0.216-0.067-1.612-1.291
	C485.38,234.912,484.211,236.001,481.435,235.727z M502.183,236.884c-3-0.646-2.187,2.997,0.88,2.454
	c3.068-0.546,1.898,0.202,3.289-2.043C507.736,235.05,505.327,237.565,502.183,236.884z M427.561,219.988
	c-2.438,0.311-2.628,1.137-0.729,1.635c1.898,0.497,1.654-0.09,2.727-0.864C430.632,219.988,428.637,219.853,427.561,219.988z
	 M279.991,175.58c-1.497,1.189-3.215,2.927-5.335,6.736c-2.117,3.81-1.895,3.405-3.944,5.512c-2.046,2.11-1.022,1.632,5.335,2.859
	c6.357,1.224,5.843,2.178,7.308,1.77c1.458-0.408,1.754,0.812,1.754,2.11c0,1.292,1.384,0.539,2.043-1.497
	c0.659-2.043-0.658-5.718-1.969-7.825c-1.317-2.114-1.613-2.114-3.656-1.568c-2.043,0.546-1.391-0.475-2.117-2.107
	c-0.733-1.635-1.905-0.341-0.148-2.791C281.016,176.328,281.453,174.427,279.991,175.58z M85.518,171.227
	c0,2.024,2.139,5.486,3.749,6.623c1.606,1.131,1.269,0.501,0.536-1.908c-0.733-2.403-0.145-2.403-0.489-3.945
	C88.975,170.457,85.518,170.502,85.518,171.227z M96.186,182.296c0.421,0.437,1.703,2.268,3.941,3.764
	c2.242,1.497,2.827,1.677,5.165,2.358c2.339,0.681,3.36-0.228,1.85-1.587c-1.509-1.362-0.244-1.227-2.971-1.863
	c-2.73-0.63-3.308-0.405-4.677-1.269C98.133,182.842,95.258,181.343,96.186,182.296z M36.793,159.728
	c-1.757-0.398-2.447-0.476-3.655,0.475c-1.205,0.951-1.532,1.77-0.874,2.827c0.658,1.054,0.254,0.475,1.786-0.578
	c1.539-1.057,0.81-1.192,2.743-1.67c1.94-0.475,1.536-1.124,1.536-1.124S37.856,159.966,36.793,159.728z M36.173,157.383
	c-1.182,0.71-1.574,1.291-0.257,1.018c1.317-0.273,1.131-1.018,1.972-0.851c0.845,0.167,1.134-0.167,1.134-0.167
	S37.416,156.631,36.173,157.383z M2.452,151.971c-1.606,0.784-3.129-0.135-2.136,0.459c0.986,0.598,2.339,1.156,3.395,1.038
	c1.06-0.119,1.757-0.135,1.372-0.646c-0.386-0.511-0.488-0.642-0.511-1.173C4.533,150.933,4.061,151.19,2.452,151.971z
	 M541.692,373.67c-1.853,4.086-5.753,2.088-8.869,5.082c-3.116,2.994-2.631,2.088-0.292,6.261c2.338,4.172-1.943,3.72-3.023,8.618
	c-1.07,4.899,1.269,3.993,2.534,8.165c1.272,4.169,1.854,2.904,4.192,2.358c2.335-0.543,3.992-1.632,3.992-1.632
	s0.395-3.63,1.947-8.981c1.561-5.352,2.631-9.254,2.923-12.791c0.295-3.54,0.584-6.078,1.368-4.992
	c0.777,1.089,0.874,1.089,0.874-0.636c0-1.722-0.934-6.572-2.435-7.709C542.27,365.415,543.539,369.591,541.692,373.67z
	 M544.422,94.611c-2.553,0.584-3.764,2.145-1.905,2.756c1.863,0.61,1.68,0.276,4.751-0.816
	C550.339,95.462,546.938,94.033,544.422,94.611z M592.152,48.253c-0.871-1.362-1.651,0.456-10.613,4.356
	c-8.968,3.899-8.869,0.543-17.246,7.166c-8.38,6.624-6.527,5.804-7.015,9.8c-0.491,3.99-2.435,2.265-3.215,5.894
	c-0.777,3.627-5.063,3.813-2.923,6.806c2.146,2.994,4.966,4.716,9.447,5.988c4.484,1.269,5.75-0.09,4.78-0.546
	c-0.977-0.456-4.385-5.808-3.704-11.885c0.681-6.077,2.923-5.171,4.873-7.439c1.947-2.268,7.012-8.165,10.327-10.163
	c3.219-1.94,11.789-4.651,16.106-6.136c0.122-0.045,0.276-0.035,0.356-0.122C596.732,48.163,593.032,49.615,592.152,48.253z
	 M567.996,89.032c-1.06,0.151-1.558,0.183,0.392,2.088c1.946,1.905,3.652,3.357,3.016,0.816
	C570.769,89.395,568.97,88.897,567.996,89.032z M599.996,70.571c-1.423-0.665-2.187-1.362-2.531-0.273
	c-0.34,1.089,1.609,2.541,3.508,2.904C602.871,73.565,601.361,71.207,599.996,70.571z M264.622,184.744
	c-2.165-1.086-4.282-1.95-5.695-1.95c-1.41,0,0.292,1.494,2.531,2.721C263.703,186.739,265.89,185.38,264.622,184.744z
	 M259.463,193.863c0.116-1.799-1.198,2.065,0.411,2.926c1.609,0.861,2.441,1.086,3.463,0.042c1.021-1.044,0.189-0.386-1.221-0.633
	C260.706,195.948,259.366,195.36,259.463,193.863z M897.692,131.355c-2.631,0.273-4.603-0.479-4.603-0.479s-0.148,2.114-0.948,3.132
	c-0.81,1.018-0.225,2.11-0.225,2.11s-2.628-1.156-4.16-1.702c-1.535-0.546-2.923-0.067-3.803-2.383
	c-0.877-2.313-3.504-1.902-5.55-1.902c-2.046,0-1.458-2.653-1.458-2.653s0,0-1.243,0.064c-1.246,0.071-1.025,3.064-2.631,4.015
	c-1.612,0.951-6.652,1.568-6.652,1.568s3.215,2.313,3.877,4.217c0.652,1.905,1.898,3.742,1.898,3.742s-0.295,0.886-4.169,0.135
	c-3.874-0.745-3.649,0.752-7.815,2.448c-4.166,1.702-8.914,4.292-10.083,5.242c-1.172,0.951-1.243,0.408-4.895-0.475
	c-3.652-0.886-4.382,1.018-5.336,1.497c-0.947,0.475-0.581-2.178-0.581-2.178s-1.317,0-2.926,0.816
	c-16.655,8.461-5.168,8.014-5.695,9.726c0,0.007-1.757,6.601-1.757,6.604c-2.448,7.292-4.144,3.472-6.209,9.251
	c-6.576,18.37-10.378-2.833-10.378-7.687c0-2.997-0.655-6.871,1.246-7.757c16.347-7.613,1.532-1.057,16.877-11.567
	c4.972-3.402,2.264-5.445,3.36-6.395c1.099-0.951,2.852-1.227,2.852-1.227s0,0-2.704-0.27c-2.705-0.27-2.779,0.34-4.899,2.653
	c-2.117,2.313-3.797,2.724-3.36,0.95c0.44-1.767,0.511-3.604-1.092-2.65c-1.606,0.951-2.268,0.812-5.261,1.429
	c-3,0.611-6.209,2.037-8.914,5.442c-2.704,3.405-1.169,2.994-0.292,3.81c0.874,0.816-4.314,0.61-6.794,0.411
	c-2.489-0.206-1.175-0.681,0.289-1.159c1.462-0.478-2.194-0.883-5.409-1.564c-3.212-0.681-1.972,0.546-3.867,1.292
	c-1.902,0.752-1.828-0.678-2.778-0.883c-0.951-0.202-5.188-0.475-8.181-0.819c-2.997-0.337-2.779,0.206-3.582,1.227
	c-0.806,1.022-6.357,5.923-8.769,8.712c-2.412,2.788-5.406,3.402-8.111,5.987c-2.701,2.583-3.141,2.447-0.951,2.859
	c2.191,0.405,2.486,0.2,2.849,2.242c0.37,2.043,1.391,2.72,3.729,2.72c2.336,0,1.68,0.614,2.117-1.156
	c0.44-1.77-0.585-3.807,1.391-2.245c1.969,1.568,3.578,2.724,4.163,4.969c0.588,2.245-0.148,3.877-1.169,7.622
	c-1.025,3.739-1.388,9.116-2.779,11.837c-1.387,2.721-2.483,4.764-4.018,7.757c-1.533,2.994-8.988,10.546-10.664,11.227
	c-1.683,0.678-2.775,0.748-3.582-0.749c-0.803-1.497-1.388-1.227-3.289,0.476c-1.895,1.703-2.775,2.724-3.504,5.441
	c-0.733,2.724-2.342,2.724-4.022,4.764c-1.677,2.04-2.117,1.568-0.877,3.88c1.243,2.313,3.286,4.764,3.508,7.006
	c0.218,2.249-1.025,5.512-1.825,6.945c-0.806,1.426-4.603,2.107-4.532,1.426c0.077-0.681,0.145-4.083,0-6.055
	c-0.148-1.972-1.609-1.972-1.099-2.586c0.517-0.61,2.634-1.632,1.099-3.064c-1.535-1.426-2.631-0.202-3.286-1.902
	c-0.658-1.703,0.292-3.064-0.071-3.675c-0.369-0.613-1.465-1.291-3.729-1.497c-2.265-0.206-2.778,2.04-3.292,0.064
	c-0.508-1.973,0.225-2.175-0.8-2.991c-1.025-0.816-1.901-0.273-4.526,1.972c-2.634,2.245-3.148,1.77-5.339,2.72
	c-2.191,0.958-2.191,1.497-1.68,2.249c0.514,0.749,2.338,4.012,3.871,4.353c1.535,0.344,2.633-0.681,4.969-0.681
	c2.345,0,2.778,0.341,2.194,1.224c-0.588,0.886-2.194,1.773-5.04,4.628c-2.849,2.859-1.979,2.316-1.025,3.472
	c0.951,1.157,2.338,2.583,3.36,4.831c1.025,2.242,0,3.058-0.145,4.349c-0.148,1.298-0.366,3.27,1.535,5.313
	c1.898,2.036,0.581,1.358,0.363,2.107c-0.215,0.748-3.433,6.597-4.895,9.527c-1.465,2.923-1.465,3.196-6.209,6.53
	c-4.751,3.334-6.871,3.675-9.428,4.147c-2.557,0.479-4.748,1.227-6.065,1.773c-1.314,0.546-0.806,1.632-0.944,2.313
	c-0.154,0.681-1.391,0.068-1.175-0.954c0.222-1.018,0.077-1.77-0.582-2.039c-0.659-0.273-2.705-1.092-4.821,0.95
	c-2.12,2.043-4.68,2.178-5.557,4.767c-0.874,2.582-0.726,1.702,0.225,2.788c0.944,1.086,5.55,5.512,6.646,7.889
	c1.095,2.383,1.317,4.156,1.391,6.739c0.07,2.586-5.265,7.35-7.6,8.914c-2.338,1.564-2.853,3.061-2.486,0.61
	c0.363-2.447-1.022-3.877-2.701-5.714c-1.68-1.837-6.794-3.334-7.748-3.54c-0.947-0.202,0.366-1.696-0.295-1.632
	c-0.652,0.071-2.188-0.341-1.969,2.043c0.215,2.383-1.532,1.632-1.898,4.015c-0.366,2.38-0.806,4.828,0.729,4.626
	c1.533-0.206,1.243,2.11,2.412,4.696c1.169,2.583,0.726,1.156,3.652,3.536c2.926,2.38,2.191,1.972,2.853,4.356
	c0.652,2.38,0.437,3.742,1.901,5.92c1.455,2.178,1.532,2.653-0.88,1.426c-2.412-1.221-4.381-2.72-5.335-4.217
	c-0.951-1.497-1.529-5.31-2.117-7.211c-0.588-1.905-4.529-4.15-5.843-5.512c-1.317-1.362-0.514-2.448,0.145-5.58
	c0.655-3.132-0.292-6.125-0.514-8.027c-0.215-1.908-1.75-7.247-2.486-9.052c-0.729-1.802-0.437-1.564-1.571,0
	c-1.131,1.567-2.004,2.518-3.103,2.518c-1.095,0-2.701-0.17-2.557-0.886c0.148-0.713,1.243-3.434,0.916-4.455
	c-0.334-1.018-1.356-4.289-2.888-5.444c-1.535-1.157-3.292-2.756-4.275-5.441c-0.986-2.685-1.243-1.905-3.142-0.511
	c-1.902,1.394-6.251,1.564-8.332,1.735c-2.081,0.17-0.363,1.192-0.874,2.213c-0.514,1.022-2.958,2.345-7.889,7.484
	c-4.934,5.136-5.676,5.306-6.954,5.853c-1.282,0.54-2.075,0.373-2.033,2.48c0.035,2.11,0.228,3.257-0.016,5.139
	c-0.241,1.882-0.803,2.653-1.343,3.855c-0.53,1.201-1.111,3.379-1.285,4.516c-0.17,1.131-1.269,2.448-2.875,3.604
	c-1.606,1.156-1.606,0.951-2.338-0.748c-0.729-1.699-4.529-8.233-7.597-14.355c-3.071-6.122-2.338-7.214-2.634-8.984
	c-0.292-1.77-0.35-12.389-0.218-13.199c0.077-0.453-1.484,1.246-1.924,2.107c-0.44,0.864-0.414,1.908-2.165,2.065
	c-1.754,0.161-2.12,0.183-3.775-1.474c-1.657-1.654-2.416-2.583-2.126-2.538c0.296,0.045,2.194-0.183,3.296-0.726
	c1.092-0.546,0.726-1.137,0.726-1.137s-1.189,0.135-2.605,0.206c-1.417,0.067-0.781-0.318-2.653-1.066
	c-1.876-0.748-2.293-0.816-2.608-1.654c-0.318-0.838-0.778-2.02-1.047-2.657c-0.266-0.633-0.485-0.681-0.8-1.471
	c-0.318-0.793-1.217,0.135-3.241,0.18c-2.024,0.045-1.561,0.135-3.996,1.089c-2.435,0.951-2.801,0.614-5.554,0.524
	c-2.753-0.09-4.674-1.272-6.065-1.747c-1.387-0.476-1.606-0.273-3.652-0.569c-2.046-0.292-1.606-1.336-2.12-2.2
	c-0.508-0.861-1.362-1.067-4.044-0.861c-2.672,0.203-2.775,0.071-4.282-0.34c-1.51-0.405-1.635-0.951-2.9-2.223
	c-1.266-1.272-0.851-0.27-1.68-0.931c-0.829-0.655-1.654-1.561-2.313-3.331c-0.659-1.77-0.511-2.155-1.269-2.971
	c-0.758-0.816-0.703-0.613-3.07-0.613c-2.361,0-1.285,0.158-1.581,0.318c-0.292,0.16-1.022,1.201-1.68,2.017
	c-0.655,0.816,0.534,1.953,1.484,3.064c0.951,1.111,0.122,0.996,1.635,2.676c1.51,1.68,0.996,1.519,2.069,3.855
	c1.07,2.335,1.754,2.926,1.995,3.63c0.247,0.703,0.466-0.273,0.71-0.909c0.244-0.636-0.096-2.904-0.096-2.904
	s0.462,0.954,0.874,2.634c0.414,1.676,0.122,1.699,0.414,2.769c0.295,1.066,0,0.925,1.828,0.925c1.828,0,2.945,0.071,4.969-0.405
	c2.024-0.476,2.894-2.313,3.845-2.859c0.954-0.546,0.954-2.451,1.584-2.245c0.63,0.202,0.029,2.245,0.61,3.582
	c0.585,1.339,0.729,0.861,2.146,1.452c1.407,0.591,1.799,0.932,3.235,1.474c1.439,0.543,0.463,0.614,1.243,2.043
	c0.777,1.43,0.732,0.633,1.487,1.134c0.758,0.498,0.463,0.135-0.074,1.837c-0.533,1.702-0.633,1.722-1.898,3.106
	c-1.269,1.384-1.269,0.954-1.461,0.909c-0.193-0.045-0.585-1.021-0.585-1.021s-0.806,1.654-0.925,3.585
	c-0.122,1.928,0.633,1.221-1.683,2.152c-2.313,0.929-3.704,1.317-4.6,2.088c-0.899,0.771-0.899,1.792-1.413,2.29
	c-0.511,0.498-1.221,0.045-2.775,0.588c-1.558,0.546-1.124,0.431-2.438,1.433c-1.314,0.996-0.148,0.906-1.825,1.539
	c-1.683,0.636-4.725,2.11-6.26,2.271c-1.535,0.157-1.217,0.565-1.606,1.131c-0.392,0.569-0.418,0.861-2.364,1.157
	c-1.947,0.295-4.382,0.572-5.58,1.159c-1.195,0.588-2.945,1.905-4.211,1.654c-1.269-0.25-0.925-0.295-1.339-1.429
	c-0.414-1.134-0.633-1.95-0.829-3.81c-0.193-1.86-0.855-4.693-1.927-6.485c-1.07-1.792-1.047-1.908-2.213-3.791
	c-1.169-1.882-1.95-3.469-2.971-4.195c-1.021-0.726-1.532-0.771-2.024-1.314c-0.485-0.543-0.196-2.406-0.703-3.992
	c-0.511-1.587-0.855-3.129-1.609-4.015c-0.755-0.883-1.924-1.902-2.971-3.784c-1.044-1.886-1.118-2.091-2.624-4.992
	c-1.516-2.904-2.053-3.267-3.048-5.217c-0.999-1.953-0.344-1.568-0.707-2.724c-0.367-1.156-1.317,1.882-2.069,2.474
	c-0.755,0.591-1.144,0.295-1.754-1.43c-0.607-1.722-1.124-3.241-1.584-2.56c-0.466,0.678-0.828,1.359-0.199,3.2
	c0.636,1.831,0.932,1.445,1.757,3.193c0.829,1.747,3.09,6.128,4.015,7.94c0.925,1.812,0.562,0.928,1.417,3.675
	c0.855,2.743,1.336,3.084,2.48,4.214c1.15,1.137,0.954,0.546,1.465,2.406c0.514,1.86,0.318,4.038,0.392,5.175
	c0.071,1.131,0.703,1.722,2.069,2.856c1.365,1.134,0.681,0.726,1.314,1.927c0.636,1.202,1.266,2.904,1.635,4.083
	c0.363,1.179,0.803,1.998,1.873,2.518c1.073,0.52,1.365,0.591,2.438,0.977c1.07,0.385,0.7,0.655,1.433,1.587
	c0.732,0.932,2.146,1.632,3.026,3.109c0.874,1.471,0.289,1.041,0.237,2.47c-0.048,1.429-0.508,0.771,0.125,1.519
	c0.633,0.748,1.728,1.362,3.575,2.583c1.853,1.227,0.373,0.366,2.024,0.321c1.661-0.045,2.001-0.479,3.777-0.864
	c1.773-0.386,4.067-1.044,6.258-1.564c2.194-0.52,4.333-0.861,5.457-1.227c1.121-0.36,1.147,0.867,0.289,2.769
	c-0.854,1.905-1.263,3.492-1.995,5.036c-0.733,1.542-1.002,1.677-1.535,2.926c-0.536,1.246-4.144,6.347-4.892,7.96
	c-0.755,1.609-1.657,2.9-2.753,4.243c-1.099,1.336-4.533,3.762-6.138,5.056c-1.606,1.291-1.195,1.291-2.387,2.814
	c-1.195,1.516-4.821,5.737-5.801,7.234c-0.973,1.497-1.529,2.043-2.261,3.514c-0.729,1.474-2.798,3.559-2.923,4.625
	c-0.122,1.066-1.288,1.205-0.414,2.136c0.88,0.929,1.339,1.086,1.658,2.265c0.318,1.182-0.977,2.518-0.145,4.674
	c0.826,2.155,0.241,0.614,1.487,2.336c1.24,1.722,1.192,2.814,1.31,5.332c0.122,2.515,0.244,5.011-0.144,6.643
	c-0.389,1.632-0.925,2.698-1.484,4.176c-0.559,1.471-3.63,2.473-5.435,3.264c-1.799,0.797-1.725,0.476-2.557,1.475
	c-0.826,0.999-3.212,3.084-4.015,4.625c-0.809,1.545-1.413,1.384-1.095,2.361c0.315,0.977,0.992,2.245,1.825,4.06
	c0.825,1.811,0.244,1.676,0.048,3.244c-0.196,1.561-0.17,1.317-0.388,3.219c-0.225,1.908-2.461,1.95-5.017,2.949
	c-2.557,0.996-1.632,0.501-1.928,1.882c-0.289,1.384-0.116,4.105-0.219,5.737c-0.096,1.635-0.874,0.977-2.264,2.994
	c-1.391,2.017-1.947,2.974-3.434,5.4c-1.487,2.425-1.362,2.088-3.241,3.607c-1.872,1.516-3.36,1.902-4.185,3.649
	c-0.829,1.747-1.78,0.591-5.798,1.882c-4.018,1.294-1.095,0.661-4.918,1.089c-3.822,0.434-5.191,0.729-7.211,1.089
	c-2.024,0.366-1.757-0.109-2.997-1.471c-1.24-1.362-1.436-1.253-1.991-2.383c-0.565-1.134-0.148-1.407-0.321-3.45
	c-0.17-2.04-0.341-2.107-1.092-3.379c-0.758-1.265-0.71-1.471-1.536-3.492c-0.826-2.017-1.195-2.586-2.123-3.944
	c-0.922-1.362-1.192-0.928-2.043-1.815c-0.855-0.886-0.877-1.657-1.073-2.904c-0.193-1.246-0.488-4.195-0.899-7.304
	c-0.414-3.106-0.048-1.452-0.54-2.766c-0.482-1.314-1.069-2.904-1.898-4.648c-0.829-1.747-0.536-1.294-1.802-3.45
	c-1.265-2.155-1.147-1.857-1.95-3.739c-0.803-1.886-0.922-1.047-0.97-1.773c-0.051-0.726,0.411-2.04,0.463-3.309
	c0.045-1.272,0.462-2.743,0.774-4.696c0.321-1.95-0.434-1.927,0.392-3.267c0.825-1.339,1.68-2.56,2.22-4.083
	c0.536-1.516,0.459-1.587,0.459-3.514c0-1.927-0.196-1.767-0.777-3.379c-0.585-1.609-0.803-3.495-1.51-6.077
	c-0.707-2.586-0.684-2.493-0.784-3.495c-0.093-0.996-0.578-3.244-1.069-4.603c-0.485-1.359-0.729-0.816-1.799-1.699
	c-1.073-0.887-0.366-0.501-1.291-1.478c-0.925-0.976-0.755-1.291-1.658-2.358c-0.903-1.066-1.022-1.111-1.757-2.313
	c-0.726-1.201-0.334-0.475-0.238-2.496c0.093-2.017,0.678-5.875,1.047-8.098c0.363-2.223,0.44-2.107-0.414-3.039
	c-0.855-0.931-1.465-2.268-2.12-2.493c-0.659-0.228-2.242,0.225-4.555,0.18c-2.316-0.045-2.216-0.565-3.212-1.725
	c-1.002-1.153-2.319-2.766-2.782-3.196c-0.462-0.43-1.265-0.411-5.207-0.116c-3.948,0.296-1.561,0.366-4.195,0.774
	c-2.624,0.408-3.652,1.789-5.672,2.496c-2.02,0.7-2.605,0.52-6.161-0.183c-3.553-0.703-5.332,0.819-7.137,1.59
	c-1.802,0.771-2.679,0.405-3.993-0.501c-1.314-0.906-2.094-1.657-4.118-2.653c-2.017-0.999-1.558-1.542-3.552-2.518
	c-2.001-0.977-1.343-1.022-2.997-2.586c-1.657-1.564-1.776-3.151-2.923-4.786c-1.144-1.635-2.124-3.922-3.656-5.647
	c-1.532-1.725-3.042-5.194-3.797-6.235c-0.758-1.047-1.336-1.137-1.317-1.635c0.023-0.498,1.487-3.424,2.097-4.944
	c0.611-1.519,0.778-1.317,1.044-2.268c0.27-0.954-0.363-3.697-0.947-5.194c-0.588-1.5-1.243-4.651-1.702-6.125
	c-0.466-1.474,0.237-1.497,0.803-2.332c0.559-0.842,1.898-2.589,3.286-5.171c1.388-2.589,2.168-3.858,2.898-5.063
	c0.729-1.201,2.409-4.895,3.511-5.894c1.092-0.999,3.893-2.994,5.085-3.607c1.192-0.61,2.168-0.95,2.364-1.497
	c0.193-0.546,0.704-5.033,1.047-6.916c0.344-1.885-0.119-2.926,1.243-3.652c1.365-0.726,3.556-2.088,4.703-2.724
	c1.14-0.633,1.314-1.587,1.895-2.968c0.584-1.388,0.832-3.129,1.709-3.7c0.874-0.565,0.633,0.251,1.776,1.021
	c1.144,0.771,1.34,0.819,1.876,0.954c0.536,0.138,1.022-0.434,2.364-0.453c1.336-0.023,1.484,0.161,2.287,0.591
	c0.8,0.427,0.363,0.43,2.656-0.977c2.29-1.407,4.115-2.268,7.112-3.379c2.994-1.111,5.04-1.725,6.428-1.882
	c1.388-0.161,0.681,0.019,2.242,0.636c1.561,0.611,1.632,0.883,1.947,0.427c0.318-0.453,1.339-1.725,1.998-1.677
	c0.658,0.042,1.413,0.318,3.093,0.614c1.683,0.295,2.387,0.135,3.071-0.228c0.678-0.363,1.555-1.089,1.725-1.089
	c0.17,0,1.613,0.501,2.779,0.931c1.169,0.43,1.192,0.498,0.951,0.79c-0.244,0.296-0.584,0.613-1.143,1.882
	c-0.562,1.272-0.296,0.591,0.241,1.93c0.533,1.336,0.925,1.269,0.681,2.245c-0.247,0.977-1.339,1.883-2.142,2.833
	c-0.803,0.954-0.607,1.111,1.365,2.226c1.975,1.108,1.51,0.928,3.726,1.924c2.216,0.999,2.313,0.636,4.895,1.407
	c2.58,0.771,2.265,0.861,3.164,1.908c0.903,1.041,0.951,2.04,2.509,2.582c1.558,0.546,3.215,0.546,4.118,1.111
	c0.903,0.565,1.632,1.384,2.852,1.613c1.214,0.225,1.211,0.385,1.799-0.501c0.588-0.88,1.07-1.677,0.855-2.133
	c-0.222-0.453-0.88-1.156-0.735-1.587c0.148-0.43,1.172-2.152,1.487-2.672c0.321-0.524,1.124-0.662,3.048-0.752
	c1.924-0.09,3.26-0.363,3.578,0.771c0.315,1.137,0.244,0.614,1.728,1.227c1.488,0.61,1.635,0.61,2.875,1.089
	c1.243,0.472,0.61,1.153,1.243,1.108c0.633-0.045,1.657-0.135,2.823,0.206c1.169,0.341,3.312,1.362,5.576,1.452
	c2.268,0.09,3.142-0.591,3.485-0.752c0.341-0.154,1.947-2.127,2.9-0.768c0.948,1.359,2.188,1.385,4.574,1.246
	c2.39-0.135,2.412-0.498,2.949-1.111c0.536-0.613,1.972-2.926,2.438-4.513c0.46-1.587,1.725-5.056,2.066-6.623
	c0.344-1.564-0.023-2.788-0.145-3.717c-0.122-0.932,0.1-1.567,0.466-2.611c0.363-1.041-1.147-0.408-1.757-0.202
	c-0.607,0.202-0.777-0.318-1.336-0.479c-0.562-0.154-1.147-0.295-1.561,0.752c-0.414,1.041-0.222,1.564-2.461,1.452
	c-2.239-0.116-1.825-0.251-2.557-1.047c-0.729-0.79-1.972-0.996-2.975-1.292c-0.996-0.295-1.092-0.25-1.166,0.386
	c-0.074,0.636-0.096,1.066-0.825,1.317c-0.732,0.251-2.387-0.045-3.778-0.703c-1.388-0.658-1.802-0.973-3.167-2.316
	c-1.365-1.336-1.166-1.336-1.728-3.398c-0.559-2.065-0.559-3.835-0.315-4.445c0.238-0.614,0.633-0.793-0.414-0.476
	c-1.05,0.315-1.757,0.495-1.05-1.066c0.71-1.567,1.362-1.635,2.097-1.841c0.729-0.202,1.85-0.225,3.238-0.315
	c1.387-0.093,2.457-0.793,2.945-0.999c0.488-0.206,1.49-0.546,0.976-0.681c-0.514-0.135-2.046-0.295-1.779-0.726
	c0.267-0.431,0.44-0.408,1.266-0.498c0.832-0.093,2.12-0.138,3.219-0.202c1.092-0.071,1.75,0.135,2.12-0.524
	c0.363-0.659,0.822-1.635,1.677-2.155c0.855-0.52,1.78-0.25,4.022-0.341c2.239-0.09,1.895,0.453,2.628,0.976
	c0.732,0.52,1.217,0.27,2.171,0.453c0.948,0.183,0.363,0.748,1.092,1.044c0.732,0.295,2.072,0.591,3.7,1.111
	c1.635,0.52,0.562,0.295,2.557,0.295c1.998,0,1.928,0.019,3.511-0.25c1.58-0.273,2.242-0.861,3.36-1.658
	c1.121-0.79,0.34-2.518-0.071-3.854c-0.417-1.336-2.172-2.197-2.975-2.811c-0.803-0.613-2.531-2.567-3.456-3.357
	c-0.931-0.797-2.001-1.022-3.023-1.587c-1.022-0.572-2.849-1.5-3.019-2.249c-0.17-0.749,0.392-0.768,1.902-1.131
	c1.51-0.366,1.025-0.681,1.311-1.478c0.295-0.79,0.417-0.771,1.657-1.224c1.243-0.453-1.433-1.407-1.802-1.924
	c-0.363-0.527,0.829-0.366,2.072-0.662c1.24-0.296,1.343-0.883,1.51-1.407c0.173-0.521,0.119-0.771-1.339-0.745
	c-1.458,0.019-3.312,0.633-5.772,1.291c-2.461,0.655-1.336,0.681-2.823,1.837c-1.488,1.156-1.584,0.655-1.388,1.291
	c0.196,0.636,0.289,1.246,1.799,2.043c1.513,0.79,0.874,0.816,1.294,0.931c0.414,0.109,1.436,0.27,0.973,0.408
	c-0.462,0.132-0.88,0.858-1.561,0.858c-0.681,0-0.976,0.703-2.142,1.362c-1.169,0.659-1.683,0.748-2.531,0.886
	c-0.851,0.135-1.461-0.138-1.343-1.59c0.125-1.452-0.437-0.472-1.339-0.813c-0.899-0.344-1.243-0.729-1.243-0.729
	s0.903-0.318,1.805-0.883c0.906-0.565,1.314-0.906,1.754-2.017c0.437-1.111-0.977-0.501-1.998-0.636
	c-1.022-0.135-0.732-0.228-1.728-0.363c-0.996-0.135-1.388-0.928-1.388-0.928s0.46,0.18,1.314,0.09
	c0.851-0.09,0.662-0.318,0.973-0.546c0.318-0.225,0.566-0.43,0.318-0.43c-0.244,0-1.291,0.112-1.995,0.068
	c-0.71-0.045-1.124-0.158-2.146,0c-1.025,0.157-0.61,0.543-1.339,1.018c-0.733,0.479-0.755,0.636-1.144,1.343
	c-0.389,0.7-0.514,0.588-0.781,1.041c-0.266,0.456-0.244,1.587-0.244,2.361c0,0.768-0.196,1.018-0.658,1.654
	c-0.462,0.636-0.462,0.363-1.243,0.745c-0.777,0.389-0.267,0.662-0.363,1.433c-0.096,0.771-0.366,1.067-0.44,2.066
	c-0.07,0.996-0.463,1.041-1.069,1.744c-0.61,0.7-0.951,0.7-0.999,1.429c-0.051,0.726-0.17,1.044,0,2.448
	c0.17,1.407,0.559,1.044,1.658,2.473c1.092,1.43,1.68,0.886,1.288,1.609c-0.389,0.726-0.315,0.456-1.658,0.295
	c-1.339-0.161-1.554,0.045-2.528,0.977c-0.973,0.928-1.175,1.452-1.683,1.792c-0.511,0.337-0.34-0.681-0.533-1.159
	c-0.196-0.472-2.438-0.633-3.973-1.089c-1.535-0.453-1.95-0.726-2.339-0.726c-0.392,0-0.983-0.09-2.592,0.797
	c-1.606,0.883-1.243,1.394-1.131,2.55c0.109,1.157,1.385,1.394,1.021,4.115c-0.369,2.724,1.353,1.465,2.081,3.132
	c0.733,1.667,0.074,1.529-0.363,1.735c-0.44,0.206-0.877,1.632-1.208,2.994c-0.328,1.362,0.035,1.532-0.366,1.465
	c-0.402-0.067-0.874,0.238-1.641-0.886c-0.767-1.121-1.387-0.064-1.5-0.713c-0.106-0.649-1.06-1.734-0.694-3.231
	c0.363-1.5,0.95-1.635-0.366-2.416c-1.314-0.784-0.983-0.886-1.606-2.486c-0.62-1.6-0.768-1.901-1.969-3.366
	c-1.211-1.461-1.102-1.054-0.771-2.518c0.331-1.462,0.585-3.367-0.148-4.388c-0.729-1.022-3.758-3.842-6.247-5.172
	c-2.483-1.323-2.994-0.305-4.092-2.415c-1.095-2.108-1.6-4.32-3.431-5.615c-1.825-1.291-0.912-1.394-2.666-0.745
	c-1.757,0.646-1.792,0.919-1.645,1.426c0.148,0.511,0.546,1.195,0.289,2.589c-0.257,1.391-0.62,0.951,1.208,2.036
	c1.828,1.092,1.06,0.854,1.972,2.859c0.916,2.008,1.06,2.384,1.793,3.2c0.732,0.816,0.986,1.529,2.814,1.94
	c1.825,0.408,1.532-0.103,2.004,0.341c0.479,0.44-1.278,0.61-0.948,0.816c0.328,0.206,0.733,0.784,2.265,1.735
	c1.536,0.951,3.109,1.94,3.511,2.688c0.401,0.749,1.75,3.569-0.222,1.494c-1.975-2.075-2.008-1.118-2.557,0.308
	c-0.549,1.429,0.508,2.518,0.44,3.572c-0.074,1.053-0.989,0.649-1.612,1.497c-0.62,0.851-0.948,1.87-1.68,2.416
	c-0.729,0.546-0.511-0.611-0.909-0.611c-0.405,0-0.549,0.508-1.06,1.494c-0.514,0.986,0,1.397,0.216,2.724
	c0.218,1.327,0.588,1.429-0.839,1.362c-1.423-0.067-1.099-1.397-2.409-2.281c-1.317-0.883-2.082-0.578-3.18-1.262
	c-1.096-0.675,0.475-0.848,3.215-1.189c2.74-0.34,3.068-0.61,3.909-1.256c0.838-0.649,0.546-0.819,1.461-2.111
	c0.913-1.291,0-1.805-0.623-3.373c-0.62-1.561-1.789-2.274-2.191-2.582c-0.404-0.305-1.317-1.224-2.117-2.108
	c-0.806-0.886-1.648-1.021-3.036-1.362c-1.387-0.34-1.131-1.6-1.898-1.972c-0.768-0.373-1.535-1.465-3.289-3.096
	c-1.75-1.632-1.092-2.859-1.898-4.285c-0.803-1.433-1.606-2.518-3.363-2.518c-1.751,0-3.067,1.224-4.821,2.923
	c-1.754,1.702-1.388,2.518-3.434,1.227c-2.046-1.294-2.772-1.156-4.24,0.067c-1.455,1.224-1.751,2.451-1.751,4.899
	c0,2.447-1.754,1.429-3.142,2.107c-1.387,0.681-2.631,2.383-4.747,6.398c-2.12,4.015,0.144,2.107-0.296,3.469
	c-0.44,1.362,0.148,2.451-1.824,4.217c-1.975,1.77-1.099-0.202-2.265,1.227c-1.169,1.429-2.782,2.586-5.554,2.245
	c-2.778-0.34-1.975,0.748-3.729,1.156c-1.75,0.408-2.701,1.021-2.265-0.954c0.44-1.975,0.074-1.699-3.286-1.564
	c-3.363,0.135-4.532,1.022-4.24,0.546c0.296-0.479,0.44-1.294,0.81-3.199c0.366-1.905,0.874-2.518,0.366-2.518
	c-0.514,0-1.613,0.276-0.806-3.129c0.806-3.405,1.095-4.015,0.729-5.987c-0.366-1.972,0.142-4.629-0.289-5.785
	c-0.44-1.153,0.874-2.31,0.289-2.927c-0.584-0.61-1.243-1.426-0.803-1.426c0.437,0,2.261,0.067,4.603,0.475
	c2.342,0.408,4.748-0.34,6.138-0.206c1.384,0.138,4.311,0.748,7.231,1.227c2.923,0.476,2.849-0.411,2.56-4.696
	c-0.296-4.285,0.218-6.257-0.662-7.144c-0.877-0.886-1.821-0.816-2.772-1.972c-0.954-1.157-0.222-2.859-2.264-3.472
	c-2.046-0.614-4.317-0.135-3.216-0.543c1.092-0.411,1.532-0.546,0.366-1.429c-1.175-0.883-1.468-1.834-0.588-1.975
	c0.877-0.135,3.36-0.135,3.36-0.135s0.222,1.227,1.539,0.681c1.314-0.546,2.994-1.086,2.631-1.972
	c-0.37-0.887-1.025-1.973-0.809-1.973c0.222,0,0.735,1.224,3.508,1.224c2.778,0,2.557-0.408,2.342-1.564
	c-0.222-1.156,1.828-1.089,3.216-2.043c1.384-0.951-0.514-2.04-0.218-2.923c0.289-0.887,1.898-1.433,4.747-1.632
	c2.849-0.206,2.336-0.684,2.046-1.022c-0.292-0.34,0.074-1.773,0.289-3.607c0.225-1.84-0.216-2.451,1.246-3.334
	c1.461-0.883,1.021-0.543,4.018-0.819c2.994-0.27,1.166-0.951,1.677-1.086c0.517-0.138,4.092-1.022,4.751-1.298
	c0.658-0.27,0.588-0.199,0-1.497c-0.588-1.288-1.388-2.037-2.043-8.024c-0.658-5.987-0.514-5.987,3.138-7.077
	c3.655-1.089,2.852-0.748,2.557,2.586c-0.289,3.334-1.898,3.334-2.265,5.782c-0.366,2.447-0.07,3.944,1.462,6.533
	c1.539,2.586,1.391,1.291,4.677,1.291c3.289,0,2.557,0.816,4.748,1.564c2.194,0.748,1.461-1.359,3.585-2.11
	c2.117-0.745,1.676,0.478,6.646-0.27c1.895-0.286,2.541-0.353,2.688-0.366c-0.151,0.01-0.697,0.016-0.132-0.315
	c1.169-0.681,1.461-1.905,3.145-2.111c1.68-0.202,2.846,0.479,2.772-2.11c-0.071-2.582-1.021-2.175-0.729-4.15
	c0.295-1.972,0.363-1.086,0.511-2.653c0.148-1.564-0.215-1.837,1.902-2.38c2.12-0.543,0.658,1.905,3.212,2.448
	c2.557,0.546,2.194,0.954,2.634-1.018c0.437-1.972,1.828-4.561,0.582-4.423c-1.24,0.138-1.533-0.067-2.775-1.905
	c-1.243-1.837-1.969-2.246-1.166-2.246c0.8,0,3.504-0.748,7.375-0.613c3.871,0.135,4.972,0.475,5.187,0.067
	c0.222-0.408-0.655-0.812,0.658-1.632c1.317-0.816,5.628,0.408,4.969-0.34c-0.658-0.748-4.455-1.77-7.012-1.359
	c-2.557,0.405-8.769,1.157-9.72,1.086c-0.948-0.064-2.702-0.748-3.142-1.221c-0.437-0.478-1.828-0.819-1.828-3.064
	c0-2.248,0.806-3.129-0.51-5.306c-1.317-2.178,2.409-4.015,4.969-6.328c2.557-2.313,1.901-4.221,3.431-4.356
	c1.539-0.135,2.126-0.951,1.391-1.703c-0.729-0.745-3.434-3.334-4.751-3.604c-1.314-0.27-3.286-1.77-5.332,1.77
	c-2.043,3.537,0.144,3.877,0.514,5.714c0.366,1.837-2.853,3.199-5.264,4.898c-2.409,1.699-3.283,1.295-4.019,5.647
	c-0.729,4.356-1.462,4.494,1.243,5.987c2.701,1.5,3.215,2.245,1.975,3.536c-1.243,1.298-3.874,1.227-5.483,4.292
	c-1.606,3.058-0.947,4.555-1.606,5.917c-0.659,1.362-2.702,1.972-3.289,3.334c-0.581,1.362-0.581,3.944-3.067,3.54
	c-2.483-0.411-1.095-3.746-2.194-5.448c-1.095-1.696-1.972-3.128-3.286-5.236c-1.314-2.107-0.289-4.15-1.536-5.242
	c-1.24-1.086-1.535-3.264-1.535-3.264s0,0-0.437,1.021c-0.437,1.022-0.218,1.632-2.701,4.697c-2.486,3.061-6.212,3.264-8.04,2.515
	c-1.824-0.748-1.532-2.515-1.532-4.764c0-2.245-0.44-5.239-0.074-8.776c0.366-3.54,1.391-3.267,5.265-5.58
	c3.87-2.313,3.941-2.178,4.892-3.675c0.947-1.494,3.729-3.607,5.332-4.969c1.609-1.359,4.387-6.53,5.846-10.205
	c1.465-3.672,4.163-5.92,6.794-9.865c2.634-3.944,7.308-7.417,13.298-9.932c5.991-2.518,4.972-2.791,6.353-4.767
	c1.391-1.972,1.979-0.816,4.314-1.291c2.342-0.475,1.972,0-0.366,2.313c-2.335,2.313-3.357,4.764-1.387,2.927
	c1.975-1.837,3.504-4.015,6.575-3.877c3.071,0.135,1.828,0,4.825,1.362c2.997,1.359,3.508,1.494,1.831,2.583
	c-1.69,1.089-4.536,0.819-4.536,0.819s0.951,2.245,3.726,2.586c2.778,0.341,4.311-2.178,6.138-1.227
	c1.828,0.951,2.339,1.632-0.148,1.429c-2.483-0.203-3.212,1.359-0.144,2.448c3.071,1.089,3.36,1.224,7.378,1.77
	c4.019,0.546,5.776,3.469,8.84,4.763c3.074,1.295,6.649,0.203,5.631,2.997c-1.025,2.788,0.8,5.509-4.532,6.803
	c-5.332,1.291-5.191-0.411-9.643-1.773c-4.459-1.359-7.597-2.721-7.597-2.721s1.166,1.568,3.212,3.472
	c2.043,1.901,2.264,3.671,2.043,7.144c-0.218,3.469-1.169,4.423,2.342,6.122c3.508,1.703,2.997,1.224,4.089,0.954
	c1.099-0.273,2.923-0.613,2.483-1.159c-0.437-0.543-0.803-1.561-1.972-2.107c-1.169-0.546-1.24-1.837-0.071-2.451
	c1.166-0.614,2.261,0.543,4.821,0.408c2.56-0.135,0-0.951,1.24-2.242c1.246-1.294,1.32-3.469,4.314-4.632
	c2.997-1.156,6.206,0.546,7.015-0.745c0.803-1.291,1.68-2.788,0-4.764c-1.683-1.975-2.997-2.65-1.975-3.607
	c1.021-0.951,3.07-3.469,4.021-2.04c0.948,1.43,3.36,2.997,0.292,2.721c-3.071-0.27-0.954,4.561,1.825,4.288
	c2.775-0.273,2.557-1.157,4.825-2.245c2.261-1.092,6.719-4.696,9.861-5.785c3.142-1.089,3.8-0.816,5.04-0.27
	c1.243,0.543,1.243,1.564,4.68,0.883c3.434-0.681,4.455-1.497,7.67-2.043c3.216-0.54-0.218,1.159,1.24,1.632
	c1.465,0.479,1.609,0.886,2.708,0.142c1.095-0.752,4.603-1.975,2.997-3.2c-1.612-1.227-2.782-2.043-2.782-2.043
	s1.169-2.582,4.24-2.38c3.067,0.202,7.741,3.061,10.741,5.104c2.994,2.04,6.649,6.392,6.649,6.392s1.311-2.242,0.215-5.987
	c-1.095-3.739-3.87-2.856-3.87-6.392c0-3.54-2.56-2.589-1.68-5.104c0.877-2.515,3.36-3.472,4.022-6.672
	c0.652-3.193,1.24-5.846,3.504-5.846c2.264,0,7.16,0.678,7.16,0.678s0,2.926-1.828,7.282c-1.825,4.353,0.951,4.831,0.514,10.138
	c-0.437,5.306-0.514,5.988,0.729,7.211c1.24,1.224,3.585,2.724,2.704,5.034c-0.877,2.316-1.317,3.745-4.603,5.037
	c-3.289,1.291-7.452,0.546-5.923,1.567c1.542,1.015,3.511,1.902,5.702,2.242c2.194,0.34,1.095-0.135,2.849-1.564
	c1.757-1.429,5.702-4.288,5.554-5.65c-0.144-1.356-2.265-3.469-0.803-4.49c1.461-1.018,2.043-2.583,4.311-1.291
	c2.268,1.291,4.459,6.126,4.459,5.92c0-0.202-0.44-4.764-3.142-7.481c-2.705-2.724-7.16-0.142-7.16-2.518
	c0-2.383,1.24-5.65,0.948-8.236c-0.295-2.583-1.31-5.172,0.366-7.414c1.68-2.249,1.754-4.016,1.754-4.016s0.729,2.107,0.144,4.761
	c-0.581,2.653,0.296,4.221,1.536,4.221c1.243,0,6.794,0.071,3.8-0.816c-2.994-0.887-3.871-1.703-0.877-3.334
	c2.997-1.632,2.849-0.546,7.23,0.475c4.388,1.022,5.406,1.77,6.871,1.703c1.461-0.067,1.243-0.206,0.729-1.497
	c-0.505-1.295-1.169-2.178-2.557-3.064c-1.391-0.884-2.335,0.206-2.775-1.157c-0.437-1.362-1.24-4.764-1.609-6.055
	c-0.366-1.294,1.099-0.273,3.434-0.273c2.339,0,8.695-0.341,13.594-0.475c4.892-0.135,0.074-5.239-0.296-8.847
	c-0.366-3.604,9.061-3.742,13.661-4.42c4.606-0.681,9.939-0.476,18.56-2.519c8.622-2.043,3.071-1.702,4.311-4.15
	c1.246-2.451,3.363-2.859,5.92-2.859c2.557,0,4.898,0.475,3.948,0.816c-0.951,0.341-3.8,1.767,0.655,2.724
	c4.458,0.95,3.292,0.88,0.951,1.699c-2.335,0.816-0.363,2.313,4.163,2.313c4.529,0,1.828-0.408,1.095-1.905
	c-0.726-1.497,0.662-0.954,4.388-0.341c3.723,0.61,5.188,1.227,7.234,3.128c2.043,1.908,2.409,1.433,3.138,4.086
	c0.736,2.653-0.071,2.242-3.212,4.693c-3.145,2.451-5.04,2.451-9.572,5.309c-4.533,2.856-3.437,4.353-5.917,6.258
	c-2.486,1.905-1.827,1.362,3.431,0c5.261-1.362,8.111-2.245,10.819-1.972c2.698,0.27,4.015,1.291,6.061,1.291
	s-0.145,0.341,6.286,0.341c6.427,0,5.473,0,3.138,1.837c-2.339,1.837,0.44,2.383,3.289,2.383c2.852,0,6.357,0.135,8.984-0.273
	c2.637-0.408,0.369-2.38,3.511-2.519c3.138-0.135,4.163-0.408,7.523-0.408c3.36,0,2.339,1.362,3.508,2.586
	c1.169,1.224,2.776,2.04,1.68,4.491c-1.092,2.451-1.68,2.515-1.025,5.849c0.662,3.334,2.342,3.81,4.388,4.423
	c2.043,0.614,2.043-2.991,4.019-4.217c1.972-1.224,2.412,2.447,4.677,1.905c2.268-0.543,4.822-0.273,6.794,0.337
	c1.972,0.617,3.652,0.957,6.431,0.344c2.775-0.613,1.898-1.699,0.951-3.401c-0.951-1.703-1.025-1.568,0.729-3.334
	c1.754-1.77,2.923-0.887,8.621,0.61c5.702,1.497,3.874,1.497,7.086,2.383c3.219,0.883,2.194,0.681,7.089,2.927
	c4.895,2.245,3.948,4.898,6.209,6.325c2.264,1.433,2.412,0,6.945-0.405c4.526-0.411,4.455,0.543,9.425,1.837
	c4.966,1.291,3.649,2.923,3.649,4.356c0,1.426-1.384,2.518,1.683,3.196c3.067,0.681,4.311,1.291,6.941,0.613
	c2.631-0.681,0.292,0.678,6.138,0.745c5.843,0.071,3.874-0.678,5.628,0.546c1.75,1.227,2.191,3.675,5.04,3.405
	c2.846-0.276,2.631-0.206,1.461-2.724c-1.169-2.518-1.901-2.929-0.218-2.859c1.677,0.067,5.114,0.816,11.467,1.837
	c6.36,1.021,6.576,2.178,11.77,5.445c5.184,3.267,6.643,3.536,10.446,6.463c1.449,1.115,1.735,1.436,1.767,1.519
	c0.096,0,0.501,0.116,1.962,0.793c4.086,1.905,3.36,1.294,6.867,2.994c3.502,1.702,6.495,4.083,6.495,4.083
	S900.323,131.082,897.692,131.355z M556.793,200.509c0,0-0.389,0.52,1.658-1.115c2.046-1.629-0.954-0.067-2.123-0.408
	c-1.166-0.34-1.536-0.886-1.166-2.38c0.366-1.5-0.148-1.5-1.391-3.472c0,0-0.659-0.405-2.043,0.408
	c-1.388,0.819-2.191-0.813-3.874-0.203c-1.68,0.61-3.508,0.34-4.532,2.859c-1.018,2.518-2.191,0.883-2.554,2.923
	c-0.369,2.043-3.511,3.129-3.511,3.129s1.246,1.227,2.194,2.383c0.948,1.157,0.292,0.411,1.24,4.221
	c0.951,3.81,1.612,3.469,2.926,4.012c1.317,0.543,3.36,1.84,3.36,1.84s-1.24-0.752-1.24,1.291s-1.975,3.469-1.757,6.463
	c0.219,2.994-2.701,5.782-0.363,6.058c2.335,0.27,1.606,1.291,4.163,1.972c2.56,0.681,4.015,1.156,7.748,1.156
	c3.723,0,1.677-1.429,1.166-3.54c-0.514-2.107-0.803-3.469-0.948-5.782c-0.148-2.313-1.025-1.703-1.609-3.128
	c-0.585-1.433,0.292-2.249,2.043-2.249c1.754,0,1.979-0.067,1.025-1.632c-0.951-1.568-0.36-2.178-1.539-2.859
	c-1.163-0.681-1.677,2.249-1.677,2.249s-0.729-0.681-0.437-3.54c0.292-2.859,0.511-1.497-0.363-2.043
	c-0.88-0.543-1.394,0.135-2.56-1.767c-1.169-1.908-0.144-1.497-1.532-3.81c-1.391-2.313-0.662-1.092,0.874-1.092
	c1.533,0,0.729-0.34,0-1.086c-0.729-0.752-1.24-1.908,0.729-1.77c1.975,0.135,4.533,0.543,5.48,0.614
	C557.13,200.278,556.793,200.509,556.793,200.509z M284.199,95.671c-0.674,1.163,1.144,2.653,2.461,2.191
	c1.317-0.462,1.747,0.051,2.496-0.549c0.748-0.594,0.819-1.475-0.071-2.338c-0.89-0.864-0.53-1.369-0.678-1.462
	C286.727,92.485,284.877,94.508,284.199,95.671z M645.397,20.652c-1.975,0.067-4.169,0.138-2.339,0.748
	c1.828,0.61,1.095,3.675,4.6,1.972c3.508-1.703,2.778-1.837,5.191-2.859c2.409-1.018,1.015-0.53-1.899-1.291
	C649.123,18.746,647.369,20.584,645.397,20.652z"/>
</svg>
